<svg id="Capa_1" data-name="Capa 1" xmlns="http://www.w3.org/2000/svg" viewBox="0 0 512 503.8"><path d="M386.35 336.17A210.88 210.88 0 00423.76 216c0-117-94.85-211.9-211.88-211.9S0 99 0 216s94.84 211.85 211.88 211.85a210.91 210.91 0 00129.64-44.34L465.9 507.9l46.1-46.09zm-174.47 46.05c-91.67 0-166.24-74.58-166.24-166.25S120.21 49.73 211.88 49.73 378.12 124.31 378.12 216s-74.57 166.22-166.24 166.22z" transform="translate(0 -4.1)"/><path d="M234.69 192.32v-81.49h-45.63v81.49h-81.49v45.64h81.49v81.49h45.63v-81.49h81.5v-45.64h-81.5z"/></svg>