<svg aria-hidden="true" style="position: absolute; width: 0; height: 0; overflow: hidden;" version="1.1" xmlns="http://www.w3.org/2000/svg" xmlns:xlink="http://www.w3.org/1999/xlink">
<defs>

<symbol id="burger" viewBox="0 0 32 32">
<path d="M0 5.032c0-1.419 1.161-2.581 2.581-2.581h26.839c1.419 0 2.581 1.161 2.581 2.581s-1.161 2.581-2.581 2.581h-26.839c-1.419 0-2.581-1.161-2.581-2.581zM29.419 13.419h-26.839c-1.419 0-2.581 1.161-2.581 2.581s1.161 2.581 2.581 2.581h26.839c1.419 0 2.581-1.161 2.581-2.581s-1.161-2.581-2.581-2.581zM29.419 24.387h-26.839c-1.419 0-2.581 1.161-2.581 2.581s1.161 2.581 2.581 2.581h26.839c1.419 0 2.581-1.161 2.581-2.581s-1.161-2.581-2.581-2.581z"></path>
</symbol>
<symbol id="close" viewBox="0 0 32 32">
<path d="M21.281 16.004l9.897-9.905c1.094-1.094 1.094-2.87 0-3.955l-1.321-1.321c-1.094-1.094-2.87-1.094-3.955 0l-9.897 9.897-9.905-9.897c-1.094-1.094-2.861-1.094-3.955 0l-1.321 1.321c-1.094 1.094-1.094 2.861 0 3.955l9.905 9.905-9.905 9.897c-1.094 1.094-1.094 2.87 0 3.955l1.321 1.321c1.094 1.094 2.87 1.094 3.955 0l9.897-9.897 9.905 9.897c1.094 1.094 2.87 1.094 3.955 0l1.321-1.321c1.094-1.094 1.094-2.87 0-3.955l-9.897-9.897z"></path>
</symbol>

<symbol id="name-icon" viewBox="0 0 32 32">
<path d="M16 16c4.42 0 8-3.58 8-8s-3.58-8-8-8c-4.42 0-8 3.58-8 8s3.58 8 8 8zM16 20c-5.34 0-16 2.68-16 8v2c0 1.1 0.9 2 2 2h28c1.1 0 2-0.9 2-2v-2c0-5.32-10.66-8-16-8z"></path>
</symbol>
<symbol id="phone-icon" viewBox="0 0 32 32">
<path d="M24.881 19.774l-3.268-0.373c-0.785-0.090-1.557 0.18-2.11 0.733l-2.367 2.367c-3.641-1.853-6.626-4.825-8.478-8.478l2.38-2.38c0.553-0.553 0.823-1.325 0.733-2.11l-0.373-3.242c-0.154-1.299-1.248-2.277-2.56-2.277h-2.226c-1.454 0-2.663 1.209-2.573 2.663 0.682 10.987 9.469 19.761 20.443 20.443 1.454 0.090 2.663-1.119 2.663-2.573v-2.226c0.013-1.299-0.965-2.393-2.264-2.547z"></path>
</symbol>
<symbol id="close-icon" viewBox="0 0 32 32">
<path d="M26.667 7.303l-1.97-1.97-7.808 7.808-7.808-7.808-1.97 1.97 7.808 7.808-7.808 7.808 1.97 1.97 7.808-7.808 7.808 7.808 1.97-1.97-7.808-7.808 7.808-7.808z"></path>
</symbol>


<!--  -->
<symbol id="location" viewBox="0 0 18 18">
<path d="M9 1.446a6.268 6.268 0 016.268 6.268c0 2.649-1.861 5.535-5.535 8.69a1.125 1.125 0 01-1.468 0l-.243-.212c-3.511-3.073-5.29-5.888-5.29-8.478A6.268 6.268 0 019 1.446zm0 .965a5.304 5.304 0 00-5.304 5.303c0 2.252 1.638 4.845 4.96 7.751l.24.208a.16.16 0 00.209 0c3.481-2.99 5.199-5.654 5.199-7.959A5.304 5.304 0 009 2.411zm0 2.893a2.41 2.41 0 110 4.821 2.41 2.41 0 010-4.821zm0 .964A1.446 1.446 0 109 9.16a1.446 1.446 0 000-2.893z"></path>
</symbol>
<!-- =========advantages===========================================  -->
<symbol id="lamp" viewBox="0 0 72 72" fill="none">
<circle cx="36" cy="36" r="35" stroke="#FEC830" stroke-width="1.5" stroke-linecap="round" stroke-linejoin="round" stroke-dasharray="2 5"/>
<circle cx="36" cy="36" r="26.9231" fill="#AA43A2"/>
<g clip-path="url(#clip0)">
<path d="M36.0332 22.672C29.9139 22.672 24.9144 27.6714 24.9144 33.7908C24.9144 36.9904 26.3143 40.0701 28.674 42.1499C30.4338 43.9097 30.2738 47.6693 30.2339 47.7092C30.2339 47.9092 30.2738 48.0692 30.4338 48.2292C30.5538 48.3492 30.7538 48.4292 30.9138 48.4292H41.1127C41.3126 48.4292 41.4726 48.3492 41.5926 48.2292C41.7126 48.1092 41.7926 47.9092 41.7926 47.7092C41.7926 47.6693 41.5926 43.9097 43.3524 42.1499C43.3924 42.1099 43.4324 42.0699 43.4724 42.0299C45.7922 39.9101 47.152 36.9104 47.152 33.7908C47.152 27.6714 42.1526 22.672 36.0332 22.672ZM42.4325 41.11C42.3925 41.15 42.3125 41.23 42.3125 41.2699C40.7527 42.9498 40.4727 45.7095 40.4327 47.0293H31.5937C31.5537 45.7095 31.2737 42.8298 29.5939 41.11C27.4741 39.2702 26.2343 36.5905 26.2343 33.7508C26.2343 28.3514 30.5938 23.9918 35.9932 23.9918C41.3926 23.9918 45.7522 28.3514 45.7522 33.7508C45.7522 36.5905 44.5523 39.2702 42.4325 41.11Z" fill="#FEC830"/>
<path d="M35.9929 25.5116C35.633 25.5116 35.313 25.8316 35.313 26.1916C35.313 26.5515 35.633 26.8715 35.9929 26.8715C40.0325 26.8715 43.2721 30.1511 43.2721 34.1507C43.2721 34.5107 43.5921 34.8306 43.952 34.8306C44.312 34.8306 44.632 34.5107 44.632 34.1507C44.672 29.3912 40.7924 25.5116 35.9929 25.5116Z" fill="#FEC830"/>
<path d="M40.4327 49.1891H31.5537C30.6338 49.1891 29.8739 49.949 29.8739 50.8689C29.8739 51.7888 30.6338 52.5487 31.5537 52.5487H40.3927C41.3526 52.5087 42.1126 51.7888 42.1126 50.8689C42.1126 49.949 41.3526 49.1891 40.4327 49.1891ZM40.4327 51.1489H31.5537C31.3937 51.1489 31.2338 51.0289 31.2338 50.8289C31.2338 50.6289 31.3537 50.5089 31.5537 50.5089H40.3927C40.5527 50.5089 40.7127 50.6289 40.7127 50.8289C40.7127 51.0289 40.5927 51.1489 40.4327 51.1489Z" fill="#FEC830"/>
<path d="M39.1127 53.2286H32.8734C31.9535 53.2286 31.1936 53.9885 31.1936 54.9084C31.1936 55.8283 31.9535 56.5882 32.8734 56.5882H39.1127C40.0326 56.5882 40.7926 55.8283 40.7926 54.9084C40.7926 53.9485 40.0326 53.2286 39.1127 53.2286ZM39.1127 55.1884H32.8734C32.7134 55.1884 32.5535 55.0684 32.5535 54.8684C32.5535 54.6685 32.6734 54.5485 32.8734 54.5485H39.1127C39.2727 54.5485 39.4327 54.6685 39.4327 54.8684C39.4327 55.0684 39.2727 55.1884 39.1127 55.1884Z" fill="#FEC830"/>
<path d="M35.9929 19.3523C36.3929 19.3523 36.6728 19.0323 36.6728 18.6724V14.0329C36.6728 13.6729 36.3529 13.353 35.9929 13.353C35.633 13.353 35.313 13.6729 35.313 14.0329V18.6724C35.313 19.0323 35.633 19.3523 35.9929 19.3523Z" fill="#FEC830"/>
<path d="M47.312 16.7926C46.9921 16.5526 46.5921 16.6726 46.3921 16.9526L43.8324 20.7922C43.5924 21.1121 43.6724 21.5521 43.9924 21.7521C44.1124 21.8321 44.2324 21.8721 44.3523 21.8721C44.5923 21.8721 44.7923 21.7521 44.9123 21.5521L47.472 17.7125C47.712 17.4325 47.632 16.9926 47.312 16.7926Z" fill="#FEC830"/>
<path d="M27.8741 21.7121C27.9941 21.7121 28.1141 21.6721 28.2341 21.5921C28.554 21.3921 28.634 20.9521 28.4341 20.6322L25.9543 16.7526C25.7543 16.4326 25.3144 16.3527 24.9944 16.5526C24.6745 16.7526 24.5945 17.1926 24.7945 17.5125L27.2742 21.3921C27.4342 21.6321 27.6341 21.7121 27.8741 21.7121Z" fill="#FEC830"/>
<path d="M23.0346 25.9516L18.995 23.7519C18.675 23.5919 18.2351 23.7119 18.0751 24.0318C17.8751 24.3518 17.9951 24.7917 18.3551 24.9517L22.3946 27.1515C22.5146 27.1915 22.5946 27.2315 22.7146 27.2315C22.9546 27.2315 23.1945 27.1115 23.3145 26.8715C23.4745 26.5516 23.3545 26.1116 23.0346 25.9516Z" fill="#FEC830"/>
<path d="M53.9512 24.0318C53.7912 23.7119 53.3512 23.5919 53.0313 23.7519L48.9517 25.9516C48.6318 26.1116 48.5118 26.5516 48.6718 26.8715C48.7917 27.1115 49.0317 27.2315 49.2717 27.2315C49.3917 27.2315 49.5117 27.1915 49.5917 27.1515L53.6712 24.9517C53.9912 24.7917 54.1112 24.3518 53.9512 24.0318Z" fill="#FEC830"/>
</g>
<defs>
<clipPath id="clip0">
<rect width="43.2353" height="43.2353" fill="white" transform="translate(14.3824 13.353)"/>
</clipPath>
</defs>
</symbol>

<symbol id="menthor"  viewBox="0 0 72 72" fill="none" >
<circle cx="36" cy="36" r="35" stroke="#FEC830" stroke-width="1.5" stroke-linecap="round" stroke-linejoin="round" stroke-dasharray="2 5"/>
<circle cx="36" cy="36" r="26.9231" fill="#AA43A2"/>
<path d="M31.4354 33.1781C31.7984 33.1781 32.0927 32.8839 32.0927 32.5209V30.9469C32.0927 30.5838 31.7984 30.2896 31.4354 30.2896C31.0724 30.2896 30.7781 30.5838 30.7781 30.9469V32.5209C30.7781 32.8839 31.0724 33.1781 31.4354 33.1781Z" fill="#FEC830"/>
<path d="M39.7789 30.2896C39.4159 30.2896 39.1216 30.5838 39.1216 30.9469V32.5209C39.1216 32.8839 39.4159 33.1781 39.7789 33.1781C40.1419 33.1781 40.4362 32.8839 40.4362 32.5209V30.9469C40.4362 30.5839 40.1419 30.2896 39.7789 30.2896Z" fill="#FEC830"/>
<path d="M35.607 38.4521C36.9704 38.4521 38.0795 37.343 38.0795 35.9796C38.0795 35.6166 37.7852 35.3224 37.4222 35.3224C37.0592 35.3224 36.765 35.6166 36.765 35.9796C36.765 36.6181 36.2455 37.1375 35.607 37.1375C34.9685 37.1375 34.4491 36.6181 34.4491 35.9796C34.4491 35.6166 34.1548 35.3224 33.7918 35.3224C33.4288 35.3224 33.1345 35.6166 33.1345 35.9796C33.1344 37.343 34.2437 38.4521 35.607 38.4521Z" fill="#FEC830"/>
<path d="M43.2899 44.1026H42.309L39.8059 42.7426V41.5689C42.2675 40.3074 43.9867 38.0324 44.5805 35.4346C46.3433 35.2235 47.714 33.719 47.714 31.9003C47.714 30.9349 47.3276 30.058 46.7015 29.4162C46.7938 29.3029 46.8494 29.1585 46.8494 29.0009V23.8517C46.8494 21.0022 44.6223 18.633 41.8176 18.4136C41.0374 17.3677 39.7908 16.6892 38.3886 16.6892H31.4362C27.5371 16.6892 24.3649 19.8614 24.3649 23.7605V29.0009C24.3649 29.1567 24.4194 29.2994 24.5098 29.4121C23.8837 30.0537 23.5002 30.9314 23.5002 31.9003C23.5002 33.719 24.871 35.2235 26.6337 35.4346C27.2267 38.0281 28.9426 40.3052 31.4084 41.5689V42.7426L28.9052 44.1026H27.9508C25.4729 44.1026 23.4569 46.1185 23.4569 48.5964V55.176C23.4569 55.5391 23.7512 55.8333 24.1142 55.8333H26.8103C27.1733 55.8333 27.4676 55.5391 27.4676 55.176C27.4676 54.813 27.1733 54.5187 26.8103 54.5187H24.7715V48.5965C24.7715 46.8435 26.1977 45.4172 27.9508 45.4172H28.854L32.9029 48.435C33.0423 48.5389 33.2278 48.5875 33.4109 48.555L33.7763 49.987L32.8861 54.5187H29.8777C29.5147 54.5187 29.2204 54.813 29.2204 55.176C29.2204 55.5391 29.5147 55.8333 29.8777 55.8333H47.1264C47.4895 55.8333 47.7837 55.5391 47.7837 55.176V48.5965C47.7837 46.1185 45.7678 44.1026 43.2899 44.1026ZM40.9256 44.847L37.9917 47.0337C37.6419 46.6685 36.8553 45.8473 36.6244 45.6063L39.1833 43.9004L40.9256 44.847ZM36.6953 47.5808L36.2539 49.3106H34.9605L34.5191 47.5808L35.6072 46.4447L36.6953 47.5808ZM32.723 42.7817V42.1219C33.6585 42.4318 34.6577 42.5842 35.6072 42.5842C36.5692 42.5842 37.5669 42.4281 38.4914 42.1219V42.7817L35.6072 44.7044L32.723 42.7817ZM43.3791 33.5911C43.3791 33.6564 43.326 33.7095 43.2607 33.7095H38.0299C37.9646 33.7095 37.9115 33.6565 37.9115 33.5911V29.7766C37.9115 29.7113 37.9646 29.6582 38.0299 29.6582H43.2607C43.326 29.6582 43.3791 29.7112 43.3791 29.7766V33.5911ZM46.3995 31.9003C46.3995 32.9863 45.6243 33.8945 44.5982 34.1012C44.659 33.9424 44.6937 33.7709 44.6937 33.5911V29.7766C44.6937 29.7577 44.6916 29.7393 44.6909 29.7205C45.6706 29.9616 46.3995 30.8472 46.3995 31.9003ZM45.5349 23.8517V28.3436H44.5755C44.2437 26.9059 43.5044 25.4883 42.6535 24.5002C42.6541 24.4916 42.6542 24.4831 42.6548 24.4746C42.6698 24.2118 42.6647 24.319 42.6647 20.9653C42.6647 20.6374 42.6208 20.245 42.5237 19.8766C42.5229 19.8738 42.5225 19.8708 42.5217 19.868C44.2558 20.3639 45.5349 21.9703 45.5349 23.8517ZM42.2723 26.2002C42.6881 26.8555 43.0094 27.5723 43.2196 28.3436H40.7324C41.4039 27.7713 41.9377 27.039 42.2723 26.2002ZM24.8148 31.9003C24.8148 30.8442 25.5364 29.9593 26.5236 29.7198C26.5228 29.7389 26.5207 29.7574 26.5207 29.7766V33.5911C26.5207 33.7709 26.5554 33.9424 26.6161 34.1011C25.59 33.8945 24.8148 32.9863 24.8148 31.9003ZM25.6795 28.3436V23.7605C25.6795 20.5862 28.262 18.0038 31.4362 18.0038H38.3888C40.0082 18.0038 41.3502 19.3177 41.3502 20.9652V24.156C41.3502 26.4478 39.4889 28.3436 37.1626 28.3436C36.1146 28.3436 26.2588 28.3436 25.6795 28.3436ZM34.6114 29.6582H36.603C36.5947 29.7587 36.597 29.6421 36.597 31.0265H34.6174C34.6174 29.6416 34.6197 29.7585 34.6114 29.6582ZM27.8352 33.5911V29.7766C27.8352 29.7113 27.8884 29.6582 27.9536 29.6582H33.1844C33.2497 29.6582 33.3028 29.7112 33.3028 29.7766V33.5911C33.3028 33.6564 33.2497 33.7095 33.1844 33.7095H27.9536C27.8884 33.7095 27.8352 33.6564 27.8352 33.5911ZM27.889 35.0207C27.9105 35.0217 27.9318 35.024 27.9536 35.024H33.1844C33.9746 35.024 34.6174 34.3812 34.6174 33.591V32.341H36.597V33.591C36.597 34.3812 37.2398 35.024 38.03 35.024H43.2608C43.2826 35.024 43.3039 35.0217 43.3255 35.0207C42.5426 38.7414 39.272 41.2696 35.6072 41.2696C31.9267 41.2696 28.6694 38.7297 27.889 35.0207ZM33.2227 47.0337L30.2889 44.847L32.031 43.9004L34.5899 45.6063L33.2227 47.0337ZM34.2258 54.5187L34.9907 50.6252H36.2235L36.9883 54.5187H34.2258ZM46.4691 54.5187H38.3279L37.4378 49.9876L37.8034 48.5549C37.9886 48.5877 38.1735 48.5378 38.3115 48.4349L42.3603 45.4171H43.2898C45.0428 45.4171 46.469 46.8434 46.469 48.5964V54.5187H46.4691Z" fill="#FEC830"/>
</symbol>


<symbol id="children"  viewBox="0 0 72 72" fill="none" >
<circle cx="36" cy="36" r="35" stroke="#FEC830" stroke-width="1.5" stroke-linecap="round" stroke-linejoin="round" stroke-dasharray="2 5"/>
<circle cx="36" cy="36" r="26.9231" fill="#AA43A2"/>
<g clip-path="url(#clip0)">
<path d="M44.743 39.4052C45.7943 39.4052 46.6495 38.5499 46.6495 37.4987C46.6495 37.1777 46.3894 36.9176 46.0685 36.9176C45.7476 36.9176 45.4874 37.1777 45.4874 37.4987C45.4874 37.9092 45.1534 38.2431 44.743 38.2431C44.3325 38.2431 43.9985 37.9091 43.9985 37.4987C43.9985 37.1777 43.7384 36.9176 43.4175 36.9176C43.0966 36.9176 42.8364 37.1777 42.8364 37.4987C42.8363 38.5499 43.6917 39.4052 44.743 39.4052Z" fill="#FEC830"/>
<path d="M47.7896 36.1459C48.1104 36.1459 48.3706 35.8858 48.3706 35.5648V34.9577C48.6575 34.9221 48.8796 34.6775 48.8796 34.381C48.8796 34.0601 48.6195 33.8 48.2986 33.8H47.7896C47.4687 33.8 47.2085 34.0601 47.2085 34.381V35.5648C47.2085 35.8858 47.4687 36.1459 47.7896 36.1459Z" fill="#FEC830"/>
<path d="M41.1154 34.9577V35.5649C41.1154 35.8859 41.3756 36.146 41.6965 36.146C42.0174 36.146 42.2776 35.8859 42.2776 35.5649V34.3811C42.2776 34.0601 42.0174 33.8 41.6965 33.8H41.1875C40.8666 33.8 40.6064 34.0601 40.6064 34.3811C40.6064 34.6775 40.8286 34.9222 41.1154 34.9577Z" fill="#FEC830"/>
<path d="M53.4273 35.6693C53.5923 35.3202 53.685 34.9307 53.685 34.5198C53.685 33.8359 53.429 33.211 53.0084 32.7347C53.0751 32.6401 53.1147 32.525 53.1147 32.4003C53.1147 30.6841 53.2003 29.6663 52.6841 28.1902C52.5781 27.8872 52.2466 27.7273 51.9437 27.8335C51.6408 27.9394 51.4811 28.2709 51.587 28.5738C52.009 29.7802 51.9525 30.617 51.9525 31.8193C51.2114 31.8193 49.2148 31.8193 48.373 31.8193C46.6918 31.8193 45.324 30.4515 45.324 28.7704C45.324 28.4494 45.0638 28.1893 44.7429 28.1893C44.422 28.1893 44.1618 28.4494 44.1618 28.7704C44.1618 30.4515 42.794 31.8193 41.1128 31.8193H38.5881H37.5333V30.7368C37.5333 27.1257 40.4711 24.1879 44.0822 24.1879C44.1261 24.1879 44.1618 24.2236 44.1618 24.2676C44.1618 24.5885 44.422 24.8486 44.7429 24.8486C45.0638 24.8486 45.324 24.5885 45.324 24.2676C45.324 24.2236 45.3597 24.1879 45.4036 24.1879C47.2967 24.188 49.0965 25.0071 50.3416 26.4351C50.5525 26.677 50.9196 26.702 51.1615 26.4912C51.4033 26.2803 51.4284 25.9133 51.2175 25.6714C49.7517 23.9902 47.6326 23.026 45.4037 23.0259C45.161 23.0259 44.9344 23.0959 44.743 23.2166C44.5515 23.0959 44.3249 23.0259 44.0823 23.0259C39.8304 23.0259 36.3713 26.485 36.3713 30.7369V32.4004C36.3713 32.525 36.4109 32.6402 36.4776 32.7348C36.2825 32.9557 36.1228 33.2083 36.0078 33.4843C35.938 32.6274 35.5057 31.8749 34.8602 31.3826V29.169C34.8602 24.8106 31.3145 21.2648 26.9561 21.2648C25.874 21.2648 26.3076 21.2462 24.8108 21.3632C22.7461 21.5243 20.8984 22.6292 19.7799 24.348L18.0301 23.7887C17.6675 23.6725 17.2911 23.9323 17.2728 24.3144C17.2645 24.4895 17.0892 28.3807 17.7987 31.091C16.832 31.5758 16.1666 32.576 16.1666 33.7292C16.1666 35.2255 17.2866 36.4652 18.7323 36.6541C19.0962 38.2154 19.9559 39.6326 21.1856 40.6837C21.5081 40.9593 21.8521 41.2045 22.2124 41.4201H20.9897C18.9807 41.4201 17.3463 43.0545 17.3463 45.0634V50.1553C17.3463 50.4762 17.6065 50.7363 17.9274 50.7363H18.8926C19.2135 50.7363 19.4737 50.4762 19.4737 50.1553C19.4737 49.8343 19.2135 49.5742 18.8926 49.5742H18.5084V45.0634C18.5084 43.6953 19.6215 42.5822 20.9897 42.5822H22.68C22.9688 44.2954 24.5182 45.5836 26.3284 45.4668C27.9671 45.3612 29.2654 44.1283 29.5262 42.5822H31.2168C32.585 42.5822 33.6981 43.6953 33.6981 45.0634V49.5742H21.6043C21.2834 49.5742 21.0232 49.8343 21.0232 50.1553C21.0232 50.4762 21.2834 50.7363 21.6043 50.7363H34.2793C34.6002 50.7363 34.8603 50.4762 34.8603 50.1553V45.0634C34.8603 44.5796 34.7647 44.1179 34.5927 43.6951H35.5263C36.1108 43.6951 36.6683 43.5783 37.1779 43.3681C36.8194 43.9224 36.6104 44.582 36.6104 45.2898V50.1553C36.6104 50.4762 36.8705 50.7363 37.1914 50.7363H52.3337C52.6546 50.7363 52.9148 50.4762 52.9148 50.1553V45.2898C52.9148 44.5908 52.7109 43.9388 52.3605 43.3887C52.8559 43.5856 53.3952 43.6951 53.96 43.6951H55.2522C55.5731 43.6951 55.8333 43.435 55.8333 43.114V39.5554C55.8333 37.9 54.8739 36.395 53.4273 35.6693ZM41.1129 32.9815C42.6573 32.9815 44.0101 32.146 44.7431 30.9031C45.476 32.146 46.8288 32.9815 48.3732 32.9815H50.9846C51.8328 32.9815 52.5229 33.6715 52.5229 34.5198C52.5229 34.9346 52.3572 35.3108 52.0894 35.5877C51.7835 35.9038 51.3592 36.0741 50.9229 36.0564C50.6291 36.0428 50.3736 36.2518 50.3253 36.5411C49.8832 39.1839 47.597 41.2605 44.7431 41.2605C42.7267 41.2605 40.8432 40.1945 39.8298 38.4218C39.8204 38.3978 39.8095 38.3743 39.7969 38.3517C39.5603 37.9273 39.3808 37.479 39.2611 37.0138C39.2587 37.0045 39.2567 36.9951 39.2544 36.9858C39.2214 36.8547 39.19 36.7156 39.1608 36.541C39.1126 36.2524 38.856 36.043 38.5632 36.0563C37.6936 36.0917 36.9632 35.3901 36.9632 34.5196C36.9632 33.6714 37.6533 32.9813 38.5015 32.9813C38.5227 32.9813 38.5437 32.9822 38.5647 32.983C38.5895 32.984 38.6139 32.9834 38.6381 32.9813H41.1129V32.9815ZM44.7526 44.8668C43.647 44.8668 42.7476 43.9673 42.7476 42.8617V42.3208V42.1255C43.407 42.3278 44.0957 42.4227 44.743 42.4227C45.4115 42.4227 46.1077 42.3213 46.7575 42.1197V42.8618C46.7575 43.9329 45.9134 44.8105 44.8555 44.8643C44.8215 44.866 44.7871 44.8668 44.7526 44.8668ZM40.1597 41.7397C40.1595 41.7397 40.1592 41.7397 40.159 41.7397C39.7607 41.7399 39.378 41.807 39.0203 41.9286C39.3794 41.4432 39.6395 40.8805 39.7715 40.2706C39.9419 40.4521 40.1221 40.6256 40.3129 40.7886C40.7056 41.1242 41.133 41.4113 41.5854 41.6475V41.7397H40.1597ZM47.9197 41.6379C48.5775 41.292 49.1793 40.8407 49.7146 40.2707C49.845 40.8733 50.1008 41.4297 50.4534 41.9112C49.7899 41.6969 49.4438 41.7397 47.9198 41.7397V41.6379H47.9197ZM18.4146 25.1316L19.8641 25.5948C20.1282 25.679 20.4153 25.5652 20.5495 25.3224C21.4397 23.7119 23.0666 22.6648 24.9013 22.5217C26.362 22.4077 25.9191 22.4269 26.9561 22.4269C30.6736 22.4269 33.6981 25.4513 33.6981 29.1689V30.8474C33.1904 30.738 33.351 30.7816 25.382 30.7816C24.8026 30.7816 24.2477 30.6528 23.7477 30.4203C22.6476 29.9088 21.8134 28.8953 21.569 27.6462C21.4757 27.169 20.8883 27.0254 20.5745 27.3608C19.7363 28.2569 19.1503 29.3183 18.8321 30.4199C18.4326 28.6126 18.4003 26.3063 18.4146 25.1316ZM19.786 35.9997C19.739 35.7187 19.4958 35.5145 19.2131 35.5145C19.2053 35.5145 19.1974 35.5146 19.1895 35.5149C19.1653 35.5159 19.141 35.5169 19.1165 35.5169C18.1307 35.5169 17.3287 34.7149 17.3287 33.7292C17.3287 32.76 18.1013 31.9765 19.0516 31.943C19.0539 31.9429 19.0563 31.9429 19.0587 31.9428C19.1019 31.9415 19.1451 31.9415 19.1881 31.9433C19.189 31.9433 19.19 31.9433 19.1909 31.9434C19.1927 31.9435 19.1945 31.9432 19.1962 31.9433C19.4861 31.9523 19.738 31.7452 19.786 31.4586C19.9171 30.6744 20.1926 29.9283 20.5965 29.2519C20.6542 29.1553 20.7146 29.0601 20.7775 28.9665C21.5773 30.7429 23.3657 31.9438 25.382 31.9438H33.1522H33.1526C33.4347 31.9568 33.7285 32.0419 33.9818 32.1928C33.9863 32.1955 33.9911 32.1973 33.9956 32.1998C34.5133 32.5129 34.8564 33.08 34.8564 33.7291C34.8564 34.7149 34.0544 35.5168 33.0686 35.5168C33.0441 35.5168 33.0198 35.5158 32.9955 35.5149C32.7032 35.5044 32.4474 35.7109 32.399 35.9996C31.8725 39.1485 29.1629 41.3314 26.0925 41.3314C22.9985 41.3315 20.3088 39.1261 19.786 35.9997ZM25.9867 44.3098C24.8497 44.2529 23.9226 43.3685 23.8063 42.2406C23.8054 42.2322 23.8049 42.2236 23.8042 42.215C23.8018 42.1899 23.7999 42.1647 23.7984 42.1393C24.5636 42.3835 25.3615 42.4936 26.0927 42.4936C26.8376 42.4936 27.6419 42.3797 28.409 42.1321C28.3387 43.3976 27.2538 44.3731 25.9867 44.3098ZM31.2169 41.4201H29.9729C30.3331 41.2045 30.6772 40.9593 30.9996 40.6837C32.2293 39.6327 33.089 38.2154 33.4528 36.6541C34.5329 36.513 35.431 35.7853 35.8162 34.8023C35.8483 35.1094 35.932 35.4014 36.0586 35.6693C34.612 36.395 33.6527 37.9 33.6527 39.5554V42.3567C33.0068 41.7749 32.1526 41.4201 31.2169 41.4201ZM34.8148 42.533V39.5554C34.8148 38.2624 35.6136 37.094 36.7922 36.6102C37.1782 36.9253 37.643 37.1234 38.1076 37.1916C38.2418 37.7522 38.4531 38.2997 38.7082 38.7822V39.3507C38.7082 41.1054 37.2808 42.5329 35.5261 42.5329H34.8148V42.533ZM51.7526 49.5742H37.7724V45.2898C37.7724 43.9731 38.8437 42.9018 40.1605 42.9018H41.5858C41.6071 44.6177 43.0099 46.0289 44.7526 46.0289C46.4754 46.0289 47.8977 44.6394 47.9195 42.9018H49.3645C50.6813 42.9018 51.7525 43.9731 51.7525 45.2898V49.5742H51.7526ZM54.6712 42.533H53.9598C52.2052 42.533 50.7777 41.1055 50.7777 39.3508V38.7823C51.0366 38.2925 51.2458 37.7451 51.3783 37.1917C51.8149 37.1276 52.2551 36.9502 52.638 36.6528C52.6565 36.6385 52.6756 36.6251 52.6937 36.6103C53.8724 37.0941 54.6712 38.2624 54.6712 39.5554V42.533Z" fill="#FEC830"/>
<path d="M26.0926 39.1312C27.2299 39.1312 28.1552 38.2059 28.1552 37.0686C28.1552 36.7476 27.895 36.4875 27.5741 36.4875C27.2532 36.4875 26.9931 36.7476 26.9931 37.0686C26.9931 37.5651 26.5891 37.9691 26.0926 37.9691C25.596 37.9691 25.192 37.5651 25.192 37.0686C25.192 36.7476 24.9319 36.4875 24.611 36.4875C24.2901 36.4875 24.0299 36.7476 24.0299 37.0686C24.03 38.2058 24.9553 39.1312 26.0926 39.1312Z" fill="#FEC830"/>
<path d="M22.6874 33.0222C22.3665 33.0222 22.1063 33.2823 22.1063 33.6033V34.8879C22.1063 35.2089 22.3665 35.469 22.6874 35.469C23.0083 35.469 23.2684 35.2089 23.2684 34.8879V33.6033C23.2684 33.2824 23.0083 33.0222 22.6874 33.0222Z" fill="#FEC830"/>
<path d="M29.4978 35.469C29.8187 35.469 30.0789 35.2089 30.0789 34.8879V33.6033C30.0789 33.2823 29.8187 33.0222 29.4978 33.0222C29.1769 33.0222 28.9167 33.2823 28.9167 33.6033V34.8879C28.9167 35.2089 29.1769 35.469 29.4978 35.469Z" fill="#FEC830"/>
</g>
<defs>
<clipPath id="clip0">
<rect width="39.6667" height="39.6667" fill="white" transform="translate(16.1666 16.1667)"/>
</clipPath>



</defs>
</symbol>

<symbol id="folder"  viewBox="0 0 72 72" fill="none" >
<circle cx="36" cy="36" r="35" stroke="#FEC830" stroke-width="1.5" stroke-linecap="round" stroke-linejoin="round" stroke-dasharray="2 5"/>
<circle cx="36" cy="36" r="26.9231" fill="#AA43A2"/>
<g clip-path="url(#clip0)">
<path d="M27.9118 32.8594H21.8614C21.5594 32.8594 21.3146 33.1042 21.3146 33.4063C21.3146 33.7084 21.5594 33.9532 21.8614 33.9532H27.9118C28.2138 33.9532 28.4587 33.7084 28.4587 33.4063C28.4587 33.1042 28.2138 32.8594 27.9118 32.8594Z" fill="#FEC830"/>
<path d="M27.9118 30.1411H21.8614C21.5594 30.1411 21.3146 30.3859 21.3146 30.688C21.3146 30.9901 21.5594 31.2349 21.8614 31.2349H27.9118C28.2138 31.2349 28.4587 30.9901 28.4587 30.688C28.4587 30.3859 28.2138 30.1411 27.9118 30.1411Z" fill="#FEC830"/>
<path d="M53.3466 41.2748C53.2495 41.2748 53.1639 41.2138 53.1332 41.1233C53.0291 40.8147 52.9029 40.5102 52.7581 40.2182C52.7153 40.1317 52.7326 40.0275 52.8015 39.9586C53.3161 39.4439 53.3161 38.6064 52.8015 38.0916L51.5598 36.8501C51.0451 36.3355 50.2077 36.3354 49.6927 36.8504C49.6241 36.919 49.5199 36.9363 49.4334 36.8935C49.1413 36.7486 48.8368 36.6224 48.5285 36.5184C48.4377 36.4878 48.3767 36.4019 48.3767 36.3049C48.3767 35.5771 47.7845 34.9849 47.0567 34.9849H45.3007C44.5729 34.9849 43.9807 35.5771 43.9807 36.3049C43.9807 36.4019 43.9197 36.4877 43.8291 36.5183C43.5207 36.6224 43.2161 36.7486 42.924 36.8934C42.8376 36.9364 42.7333 36.9191 42.6644 36.8501C42.1498 36.3355 41.3123 36.3355 40.7976 36.8501L39.556 38.0917C39.0414 38.6064 39.0414 39.4439 39.5563 39.9588C39.6248 40.0273 39.6422 40.1315 39.5993 40.2181C39.4546 40.5102 39.3284 40.8148 39.2243 41.1231C39.1937 41.2138 39.1079 41.2747 39.0109 41.2747C38.283 41.2747 37.6908 41.8669 37.6908 42.5948V44.3507C37.6908 45.0785 38.283 45.6707 39.0109 45.6707C39.1079 45.6707 39.1936 45.7317 39.2242 45.8223C39.3284 46.1307 39.4546 46.4351 39.5993 46.7274C39.6422 46.8139 39.6248 46.918 39.5561 46.9869C39.0401 47.5027 39.04 48.3379 39.5561 48.8538L40.7976 50.0953C41.3135 50.6113 42.1484 50.6115 42.6647 50.0952C42.7333 50.0266 42.8375 50.0091 42.9241 50.0522C43.2162 50.1968 43.5207 50.323 43.8291 50.4272C43.9197 50.4578 43.9807 50.5436 43.9807 50.6406C43.9807 51.3684 44.5729 51.9607 45.3007 51.9607H47.0567C47.7845 51.9607 48.3767 51.3685 48.3767 50.6406C48.3767 50.5436 48.4376 50.4578 48.5284 50.4272C48.8368 50.323 49.1413 50.1969 49.4335 50.0521C49.5199 50.0091 49.6241 50.0266 49.693 50.0953C50.2088 50.6113 51.0439 50.6114 51.5598 50.0954L52.8014 48.8538C53.3172 48.3382 53.3176 47.503 52.8012 46.9868C52.7326 46.9182 52.7153 46.8139 52.7581 46.7274C52.9029 46.4353 53.029 46.1308 53.1332 45.8224C53.1639 45.7318 53.2496 45.6708 53.3466 45.6708C54.0744 45.6708 54.6667 45.0786 54.6667 44.3507V42.5949C54.6667 41.867 54.0744 41.2748 53.3466 41.2748ZM53.5729 44.3507C53.5729 44.4755 53.4713 44.577 53.3466 44.577C52.78 44.577 52.2778 44.9369 52.0969 45.4724C52.0084 45.7346 51.9012 45.9935 51.7781 46.2417C51.5267 46.7491 51.627 47.3592 52.028 47.7603C52.1163 47.8486 52.1165 47.9919 52.028 48.0803L50.7864 49.322C50.6985 49.4099 50.5553 49.4109 50.4661 49.3217C50.0653 48.9208 49.455 48.8205 48.9479 49.072C48.6995 49.1951 48.4406 49.3023 48.1785 49.3909C47.6429 49.5716 47.2831 50.0739 47.2831 50.6405C47.2831 50.7653 47.1815 50.8669 47.0567 50.8669H45.3008C45.1761 50.8669 45.0745 50.7653 45.0745 50.6405C45.0745 50.0739 44.7146 49.5717 44.1791 49.3909C43.9169 49.3023 43.6581 49.195 43.4099 49.0721C43.2236 48.9797 43.0234 48.9348 42.8248 48.9348C42.4826 48.9348 42.1451 49.0681 41.8912 49.322C41.8033 49.4099 41.66 49.4108 41.5712 49.3219L40.3296 48.0803C40.242 47.9928 40.2403 47.8496 40.3298 47.76C40.7305 47.3593 40.8309 46.7491 40.5795 46.2418C40.4564 45.9934 40.3491 45.7345 40.2606 45.4723C40.0798 44.9368 39.5775 44.577 39.011 44.577C38.8862 44.577 38.7846 44.4754 38.7846 44.3507V42.5948C38.7846 42.4701 38.8862 42.3685 39.011 42.3685C39.5774 42.3685 40.0796 42.0086 40.2606 41.473C40.3491 41.2109 40.4564 40.952 40.5794 40.7037C40.8308 40.1962 40.7305 39.5861 40.3295 39.1852C40.2413 39.0969 40.2413 38.9533 40.3295 38.8651L41.5711 37.6235C41.6594 37.5352 41.803 37.5353 41.8914 37.6236C42.2922 38.0245 42.9023 38.1249 43.4097 37.8734C43.6581 37.7503 43.9169 37.6431 44.1791 37.5546C44.7146 37.3737 45.0744 36.8714 45.0744 36.3049C45.0744 36.1801 45.176 36.0786 45.3007 36.0786H47.0567C47.1814 36.0786 47.283 36.1802 47.283 36.3049C47.283 36.8714 47.6428 37.3736 48.1785 37.5547C48.4406 37.6431 48.6994 37.7504 48.9477 37.8735C49.4551 38.1248 50.0653 38.0245 50.4663 37.6235C50.5545 37.5352 50.6982 37.5352 50.7864 37.6235L52.028 38.865C52.1162 38.9533 52.1162 39.0969 52.0278 39.1854C51.627 39.5861 51.5267 40.1962 51.7781 40.7038C51.9011 40.9519 52.0083 41.2108 52.0969 41.4731C52.2778 42.0087 52.78 42.3685 53.3465 42.3685C53.4713 42.3685 53.5728 42.4701 53.5728 42.5948V44.3507H53.5729Z" fill="#FEC830"/>
<path d="M46.179 39.742C44.1218 39.742 42.4482 41.4156 42.4482 43.4727C42.4482 45.5299 44.1218 47.2034 46.179 47.2034C48.2361 47.2034 49.9097 45.5299 49.9097 43.4727C49.9097 41.4156 48.2361 39.742 46.179 39.742ZM46.179 46.1097C44.7249 46.1097 43.542 44.9267 43.542 43.4727C43.542 42.0188 44.7249 40.8358 46.179 40.8358C47.633 40.8358 48.8159 42.0188 48.8159 43.4727C48.8159 44.9267 47.633 46.1097 46.179 46.1097Z" fill="#FEC830"/>
<path d="M37.3012 47.9885C37.3011 47.9885 37.301 47.9885 37.301 47.9885L19.837 47.9943C19.8369 47.9943 19.8367 47.9943 19.8366 47.9943C19.0578 47.9943 18.4272 47.364 18.4272 46.5848V28.5646C18.4272 27.7875 19.0595 27.1551 19.8367 27.1551H36.663C37.6399 27.1551 38.5335 26.5811 38.9396 25.6927L40.647 21.9578C40.8757 21.4577 41.3788 21.1344 41.9287 21.1343L49.6812 21.133H49.6815C50.4602 21.133 51.0908 21.7632 51.0909 22.5424L51.0921 34.9141C51.0921 35.2162 51.337 35.4609 51.6391 35.4609C51.9411 35.4609 52.1859 35.2161 52.1859 34.914L52.1846 22.5423C52.1845 21.1591 51.0653 20.0393 49.6815 20.0393C49.6813 20.0393 49.6811 20.0393 49.681 20.0393L41.9285 20.0406C40.9518 20.0408 40.0584 20.6148 39.6522 21.5031L39.3619 22.1382L19.8373 22.1329C19.8371 22.1329 19.8369 22.1329 19.8367 22.1329C18.4534 22.1329 17.3334 23.2521 17.3334 24.6361V46.5848C17.3334 47.968 18.4526 49.088 19.8365 49.088H19.8373L37.3013 49.0822C37.6033 49.0821 37.8481 48.8372 37.848 48.5351C37.8479 48.2332 37.6031 47.9885 37.3012 47.9885ZM19.8367 23.2266H19.837L38.8619 23.2319L37.9448 25.2379C37.7161 25.7382 37.2129 26.0614 36.6629 26.0614H19.8366C19.3142 26.0614 18.8289 26.2225 18.4271 26.4972V24.6361C18.4271 23.8572 19.0574 23.2266 19.8367 23.2266Z" fill="#FEC830"/>
</g>
<defs>
<clipPath id="clip0">
<rect width="37.3333" height="37.3333" fill="white" transform="translate(17.3334 17.3333)"/>
</clipPath>
</defs>
</symbol>

<!-- ================programs====================================== -->
<symbol id="age-8-9"  viewBox="0 0 270 9" fill="none" >
<rect y="3" width="270" height="3" rx="1.5" fill="#FEC830"/>
<rect x="27" y="3" width="33" height="3" rx="1.5" fill="#AA43A2"/>
<circle cx="56.5" cy="4.5" r="4.5" fill="#FEC830"/>
<circle cx="27.5" cy="4.5" r="4.5" fill="#FEC830"/>
</symbol>

<symbol id="age-9-10" viewBox="0 0 270 9" fill="none" >
<rect y="3" width="270" height="3" rx="1.5" fill="#FEC830"/>
<rect x="54" y="3" width="32" height="3" rx="1.5" fill="#AA43A2"/>
<circle cx="86.5" cy="4.5" r="4.5" fill="#FEC830"/>
<circle cx="56.5" cy="4.5" r="4.5" fill="#FEC830"/>
</symbol>

<symbol id="age-8-10" viewBox="0 0 270 9" fill="none" >
<rect y="3" width="270" height="3" rx="1.5" fill="#FEC830"/>
<rect x="27" y="3" width="59" height="3" rx="1.5" fill="#AA43A2"/>
<circle cx="86.5" cy="4.5" r="4.5" fill="#FEC830"/>
<circle cx="27.5" cy="4.5" r="4.5" fill="#FEC830"/>
</symbol>

<symbol id="age-10"  viewBox="0 0 270 9" fill="none" >
<rect y="3.00049" width="270" height="3" rx="1.5" fill="#FEC830"/>
<rect x="86" y="3.00049" width="184" height="3" rx="1.5" fill="#AA43A2"/>
<circle cx="86.5" cy="4.50049" r="4.5" fill="#FEC830"/>
</symbol>

<symbol id="age-11" viewBox="0 0 270 9" fill="none" >
<rect y="3.00012" width="270" height="3" rx="1.5" fill="#FEC830"/>
<rect x="115" y="3.00012" width="155" height="3" rx="1.5" fill="#AA43A2"/>
<circle cx="116.5" cy="4.50012" r="4.5" fill="#FEC830"/>
</symbol>

<symbol id="age-13"  viewBox="0 0 270 10" fill="none" >
<rect x="3.05176e-05" y="3.00146" width="270" height="3" rx="1.5" fill="#FEC830"/>
<rect x="174" y="3.00098" width="96" height="3" rx="1.5" fill="#AA43A2"/>
<circle cx="175.5" cy="4.50146" r="4.5" fill="#FEC830"/>
</symbol>


<symbol id="initial"  viewBox="0 0 270 9" fill="none" >
<rect y="3" width="270" height="3" rx="1.5" fill="#FEC830"/>
<rect y="3" width="70" height="3" rx="1.5" fill="#AA43A2"/>
<circle cx="65.5" cy="4.5" r="4.5" fill="#FEC830"/>
</symbol>

<symbol id="average" viewBox="0 0 270 9" fill="none" >
<rect y="3" width="270" height="3" rx="1.5" fill="#FEC830"/>
<rect y="3" width="139" height="3" rx="1.5" fill="#AA43A2"/>
<circle cx="134.5" cy="4.5" r="4.5" fill="#FEC830"/>
</symbol>

<symbol id="difficult" viewBox="0 0 270 10" fill="none" >
<rect x="3.05176e-05" y="3.00146" width="270" height="3" rx="1.5" fill="#FEC830"/>
<rect x="3.05176e-05" y="3.00146" width="209" height="3" rx="1.5" fill="#AA43A2"/>
<circle cx="204.5" cy="4.50146" r="4.5" fill="#FEC830"/>
</symbol>


<symbol id="pr-online" viewBox="0 0 270 3" fill="none" >
<rect y="0.000488281" width="270" height="3" rx="1.5" fill="#AA43A2"/>
</symbol>

<!-- =====================partners=============================== -->

<symbol id="partner-1"  viewBox="0 0 39 40" fill="none" >
<path fill-rule="evenodd" clip-rule="evenodd" d="M5.78949 0C3.75476 0 2.10529 1.64947 2.10529 3.6842V28.444C3.16876 27.7631 4.43304 27.3684 5.78951 27.3684C7.14596 27.3684 8.41022 27.7631 9.47369 28.4439V3.6842C9.47369 1.64947 7.82422 0 5.78949 0Z" fill="#504C5C"/>
<path fill-rule="evenodd" clip-rule="evenodd" d="M33.1578 40.0002C35.1925 40.0002 36.842 38.3508 36.842 36.316L36.842 11.5562C35.7785 12.2371 34.5143 12.6318 33.1578 12.6318C31.8014 12.6318 30.5371 12.2371 29.4736 11.5562L29.4736 36.316C29.4736 38.3508 31.1231 40.0002 33.1578 40.0002Z" fill="#504C5C"/>
<path fill-rule="evenodd" clip-rule="evenodd" d="M19.4736 0C17.4389 0 15.7894 1.64948 15.7894 3.68421V14.0217C16.8529 13.3749 18.1172 12.9999 19.4736 12.9999C20.8301 12.9999 22.0944 13.3749 23.1578 14.0217V3.6842C23.1578 1.64947 21.5084 0 19.4736 0ZM23.1578 24.9781C22.0944 25.6249 20.8301 25.9999 19.4736 25.9999C18.1172 25.9999 16.8529 25.6249 15.7894 24.9781V36.3157C15.7894 38.3504 17.4389 39.9999 19.4736 39.9999C21.5084 39.9999 23.1578 38.3504 23.1578 36.3157V24.9781Z" fill="#504C5C"/>
<path fill-rule="evenodd" clip-rule="evenodd" d="M5.78946 39.9998C8.98689 39.9998 11.5789 37.4078 11.5789 34.2104C11.5789 31.0129 8.98689 28.4209 5.78946 28.4209C2.59203 28.4209 0 31.0129 0 34.2104C0 37.4078 2.59203 39.9998 5.78946 39.9998ZM4.26618 34.3968C4.17407 34.4835 4.04418 34.5268 3.8765 34.5268C3.67576 34.5268 3.52933 34.455 3.43723 34.3113C3.34512 34.1677 3.29907 33.9101 3.29907 33.5384C3.29907 33.3264 3.30734 33.16 3.32387 33.0391C3.37583 32.6584 3.55649 32.468 3.86587 32.468C4.02883 32.468 4.15872 32.5193 4.25555 32.6219C4.35238 32.7245 4.40079 32.8716 4.40079 33.0631H5.52022C5.52022 32.6071 5.3738 32.2457 5.08095 31.979C4.7881 31.7122 4.39252 31.5789 3.89421 31.5789C3.52579 31.5789 3.20697 31.6564 2.93774 31.8114C2.66851 31.9642 2.46186 32.1842 2.3178 32.4715C2.1761 32.7564 2.10525 33.0859 2.10525 33.4598V33.5077C2.10525 34.105 2.26584 34.5724 2.58703 34.9098C2.90822 35.2472 3.34749 35.4159 3.90484 35.4159C4.37954 35.4159 4.76685 35.286 5.06678 35.0261C5.36907 34.7662 5.52022 34.4333 5.52022 34.0275H4.40079C4.40315 34.1848 4.35828 34.3079 4.26618 34.3968ZM8.19481 31.6473L7.55716 33.7334L6.95139 31.6473H5.67609L7.00807 35.3817L6.91242 35.628C6.86991 35.7488 6.80379 35.832 6.71404 35.8776C6.62666 35.9255 6.49913 35.9494 6.33145 35.9494H6.17558V36.7736C6.34799 36.8192 6.51212 36.842 6.66799 36.842C7.23007 36.842 7.62211 36.6026 7.8441 36.1238L7.91141 35.9665L9.47365 31.6473H8.19481Z" fill="#504C5C"/>
<path fill-rule="evenodd" clip-rule="evenodd" d="M19.4737 13.6842C16.2762 13.6842 13.6842 16.2762 13.6842 19.4736C13.6842 22.6711 16.2762 25.2631 19.4737 25.2631C22.6711 25.2631 25.2631 22.6711 25.2631 19.4736C25.2631 16.2762 22.6711 13.6842 19.4737 13.6842ZM21.8532 20.7233C21.8862 20.8434 21.9239 20.9344 21.9663 20.9963H23.1579V20.9484C23.0541 20.8002 22.9999 20.5863 22.9952 20.3067V18.9586C22.9881 18.6283 22.8432 18.3685 22.5603 18.179C22.2775 17.9894 21.8921 17.8947 21.4042 17.8947C20.9162 17.8947 20.5143 17.9866 20.1985 18.1705C19.885 18.3544 19.7282 18.5936 19.7282 18.8882H20.9198C20.9198 18.6668 21.0612 18.5561 21.344 18.5561C21.6481 18.5561 21.8002 18.6959 21.8002 18.9755V19.1359H21.4324C20.8479 19.1359 20.4024 19.2203 20.0959 19.3892C19.7895 19.5581 19.6363 19.8076 19.6363 20.1379C19.6363 20.4006 19.7624 20.6191 20.0146 20.7936C20.2668 20.9663 20.5733 21.0526 20.9339 21.0526C21.3275 21.0526 21.634 20.9428 21.8532 20.7233ZM21.588 20.3011C21.4914 20.3518 21.3688 20.3771 21.2203 20.3771C21.1072 20.3771 21.014 20.3508 20.941 20.2983C20.8679 20.2439 20.8314 20.1735 20.8314 20.0872C20.8314 19.7907 21.0388 19.6425 21.4537 19.6425H21.8002V20.1294C21.7577 20.1932 21.687 20.2504 21.588 20.3011ZM18.1902 17.951L17.6351 18.7897L17.0977 17.951H15.846L16.8502 19.4342L15.7895 20.9963H17.0411L17.6316 20.0956L18.2326 20.9963H19.4772L18.42 19.4342L19.4277 17.951H18.1902Z" fill="#504C5C"/>
<path fill-rule="evenodd" clip-rule="evenodd" d="M33.1578 0C29.9604 0 27.3683 2.59203 27.3683 5.78946C27.3683 8.98689 29.9604 11.5789 33.1578 11.5789C36.3552 11.5789 38.9473 8.98689 38.9473 5.78946C38.9473 2.59203 36.3552 0 33.1578 0ZM32.5614 6.90658C32.8257 6.62736 32.9579 6.25475 32.9579 5.78877V5.74439C32.9579 5.26731 32.8292 4.89285 32.5719 4.62103C32.3146 4.34735 31.9541 4.21052 31.4904 4.21052C31.1242 4.21052 30.8286 4.32147 30.6037 4.54336L30.569 4.26599H29.4736V8.42103H30.6455V7.0203C30.868 7.22186 31.152 7.32264 31.4974 7.32264C31.9448 7.32264 32.2995 7.18395 32.5614 6.90658ZM31.2018 4.93168C31.5913 4.93168 31.786 5.19796 31.786 5.73052V5.83037C31.7744 6.34444 31.582 6.60147 31.2088 6.60147C30.9352 6.60147 30.7475 6.51826 30.6455 6.35183V5.17023C30.7382 5.0112 30.9236 4.93168 31.2018 4.93168ZM36.842 4.26599H35.6667L34.6339 6.00789V4.26599H33.4551V7.26716H34.6339L35.6667 5.51971V7.26716H36.842V4.26599Z" fill="#504C5C"/>
</symbol>


<symbol id="partner-2" viewBox="0 0 84 34" fill="none" >
<path fill-rule="evenodd" clip-rule="evenodd" d="M84 0H0V34H84V0ZM8.87543 22.0436H18.7287V24.628H5V22.5298L14.5366 8.60997H5.06332V6H18.4247V8.04703L8.87543 22.0436ZM36.1175 24.628H32.9133L24.6938 11.4118V24.628H21.4896V6H24.6938L32.9386 19.2673V6H36.1175V24.628ZM42.3281 21.9928C42.0316 21.6734 41.6562 21.5137 41.2016 21.5137C40.7471 21.5137 40.3716 21.6734 40.0752 21.9928C39.7788 22.2923 39.6306 22.6716 39.6306 23.1307C39.6306 23.51 39.7294 23.8394 39.927 24.1189C40.1246 24.3785 40.3815 24.5581 40.6977 24.6579L39.6898 29H41.1127L42.3577 24.8676C42.496 24.5082 42.5948 24.1888 42.6541 23.9093C42.7332 23.6298 42.7727 23.3703 42.7727 23.1307C42.7727 22.6716 42.6245 22.2923 42.3281 21.9928ZM59.674 6V18.4485C59.674 20.4273 59.045 21.9967 57.787 23.1567C56.5374 24.3082 54.8698 24.8839 52.7844 24.8839C50.6735 24.8839 48.9976 24.3167 47.7564 23.1823C46.5153 22.0394 45.8947 20.4572 45.8947 18.4357V6H49.0862V18.4613C49.0862 19.7066 49.3986 20.6576 50.0234 21.3144C50.6482 21.9711 51.5685 22.2995 52.7844 22.2995C55.2498 22.2995 56.4825 20.986 56.4825 18.359V6H59.674ZM64.512 24.628L66.0064 20.2909H73.1494L74.6565 24.628H78L71.0217 6H68.1468L61.1811 24.628H64.512ZM69.5779 9.95333L72.2502 17.6809H66.9056L69.5779 9.95333Z" fill="#504C5C"/>
</symbol>

<symbol id="partner-3" viewBox="0 0 40 40" fill="none" >
<path fill-rule="evenodd" clip-rule="evenodd" d="M20 40C31.0457 40 40 31.0457 40 20C40 8.9543 31.0457 0 20 0C8.9543 0 0 8.9543 0 20C0 31.0457 8.9543 40 20 40ZM16.935 28.8348H17.2174H22.8452H27.0845C29.4887 28.8348 31.3252 28.4174 32.5941 27.5826C33.863 26.7311 34.4974 25.5374 34.4974 24.0014C34.4974 22.9663 34.2136 22.0814 33.6459 21.3468C33.0783 20.6122 32.2769 20.0529 31.2417 19.6689C32.0431 19.2682 32.6442 18.7423 33.0449 18.0911C33.4623 17.44 33.671 16.7054 33.671 15.8873C33.671 14.5016 33.0699 13.3913 31.8678 12.5565C30.6824 11.7217 28.921 11.3043 26.5837 11.3043H22.8452H17.2174H16.935V17.5151H11.4755V11.3043H5.56522V28.8348H11.4755V22.3736H16.935V28.8348ZM23.0275 18.041V15.4365H25.7823C27.0678 15.4365 27.7106 15.8706 27.7106 16.7388C27.7106 17.607 27.0678 18.041 25.7823 18.041H23.0275ZM28.537 23.3252C28.537 24.2435 27.8859 24.7026 26.5837 24.7026H23.0275V21.9478H26.5837C27.8859 21.9478 28.537 22.407 28.537 23.3252Z" fill="#504C5C"/>
</symbol>

<symbol id="partner-4"  viewBox="0 0 82 16" fill="none" >
<path d="M15.8955 15.8046H13.8146L10.6806 6.71756H10.5051L7.19562 15.8046H5.11466L0 0.146564H2.00575L2.28154 1.66107L6.19275 13.6305H6.36825L9.82816 4.10382L8.47428 0.146564H10.5302L10.9063 1.83206L14.8676 13.6305H15.018L19.3805 1.75878L19.7566 0.146564H21.6621L15.8955 15.8046Z" fill="#504C5C"/>
<path d="M31.113 0C33.3193 0 35.0075 0.659542 36.1775 1.97863C37.3642 3.29771 37.9576 5.19491 37.9576 7.67023C37.9576 10.341 37.3308 12.401 36.0772 13.8504C34.8236 15.2835 33.0352 16 30.7118 16C28.5389 16 26.8591 15.316 25.6724 13.9481C24.5024 12.5802 23.9174 10.6341 23.9174 8.10992C23.9174 5.50433 24.5358 3.50127 25.7727 2.10076C27.0263 0.700254 28.8064 0 31.113 0ZM30.9876 1.58779C27.6447 1.58779 25.9733 3.68855 25.9733 7.89008C25.9733 10.1211 26.3744 11.774 27.1767 12.8489C27.9957 13.9237 29.2242 14.4611 30.8623 14.4611C34.2052 14.4611 35.8766 12.3196 35.8766 8.03664C35.8766 5.85445 35.4671 4.2341 34.6481 3.17557C33.8458 2.11705 32.6256 1.58779 30.9876 1.58779Z" fill="#504C5C"/>
<path d="M58.636 15.8046H56.8308L56.4547 11.0412L55.6023 3.24886H55.4268L50.964 13.9969H49.3093L45.0721 3.24886H44.8715L44.0191 10.8947L43.5929 15.8046H41.888L43.5678 0.146564H45.8493L46.6767 2.54046L50.1617 11.4565H50.3121L53.9726 2.39389L54.8 0.146564H57.0565L58.636 15.8046Z" fill="#504C5C"/>
<path d="M69.8196 0C72.0259 0 73.7141 0.659542 74.8841 1.97863C76.0708 3.29771 76.6642 5.19491 76.6642 7.67023C76.6642 10.341 76.0374 12.401 74.7838 13.8504C73.5302 15.2835 71.7418 16 69.4184 16C67.2456 16 65.5657 15.316 64.379 13.9481C63.209 12.5802 62.624 10.6341 62.624 8.10992C62.624 5.50433 63.2424 3.50127 64.4793 2.10076C65.7329 0.700254 67.513 0 69.8196 0ZM69.6942 1.58779C66.3513 1.58779 64.6799 3.68855 64.6799 7.89008C64.6799 10.1211 65.081 11.774 65.8833 12.8489C66.7023 13.9237 67.9308 14.4611 69.5689 14.4611C72.9118 14.4611 74.5833 12.3196 74.5833 8.03664C74.5833 5.85445 74.1737 4.2341 73.3547 3.17557C72.5524 2.11705 71.3323 1.58779 69.6942 1.58779Z" fill="#504C5C"/>
<path d="M80.8968 13.655C81.2311 13.655 81.4986 13.7527 81.6991 13.9481C81.8997 14.1435 82 14.4122 82 14.7542C82 15.1125 81.8914 15.3975 81.6741 15.6092C81.4735 15.8209 81.1893 15.9267 80.8216 15.9267C80.4706 15.9267 80.1948 15.829 79.9943 15.6336C79.8104 15.4382 79.7185 15.1613 79.7185 14.8031C79.7185 14.4611 79.8188 14.1842 80.0193 13.9725C80.2366 13.7608 80.5291 13.655 80.8968 13.655Z" fill="#504C5C"/>
</symbol>



<symbol id="partner-5" viewBox="0 0 40 40" fill="none" >
<path fill-rule="evenodd" clip-rule="evenodd" d="M11 0C4.92487 0 0 4.92487 0 11V29C0 35.0751 4.92487 40 11 40H29C35.0751 40 40 35.0751 40 29V11C40 4.92487 35.0751 0 29 0H11ZM20.7539 15C21.3062 15 21.7539 14.5523 21.7539 14C21.7539 13.4477 21.3062 13 20.7539 13C20.2016 13 19.7539 13.4477 19.7539 14C19.7539 14.5523 20.2016 15 20.7539 15ZM15.2783 26.4473H16.9189L17.0078 22.6191H15.7432V14.0469H9.46777L9.20801 18.4629C9.13965 19.388 8.98698 20.2174 8.75 20.9512C8.51302 21.6803 8.19629 22.2363 7.7998 22.6191H7L7.05469 26.4473H8.72266V24H15.2783V26.4473ZM14.0205 22.6191H9.75488C10.4294 21.5755 10.8281 20.1172 10.9512 18.2441L11.1152 15.4414H14.0205V22.6191ZM32.302 24V16.6035H29.0686C28.1663 16.6126 27.4485 16.8382 26.9153 17.2803C26.3866 17.7178 26.1223 18.2806 26.1223 18.9688C26.1223 19.429 26.2431 19.8369 26.4846 20.1924C26.7307 20.5479 27.0816 20.8213 27.5373 21.0127L25.7942 24H27.5168L29.0959 21.2861H30.6477V24H32.302ZM28.1252 19.7686C27.8974 19.5726 27.7834 19.3197 27.7834 19.0098C27.7834 18.6953 27.9042 18.4355 28.1457 18.2305C28.3873 18.0254 28.7108 17.9229 29.1164 17.9229H30.6477V20.0557H29.0139C28.6539 20.0557 28.3577 19.96 28.1252 19.7686ZM20.7384 17.75H18.7539V16.25H21.7539C21.9919 16.25 22.2158 16.363 22.3572 16.5544C22.4986 16.7459 22.5407 16.9931 22.4707 17.2206L20.523 23.5506C20.5968 23.5203 20.7007 23.4674 20.8379 23.376C21.9933 22.6057 22.9221 21.7712 23.2236 21.4697L24.2842 22.5303C23.9191 22.8955 22.9145 23.7943 21.6699 24.624C20.9999 25.0707 20.2388 25.2962 19.6148 24.8455C19.3409 24.6477 19.1919 24.3769 19.1123 24.1512C19.0319 23.9235 19.0039 23.6929 19.0039 23.5C19.0039 23.4252 19.0151 23.3509 19.0371 23.2794L20.7384 17.75Z" fill="#504C5C"/>
</symbol>

<symbol id="partner-6" viewBox="0 0 84 21" fill="none" >
<path d="M29.3001 17.0517H22.9953L21.8942 20.617H16.9789L23.9784 1.53223H28.3039L35.3559 20.617H30.4142L29.3001 17.0517ZM24.0963 13.4996H28.199L26.1411 6.88017L24.0963 13.4996Z" fill="#504C5C"/>
<path d="M43.5088 13.067H41.333V20.617H36.7322V1.53223H41.333V8.91186H43.1025L46.7727 1.53223H52.3434L47.1004 10.3406L52.9988 20.617H47.5591L43.5088 13.067Z" fill="#504C5C"/>
<path d="M66.2522 5.08441H60.5241V20.617H55.9233V5.08441H50.3001V1.53223H66.2522V5.08441Z" fill="#504C5C"/>
<path d="M79.3992 1.53223H84V20.617H79.3992V8.58417L72.5439 20.617H67.9431V1.53223H72.5439V13.5782L79.3992 1.53223Z" fill="#504C5C"/>
<path fill-rule="evenodd" clip-rule="evenodd" d="M18.5474 4.64013C17.0793 3.15459 15.1044 2.41182 12.6227 2.41182V0H8.19232V2.41182C5.71059 2.41182 3.72696 3.15459 2.24142 4.64013C1.5336 5.33921 0.983078 6.18247 0.589847 7.16991C0.196616 8.15736 0 9.25841 0 10.4731C0 12.7713 0.738401 14.6413 2.2152 16.0832C3.692 17.525 5.68437 18.2459 8.19232 18.2459V20.6577H12.6227V18.2459C13.9125 18.2459 15.0667 18.0498 16.0855 17.6577L20.1367 7.01754C19.769 6.1244 19.2392 5.33193 18.5474 4.64013ZM5.30862 7.26167C5.97274 6.49268 6.87718 6.10819 8.02192 6.10819H8.19232V14.5496C6.94271 14.5496 5.98585 14.1869 5.32173 13.4616C4.6576 12.7276 4.32554 11.7314 4.32554 10.4731C4.32554 9.10112 4.65324 8.03065 5.30862 7.26167ZM12.6227 14.5496V6.10819C13.8811 6.10819 14.8292 6.49705 15.4671 7.27478C16.1137 8.04376 16.4371 9.10112 16.4371 10.4468C16.4371 11.7401 16.105 12.7494 15.4409 13.4747C14.7855 14.1913 13.9116 14.5496 12.8193 14.5496H12.6227Z" fill="#504C5C"/>
</symbol>

</defs>
</svg>
