<svg id="Capa_1" data-name="Capa 1" xmlns="http://www.w3.org/2000/svg" viewBox="0 0 512 503.8"><path d="M386.35,336.17A210.88,210.88,0,0,0,423.76,216C423.76,99,328.91,4.1,211.88,4.1S0,99,0,216,94.84,427.85,211.88,427.85a210.91,210.91,0,0,0,129.64-44.34L465.9,507.9,512,461.81ZM211.88,382.22c-91.67,0-166.24-74.58-166.24-166.25S120.21,49.73,211.88,49.73,378.12,124.31,378.12,216,303.55,382.22,211.88,382.22Z" transform="translate(0 -4.1)"/><polygon points="234.69 192.32 234.69 110.83 189.06 110.83 189.06 192.32 107.57 192.32 107.57 237.96 189.06 237.96 189.06 319.45 234.69 319.45 234.69 237.96 316.19 237.96 316.19 192.32 234.69 192.32"/></svg>