<svg width="537" height="50" viewBox="0 0 537 50" fill="none" xmlns="http://www.w3.org/2000/svg">
<g clip-path="url(#clip0)">
<path d="M13.8908 33.3304C12.723 33.4507 11.7232 32.634 12.1656 32.2816C9.76796 33.2014 9.75027 32.0924 9.39638 34.001C7.8481 34.8607 6.25559 33.5883 8.00735 32.8576L3.58371 33.915L6.23789 34.2675C5.48588 35.8149 2.05313 33.7087 1.17725 35.514L5.93709 35.4624L5.68936 35.9783C6.78643 35.4366 8.88323 35.7203 9.60871 35.9783C9.4937 36.2276 9.55563 36.6488 8.72398 36.6832C14.4659 36.9153 10.3342 33.9752 15.1117 33.5539C14.6924 33.5724 14.2744 33.4959 13.8908 33.3304Z" fill="white"/>
<path d="M18.6844 37.2594L20.7281 35.3423L24.0812 35.9183C24.1343 35.2392 26.5938 34.7405 24.9659 34.1129C24.4895 34.2775 23.9847 34.3505 23.4796 34.3279C23.8866 32.875 27.9652 33.6917 27.0185 32.1872C24.3643 32.5225 23.9485 32.1872 22.2852 33.3478C20.4604 33.2927 18.6614 32.914 16.9768 32.2302C16.2513 32.4365 16.0921 33.3306 15.2074 33.494C15.4109 33.494 15.5966 33.451 15.8267 33.451L15.8798 35.6518C16.6583 35.2048 17.375 35.4369 18.2331 35.4111L14.1545 37.8956C15.3843 39.9847 19.2771 38.8499 20.8077 39.744C18.9586 37.8268 22.3825 38.8499 18.6844 37.2594Z" fill="white"/>
<path d="M309.035 22.5672C309.302 22.5647 309.561 22.4802 309.776 22.3258C309.99 22.1714 310.149 21.955 310.229 21.7075L301.329 21.8193C301.795 21.4978 302.191 21.0901 302.495 20.6194C302.798 20.1488 303.003 19.6246 303.098 19.0769C302.346 19.3262 301.709 20.0569 301.329 21.8193H300.807C301.108 22.3953 303.824 23.0917 302.01 23.4527C302.824 24.0889 305.283 23.5215 305.629 22.7392L304.956 23.5989C307.115 22.4555 308.61 24.6563 307.203 25.3183H307.389L313.352 20.9338C311.167 20.7447 311.689 22.4899 309.035 22.5672Z" fill="white"/>
<path d="M501.056 22.0774C501.492 21.9165 501.901 21.6934 502.269 21.4154C501.056 21.6562 500.906 21.8625 501.056 22.0774Z" fill="white"/>
<path d="M314.768 19.9531L316.635 18.5775C315.931 18.92 315.298 19.3864 314.768 19.9531Z" fill="white"/>
<path d="M301.896 40.7324C301.872 40.808 301.872 40.889 301.896 40.9646L302.781 40.2682C302.436 40.4057 302.162 40.5777 301.896 40.7324Z" fill="white"/>
<path d="M276.407 48.6593L280.592 47.3267C280.043 47.9543 282.06 47.7566 281.184 48.4873C281.503 48.3842 282.998 48.1349 282.591 47.8168L281.706 47.8598C283.909 46.0458 282.591 45.358 286.219 43.9653C283.936 42.9079 282.945 43.8879 281.751 44.7133C281.39 44.8198 281.024 44.9059 280.654 44.9712L277.177 47.5073L276.407 48.6593Z" fill="white"/>
<path d="M444.223 33.0556L444.178 33.2018C444.195 33.1815 444.208 33.1581 444.216 33.133C444.223 33.1079 444.226 33.0816 444.223 33.0556Z" fill="white"/>
<path d="M444.011 33.7773L444.179 33.2013C443.957 33.528 443.108 33.7859 444.011 33.7773Z" fill="white"/>
<path d="M314.079 21.1226C314.191 20.6797 314.427 20.2753 314.76 19.9535L313.362 20.9851C313.603 21.0192 313.842 21.0651 314.079 21.1226Z" fill="white"/>
<path d="M310.928 25.0863L307.389 25.37L306.115 26.3156C307.46 25.9546 309.035 25.6967 310.928 25.0863Z" fill="white"/>
<path d="M315.847 23.9596C315.414 24.3207 315.086 24.4239 314.653 24.8193C314.956 24.6917 315.266 24.5797 315.582 24.484C315.847 24.2863 316.033 24.1144 315.847 23.9596Z" fill="white"/>
<path d="M314.343 21.7501L314.572 21.2343C314.387 21.1741 314.255 21.1655 314.088 21.1225C314.046 21.2396 314.049 21.3675 314.096 21.4828C314.143 21.598 314.23 21.6929 314.343 21.7501Z" fill="white"/>
<path d="M379.832 24.4325L380.531 24.1488C380.107 24.1746 379.93 24.2864 379.832 24.4325Z" fill="white"/>
<path d="M320.095 23.7442C320.261 23.7353 320.426 23.7353 320.592 23.7442C320.426 23.735 320.261 23.735 320.095 23.7442Z" fill="white"/>
<path d="M45.7398 37.4919C45.554 37.4317 45.3328 37.3715 45.1559 37.3028C45.3309 37.4129 45.5318 37.478 45.7398 37.4919Z" fill="white"/>
<path d="M217.431 39.9412L216.307 39.8638C216.678 39.9282 217.054 39.9542 217.431 39.9412Z" fill="white"/>
<path d="M192.251 47.1113L190.614 47.6099C191.195 47.5821 191.758 47.4105 192.251 47.1113Z" fill="white"/>
<path d="M59.1007 37.8698H59.1539L59.411 37.7581L59.1007 37.8698Z" fill="white"/>
<path d="M141.821 41.687C141.554 41.4827 141.255 41.3203 140.937 41.2056C140.954 41.4205 141.29 41.5752 141.821 41.687Z" fill="white"/>
<path d="M192.553 47.0171H192.455L192.251 47.1546L192.553 47.0171Z" fill="white"/>
<path d="M228.507 46.3294C228.746 46.2521 228.967 46.2005 229.224 46.1059C228.972 46.1314 228.727 46.2075 228.507 46.3294Z" fill="white"/>
<path d="M226.924 40.131C227.166 40.0905 227.401 40.0182 227.623 39.9161L226.924 40.131Z" fill="white"/>
<path d="M265.693 44.3001L267.206 43.9821C266.684 43.9842 266.169 44.0926 265.693 44.3001Z" fill="white"/>
<path d="M230.914 41.5579C231.002 41.4661 231.079 41.3652 231.143 41.257C230.914 41.3258 230.844 41.4548 230.914 41.5579Z" fill="white"/>
<path d="M36.2743 30.8114H36.3723L36.4168 30.5621L36.2743 30.8114Z" fill="white"/>
<path d="M32.5588 33.9235L31.2318 34.0782C31.6802 34.1072 32.1302 34.0547 32.5588 33.9235Z" fill="white"/>
<path d="M119.942 37.9644C119.544 37.6463 118.606 37.2594 119.057 36.8984C118.278 37.354 118.323 38.4544 119.942 37.9644Z" fill="white"/>
<path d="M130.736 20.2548C130.683 19.9539 130.515 19.8937 130.284 19.9367C130.333 20.017 130.398 20.0866 130.476 20.1414C130.554 20.1961 130.642 20.2347 130.736 20.2548Z" fill="white"/>
<path d="M30.169 33.7088C29.9213 34.2247 24.1351 35.2391 28.9746 35.6088C28.7534 37.225 25.8515 36.2879 24.551 36.6662C25.4799 37.0617 24.0644 37.6978 24.3298 38.2824C25.1059 37.9394 25.9556 37.7831 26.807 37.8268C27.2759 38.5833 25.6569 39.0476 24.4094 38.7467C25.94 39.6064 22.4188 39.9932 24.5952 40.6982C29.2843 40.2167 32.6108 39.7009 35.9463 37.3883C33.2921 37.7322 30.2752 38.1535 28.0987 37.4571L29.0542 36.073C31.4961 37.354 33.0444 36.4685 35.4685 36.6404L30.0274 35.7807C27.4883 34.5599 29.2046 34.3278 31.2307 34.1129C30.7352 34.0527 30.284 33.9581 30.169 33.7088Z" fill="white"/>
<path d="M34.0898 21.4926L34.0012 21.4496C33.919 21.4864 33.8416 21.5325 33.7707 21.5871L34.0898 21.4926Z" fill="white"/>
<path d="M250.617 46.0965C250.632 46.1636 250.659 46.2276 250.697 46.2857C250.943 46.2083 250.829 46.1395 250.617 46.0965Z" fill="white"/>
<path d="M197.002 21.1139C197.137 21.2877 197.291 21.4463 197.463 21.5867C197.569 21.4921 197.463 21.303 197.002 21.1139Z" fill="white"/>
<path d="M208.186 23.2118C208.251 23.2669 208.319 23.3186 208.389 23.3665L208.186 23.2118Z" fill="white"/>
<path d="M122.517 44.3175C122.96 44.3413 123.405 44.3211 123.844 44.2574C123.401 44.206 122.953 44.2264 122.517 44.3175Z" fill="white"/>
<path d="M179.91 28.1295L180.256 27.9748L180.052 27.906L179.91 28.1295Z" fill="white"/>
<path d="M174.08 27.0634C174.236 26.929 174.37 26.7725 174.478 26.5992C172.39 27.1751 168.568 26.5218 168.108 28.0091C168.816 28.0091 172.479 28.8688 171.842 29.7285C173.302 29.3588 175.443 30.4162 176.265 30.1755C173.885 29.3158 176.009 28.9117 177.628 28.4561C179.088 28.8945 177.345 29.6511 178.601 29.9348L181.998 29.7886L179.043 29.5737L179.928 28.1466L179.627 28.2756C174.611 28.9031 179.194 26.1607 174.08 27.0634Z" fill="white"/>
<path d="M174.477 26.5989C174.765 26.5305 175.038 26.411 175.282 26.2464C175.129 26.2386 174.975 26.2665 174.835 26.3278C174.695 26.3891 174.572 26.4821 174.477 26.5989Z" fill="white"/>
<path d="M154.094 24.0714C153.795 24.1291 153.5 24.2037 153.209 24.295C153.377 24.2692 153.767 24.209 154.094 24.0714Z" fill="white"/>
<path d="M300.657 25.9371L303.267 26.2638L303.603 26.1004C303.514 25.6792 300.603 24.8281 300.657 25.9371Z" fill="white"/>
<path d="M98.4442 29.9777C98.7668 30.0179 99.0923 30.0323 99.4174 30.0207C99.4855 29.97 99.5478 29.9124 99.6032 29.8487C99.4085 29.6854 98.7627 29.8831 98.4442 29.9777Z" fill="white"/>
<path d="M170.939 30.2609C171.283 30.1845 171.593 30.0038 171.824 29.7451C171.478 29.8163 171.166 29.9979 170.939 30.2609Z" fill="white"/>
<path d="M98.2925 27.3559C97.8855 27.0378 97.2839 26.5478 97.2042 26.1265C96.3195 26.1265 95.7533 26.6767 94.8951 26.8659C96.0523 26.7278 97.2264 26.8972 98.2925 27.3559Z" fill="white"/>
<path d="M221.845 25.2232C221.822 25.2928 221.807 25.365 221.802 25.4382C221.829 25.41 221.847 25.3749 221.855 25.3369C221.862 25.2989 221.859 25.2595 221.845 25.2232Z" fill="white"/>
<path d="M509.409 27.7596C509.409 27.0805 510.479 27.1664 510.904 26.7968C510.621 25.5416 508.887 27.7166 506.79 26.8483L510.205 25.2321L508.223 24.1145L516 20.5468C509.471 19.8504 506.631 24.6561 501.278 23.1259C502.101 22.7046 501.278 22.3951 501.057 22.0856C499.385 22.7562 497.368 22.7992 496.359 23.6589H493.705C493.705 22.9797 494.705 21.2861 497.447 21.2431C487.848 21.3979 480.584 25 470.905 23.9942C470.49 23.6847 472.179 23.5557 471.445 23.358C470.339 23.7362 468.614 24.1575 468.225 24.5272C468.325 24.3272 468.481 24.1585 468.675 24.0401C468.869 23.9216 469.093 23.858 469.322 23.8566C464.341 24.6475 461.651 22.6358 458.457 23.719C458.263 22.8594 460.899 23.1087 460.483 22.8078C455.547 22.2318 453.043 24.8796 448.097 24.9656C449.707 23.7534 446.974 23.7792 445.62 23.1087C441.568 24.2435 432.915 24.6733 426.766 25.6104C428.323 22.6186 419.901 25.6706 419.343 23.1602C417.972 23.1602 415.849 23.6503 415.716 24.5959C416.468 24.1145 418.37 24.8453 418.105 25.3697C416.105 25.5846 413.044 25.7049 412.796 26.9085L410.231 25.7909C410.174 26.3484 409.914 26.8677 409.496 27.2543C409.079 27.6408 408.533 27.869 407.957 27.8972C404.86 25.5588 408.32 29.6166 403.94 28.3442C404.786 27.6038 405.511 26.7428 406.09 25.7909C403.985 25.5932 404.276 26.1606 402.79 26.4357C402.295 25.705 404.232 24.381 405.825 23.8566L403.144 23.2118C400.561 24.7421 396.066 26.9085 391.846 26.5131C392.518 25.6534 393.881 25.6104 392.731 24.4154C390.961 24.7851 388.546 26.4873 386.148 25.6964C386.476 25.5932 386.263 25.4384 386.591 25.3267C382.424 26.7022 383.432 25.0258 379.628 24.9226C379.67 24.7679 379.73 24.6181 379.805 24.4756L377.505 25.4041C372.674 27.6565 372.064 24.0543 369.135 23.2204L369.772 23.0055C367.932 21.5956 362.075 23.0743 360.403 22.4983C362.482 23.358 361.102 23.358 362.641 24.8968C364.455 24.5358 363.88 22.7046 366.923 23.272C366.552 24.7421 362.73 25.3181 361.951 26.4787C360.252 26.5818 359.067 24.2779 358.89 23.4439C354.661 23.719 352.263 22.9195 347.079 23.4955C345.239 24.5358 343.85 27.6823 339.488 25.7307L339.629 25.4298C339.205 25.9371 337.533 25.0688 336.754 25.7307C338.267 27.2524 334.905 26.771 336.754 28.1895C334.215 28.3442 333.772 26.2466 333.507 24.9914C331.738 27.132 328.482 23.934 324.66 25.1891C325.341 24.3294 329.561 24.0457 327.809 23.0485L322.855 25.5502L325.067 25.5072C321.315 27.175 320.227 25.2751 317.989 24.6475C317.555 24.0199 318.989 23.7878 320.059 23.7878C318.52 23.7606 316.989 24.0023 315.538 24.5014C314.406 25.1805 310.442 26.0488 308.859 27.2008L308.213 27.0805C308.269 26.9531 308.374 26.8515 308.505 26.7968C308.226 26.8362 307.951 26.8966 307.682 26.9773L305.718 26.6506L306.116 26.3497L305.346 26.5904L303.267 26.2981L302.214 26.8054L302.736 26.8655C302.55 28.4904 300.082 29.7369 297.127 29.565C297.322 29.6424 298.896 29.8229 301.091 30.055L300.356 30.5966L291.049 29.7369C292.152 29.346 293.329 29.1935 294.499 29.2899C291.403 27.5705 286.643 30.2356 285.157 28.0261C289.89 26.0746 292.164 27.1664 297.154 26.4185C299.728 28.0605 293.951 27.4501 293.792 28.3958L296.632 28.8257C296.242 27.8284 302.143 28.1723 300.657 25.9715C294.766 25.3084 288.839 24.9954 282.909 25.0344L287.997 13.695C288.006 13.5649 288.045 13.4385 288.112 13.3253H288.165L287.997 13.695C287.997 13.8325 288.112 13.8927 288.271 13.9013C288.501 15.8442 293.42 13.4027 292.075 16.4804C293.252 15.4316 294.473 14.761 295.543 13.7724C296.096 13.4923 296.695 13.309 297.313 13.2307C296.791 14.0904 295.835 14.8814 295.641 15.5261C294.977 15.7217 294.295 15.8569 293.606 15.9302C296.437 16.3686 298.914 18.2686 298.091 19.412C303.4 18.2858 299.365 15.8614 301.905 14.7352C302.347 16.4546 303.223 17.7699 303.081 19.1369C304.789 18.5781 307.133 20.4952 308.575 18.793L308.69 19.7558C310.389 16.1451 313.857 19.1111 314.751 15.3628L315.759 17.4089C318.343 17.0994 317.936 13.2651 319.148 12.3796C320.183 12.2593 321.448 11.8552 322.536 12.1991C320.909 13.2909 321.156 14.0045 322.041 14.6149L320.272 15.8958L320.537 15.5777L319.962 15.1651L319.546 16.4288L316.635 18.5867C317.121 18.3359 317.643 18.159 318.184 18.0622C319.387 19.6871 320.024 19.4893 317.954 21.0454C319.997 20.1857 319.201 18.8532 322.271 18.7586C321.077 19.6183 320.794 21.4838 323.74 21.6472C325.727 21.1651 327.652 20.4703 329.482 19.5753C330.941 19.4206 332.844 17.727 334.87 17.8559C334.972 17.9062 335.079 17.9493 335.188 17.9849L335.144 19.0079C334.772 19.6183 334.445 20.1169 337.011 19.5409C336.692 19.6355 336.896 19.7988 336.577 19.8934C339.169 20.8477 340.187 19.1712 342.407 19.1283C343.752 19.8074 340.249 20.2717 341.523 20.5382C344.292 19.859 350.255 21.2775 350.034 18.664C351.476 18.5179 352.033 18.7672 352.458 19.1025C352.458 19.859 351.901 20.392 351.131 20.8219C354.369 19.4206 358.209 20.9852 360.651 18.5609H361.385C361.889 18.9219 363.216 18.8876 364.083 19.4206C364.097 18.9654 364.174 18.5142 364.313 18.0794C364.429 17.9779 364.528 17.8589 364.605 17.727C365.827 16.9814 367.17 16.4435 368.578 16.1365L368.454 16.2225C370.068 15.9969 371.704 15.9507 373.329 16.0849C373.59 16.1664 373.842 16.2729 374.081 16.403L373.134 17.4776C378.982 18.2428 381.734 11.8552 388.059 14.7524C389.183 15.6121 386.785 17.8129 389.139 17.7785C390.315 16.4288 390.024 13.5488 392.987 14.4257L392.713 16.8845L394.819 14.4601C393.837 12.3882 390.484 13.0158 392.881 10.7978C395.491 13.1706 395.279 8.58838 398.446 11.3738C397.685 11.6059 396.677 13.4629 396.093 14.4343C402.808 17.5292 405.683 12.2937 412.478 15.5863C415.973 13.7294 420.396 13.4629 422.829 11.7349C422.555 14.1936 422.511 16.3772 420.865 18.26C423.785 18.664 425.333 13.1534 427.262 16.8243C428.775 13.5058 435.463 14.9329 436.321 10.239C436.41 11.1933 439.471 10.368 436.321 12.9041C440.373 11.477 441.453 17.2025 443.284 17.2025C444.319 17.0908 442.205 14.1678 444.558 14.1592C444.841 14.3655 444.886 14.847 445.169 15.0189L446.106 13.9443C446.991 15.0533 445.009 16.2483 444.886 17.4776C448.133 18.5781 450.397 14.8986 454.29 14.7438L453.6 15.5433L457.546 15.8442L457.316 16.1107L460.536 14.6149L460.395 15.8356C461.147 15.5175 461.341 14.761 462.377 14.6492L461.996 16.1451C463.093 13.8497 466.906 12.7063 468.747 12.7493L469.074 13.4371L473.498 10.5313C475.745 12.2507 470.419 14.0217 475.037 13.0416L473.772 16.0763C477.072 14.9845 477.488 16.6437 479.753 15.6723C478.806 14.0732 477.258 14.2452 478.452 12.9127C480.876 16.5234 482.566 12.1389 485.079 10.7978C483.831 10.7978 482.991 10.7548 482.071 12.5172C480.752 12.4226 481.655 10.8666 480.85 10.7032L478.921 12.371L478.47 10.2476L475.205 11.8122C475.497 9.35351 472.277 11.3996 473.622 8.82909C471.348 9.80055 470.083 7.96939 468.003 10.4109C466.544 8.87208 470.454 8.69154 468.888 8.38205C459.873 10.1014 450.654 9.3793 441.364 8.2445L442.311 7.16128C441.364 8.2445 440.143 9.10419 439.436 9.92091C437.94 7.89202 431.88 5.15818 429.606 8.82049C429.314 8.60557 429.801 8.07256 430.031 7.79745C426.917 8.14993 421.414 5.35591 416.99 5.62242C414.999 9.49106 410.425 2.98315 408.594 8.28748L409.541 7.21286C410.992 8.73453 407.285 10.858 406.63 12.1475C405.497 8.63996 406.63 9.48246 405.241 6.2414L406.975 7.50516L406.674 4.62517C400.853 11.8466 396.332 0.971458 392.687 6.23281C392.908 5.9577 392.872 5.48487 393.102 5.21836C390.829 3.49897 389.103 7.12689 387.369 8.05536C387.21 6.61967 388.449 5.75138 389.378 4.66816C385.326 3.43879 378.363 7.17847 373.93 4.78851C372.294 6.67985 374.461 7.36761 372.771 8.8119C372.662 8.7673 372.555 8.7156 372.453 8.65715C372.366 8.57964 372.268 8.51582 372.161 8.46802C371.711 8.1678 371.395 7.7132 371.276 7.19567C371.464 7.11591 371.664 7.06655 371.869 7.04952C371.639 7.04952 371.444 7.04952 371.267 7.04952C371.284 6.77192 371.381 6.50449 371.546 6.27791C371.712 6.05134 371.941 5.8748 372.205 5.76857C368.374 2.04608 359.27 7.73728 353.405 4.29849C350.22 6.37895 352.148 7.35041 347.318 8.67435C348.477 7.31602 346.283 3.94601 349.158 3.84285L349.53 2.33838C344.761 1.95151 338.391 1.26376 335.692 5.46768C335.613 2.32118 334.808 4.84869 333.038 3.1121C332.295 3.44739 333.091 3.59353 333.383 3.80846C331.57 6.45633 330.729 3.63652 329.473 4.03198L329.933 3.49037L326.465 5.38171C326.087 5.16501 325.758 4.87555 325.5 4.53109C325.241 4.18663 325.058 3.79445 324.961 3.37861V5.56224C323.111 5.56224 324.129 2.75103 321.811 3.27545L322.262 4.92607C320.829 3.88583 318.449 6.12105 318.192 3.73109C318.139 3.25825 318.422 3.45598 318.944 3.3958C316.733 0.0257909 313.017 4.37586 310.221 2.77682L310.876 6.33597C308.107 7.41059 309.212 5.57944 309.336 4.34147C307.496 4.34147 307.116 3.16369 304.7 2.73384C303.488 3.59353 304.054 4.03198 303.647 5.04642L301.188 4.18673L302.365 2.81121C298.498 6.94635 293.181 1.7022 290.66 6.25C289.235 5.15818 291.96 4.06637 291.137 3.43879C286.67 1.08322 281.007 6.66265 277.291 3.9804C271.222 1.35832 264.144 3.71389 257.376 1.90853L257.456 2.87999L252.634 2.02029C251.298 4.13514 248.033 3.1121 245.954 5.57084C246.131 4.81431 245.715 3.65371 246.193 3.10351C244.132 3.37861 241.885 4.40165 240.681 3.10351L241.38 2.29539C236.833 1.65922 230.516 1.52166 228.109 3.29264C226.552 3.49897 226.605 1.78817 226.207 0.627579C223.553 0.498625 221.837 1.48728 219.66 2.95736C218.968 2.49262 218.369 1.91011 217.891 1.23796L216.864 3.55915C215.767 3.22387 216.634 1.64202 215.767 1.03164C211.636 3.77407 206.867 1.25516 203.992 1.39271L204.372 2.57909C203.169 3.43879 200.833 1.83116 202.302 0.670564C196.64 -0.747937 193.844 4.29849 186.147 3.61073C185.103 -0.627579 179.193 4.80571 178.087 0.0859697C174.822 1.27235 172.778 -0.627579 170.46 2.11486C170.39 1.64202 170.107 1.43569 170.629 1.35832C169.346 -0.361073 165.046 0.911279 161.781 2.08047L161.604 0.65337C160.419 3.73968 154.783 2.8284 153.642 5.90612C153.279 5.22696 154.261 4.60798 154.73 4.04917C153.031 1.1348 151.748 5.45048 149.554 4.77992C149.722 4.02338 149.085 3.14649 149.554 2.58769C142.273 -0.756534 131.7 4.8315 122.207 2.58769C119.553 2.47593 123.163 5.85454 119.712 5.62242C118.713 4.05777 121.402 2.45873 119.208 1.79677C117.624 3.73109 117.041 3.32703 114.917 3.14649C115.306 2.11486 114.917 1.4271 116.448 0.730743C115.218 -0.558803 111.246 3.18948 108.795 0.618982C108.818 0.998086 108.753 1.37735 108.604 1.72861C108.455 2.07986 108.227 2.39406 107.937 2.64787C104.336 5.35591 99.6821 -0.0601789 99.3548 1.44429C99.3548 1.44429 98.0985 1.87414 99.1867 2.20083C97.8684 2.14065 95.9663 1.6936 96.2936 0.180536C95.6035 1.04023 95.0019 2.32118 93.9668 2.47593L94.5242 0.679161C93.9225 1.06602 93.2325 2.20083 92.6485 2.39856L93.5863 3.48177C92.0646 2.00309 89.1627 5.59663 89.1627 2.18363L89.6758 2.10626L86.9155 0.593191C85.8184 1.9773 84.6506 3.36142 82.7484 2.89718C82.0052 -0.636176 77.909 2.14924 75.4937 1.77957L75.5998 0.550206C73.7153 2.2696 68.8759 1.52166 69.7518 2.13205C67.9204 2.13205 65.4343 1.27235 66.3367 0.19773C64.8504 0.902682 61.6919 0.894085 60.9222 2.94876L57.8964 0C56.1269 4.40165 51.8802 -1.54746 51.7033 3.1121C50.0312 2.39856 50.4116 1.39271 49.2438 0.533012C46.9346 2.8284 44.5193 2.45873 42.0951 2.09766L42.0244 1.61623C39.6091 1.24656 36.7779 3.61933 33.3894 3.87724L32.6728 0.361073C30.9033 0.885488 30.4875 3.62792 28.7977 2.94017C28.3995 2.39856 28.7977 2.20942 29.2223 2.01169C27.5679 2.73384 25.3207 1.85695 24.0555 0.988652C21.5252 3.56774 19.5523 2.64787 17.3227 5.43329C15.2967 2.32978 20.2777 4.00619 18.5437 1.1348C14.8897 -0.498624 11.1916 1.28955 7.20145 2.8542C6.8564 2.19223 7.28992 1.63342 7.44917 0.876891C7.44917 0.876891 -0.566469 9.47386 0.981806 12.8439C-0.0002429 15.1221 -1.115 16.5148 2.32659 18.4233C3.44135 17.0306 6.62637 15.3284 7.25453 17.9161L7.42263 15.4746C11.979 14.2796 7.88269 20.521 13.3857 20.4092L12.2179 19.6097C13.2441 19.4464 14.0669 17.8903 15.2348 18.6554C15.5975 19.3346 14.8544 19.6871 14.412 20.2459L18.9241 16.8673C19.0641 17.4459 19.0567 18.0491 18.9026 18.6244C18.7484 19.1997 18.4521 19.7297 18.0394 20.1685C22.2153 20.0224 17.1546 15.6809 22.2684 16.6008C23.2416 17.6496 21.9853 18.0536 21.3217 18.9133C23.7105 20.9852 25.2853 19.0423 27.7095 17.6926C27.7537 19.412 26.754 19.6355 27.3556 20.349C25.8869 20.9594 24.7722 21.9395 22.9319 22.0684C24.3475 23.2118 30.0805 23.9598 30.2575 21.9309C29.719 22.3591 29.0985 22.6791 28.4317 22.8725C27.765 23.0658 27.0654 23.1285 26.3735 23.0571C25.7188 20.3662 29.4878 22.3693 30.3902 19.8848C29.5637 19.8011 28.7284 19.889 27.9395 20.1427C27.7448 19.0853 27.851 17.9247 29.0454 17.7442C28.5765 19.1541 29.187 19.2486 30.0717 19.2658H30.1867C30.6982 19.2491 31.2091 19.313 31.6996 19.455C31.6261 19.2665 31.5756 19.0703 31.5492 18.8704L32.0092 18.7328L31.85 18.5695L31.5669 18.6554C31.5342 18.3974 31.5671 18.1355 31.6628 17.8927C31.7584 17.6499 31.9138 17.4336 32.1154 17.2627C32.8497 16.9102 33.4867 17.7871 34.5219 17.6324L32.6728 15.4746C35.2562 13.3769 36.7602 16.575 38.742 17.4948C38.666 17.6862 38.5472 17.8587 38.3942 17.9999C38.2412 18.1412 38.0578 18.2476 37.8573 18.3116C38.5031 18.5867 39.149 18.9391 39.8214 19.2486C37.3353 19.7816 34.6103 19.8504 33.1771 21.0798L34.0087 21.4323C34.4083 21.1993 34.864 21.0727 35.3299 21.0652C35.7958 21.0576 36.2556 21.1694 36.6629 21.3893C34.5219 21.8019 38.1493 22.9539 35.8755 23.6245C32.7613 24.3208 30.0451 22.4381 28.3199 24.2693C31.2661 24.5186 35.2208 25.5932 36.4329 24.7851L34.5042 24.6819L38.9278 22.5069C39.0782 23.3666 42.7675 22.0426 42.6702 23.3666C41.1662 23.5815 39.8037 23.5471 38.627 23.6675C38.9013 24.2521 42.626 24.0457 44.192 24.2521L42.219 23.7276C45.7579 22.6788 50.2877 23.1173 53.7205 22.3349C51.0044 23.358 57.1267 23.3236 54.9414 24.4154C54.0567 25.1204 52.65 23.977 53.0569 24.3036C52.765 25.4986 55.1449 24.5787 55.8261 25.49C56.1977 24.7077 59.7101 24.3466 57.6664 23.3924C58.79 23.9512 61.2938 22.7648 62.8243 23.6503C62.3908 22.2232 65.7262 22.7906 66.3013 22.1802C66.924 22.2666 67.5126 22.5096 68.0089 22.8851C66.5667 23.315 64.8061 23.8824 62.9747 24.5014C62.2493 24.2693 60.8868 24.2263 61.2849 24.553V25.086C57.631 26.3239 53.9594 27.6049 52.0926 28.1551L52.9773 27.4501C50.2081 29.1695 47.4831 27.2868 44.6432 28.5677C44.767 28.3098 45.0855 28.2153 44.5635 28.1465C41.0954 27.837 39.6621 30.2528 36.8929 29.075L37.2557 28.3012C37.0168 28.3872 35.3535 28.9976 35.672 29.8745C38.0165 29.6252 38.4678 29.2727 40.5557 29.5478C39.3342 30.3395 37.9011 30.7668 36.4329 30.7772L36.2559 32.1441C34.4865 33.554 32.717 31.4047 30.9476 32.806L32.9913 33.7689C32.8815 33.8307 32.7619 33.8743 32.6374 33.8979C33.3439 33.9042 34.0344 33.6936 34.6103 33.2961C35.5811 33.0413 36.611 33.1026 37.5425 33.4705C38.4741 33.8385 39.2559 34.4929 39.7683 35.3336C41.2104 35.7978 39.2109 37.053 39.3702 37.9127C41.7147 37.6633 41.6085 36.1417 43.9531 35.901C44.5635 36.0901 44.3512 36.3652 44.0681 36.5027L45.6429 35.8408C45.7225 36.262 49.7304 36.6403 47.3327 37.5602C46.9788 37.5172 46.3242 37.5602 45.8199 37.4742C49.0668 38.5144 54.6671 39.7008 54.4902 41.2225C56.2597 41.6008 55.7907 40.8442 58.6219 41.3514C59.9578 40.2854 58.5511 39.1506 61.6653 38.4543L59.2323 37.8697C58.7496 38.1063 58.2534 38.3158 57.746 38.4972L60.294 38.4113C58.6838 38.8927 58.9581 39.4773 58.4626 40.5089C54.5433 40.5089 53.4993 38.6348 51.5264 38.1018C52.7561 37.3023 54.8529 37.5774 54.0921 36.2362C56.0296 37.4484 56.2862 35.153 58.5157 36.2362L58.0645 36.5801C59.9313 35.5915 60.1613 36.8552 61.7007 35.9611C61.5857 36.219 61.7804 36.3824 61.975 36.5457C65.3016 36.0127 60.9841 35.686 64.3284 34.5168C67.2745 34.7662 65.2131 36.6919 66.0536 37.3453C61.0726 39.0646 66.1244 39.5547 60.7452 40.9044C60.7452 42.684 62.8332 42.9591 65.6997 42.7785C63.8506 41.9962 66.9383 40.1994 64.4788 38.9185C68.7697 38.1018 68.4689 34.62 73.2287 36.3394L73.1049 36.5973L75.0867 35.3422L77.7409 36.0901C76.0333 37.9384 73.9808 36.9498 72.6448 38.0502C75.9095 39.9759 77.0685 36.2792 80.8993 36.4856C84.049 38.6864 76.9711 37.6891 76.9711 39.4687C77.7409 39.0131 79.8023 39.9587 79.5546 40.4831C76.0156 39.761 77.3693 41.5664 73.4145 40.4831C75.3609 39.9072 73.1314 39.8986 73.503 39.1162C72.9279 39.7352 69.2032 39.9759 66.5844 39.6235C65.9651 40.913 68.8493 40.7325 70.4949 41.3428C73.6534 39.9587 76.8738 42.555 79.3422 40.9474C82.7396 40.827 79.5811 42.2111 79.7846 42.3659C82.8192 43.0279 81.1205 41.3085 82.0937 41.0162C86.7032 40.0963 87.1809 42.6238 90.4544 42.7356C93.2059 41.0162 99.8325 41.7211 104.477 41.8759C103.911 42.4862 104.477 42.9763 104.796 43.5953C107.592 41.1967 106.565 42.1682 110.104 40.6809L107.193 39.7696C109.538 39.5117 111.449 37.8267 113.581 39.1936C110.759 36.924 117.386 37.6032 119.12 36.8552C121.508 37.7149 123.933 36.0815 125.224 37.4742L124.897 37.5688L128.374 37.8611L127.932 39.9931C130.311 40.8528 133.24 39.271 132.452 38.6262C134.956 39.2022 133.47 39.4343 133.833 40.4402C132.408 41.0935 129.338 42.9075 128.524 41.1623C128.728 41.3257 129.25 41.3858 129.409 41.1623C122.889 40.1135 127.25 43.7414 123.986 44.2486C125.684 44.4206 126.941 45.4694 128.763 44.9192C130.829 44.6126 132.851 44.0731 134.788 43.3116C132.399 44.2572 131.187 43.3116 129.329 42.5206C130.913 42.7184 131.178 41.5148 132.523 42.2197L132.081 42.5808L133.85 41.8329C134.098 43.0966 138.584 42.4003 135.947 43.8618C138.301 43.5953 136.761 42.727 138.902 42.2971L134.479 41.7985L134.567 40.4488C136.115 39.5375 136.478 40.5347 138.168 40.4488L138.044 38.9271L141.034 40.2424C140.672 39.2452 142.981 39.6492 143.627 39.4601C145.281 40.0705 144.184 42.4003 147.024 41.0935L146.82 40.9302C148.373 40.3312 150.075 40.2024 151.704 40.5605C151.58 40.8184 150.943 41.0162 150.625 41.1193C153.854 41.9188 159.056 39.6664 160.516 41.8931C160.242 43.088 158.906 42.3831 158.826 43.7414C153.854 41.9188 155.287 45.925 149.448 44.816C149.2 41.7641 144.476 46.5354 143.388 43.5351C145.688 43.9477 148.758 42.1252 148.36 41.8157C146.171 42.0144 143.965 41.9683 141.786 41.6781C143.078 42.684 142.671 44.3604 141.689 45.392C145.131 44.5323 151.35 46.6902 156.207 46.9997L155.677 45.1599C159.879 43.879 155.155 46.8793 158.428 46.9911L159.879 45.6585L160.083 45.8219L162.498 44.197C160.808 44.2658 161.613 45.5898 159.711 44.816C158.057 44.2056 159.791 43.4577 160.277 42.4175C161.41 42.9763 165.444 42.6152 162.931 43.8274L167.355 42.022C167.355 42.7012 166.346 43.0021 165.895 43.3545L169.098 43.0536L168.974 43.3116C171.557 42.512 175.167 42.5206 177.131 41.2483C172.761 39.9157 179.228 39.718 178.901 38.6692C180.476 38.8497 180.944 42.0564 177.591 43.3116C176.707 42.2455 174.397 43.6124 172.699 43.6898C174.884 44.3604 175.565 43.4835 177.273 43.4061C176.061 44.2658 179.538 44.4893 179.502 45.1685C179.406 45.4724 179.245 45.7533 179.03 45.9929C178.814 46.2324 178.549 46.4253 178.253 46.5591C177.956 46.6928 177.633 46.7644 177.306 46.7692C176.978 46.774 176.654 46.712 176.353 46.587C173.079 46.4752 176.025 44.8676 175.052 45.2029C174.167 43.4835 170.487 45.4866 168.505 44.988C168.293 44.8246 168.948 44.6269 169.266 44.5237C167.559 44.6011 163.958 44.5925 163.692 45.7961L167.974 44.9364C168.903 45.3232 166.647 46.0196 167.974 46.7245C169.074 46.3749 170.252 46.3214 171.381 46.5698L171.142 47.0856C173.725 48.0743 177.777 47.7304 180.759 47.249C181.44 44.5925 183.006 43.0021 184.298 40.1479C188.913 40.0788 193.529 40.2913 198.117 40.784C198.032 40.2381 198.099 39.6799 198.312 39.1678C199.648 39.8642 202.116 39.3226 202.036 40.6809C203.479 39.3397 207.557 38.2995 206.787 36.9756L207.327 36.8896C209.035 38.3597 211.609 39.5203 216.254 39.8298C217.139 39.8298 217.298 38.9701 217.086 37.6633C217.981 38.0797 218.94 38.3526 219.926 38.4715C219.209 39.056 218.74 39.8298 217.378 39.9072L224.588 40.3714L224.031 40.9818L226.871 40.1221C225.269 40.466 222.792 40.1221 223.403 38.7466C226.623 37.7493 228.454 39.185 231.188 37.4312C231.188 39.89 232.073 40.2682 231.188 41.6781C231.07 41.6722 230.957 41.6266 230.87 41.5492C229.632 43.0709 227.933 44.1749 226.013 44.7043C232.002 45.5038 230.436 44.6441 235.745 45.2287C236.205 46.6472 230.896 46.7503 232.126 47.7046L227.18 47.0168C228.021 46.9223 228.127 46.5956 228.525 46.3721C225.119 47.3951 223.889 46.097 221.323 47.7304C219.704 47.0684 223.854 46.6472 222.075 46.3979C223.58 46.14 225.057 44.5409 225.783 43.4405C221.89 42.8645 223.571 45.2459 220.262 45.8305L217.785 44.5839C216.289 44.8246 218.271 45.3318 218.36 45.7445C216.59 46.0884 215.856 45.1857 214.476 45.1685C214.883 45.4866 215.812 45.8649 215.573 46.3893C213.299 45.306 211.043 46.011 208.937 43.9907C210.149 44.9536 207.531 46.4323 206.557 46.7417L210.91 48.7362C216.44 48.1259 219.89 49.0629 225.862 48.1001L225.508 48.8824C234.913 51.2981 233.312 45.0997 241.354 45.0309C241.584 46.9653 245.078 44.7558 244.778 46.63C242.345 46.5096 242.84 47.2404 243.539 48.1345C244.946 47.4725 245.857 46.0712 248.582 46.7761C247.582 47.7648 249.971 48.5729 247.308 48.9598C250.997 49.3724 253.014 49.1833 254.89 47.4811C260.897 45.8133 256.66 49.5873 262.667 48.5901L261.782 49.3208L265.498 49.0371L264.277 48.0829L268.701 46.9137C271.355 45.8305 267.595 45.7015 267.94 44.9192L267.055 46.3205C265.286 45.9938 262.773 47.2318 262.401 46.2345C265.303 46.011 264.604 44.9106 265.755 44.3432L262.994 44.9278L262.109 43.879C259.358 43.879 257.243 43.6296 255.607 44.816C256.748 45.349 257.456 43.7844 258.473 44.5839C257.137 46.3033 253.731 46.5182 250.422 47.1114C250.334 46.6902 249.281 46.5784 249.732 46.2517C249.794 46.0884 250.378 46.1056 250.696 46.1743C250.449 45.392 252.289 44.8848 249.175 44.4549C250.29 43.2084 252.616 41.1451 252.528 40.7153C254.445 40.3246 256.424 40.3246 258.341 40.7153L258.225 40.9732C259.8 41.1537 263.136 39.8556 263.41 41.1193C264.366 40.8098 267.029 40.4144 264.295 39.7094L268.771 38.9615C268.037 41.2139 272.248 41.6523 267.825 43.5093C267.975 43.5093 269.594 43.1912 272.248 42.7699C272.204 42.8387 272.178 42.9161 272.125 42.9935C271.968 43.0827 271.849 43.2227 271.788 43.3889C271.258 43.3287 270.904 43.4319 270.842 43.0021C269.285 44.6183 271.594 45.0052 274.027 45.1255L274.602 43.8532C276.707 44.5581 277.973 45.6929 280.795 45.1255L287.324 40.3628L289.244 40.0533C290.129 40.784 292.986 40.2166 291.898 41.6953C292.19 42.2799 291.226 42.555 289.961 42.3143C289.766 42.1596 290.085 42.0564 289.881 41.8931C289.527 42.684 289.386 43.6124 290.925 44.4721C289.35 44.3088 289.156 44.1541 288.067 44.7215L289.642 44.8848C287.307 45.1857 283.732 46.9911 283.785 48.0915C284.493 46.5268 286.006 48.0915 287.271 48.3236C286.307 48.6331 284.254 49.51 285.829 49.6733C286.386 49.0457 290.669 48.1431 287.599 47.5413C288.881 47.1286 290.607 46.3635 292.066 46.7933C290.359 47.5671 291.491 48.0915 291.022 49.1403C291.478 48.8525 291.865 48.4735 292.158 48.0288C292.451 47.584 292.643 47.0837 292.721 46.5612C297.1 47.8336 298.914 50.619 303.807 49.4842C304.453 49.2779 300.825 50 301.285 48.9512C304.868 47.1372 305.974 50.8081 309.089 50.0258L308.204 48.3064C309.678 47.9604 311.173 47.7048 312.681 47.5413C312.981 48.1259 316.317 49.2607 313.857 49.8539C319.166 50.8167 318.555 46.1056 324.677 46.5956C322.9 46.2884 321.091 46.1931 319.289 46.3119C321.661 45.3318 319.652 45.5382 319.9 44.3346C321.333 45.435 325.925 44.412 322.811 45.8649C324.704 45.925 328.508 46.0282 329.384 45.2975L327.712 44.7215C330.464 44.7215 333.153 43.6296 334.259 42.3745C330.853 42.5722 330.994 44.773 326.659 44.6097C321.953 43.4577 327.765 43.3545 324.66 41.6781L321.333 42.9763L322.908 43.1396C322.421 44.859 317.732 43.0107 318.175 45.1083C314.76 43.5179 313.751 44.5151 310.018 43.0279C309.133 43.7586 310.504 43.7672 311.566 43.8876C309.664 43.8274 309.584 45.8735 307.089 44.6527C305.833 44.3948 306.709 46.1228 308.938 46.0798C307.036 46.0196 305.222 46.3721 303.117 46.1572L305.143 47.2834H302.922L304.798 48.0313C300.56 48.272 295.694 48.0313 293.447 46.3119C297.1 44.9106 303.179 45.4522 305.32 43.174C304.497 42.5378 302.391 44.7816 301.312 42.8903L300.206 44.1369C298.914 44.5581 295.933 45.0653 295.667 43.8102C299.206 42.8731 300.091 41.7641 301.86 40.6723C301.86 40.4058 302.197 40.2682 302.745 40.208H302.798C304.052 40.1914 305.303 40.0822 306.541 39.8814C307.788 40.1479 306.93 40.87 306.806 41.1365C311.079 42.6754 313.99 38.5574 318.502 39.6149C318.555 40.7153 322.041 40.9388 320.962 41.5148C323.616 41.7899 325.022 40.423 326.739 39.6492C327.128 40.6379 330.747 39.9072 329.437 41.0076L331.826 39.2882C333.489 39.8728 336.913 38.9873 337.506 40.1479C339.32 39.7782 337.993 38.4285 340.514 38.9443C340.399 39.2108 340.603 39.3655 340.072 39.3054C341.213 39.8384 343.973 39.847 345.159 39.0045C343.389 38.6864 344.752 38.6864 342.637 38.4801C342.682 37.8009 345.026 36.8122 347.433 37.6204C344.195 39.3397 350.016 39.2452 348.503 40.1994C353.679 40.3198 356.616 38.0158 360.889 36.3824C365.977 36.0557 372.302 36.6747 376.257 35.153L375.735 35.1014L378.089 34.1042C379.469 34.1042 378.142 35.8838 380.265 35.4023C379.575 36.9756 376.558 35.729 374.399 36.881C378.159 38.3425 370.966 38.4629 373.461 39.6578C374.842 36.5113 381.424 39.0732 384.644 37.3367C387.803 37.6461 383.22 38.695 384.786 38.8583L385.741 37.9041C386.989 38.1706 387.414 38.4801 387.387 39.1592C390.797 39.6015 394.266 39.076 397.376 37.6461C393.757 38.3941 398.579 36.1245 394.996 36.1933C396.066 35.6087 398.402 35.2906 400.614 35.2218C398.49 35.7032 403.516 37.4054 398.765 36.9412C399.455 38.5058 401.1 36.6145 403.188 36.8122C402.118 37.3968 399.738 38.4027 399.959 38.5316C403.091 36.3652 410.178 39.6235 411.381 38.1018C413.655 36.6747 417.176 35.5227 419.963 34.13C422.785 35.2132 425.873 34.3965 429.031 34.6888L428.483 35.3164C430.252 35.6173 433.03 34.9123 435.667 35.153L436.277 36.305C438.908 35.8744 441.572 35.6587 444.24 35.6602C444.24 34.9811 441.709 35.1616 442.895 34.3191C441.524 34.3191 440.356 34.4911 440.869 35.2218C439.489 35.2218 439.409 34.1386 438.277 33.6228L443.585 32.7631C444.01 32.8404 444.169 32.935 444.195 33.0296L444.558 31.7658C445.938 31.7658 446.328 32.0581 446.124 32.6255C449.097 32.0839 450.097 30.4075 453.264 30.6826C451.955 31.8002 451.087 32.5395 448.84 32.6083L452.441 32.5224C450.822 33.7517 444.594 33.5798 445.699 35.4625C449.637 34.6028 455.378 33.3305 458.793 31.7142C460.669 33.1155 463.35 31.3016 466.393 31.8518C466.809 32.1527 467.756 32.5138 467.207 33.1413L466.323 33.2101C470.348 33.425 474.904 32.3504 478.417 31.1296L480.407 32.5138C486.521 32.9092 479.195 30.227 485.441 29.6768C486.99 31.1726 493.139 30.1926 493.404 31.4477C494.572 31.2758 495.103 31.3188 495.227 30.3645C494.165 30.2785 491.838 30.631 493.139 29.5048C495.253 28.9976 496.297 29.7713 497.987 29.6424C497.881 29.9089 496.686 30.76 497.332 30.5021C501.473 29.7627 509.188 29.5908 513.045 26.9257C511.541 27.261 511.373 28.2067 509.409 27.7596ZM342.036 13.0416C342.11 13.3813 342.154 13.7264 342.169 14.0732L340.903 14.4859C341.133 14.0561 341.39 13.6262 341.673 13.1792L342.036 13.0416ZM335.02 17.8989H335.188V17.9505L335.02 17.8989ZM338.665 17.8559C339.578 16.8618 340.327 15.7366 340.886 14.5203L342.151 14.2452C342.151 15.2596 341.629 15.9646 340.718 17.4089C340.542 17.5338 340.382 17.6781 340.24 17.8387C339.721 17.7242 339.181 17.7301 338.665 17.8559ZM346.981 18.1052C346.984 18.0652 346.984 18.0249 346.981 17.9849C348.62 17.8057 350.271 17.7511 351.918 17.8215C351.97 17.9048 352.018 17.9909 352.06 18.0794C350.352 18.1052 348.468 18.0536 346.981 18.1052ZM262.18 18.5609C262.135 18.7438 262.114 18.9316 262.118 19.1197C261.879 19.0509 261.641 18.9821 261.419 18.9047C261.622 18.7051 261.892 18.5831 262.18 18.5609ZM267.365 19.8418C267.6 19.6999 267.798 19.5061 267.943 19.2761C268.087 19.0462 268.174 18.7864 268.196 18.5179C269.293 19.5839 268.807 20.0052 268.249 20.4694L267.86 20.5296C266.993 20.521 267.188 20.1943 267.365 19.8418ZM242.513 16.2569C242.325 16.3121 242.161 16.4265 242.047 16.5822C241.933 16.7378 241.876 16.9258 241.885 17.1166C241.264 17.13 240.647 17.0339 240.062 16.8329C241.168 15.9302 239.443 15.7583 238.859 15.3284C240.248 15.2768 241.814 15.3628 242.513 16.2569ZM236.55 14.6149C235.913 15.3628 236.797 15.3542 238.089 15.3198L234.347 17.2627C233.542 17.1768 232.692 17.0994 231.843 17.0822C232.949 15.5949 234.223 14.142 236.55 14.6149ZM226.251 18.0021L225.721 17.8731C225.774 17.7442 225.827 17.6066 225.871 17.469L226.251 18.0021ZM223.951 19.8332H223.898H223.951ZM224.57 17.598L224.163 17.5206L224.553 17.4003C224.563 17.4657 224.569 17.5318 224.57 17.598ZM216.298 16.3342C217.094 16.4804 218.307 15.5863 218.952 16.4632C219.135 16.5552 219.3 16.6774 219.439 16.8243C218.155 17.0428 216.892 17.3619 215.661 17.7785V17.6582C215.695 17.1549 215.923 16.6824 216.298 16.3342ZM211.45 18.9649L210.671 20.9594C210.588 20.6353 210.394 20.3478 210.123 20.1427L208.796 21.2259H208.707L208.185 21.0626V21.14C207.469 20.9078 207.681 20.2803 208.38 20.2803C206.566 20.6241 207.009 20.2803 206.327 21.14C205.592 21.1728 204.855 21.147 204.124 21.0626C204.177 20.8827 204.177 20.6922 204.124 20.5124C204.027 20.6701 203.947 20.8372 203.885 21.011C203.24 20.8735 203.125 20.6241 203.16 20.3318C203.391 20.1511 203.607 19.9527 203.806 19.7386C203.935 19.9869 204.042 20.2458 204.124 20.5124C205.239 18.6984 208.097 19.3518 211.406 18.7328C210.721 18.8616 210.049 19.0486 209.397 19.2916C210.22 19.1025 210.875 19.0165 211.45 18.9649ZM210.494 21.4065L210.371 21.7246L210.114 21.6472C210.261 21.5925 210.396 21.5108 210.512 21.4065H210.494ZM199.064 17.7012C198.256 18.2555 197.511 18.8925 196.843 19.6011C201.028 18.2944 197.294 21.011 199.497 21.673C199.213 21.9217 198.839 22.0521 198.457 22.036C198.075 22.0199 197.715 21.8587 197.453 21.587C197.144 21.9825 195.029 22.2318 195.304 22.9711C195.032 22.2591 194.504 21.6667 193.817 21.3033C194.552 20.5812 196.029 19.5065 197.268 18.5437L197.878 18.0622C198.25 17.8784 198.651 17.7563 199.064 17.7012ZM195.764 18.4491L195.127 19.3518C194.95 18.9133 194.817 18.5093 195.79 18.4491H195.764ZM195.843 18.3287C195.737 18.3287 195.622 18.2686 195.516 18.2256L196.029 18.0708L195.843 18.3287ZM194.313 18.5953C194.622 19.0681 194.525 19.5065 193.136 19.8504C193.606 19.9791 194.085 20.0739 194.569 20.1341L193.755 21.2689C193.141 20.9088 192.499 20.5955 191.835 20.3318L191.72 19.3776L194.313 18.5953ZM163.675 15.1994C170.337 15.9904 168.204 15.7926 173.822 12.3539C175.539 14.2538 174.424 15.7926 173.522 17.1338C172.69 17.2025 171.876 17.2541 171.115 17.2799L172.663 16.3342C166.815 13.4629 167.47 18.6039 164.046 19.4292C165.471 18.8876 164.931 18.5695 163.887 18.2342C164.205 17.3315 163.621 16.0334 163.675 15.1994ZM96.5767 17.4175C96.2936 16.8329 97.3907 16.2913 98.5408 16.1537H98.6647C98.5939 17.065 98.2046 17.7442 97.3464 17.7613L96.5767 17.4175ZM124.508 21.8363C124.825 21.9081 125.138 21.9971 125.445 22.1028C125.065 22.1458 124.676 22.1802 124.269 22.206C124.386 22.1068 124.475 21.9793 124.525 21.8363H124.508ZM107.751 20.0653C107.574 20.0653 107.397 20.0653 107.22 20.0653L107.574 19.7472C107.653 19.8447 107.718 19.9516 107.769 20.0653H107.751ZM84.5798 14.6149C84.7294 14.7103 84.8585 14.8329 84.9602 14.9759C84.5108 14.9813 84.065 14.8964 83.6508 14.7266C83.948 14.6221 84.2654 14.5839 84.5798 14.6149ZM48.6598 18.2944C47.8901 18.7414 45.8818 18.8876 45.9526 19.3088C46.2899 19.1235 46.6709 19.0261 47.0585 19.0261C47.446 19.0261 47.827 19.1235 48.1644 19.3088C46.7622 19.591 45.3228 19.6549 43.9 19.4979C44.1822 19.3638 44.4517 19.2056 44.7051 19.0251L44.4751 19.3002C49.4295 17.0908 42.9179 15.6293 48.6864 13.5488C49.5711 13.7638 49.4384 15.3972 49.5003 16.7813C48.6839 16.6897 47.8568 16.7569 47.0673 16.979C48.3325 17.2885 46.7134 17.7613 48.6598 18.2944ZM55.1449 19.2744C53.1896 20.0309 52.3668 18.8102 51.2344 18.6124C51.5712 18.4898 51.8943 18.3343 52.1987 18.1482C50.1108 16.2655 55.0033 13.5832 57.5071 12.7235L54.9414 17.022C55.7749 16.9005 56.5875 16.6691 57.3567 16.3342C57.0757 16.4824 56.8192 16.6707 56.5958 16.8931L57.1267 16.9618C56.0296 17.4605 52.0218 18.8618 55.1626 19.2744H55.1449ZM56.9143 17.8559C56.6312 17.0564 57.3567 17.0822 58.3211 16.936L58.3918 17.1939C58.3992 17.0938 58.3992 16.9932 58.3918 16.8931C58.628 16.8599 58.8615 16.8111 59.0908 16.7469C58.9937 16.5894 58.8656 16.4522 58.7138 16.343C58.5619 16.2338 58.3894 16.1549 58.2061 16.1107L58.091 15.251C57.8787 11.6317 61.3291 15.7411 63.134 13.5316C61.9838 16.1107 61.3645 17.065 61.046 18.0966L58.6926 18.1654L59.5774 17.4605C58.7249 17.7113 57.8404 17.8444 56.9497 17.8559H56.9143ZM72.0963 18.6382C74.0958 17.022 75.9979 15.0963 77.5905 13.652C77.2404 14.8531 77.147 16.1112 77.3162 17.3487C76.9446 18.0536 76.3607 18.6382 74.6178 18.6124C73.7905 18.674 72.9601 18.6827 72.1317 18.6382H72.0963ZM85.7034 15.38C86.5882 13.205 87.871 14.9845 89.1715 14.2968C88.9256 14.4621 88.723 14.6813 88.5801 14.9366C88.4372 15.192 88.3579 15.4763 88.3488 15.7668C87.4626 15.7811 86.5803 15.6503 85.7388 15.38H85.7034ZM109.98 30.7256C110.027 30.6392 110.091 30.5627 110.168 30.5007C110.246 30.4387 110.335 30.3924 110.432 30.3645C108.166 30.3197 105.9 30.4059 103.646 30.6224L104.53 29.9175C104.035 28.8858 101.699 29.9605 99.3725 30.0206C98.6735 30.588 97.1607 31.1382 96.2494 30.3989L96.621 29.6166C96.2228 28.9202 93.9137 28.8514 91.3126 28.7569C91.6399 28.5248 91.9938 28.2582 92.3831 27.9488C93.0596 27.3732 93.886 26.9895 94.7719 26.8398C94.0874 26.9532 93.3836 26.8316 92.7812 26.4959L97.3995 23.7792C95.0992 23.358 94.7453 25.9113 91.9054 25.4212C92.1 23.9512 91.9938 23.1259 94.2234 22.1372C94.6631 22.5366 95.2258 22.7843 95.8247 22.8422C95.7274 23.0485 95.7274 23.2634 96.1521 23.4869C98.1692 21.5526 98.6912 25.2063 100.832 22.9797C103.371 22.8765 102.602 24.0113 103.363 24.6561C100.832 24.7507 104.53 26.3067 101.345 26.6076C103.92 27.6049 103.248 24.8882 105.424 25.5932L105.734 27.3126C107.715 27.8284 111.989 28.7741 114.696 27.7338C112.44 26.6334 116.032 26.6678 115.669 25.662C115.262 27.1235 112.13 26.0488 112.201 25.3697C114.54 24.9973 116.917 24.9078 119.279 25.1032L116.112 24.2435C117.324 23.3838 121.641 21.9051 121.765 21.6644C121.91 21.7404 122.061 21.8065 122.216 21.8621L121.818 22.3435C122.011 22.1759 122.233 22.0421 122.473 21.9481C123.729 22.3435 125.224 22.3607 125.799 23.1259L123.296 24.3208L122.411 23.2462L120.96 24.5787C122.57 25.086 125.976 26.0402 126.693 27.2266C122.915 27.0289 117.102 27.8284 110.016 30.7256H109.98ZM128.285 21.63C128.223 21.3992 128.185 21.1631 128.17 20.925C129.055 20.564 129.843 20.0224 130.311 19.9364C130.069 19.5279 130.002 19.0428 130.126 18.5867L133.054 17.555V17.8817C132.258 18.088 132.497 18.4663 132.736 18.8618C132.691 18.664 132.868 18.5609 133.134 18.4921L133.32 19.9622C131.679 20.6198 129.998 21.1768 128.285 21.63ZM200.833 33.3133L200.594 32.0581C195.012 31.5595 191.03 34.792 185.253 34.1128C186.058 32.978 188.243 33.64 187.907 33.064C184.43 32.7889 184.89 35.9955 181.493 34.3621C186.377 33.9752 178.45 33.7345 182.855 32.6427C176.724 34.5254 170.204 31.8518 166.17 32.1957C167.178 33.0038 164.497 33.3735 164.4 33.64C163.33 33.5282 163.675 32.6685 164.559 32.6685C162.489 31.955 162.082 30.9061 162.436 29.9003L166.568 29.7799C165.196 29.4274 164.895 28.5677 163.126 28.3872H163.33C162.795 28.307 162.249 28.3975 161.772 28.6451C161.047 29.075 161.188 29.2555 161.18 29.8487C159.817 30.6568 158.11 31.6541 155.933 32.8662L156.057 32.6083L151.492 32.8834L152.049 32.273L149.395 33.3133C149.466 31.9549 148.572 32.6685 148.74 31.7314C147.077 29.3415 142.768 32.6513 139.132 31.5337L139.69 30.9147C137.708 32.1871 132.824 30.7772 129.683 30.4075L129.798 30.141C131.727 29.6252 132.107 28.8342 131.232 28.1981C131.895 27.923 132.939 27.751 133.558 27.4415C134.611 27.5705 137.593 27.1063 137.832 28.37C135.62 28.37 135.823 28.5334 136.832 29.3329C139.008 28.2325 143.078 28.9976 142.883 27.0547C145.953 27.0117 143.812 27.4415 145.989 28.1121C146.272 28.6967 145.502 29.1523 144.733 29.608L153.651 28.8944C154.058 27.4415 147.926 27.5189 150.996 25.6964C151.757 25.2407 151.669 23.0399 154.703 23.6847C154.703 23.8824 154.473 24.0199 154.173 24.1145C155.553 23.8566 155.783 24.381 157.278 24.6733C157.72 26.1004 155.42 25.6878 154.42 26.6592C155.393 26.3669 156.473 25.7995 157.535 25.9371L157.287 26.4615L160.481 26.152C161.799 25.0774 158.057 25.9972 157.888 25.1633L159.941 24.3036C162.286 24.0371 168.532 23.6675 170.637 25.6964C173.345 26.4185 172.168 24.7765 172.849 23.8996C174.495 22.7218 176.008 24.2693 177.609 23.7706C177.609 22.6702 179.467 22.7562 179.538 21.3979L182.192 21.7074C183.669 19.6871 179.042 21.3377 178.352 20.435C176.963 18.6296 180.29 19.8418 179.387 18.7758C177.379 18.9563 177.22 19.8934 176.247 20.1857C175.992 20.2396 175.729 20.2383 175.475 20.1818C175.221 20.1254 174.983 20.0151 174.778 19.859C174.952 19.6588 175.144 19.4746 175.353 19.3088C177.476 19.5237 176.547 17.7613 178.892 18.0364L178.972 18.4577C179.025 17.4605 181.024 17.641 182.652 17.598C183.386 17.8559 184.183 18.1052 185.005 18.3803C184.616 19.1455 181.891 19.4893 181.953 19.7988L185.492 19.3862C183.961 20.2975 185.492 21.1657 183.448 22.0168C185.589 21.587 185.837 22.8765 187.872 22.0168C185.545 24.0715 190.747 23.5815 190.995 24.8538C188.739 25.3353 184.749 23.5557 184.607 23.1345C184.244 23.4268 181.696 23.2118 180.661 22.7132L178.98 24.5787C180.874 24.6561 183.404 23.8566 182.723 25.4384L185.306 24.6389C182.652 27.1063 182.776 27.0117 180.361 28.0777C185.315 30.1066 189.208 25.9285 193.269 27.7596L192.632 27.9488C200.718 27.4759 202.62 30.012 204.346 32.9006L200.833 33.3133ZM210.291 24.1231C205.69 23.3236 206.124 27.2094 201.718 26.5732C200.833 24.8538 205.531 24.2693 208.229 23.2118C207.345 22.5155 208.035 22.2748 208.92 22.034C210.202 23.0055 212.22 20.6069 213.989 20.7703C214.321 20.6211 214.616 20.4053 214.855 20.1371C215.095 19.8688 215.273 19.5543 215.378 19.2142C216.667 19.5973 218.013 19.7659 219.359 19.7129C219.076 20.3404 218.731 20.9336 218.519 21.3721C218.83 20.7869 219.188 20.2263 219.589 19.6957C220.453 19.629 221.31 19.5026 222.155 19.3174C219.634 21.2173 217.82 21.5612 215.077 23.3064C214.042 23.1774 213.635 22.8679 213.556 22.4467C212.671 23.1688 212.405 24.3638 210.778 24.8624L210.291 24.1231ZM240.274 24.338L242.062 25.7909C241.177 25.8339 239.567 27.0203 239.637 25.662C239.637 26.3411 238.284 27.4329 240.743 26.8827L238.876 27.8886C238.979 28.0488 239.119 28.1841 239.283 28.284L237.62 28.4732C236.93 28.0175 235.665 28.0691 234.586 27.0031C234.506 26.5818 235.665 26.4357 236.355 26.238C235.026 25.7665 233.571 25.7513 232.232 26.195C234.886 26.4787 233.453 27.1492 234.002 28.3098C232.391 28.8171 229.764 28.5248 228.799 28.8342C226.57 28.3442 224.747 27.0289 226.225 25.9972C224.8 26.5475 223.305 25.9972 221.801 27.218C224.606 25.8941 221.863 30.098 225.446 28.3098C226.508 30.2184 222.421 29.479 220.563 28.7225C221.527 28.413 220.713 27.7768 220.952 27.261C218.174 27.8972 219.483 29.2813 221.465 29.7713L218.236 30.7858H218.554L215.281 31.2156C214.865 29.7197 214.776 28.7225 215.688 29.0922L213.918 28.0691L216.572 27.6823C215.52 26.5045 213.671 27.5103 212.335 27.5103C210.795 26.6506 215.874 26.4099 217.563 24.5444C218.917 23.7276 221.704 24.5873 221.89 25.2321C222.323 23.5127 226.835 24.3294 228.605 23.3408C233.028 23.2806 231.533 25.9886 235.479 25.1891L234.019 24.0715C237.558 23.6331 239.009 23.3838 242.867 23.9512C243.344 25.3783 241.106 23.6159 240.23 24.338H240.274ZM242.84 27.9058C243.185 27.261 242.681 26.556 244.901 26.9085C244.863 26.9746 244.84 27.0479 244.834 27.1234C244.828 27.1989 244.839 27.2748 244.866 27.3458C244.893 27.4169 244.935 27.4815 244.99 27.5351C245.045 27.5887 245.112 27.6301 245.185 27.6565L242.84 27.9058ZM259.384 33.1327C255.607 32.9436 251.643 32.5052 247.706 32.273L248.202 33.0124C246.945 32.7373 245.945 33.7259 245.247 32.8232C245.176 32.4536 251.44 28.2668 253.413 27.132C255.565 26.8683 257.747 26.9321 259.88 27.3212L259.137 27.5619C247.724 27.5103 252.51 29.9347 259.34 33.1327H259.384ZM270.78 24.5358C268.267 23.9856 268.524 27.708 266.197 25.5416C265.834 26.5389 266.436 26.9429 267.338 27.1406C267.083 27.2899 266.899 27.5308 266.825 27.8112L264.242 27.6909C263.516 27.5619 262.87 27.3986 263.065 26.9859C263.251 25.3611 266.312 25.2665 267.223 23.8738C267.94 23.4096 271.532 23.3838 270.727 24.5358H270.78ZM277.955 18.9133C275.584 19.8848 280.052 19.1369 278.539 20.0653C275.389 19.7301 276.61 23.1431 271.709 21.7847C271.868 21.4237 271.541 20.6671 272.302 20.1685C273.505 20.2373 274.584 20.2545 275.133 19.6011C275.173 19.7799 275.202 19.9607 275.221 20.1427C277.141 18.4233 280.291 18.0279 284.068 15.5433L282.741 17.6496C283.094 17.7868 283.479 17.8249 283.853 17.7595C284.227 17.6942 284.574 17.528 284.856 17.2799C284.843 17.3739 284.804 17.4627 284.743 17.5369C284.682 17.611 284.602 17.6678 284.511 17.7012C283.343 17.8473 282.352 18.836 281.335 18.0364L281.892 17.4175C278.618 17.9935 280.901 19.0595 277.955 18.9133ZM281.202 28.8686L281.724 27.6909C281.977 27.824 282.197 28.0104 282.367 28.2365C282.537 28.4625 282.652 28.7225 282.706 28.9976L281.202 28.8686ZM286.024 29.2813C286.101 29.2711 286.178 29.2568 286.254 29.2383C286.719 29.2049 287.186 29.2664 287.625 29.4188L286.024 29.2813Z" fill="white"/>
<path d="M190.792 42.4345L192.199 41.7726C189.544 41.4631 188.562 42.4431 187.474 43.0019C187.598 42.744 187.395 42.5807 186.988 42.2626C184.643 42.5377 183.449 44.0336 184.608 44.9964L185.386 44.5408L187.005 45.8303C187.633 43.3544 192.411 44.7901 195.039 43.6983C193.269 44.7815 191.668 47.0597 189.35 45.5466L189.598 46.8104C187.58 46.9823 185.952 45.7014 184.829 46.9393L187.182 46.6642V47.3434C188.846 47.266 190.969 46.2086 192.491 46.9737C193.844 46.114 195.145 44.8073 198.684 45.1168L198.569 45.3833C201.019 43.0535 205.372 46.8276 207.23 45.8131C208.301 43.4748 203.267 44.8159 202.046 43.853C203.567 42.9332 205.195 44.2141 203.886 42.8386C207.425 41.7296 206.009 44.8503 208.947 43.2684L207.283 42.6667C208.602 41.592 210.822 42.2454 212.123 41.1708C212.317 39.546 209.893 41.1708 207.381 40.6378L208.513 39.3912L203.488 40.7323C202.001 42.7612 203.382 42.7698 200.241 44.1711C199.15 43.3399 198.416 42.1453 198.179 40.8183C197.047 42.0563 194.065 42.5463 190.792 42.4345Z" fill="white"/>
<path d="M43.9897 36.5113L43.8204 36.5887C43.88 36.57 43.9369 36.544 43.9897 36.5113Z" fill="white"/>
<path d="M184.545 22.9456C184.534 22.9467 184.524 22.9505 184.516 22.9567C184.507 22.9628 184.5 22.971 184.496 22.9806C184.491 22.9902 184.49 23.0007 184.491 23.0112C184.492 23.0216 184.495 23.0316 184.501 23.0402C184.516 23.0291 184.527 23.0147 184.535 22.9982C184.542 22.9818 184.546 22.9637 184.545 22.9456Z" fill="white"/>
<path d="M119.297 25.1117L119.553 25.1805C119.47 25.148 119.385 25.1249 119.297 25.1117Z" fill="white"/>
<path d="M339.656 25.3866C339.705 25.3204 339.738 25.2439 339.752 25.1631L339.656 25.3866Z" fill="white"/>
<path d="M32.4084 31.946C32.4084 30.8456 35.7969 31.8429 34.7263 30.6049C33.9478 31.0519 32.0545 30.9488 32.4084 31.946Z" fill="white"/>
<path d="M31.8491 30.1583L33.9105 29.9606L32.4684 29.4877C32.3623 29.7113 32.4065 30.0895 31.8491 30.1583Z" fill="white"/>
<path d="M73.2815 42.5636C73.4407 43.4232 74.6528 42.5636 75.3075 42.4088C74.6359 42.2133 73.9134 42.2685 73.2815 42.5636Z" fill="white"/>
<path d="M468.021 40.9736C463.784 41.2831 459.873 41.4808 453.291 42.1256L468.021 40.9736Z" fill="white"/>
<path d="M123.977 39.4253L122.287 37.7059C118.324 38.4539 116.545 39.881 112.502 40.2076C117.793 41.9528 119.545 37.6458 123.977 39.4253Z" fill="white"/>
<path d="M123.331 41.4034C120.677 41.7559 122.074 42.8907 119.65 42.7274L120.818 44.378C120.181 42.7962 123.862 42.564 123.331 41.4034Z" fill="white"/>
<path d="M138.442 43.5009L140.424 44.0167L138.885 43.1484L138.442 43.5009Z" fill="white"/>
<path d="M118.8 23.8569C119.119 23.7623 121.295 24.4329 120.402 23.3669L118.8 23.8569Z" fill="white"/>
<path d="M152.757 43.1656L150.819 43.7588L151.014 43.9136L152.96 43.329L152.757 43.1656Z" fill="white"/>
<path d="M132.755 18.8618C132.781 18.9701 132.84 19.0687 132.924 19.1455C132.874 19.0473 132.818 18.9525 132.755 18.8618Z" fill="white"/>
<path d="M157.048 27.3898C156.776 27.4288 156.507 27.4863 156.243 27.5617C156.521 27.5668 156.797 27.5079 157.048 27.3898Z" fill="white"/>
<path d="M153.942 27.4331C154.277 27.6406 154.661 27.7614 155.057 27.784C155.454 27.8066 155.849 27.7302 156.207 27.5621C155.402 27.5535 154.552 27.0807 153.942 27.4331Z" fill="white"/>
<path d="M165.161 27.2523C165.949 26.6591 165.577 26.7451 164.869 27.2523C164.055 27.2523 164.1 27.6735 163.985 27.9314L163.48 28.3957C163.737 28.2495 163.958 28.0948 164.153 27.9658C165.409 27.9658 166.179 27.9658 165.922 27.3726L165.161 27.2523Z" fill="white"/>
<path d="M198.409 46.3202C195.755 46.0108 196.135 47.6356 194.508 48.0396C197.56 47.8677 198.179 48.2975 201.824 47.9709C198.984 47.4808 198.259 47.2831 198.409 46.3202Z" fill="white"/>
<path d="M194.507 48.0052C194.171 48.0052 193.844 48.0052 193.445 48.0825C193.801 48.1098 194.159 48.0838 194.507 48.0052Z" fill="white"/>
<path d="M206.026 48.4186C205.417 48.4383 204.811 48.3206 204.257 48.0747C204.097 49.0032 206.557 48.4701 206.026 48.4186Z" fill="white"/>
<path d="M192.322 29.4704C193.384 29.5993 194.233 31.3359 195.153 29.9346C194.87 29.3586 193.056 29.6939 192.322 29.4704Z" fill="white"/>
<path d="M214.165 44.5408C213.643 44.4806 212.838 43.8444 213.183 43.0707C212.422 43.5263 211.387 45.1856 214.165 44.5408Z" fill="white"/>
<path d="M197.984 30.3905L200.328 30.1154L199.922 29.7887L197.984 30.3905Z" fill="white"/>
<path d="M226.244 25.9973C226.502 25.8984 226.749 25.7716 226.978 25.619C226.716 25.711 226.469 25.8384 226.244 25.9973Z" fill="white"/>
<path d="M245.22 48.0056L243.813 48.6761L245.583 48.8652C245.07 48.6159 245.954 47.3866 245.22 48.0056Z" fill="white"/>
<path d="M245.956 48.9084H245.61C245.723 48.9433 245.844 48.9433 245.956 48.9084Z" fill="white"/>
<path d="M217.944 26.6505C218.342 26.9686 220.97 27.2695 220.802 26.427C219.844 26.2877 218.866 26.3641 217.944 26.6505Z" fill="white"/>
<path d="M255.378 45.7103L255.165 45.5469L252.838 45.8392L255.378 45.7103Z" fill="white"/>
<path d="M266.056 48.3662L266.463 48.6843L268.391 48.0739L267.984 47.7558L266.056 48.3662Z" fill="white"/>
<path d="M353.245 41.3947L353.829 41.2056C353.625 41.2396 353.429 41.3034 353.245 41.3947Z" fill="white"/>
<path d="M382.804 44.0423C383.372 43.7991 383.983 43.6685 384.603 43.6582C385.223 43.6478 385.839 43.758 386.414 43.9821C386.75 43.1912 385.397 42.512 385.529 41.5749C381.539 40.6379 380.991 44.4119 377.098 43.8875C377.231 42.9504 378.425 42.1079 375.886 42.2713L376.523 42.0564C372.471 43.174 373.32 39.9759 370.799 42.5894L370.843 41.231C369.011 42.2799 365.419 42.3401 363.393 42.555L363.508 42.2885C357.846 43.9219 360.323 42.6753 353.953 43.4061L356.873 41.7813C354.661 41.1537 354.219 42.8817 352.6 42.7269C352.697 42.5034 352.458 41.7813 353.237 41.3944L346.159 43.707C344.319 44.7558 346.548 44.7042 346.84 45.2802C346.168 46.1399 342.806 45.6929 342.62 44.859C343.062 44.4893 344.876 44.1196 343.735 43.6038L341.08 45.796C337.542 44.4807 343.735 42.9161 345.46 42.1337C341.859 41.893 340.815 43.3287 336.993 43.3631C337.903 43.531 338.75 43.935 339.444 44.5323C339.585 46.0626 336.02 45.392 333.472 45.5725C335.1 46.2173 334.171 46.7847 332.994 47.3951C332.822 47.4301 332.665 47.5139 332.543 47.6358L332.145 47.8507H332.454C332.449 47.9717 332.469 48.0924 332.515 48.205C332.561 48.3175 332.631 48.4195 332.72 48.5041C334.852 48.0399 336.506 49.295 337.878 49.3036C336.498 46.8363 342.558 48.676 344.283 47.8937L346.274 47.6272H347.026C347.176 47.8937 346.973 48.2376 345.831 48.7362C346.778 48.2376 349.954 48.3751 349.653 47.5842L356.891 47.4639C357.12 47.5587 357.329 47.6927 357.51 47.8593C357.758 47.7046 357.802 47.5756 357.766 47.4467L389.289 46.8449C387.732 46.6729 386.379 46.1313 384.768 45.8734C387.139 44.1884 382.123 45.6069 382.804 44.0423Z" fill="white"/>
<path d="M335.56 43.3289C336.091 43.3289 336.542 43.3719 336.984 43.3289C336.512 43.2624 336.032 43.2624 335.56 43.3289Z" fill="white"/>
<path d="M391.493 46.7851L389.281 46.8367C390.017 46.9216 390.762 46.9042 391.493 46.7851Z" fill="white"/>
<path d="M329.844 46.303L325.916 46.4491C327.27 47.1455 324.916 47.4464 324.695 47.9708L329.499 47.8934C329.473 47.369 329.942 46.7844 329.844 46.303Z" fill="white"/>
<path d="M330.889 48.8653C331.193 48.4219 331.619 48.0704 332.119 47.8508L329.465 47.8938C329.526 48.2893 329.818 48.6418 330.889 48.8653Z" fill="white"/>
<path d="M332.224 20.4434L330.101 20.9162L330.95 20.856L332.224 20.4434Z" fill="white"/>
<path d="M343.406 23.0742C342.38 22.2918 340.469 22.9194 339.867 23.1257C342.044 23.0741 341.088 23.3836 343.406 23.0742Z" fill="white"/>
<path d="M407.763 41.1538L408.815 41.0506C408.461 41.0429 408.108 41.0775 407.763 41.1538Z" fill="white"/>
<path d="M67.5006 10H432.402V31.3986C432.402 31.3986 18.3057 39.4018 22.1267 27.333C25.9476 15.2642 67.5006 10 67.5006 10Z" fill="white"/>
<path d="M420.317 41.7208C416.946 41.7896 412.018 40.99 411.195 42.4429C411.239 42.1936 411.195 41.9099 410.691 41.7724L408.638 43.3542L410.638 43.8098C408.576 45.3917 401.79 45.1596 400.569 44.2225C404.4 43.6293 402.445 41.8068 407.807 42.7266C407.559 42.2538 406.568 41.4371 407.762 41.1534C401.507 41.8068 395.872 41.0502 389.404 42.761C394.544 44.2053 386.078 44.0935 387.714 46.0193L390.484 45.3229L390.262 45.8473L393.651 45.6238C392.934 44.7641 392.412 44.6867 392.545 43.7411C397.084 44.0334 393.996 44.8329 397.34 45.9677L402.401 45.7098L401.994 46.0021C402.136 46.0055 402.277 45.9797 402.408 45.9264C402.539 45.873 402.658 45.7934 402.755 45.6926L419.804 44.8329C422.9 44.0076 418.052 43.1565 420.317 41.7208Z" fill="white"/>
<path d="M452.272 40.6808L452.229 40.8527C452.341 40.7582 452.376 40.6894 452.272 40.6808Z" fill="white"/>
<path d="M449.504 41.3862L450.168 40.5265L447.151 42.4264L451.911 42.1857L452.229 40.8875C451.813 41.1884 450.159 41.8762 449.504 41.3862Z" fill="white"/>
<path d="M443.824 40.5863L443.63 43.578C446.08 42.9762 445.912 41.4632 444.514 40.7926C446.762 40.0447 445.744 42.4088 447.266 40.7926C447.222 39.675 444.453 40.4057 443.824 40.5863Z" fill="white"/>
<path d="M425.457 43.1479L426.138 42.5031L424.43 42.3655L425.457 43.1479Z" fill="white"/>
<path d="M426.138 42.5039L427.828 42.6414C427.75 42.195 427.568 41.7717 427.297 41.4034L426.138 42.5039Z" fill="white"/>
<path d="M434.755 43.1737L432.278 42.9846C433.099 43.1 433.926 43.1632 434.755 43.1737Z" fill="white"/>
<path d="M430.394 42.8385L432.279 42.9847C431.589 42.8815 430.96 42.7611 430.332 42.6408L430.394 42.8385Z" fill="white"/>
<path d="M430.917 44.4633L430.395 42.8385L427.829 42.6408C428.13 43.6982 428.475 44.8072 430.917 44.4633Z" fill="white"/>
<path d="M368.436 16.2398C367.996 16.3216 367.592 16.5315 367.277 16.8416C367.683 16.6787 368.071 16.4771 368.436 16.2398Z" fill="white"/>
<path d="M397.951 23.7707L395.075 24.2608C395.748 24.3123 395.96 24.7336 396.279 25.1892C396.473 24.8368 398.367 24.3725 397.951 23.7707Z" fill="white"/>
<path d="M393.811 24.4759L395.076 24.2609C394.643 24.2493 394.213 24.3224 393.811 24.4759Z" fill="white"/>
<path d="M396.422 25.404C396.38 25.3293 396.332 25.2574 396.279 25.1891C396.244 25.2579 396.253 25.3352 396.422 25.404Z" fill="white"/>
<path d="M439.303 43.4575C439.303 44.1281 440.56 43.6982 441.197 43.4575C440.574 43.3188 439.926 43.3188 439.303 43.4575Z" fill="white"/>
<path d="M488.857 40.1994C488.548 39.9025 488.14 39.7227 487.707 39.6922L488.857 40.1994Z" fill="white"/>
<path d="M504.922 20.4607C504.807 20.5476 504.728 20.6731 504.702 20.8131C504.733 20.675 504.811 20.551 504.922 20.4607Z" fill="white"/>
<path d="M510.427 19.5237C508.922 19.6354 505.773 19.6182 504.923 20.4607C505.684 19.8761 508.1 20.6842 508.94 19.8074L508.834 20.0739L510.427 19.5237Z" fill="white"/>
<path d="M515.521 11.8896L512.823 13.8669L515.937 13.5402L515.521 11.8896Z" fill="white"/>
<path d="M481.956 16.8847L486.379 13.9876C486.884 16.5667 489.741 16.5667 492.289 15.7929L489.423 15.8445C490.175 15.5264 489.768 13.8672 490.52 13.5491C494.837 15.0364 496.094 11.5116 500.031 14.4948L499.783 14.7527L503.039 13.1966C504.03 13.6265 503.579 14.8215 503.242 15.2771C506.135 14.0134 508.347 12.698 512.196 12.9645C509.4 8.16742 503.596 16.2916 500.809 11.4944L501.048 11.2279C497.253 12.8356 493.041 9.6547 489.219 10.7809C486.778 12.4917 482.177 13.4632 481.956 16.8847Z" fill="white"/>
<path d="M503.267 15.2769L503.011 15.3887C503.029 15.5177 503.135 15.4747 503.267 15.2769Z" fill="white"/>
<path d="M349.159 3.85144L348.982 4.59078C349.221 4.29848 349.469 4.05777 349.159 3.85144Z" fill="white"/>
<path d="M396.075 14.4517L395.854 14.3571C395.517 15.3888 395.685 15.1308 396.075 14.4517Z" fill="white"/>
<path d="M92.6844 2.41562L91.7554 1.341C92.012 2.34685 92.3128 2.57897 92.6844 2.41562Z" fill="white"/>
<path d="M37.8483 18.3114C37.3125 18.0709 36.7377 17.9226 36.1497 17.873C36.3435 18.1177 36.6151 18.2934 36.9223 18.3727C37.2295 18.452 37.555 18.4304 37.8483 18.3114Z" fill="white"/>
<path d="M29.3103 1.9256C29.5461 1.83931 29.7581 1.70099 29.9296 1.52155C29.7463 1.68703 29.5373 1.82339 29.3103 1.9256Z" fill="white"/>
<path d="M32.8225 20.3324C32.5749 19.934 32.1938 19.6304 31.7432 19.4727C31.8155 19.7036 31.9566 19.9085 32.1487 20.0615C32.3408 20.2146 32.5753 20.3088 32.8225 20.3324Z" fill="white"/>
<path d="M485.079 10.7979C485.774 10.8029 486.465 10.7073 487.131 10.5142C486.787 10.4252 486.428 10.4045 486.075 10.4533C485.723 10.502 485.384 10.6192 485.079 10.7979Z" fill="white"/>
<path d="M121.836 22.3006C121.556 22.5462 121.323 22.8371 121.146 23.1603L121.836 22.3006Z" fill="white"/>
<path d="M302.366 2.76792C302.516 2.60457 302.667 2.43263 302.818 2.2435L302.366 2.76792Z" fill="white"/>
<path d="M364.756 20.1852C364.626 19.8633 364.381 19.5977 364.066 19.4373C364.048 20.082 364.207 20.5807 364.756 20.1852Z" fill="white"/>
<path d="M16.862 31.6954C29.9893 29.7433 41.8024 23.2383 50.1307 13.3758C25.8189 7.42954 5.7847 8.96797 16.862 31.6954Z" fill="white"/>
<path d="M274.725 20.6328C275.115 20.4522 275.222 20.3147 275.222 20.1513C275.045 20.3009 274.88 20.4617 274.725 20.6328Z" fill="white"/>
<path d="M381.512 17.4778L381.458 16.9964L380.052 18.6212L381.512 17.4778Z" fill="white"/>
<path d="M366.498 19.2488C367.099 18.5966 367.851 18.0927 368.692 17.7787C368.135 17.3575 365.879 18.3547 366.498 19.2488Z" fill="white"/>
<path d="M41 30.3646C30.0905 29.6947 13.2639 22.6129 20.4753 14C4.57326 19.0721 -17.0609 37.542 41 30.3646Z" fill="white"/>
<path d="M456 24.364C453.703 24.1035 450.161 21.3495 451.679 18C448.331 19.9725 443.777 27.1552 456 24.364Z" fill="white"/>
<path d="M423.364 8.96167C430.142 13.068 437.503 25.9013 428.395 32.9183C441.365 32.4041 473.5 11 423.364 8.96167Z" fill="white"/>
<path d="M460.092 11.7936C458.17 15.4556 451.721 19.7016 447.774 15.1817C448.457 21.9217 460.637 37.975 460.092 11.7936Z" fill="white"/>
<path d="M462.82 30.167C462.797 26.0313 466.495 19.2534 472.103 21.3894C468.333 15.7605 450.04 7.31007 462.82 30.167Z" fill="white"/>
</g>
<defs>
<clipPath id="clip0">
<rect width="537" height="50" fill="white"/>
</clipPath>
</defs>
</svg>
