<svg aria-hidden="true" style="position: absolute; width: 0; height: 0; overflow: hidden;" version="1.1" xmlns="http://www.w3.org/2000/svg" xmlns:xlink="http://www.w3.org/1999/xlink">
<defs>
<symbol id="pin" viewBox="0 0 32 32">
<path fill="rgb(170, 67, 162)" d="M28.428 12.428c0 9.952-11.234 19.168-11.234 19.168-0.656 0.539-1.731 0.539-2.387 0 0 0-11.234-9.217-11.234-19.168 0-6.864 5.564-12.428 12.428-12.428s12.428 5.564 12.428 12.428z"></path>
<path fill="rgb(170, 67, 162)"  d="M16 18.681c-3.448 0-6.253-2.805-6.253-6.253s2.805-6.253 6.253-6.253 6.253 2.805 6.253 6.253-2.805 6.253-6.253 6.253z"></path>
</symbol>
<symbol id="location-icon" viewBox="0 0 32 32">
<path fill="#aa43a2" style="fill: var(--color3, #aa43a2)" d="M31.336 14.964l-29.714-13.714c-0.471-0.214-1.036-0.086-1.364 0.321-0.329 0.4-0.343 0.979-0.029 1.4l9.771 13.029-9.771 13.029c-0.314 0.421-0.307 1 0.029 1.4 0.221 0.279 0.55 0.429 0.886 0.429 0.164 0 0.321-0.036 0.479-0.107l29.714-13.714c0.407-0.186 0.664-0.593 0.664-1.036s-0.257-0.85-0.664-1.036z"></path>
</symbol>
<symbol id="burger" viewBox="0 0 32 32">
<path d="M0 5.032c0-1.419 1.161-2.581 2.581-2.581h26.839c1.419 0 2.581 1.161 2.581 2.581s-1.161 2.581-2.581 2.581h-26.839c-1.419 0-2.581-1.161-2.581-2.581zM29.419 13.419h-26.839c-1.419 0-2.581 1.161-2.581 2.581s1.161 2.581 2.581 2.581h26.839c1.419 0 2.581-1.161 2.581-2.581s-1.161-2.581-2.581-2.581zM29.419 24.387h-26.839c-1.419 0-2.581 1.161-2.581 2.581s1.161 2.581 2.581 2.581h26.839c1.419 0 2.581-1.161 2.581-2.581s-1.161-2.581-2.581-2.581z"></path>
</symbol>
<symbol id="close" viewBox="0 0 32 32">
<path d="M21.281 16.004l9.897-9.905c1.094-1.094 1.094-2.87 0-3.955l-1.321-1.321c-1.094-1.094-2.87-1.094-3.955 0l-9.897 9.897-9.905-9.897c-1.094-1.094-2.861-1.094-3.955 0l-1.321 1.321c-1.094 1.094-1.094 2.861 0 3.955l9.905 9.905-9.905 9.897c-1.094 1.094-1.094 2.87 0 3.955l1.321 1.321c1.094 1.094 2.87 1.094 3.955 0l9.897-9.897 9.905 9.897c1.094 1.094 2.87 1.094 3.955 0l1.321-1.321c1.094-1.094 1.094-2.87 0-3.955l-9.897-9.897z"></path>
</symbol>
<symbol id="zoom" viewBox="0 0 33 32">
<path d="M24.54 21.092c1.487-2.127 2.376-4.768 2.376-7.616 0-0.006 0-0.012 0-0.017v0.001c0-7.432-6.025-13.459-13.458-13.459s-13.458 6.028-13.458 13.459 6.024 13.456 13.458 13.456c0.005 0 0.011 0 0.017 0 3.11 0 5.973-1.060 8.247-2.839l-0.029 0.022 7.9 7.901 2.928-2.928zM13.458 24.017c-5.823 0-10.559-4.737-10.559-10.56s4.736-10.559 10.559-10.559 10.559 4.737 10.559 10.561-4.736 10.558-10.559 10.558z"></path>
<path d="M14.907 12.216v-5.176h-2.898v5.176h-5.176v2.899h5.176v5.176h2.898v-5.176h5.177v-2.899h-5.177z"></path>
</symbol>
<symbol id="calendar" viewBox="0 0 35 32">
<path d="M34.4 13.6c-0.481 0-0.8 0.32-0.8 0.8v8.8c-0.003 0.882-0.717 1.597-1.6 1.6h-1.601c-1.36 0-2.4 1.040-2.4 2.4v1.6c-0.003 0.882-0.717 1.597-1.6 1.6h-24c-0.481 0-0.8-0.32-0.8-0.8v-15.2c0-0.481-0.32-0.8-0.8-0.8s-0.8 0.32-0.8 0.8v15.2c0 1.36 1.040 2.4 2.4 2.4h25.040c1.040 0 2.080-0.4 2.8-1.2l3.761-3.76c0.718-0.72 1.2-1.759 1.2-2.8v-9.84c0-0.481-0.32-0.8-0.8-0.8zM29.519 29.361c0-0.16 0.080-0.32 0.080-0.56v-1.6c0-0.481 0.32-0.8 0.8-0.8h1.6c0.019 0.001 0.041 0.001 0.063 0.001 0.178 0 0.349-0.030 0.508-0.084l-0.011 0.003z"></path>
<path d="M32.8 2.4h-5.6v-1.6c0-0.481-0.32-0.8-0.8-0.8s-0.8 0.32-0.8 0.8v1.6h-16v-1.6c0-0.481-0.32-0.8-0.8-0.8s-0.8 0.32-0.8 0.8v1.6h-5.6c-1.36 0-2.4 1.040-2.4 2.4v6.4c0 0.481 0.32 0.8 0.8 0.8h33.6c0.481 0 0.8-0.32 0.8-0.8v-6.4c0-1.36-1.040-2.4-2.4-2.4zM33.601 10.4h-32.001v-5.6c0-0.481 0.32-0.8 0.8-0.8h5.6v1.84c-0.481 0.24-0.8 0.8-0.8 1.36 0 0.884 0.716 1.6 1.6 1.6s1.6-0.716 1.6-1.6v0c0-0.56-0.32-1.12-0.8-1.36v-1.84h16v1.84c-0.481 0.24-0.8 0.8-0.8 1.36 0 0.884 0.716 1.6 1.6 1.6s1.6-0.716 1.6-1.6v0c0-0.56-0.32-1.12-0.8-1.36v-1.84h5.6c0.481 0 0.8 0.32 0.8 0.8v5.6z"></path>
<path d="M16 16.8c0 0.884-0.716 1.6-1.6 1.6s-1.6-0.716-1.6-1.6c0-0.884 0.716-1.6 1.6-1.6s1.6 0.716 1.6 1.6z"></path>
<path d="M22.4 16.8c0 0.884-0.716 1.6-1.6 1.6s-1.6-0.716-1.6-1.6c0-0.884 0.716-1.6 1.6-1.6s1.6 0.716 1.6 1.6z"></path>
<path d="M28.8 16.8c0 0.884-0.716 1.6-1.6 1.6s-1.6-0.716-1.6-1.6c0-0.884 0.716-1.6 1.6-1.6s1.6 0.716 1.6 1.6z"></path>
<path d="M8.114 22.407c0.881 0.063 1.545 0.828 1.482 1.709s-0.828 1.545-1.709 1.482c-0.881-0.063-1.545-0.828-1.482-1.709s0.828-1.545 1.709-1.482z"></path>
<path d="M16 24c0 0.884-0.716 1.6-1.6 1.6s-1.6-0.716-1.6-1.6c0-0.884 0.716-1.6 1.6-1.6s1.6 0.716 1.6 1.6z"></path>
<path d="M22.4 24c0 0.884-0.716 1.6-1.6 1.6s-1.6-0.716-1.6-1.6c0-0.884 0.716-1.6 1.6-1.6s1.6 0.716 1.6 1.6z"></path>
</symbol>
<symbol id="day" viewBox="0 0 27 32">
<path d="M22.4 24c0 0.884-0.716 1.6-1.6 1.6s-1.6-0.716-1.6-1.6c0-0.884 0.716-1.6 1.6-1.6s1.6 0.716 1.6 1.6z"></path>
</symbol>
<symbol id="money" viewBox="0 0 34 32">
<path d="M25.904 10.667c0 0.841-0.682 1.524-1.524 1.524s-1.524-0.682-1.524-1.524c0-0.841 0.682-1.524 1.524-1.524s1.524 0.682 1.524 1.524z"></path>
<path d="M10.667 10.667c0 0.841-0.682 1.524-1.524 1.524s-1.524-0.682-1.524-1.524c0-0.841 0.682-1.524 1.524-1.524s1.524 0.682 1.524 1.524z"></path>
<path d="M16.762 6.095c-2.525 0-4.572 2.047-4.572 4.572s2.047 4.572 4.572 4.572c2.525 0 4.572-2.047 4.572-4.572v0c-0.007-2.522-2.049-4.565-4.571-4.572h-0.001zM16.762 13.714c-0 0-0 0-0.001 0-1.683 0-3.048-1.365-3.048-3.048s1.365-3.048 3.048-3.048c1.683 0 3.048 1.365 3.048 3.048v0c-0.004 1.681-1.366 3.043-3.047 3.048h-0z"></path>
<path d="M31.238 0h-28.952c-1.295 0-2.286 0.99-2.286 2.285v16.762c0 1.296 0.991 2.286 2.286 2.286h9.905c0.458 0 0.762-0.304 0.762-0.761s-0.305-0.762-0.762-0.762h-9.905c-0.458 0-0.762-0.304-0.762-0.761v-16.762c0-0.458 0.305-0.762 0.762-0.762h28.952c0.458 0 0.762 0.305 0.762 0.762v12.19c0 0.458 0.304 0.761 0.761 0.761s0.762-0.304 0.762-0.761v-12.191c0-1.295-0.991-2.285-2.286-2.285z"></path>
<path d="M29.638 4.571c-0.458 0-0.761-0.304-0.761-0.761s-0.305-0.762-0.762-0.762h-22.78c-0.458 0-0.762 0.305-0.762 0.762s-0.305 0.761-0.762 0.761-0.761 0.305-0.761 0.762v10.667c0 0.458 0.304 0.762 0.761 0.762s0.762 0.304 0.762 0.761 0.304 0.762 0.762 0.762h7.619c0.458 0 0.762-0.305 0.762-0.762s-0.305-0.761-0.762-0.761h-7.010c-0.229-0.686-0.761-1.143-1.371-1.372v-9.447c0.686-0.229 1.143-0.762 1.371-1.375h21.562c0.229 0.686 0.762 1.143 1.372 1.375v6.248c0 0.458 0.304 0.761 0.761 0.761s0.762-0.304 0.762-0.761v-6.857c0-0.457-0.304-0.762-0.762-0.762z"></path>
<path d="M26.666 13.714c-0.944 0.003-1.835 0.228-2.624 0.625l0.034-0.015c-0.381 0.153-0.534 0.61-0.381 0.991s0.61 0.533 0.991 0.38c0.574-0.289 1.25-0.458 1.967-0.458 0.005 0 0.010 0 0.015 0h-0.001c0.011-0 0.023-0 0.036-0 2.505 0 4.535 2.030 4.535 4.535 0 0.985-0.314 1.897-0.848 2.641l0.009-0.014c-0.229 0.381-0.153 0.838 0.153 1.067 0.153 0.076 0.304 0.152 0.458 0.152 0.010 0.001 0.023 0.001 0.035 0.001 0.238 0 0.448-0.12 0.573-0.303l0.002-0.002c0.668-0.969 1.067-2.168 1.067-3.461 0-0.015-0-0.031-0-0.046v0.002c0.076-3.35-2.667-6.094-6.019-6.094z"></path>
<path d="M26.666 17.523c-0.458 0-0.761 0.305-0.761 0.762v0.761c0 0.458 0.304 0.762 0.761 0.762s0.762-0.304 0.762-0.762v-0.761c0-0.457-0.304-0.762-0.762-0.762z"></path>
<path d="M24.152 17.066c-1.143-1.143-2.666-1.829-4.342-1.829-3.352 0-6.096 2.743-6.096 6.095 0 1.676 0.686 3.2 1.829 4.343 0.134 0.141 0.324 0.229 0.533 0.229s0.399-0.088 0.533-0.228l0-0c0.141-0.134 0.229-0.324 0.229-0.533s-0.088-0.399-0.229-0.533l-0-0c-0.847-0.832-1.371-1.988-1.371-3.268 0-2.526 2.046-4.575 4.571-4.579h0c1.219 0 2.438 0.458 3.274 1.371 0.137 0.141 0.329 0.229 0.541 0.229 0.417 0 0.754-0.338 0.754-0.754 0-0.212-0.088-0.404-0.229-0.541l-0-0z"></path>
<path d="M23.619 19.809c-3.352 0-6.095 2.743-6.095 6.095s2.743 6.095 6.095 6.095 6.095-2.743 6.095-6.095-2.743-6.095-6.095-6.095zM23.619 30.476c-0 0-0 0-0.001 0-2.525 0-4.572-2.047-4.572-4.572s2.047-4.572 4.572-4.572c2.525 0 4.572 2.047 4.572 4.572v0c-0.007 2.522-2.049 4.564-4.57 4.572h-0.001z"></path>
<path d="M23.619 23.618c-0.458 0-0.762 0.305-0.762 0.762v3.047c0 0.458 0.305 0.762 0.762 0.762s0.761-0.304 0.761-0.762v-3.047c0-0.458-0.304-0.762-0.761-0.762z"></path>
<path d="M20.572 19.81c0 0.421-0.341 0.762-0.762 0.762s-0.762-0.341-0.762-0.762c0-0.421 0.341-0.762 0.762-0.762s0.762 0.341 0.762 0.762z"></path>
</symbol>
<symbol id="time" viewBox="0 0 32 32">
<path d="M11.636 7.272c0 0.402-0.326 0.728-0.727 0.728s-0.727-0.326-0.727-0.728c0-0.402 0.326-0.728 0.727-0.728s0.727 0.326 0.727 0.728z"></path>
<path d="M21.821 24.73c0 0.402-0.326 0.727-0.727 0.727s-0.727-0.326-0.727-0.727c0-0.402 0.326-0.727 0.727-0.727s0.727 0.326 0.727 0.727z"></path>
<path d="M8 10.909c0 0.402-0.326 0.728-0.728 0.728s-0.728-0.326-0.728-0.727c0-0.402 0.326-0.727 0.728-0.727s0.728 0.326 0.728 0.727z"></path>
<path d="M25.454 21.091c0 0.402-0.326 0.727-0.727 0.727s-0.727-0.326-0.727-0.727c0-0.402 0.326-0.727 0.727-0.727s0.727 0.326 0.727 0.727z"></path>
<path d="M21.818 7.27c0 0.402-0.326 0.728-0.727 0.728s-0.727-0.326-0.727-0.728c0-0.402 0.326-0.728 0.727-0.728s0.727 0.326 0.727 0.728z"></path>
<path d="M11.636 24.728c0 0.402-0.326 0.727-0.728 0.727s-0.727-0.326-0.727-0.727c0-0.402 0.326-0.727 0.727-0.727s0.727 0.326 0.727 0.727z"></path>
<path d="M25.454 10.909c0 0.402-0.326 0.728-0.727 0.728s-0.727-0.326-0.727-0.727c0-0.402 0.326-0.727 0.727-0.727s0.727 0.326 0.727 0.727z"></path>
<path d="M7.999 21.091c0 0.402-0.326 0.727-0.728 0.727s-0.728-0.326-0.728-0.727c0-0.402 0.326-0.727 0.728-0.727s0.728 0.326 0.728 0.727z"></path>
<path d="M16 0c-8.822 0-16 7.178-16 16s7.178 16 16 16c0.006 0 0.014 0 0.021 0 0.402 0 0.727-0.326 0.727-0.727s-0.326-0.727-0.727-0.727c-0.008 0-0.015 0-0.022 0l0.001-0c-8.021 0-14.546-6.525-14.546-14.546s6.525-14.546 14.546-14.546 14.546 6.525 14.546 14.546c0 6.96-4.953 12.966-11.775 14.282-0.338 0.067-0.589 0.361-0.589 0.714 0 0.401 0.325 0.727 0.727 0.727 0.049 0 0.096-0.005 0.142-0.014l-0.005 0.001c7.506-1.448 12.954-8.054 12.954-15.71 0-8.822-7.178-16-16-16z"></path>
<path d="M19.079 3.273c-0.050-0.012-0.107-0.019-0.165-0.019-0.402 0-0.727 0.326-0.727 0.728 0 0.339 0.232 0.624 0.547 0.705l0.005 0.001c4.913 1.206 8.554 5.43 8.866 10.553l0.002 0.033h-1.424c-0.402 0-0.727 0.326-0.727 0.727s0.326 0.727 0.727 0.727h1.418c-0.363 5.834-5.037 10.509-10.872 10.875v-1.421c0-0.402-0.326-0.727-0.727-0.727s-0.727 0.326-0.727 0.727v0 1.418c-5.835-0.363-10.509-5.037-10.872-10.872h1.418c0.402 0 0.728-0.326 0.728-0.727s-0.326-0.727-0.728-0.727v0h-1.419c0.362-5.835 5.038-10.523 10.873-10.886v1.432c0 0.402 0.326 0.728 0.727 0.728s0.727-0.326 0.727-0.728v-2.182c-0-0.402-0.326-0.727-0.727-0.727v0c-7.218 0-13.091 5.875-13.091 13.091s5.875 13.091 13.091 13.091 13.091-5.875 13.091-13.091c0-0.011 0-0.024 0-0.037 0-6.129-4.225-11.271-9.922-12.672l-0.090-0.019z"></path>
<path d="M22.332 21.304l-4.364-4.363s-0.004 0-0.007-0.004c0.137-0.274 0.218-0.596 0.22-0.937v-0.001c-0.003-0.941-0.602-1.741-1.439-2.043l-0.015-0.005v-3.769c0-0.402-0.326-0.727-0.727-0.727s-0.727 0.326-0.727 0.727v0 3.77c-0.854 0.307-1.453 1.11-1.453 2.053 0 1.202 0.975 2.177 2.177 2.177 0.001 0 0.003 0 0.004 0h-0c0.342-0.002 0.664-0.083 0.95-0.226l-0.012 0.006s0 0.004 0.004 0.007l4.363 4.364c0.132 0.136 0.317 0.22 0.521 0.22 0.402 0 0.727-0.326 0.727-0.727 0-0.204-0.084-0.389-0.22-0.521l-0-0zM16 16.727c-0.402 0-0.727-0.326-0.727-0.727s0.326-0.727 0.727-0.727c0.402 0 0.727 0.326 0.727 0.727v0c-0.001 0.401-0.326 0.727-0.727 0.727h-0z"></path>
</symbol>
</defs>
</svg>
