<svg aria-hidden="true" style="position: absolute; width: 0; height: 0; overflow: hidden;" version="1.1" xmlns="http://www.w3.org/2000/svg" xmlns:xlink="http://www.w3.org/1999/xlink">
<defs>
<symbol id="pin" viewBox="0 0 32 32">
<path fill="rgb(170, 67, 162)" d="M28.428 12.428c0 9.952-11.234 19.168-11.234 19.168-0.656 0.539-1.731 0.539-2.387 0 0 0-11.234-9.217-11.234-19.168 0-6.864 5.564-12.428 12.428-12.428s12.428 5.564 12.428 12.428z"></path>
<path fill="rgb(170, 67, 162)"  d="M16 18.681c-3.448 0-6.253-2.805-6.253-6.253s2.805-6.253 6.253-6.253 6.253 2.805 6.253 6.253-2.805 6.253-6.253 6.253z"></path>
</symbol>
<symbol id="location-icon" viewBox="0 0 32 32">
<path fill="#aa43a2" style="fill: var(--color3, #aa43a2)" d="M31.336 14.964l-29.714-13.714c-0.471-0.214-1.036-0.086-1.364 0.321-0.329 0.4-0.343 0.979-0.029 1.4l9.771 13.029-9.771 13.029c-0.314 0.421-0.307 1 0.029 1.4 0.221 0.279 0.55 0.429 0.886 0.429 0.164 0 0.321-0.036 0.479-0.107l29.714-13.714c0.407-0.186 0.664-0.593 0.664-1.036s-0.257-0.85-0.664-1.036z"></path>
</symbol>
<symbol id="burger" viewBox="0 0 32 32">
<path d="M0 5.032c0-1.419 1.161-2.581 2.581-2.581h26.839c1.419 0 2.581 1.161 2.581 2.581s-1.161 2.581-2.581 2.581h-26.839c-1.419 0-2.581-1.161-2.581-2.581zM29.419 13.419h-26.839c-1.419 0-2.581 1.161-2.581 2.581s1.161 2.581 2.581 2.581h26.839c1.419 0 2.581-1.161 2.581-2.581s-1.161-2.581-2.581-2.581zM29.419 24.387h-26.839c-1.419 0-2.581 1.161-2.581 2.581s1.161 2.581 2.581 2.581h26.839c1.419 0 2.581-1.161 2.581-2.581s-1.161-2.581-2.581-2.581z"></path>
</symbol>
<symbol id="close" viewBox="0 0 32 32">
<path d="M21.281 16.004l9.897-9.905c1.094-1.094 1.094-2.87 0-3.955l-1.321-1.321c-1.094-1.094-2.87-1.094-3.955 0l-9.897 9.897-9.905-9.897c-1.094-1.094-2.861-1.094-3.955 0l-1.321 1.321c-1.094 1.094-1.094 2.861 0 3.955l9.905 9.905-9.905 9.897c-1.094 1.094-1.094 2.87 0 3.955l1.321 1.321c1.094 1.094 2.87 1.094 3.955 0l9.897-9.897 9.905 9.897c1.094 1.094 2.87 1.094 3.955 0l1.321-1.321c1.094-1.094 1.094-2.87 0-3.955l-9.897-9.897z"></path>
</symbol>
</defs>
</svg>
