<svg fill="rgba(40, 40, 40, 0.1)" id="brain" xmlns="http://www.w3.org/2000/svg" viewBox="0 0 496 496.01"><path d="M496,152a24,24,0,0,0-24-24,23.61,23.61,0,0,0-7.82,1.42L428.33,84.61A23.74,23.74,0,0,0,432,72a24,24,0,0,0-41.15-16.74l-63.06-29.1c.06-.72.21-1.42.21-2.16a23.94,23.94,0,0,0-46.52-8h-91A23.94,23.94,0,0,0,144,24a23.52,23.52,0,0,0,.3,2.91L104.62,46.75A23.91,23.91,0,0,0,67.68,76.61L31.83,121.42A23.67,23.67,0,0,0,24,120a23.94,23.94,0,0,0-8,46.53v50.95A23.93,23.93,0,1,0,44.72,251.9l43.68,7.93A24,24,0,0,0,112,280c.32,0,.63-.08,1-.1l15.26,38.17A23.93,23.93,0,1,0,163.5,349.9l68.66,19.61a23.89,23.89,0,0,0,15.84,21v59a24,24,0,1,0,16,0v-59a23.81,23.81,0,0,0,6.72-41.35l9.55-28.67,71.78,23.93A23.93,23.93,0,0,0,368,366.52v83a24,24,0,1,0,16,0V366.53a23.63,23.63,0,0,0,14.44-30.81l61.39-51.15A23.68,23.68,0,0,0,472,288a23.94,23.94,0,0,0,8-46.53V174.52A23.94,23.94,0,0,0,496,152ZM408,64a8,8,0,1,1-8,8A8,8,0,0,1,408,64ZM396.63,93a22.72,22.72,0,0,0,19.19,1.58l35.85,44.82A23.79,23.79,0,0,0,448,152a23.5,23.5,0,0,0,.39,3.77l-56.67,30.91-41.28-34.39a23.33,23.33,0,0,0-.28-17.47ZM296,224a23.55,23.55,0,0,0-10.28,2.41l-33.89-33.9,59.84-31a23.56,23.56,0,0,0,28.51,3.09l36.42,30.35-64.66,35.27A23.78,23.78,0,0,0,296,224Zm8,24a8,8,0,1,1-8-8A8,8,0,0,1,304,248ZM183.05,159.9l13.43,43.28-68.14,35.33a24,24,0,0,0-10.24-5.63l-11.09-85,54.82-2.75A24,24,0,0,0,183.05,159.9ZM176,136a8,8,0,1,1,8,8A8,8,0,0,1,176,136Zm25.29,82.71,20.29,65.39L136,255.55a23.45,23.45,0,0,0-.29-2.81Zm0-54.16,23.82,23.82-14.15,7.33Zm4.36-18.27A23.65,23.65,0,0,0,208,136a23.92,23.92,0,0,0-2-9.58L244,91l61.23,45.92A23.66,23.66,0,0,0,304,144a25,25,0,0,0,.33,3.26L240,180.64ZM320,144a8,8,0,1,1,8,8A8,8,0,0,1,320,144Zm69.83,61.94,57.32,47.76L323,242.42ZM304,16a8,8,0,1,1-8,8A8,8,0,0,1,304,16ZM293,45.21a23.57,23.57,0,0,0,28.15-4.48l63.06,29.1c-.06.73-.22,1.43-.22,2.17a24,24,0,0,0,1.84,9.18L339.38,123A23.6,23.6,0,0,0,328,120a23.84,23.84,0,0,0-13.28,4L255.85,79.89ZM281.48,32c.19.52.32,1.06.54,1.57L242.84,70.13,192,32ZM168,16a8,8,0,1,1-8,8A8,8,0,0,1,168,16ZM112,64a23.16,23.16,0,0,0-.29-2.9l39.68-19.84a23.86,23.86,0,0,0,29.9,2.7L231,81.22l-36,33.56a23.67,23.67,0,0,0-33.88,14.35l-56.19,2.81L98.85,85.29A23.94,23.94,0,0,0,112,64ZM88,56a8,8,0,1,1-8,8A8,8,0,0,1,88,56ZM80.18,86.58a24.74,24.74,0,0,0,2.81.88l5.9,45.28-42.71,2.14a23.31,23.31,0,0,0-1.85-3.49ZM24,136a8,8,0,1,1-8,8A8,8,0,0,1,24,136Zm0,112a8,8,0,1,1,8-8A8,8,0,0,1,24,248Zm67.28-3.9-43.66-7.93A24,24,0,0,0,32,217.47V166.52a23.94,23.94,0,0,0,14.88-15.66l44.1-2.2,11.15,85.52A24,24,0,0,0,91.28,244.1ZM112,264a8,8,0,1,1,8-8A8,8,0,0,1,112,264Zm32,80a8,8,0,1,1,8-8A8,8,0,0,1,144,344Zm92.52,10.1-68.66-19.61A24,24,0,0,0,144,312c-.32,0-.62.08-.94.1L127.8,273.93a25.11,25.11,0,0,0,3-3.23l96.59,32.2,14.26,46A24.47,24.47,0,0,0,236.52,354.1ZM256,480a8,8,0,1,1,8-8A8,8,0,0,1,256,480Zm0-104a8,8,0,1,1,8-8A8,8,0,0,1,256,376Zm.28-34.11-10.17-32.75,19,6.32Zm13.87-41.61-29.87-10-24.55-79.09,21.2-11,37.48,37.48a23.51,23.51,0,0,0,6.89,29.1ZM376,480a8,8,0,1,1,8-8A8,8,0,0,1,376,480Zm0-128a8,8,0,1,1,8-8A8,8,0,0,1,376,352Zm12.18-28.58a23.59,23.59,0,0,0-31,5.88l-71.86-24L296.45,272A23.93,23.93,0,0,0,317.74,258l131.09,11.91c.21.8.45,1.58.73,2.35Zm16.76-125.73,51.13-27.89a23.79,23.79,0,0,0,7.94,4.72v66.95a24.55,24.55,0,0,0-4.18,2ZM472,272a8,8,0,1,1,8-8A8,8,0,0,1,472,272Zm0-112a8,8,0,1,1,8-8A8,8,0,0,1,472,160Z" transform="translate(0 0)"/><rect x="16" width="16" height="16"/><rect x="16" y="32" width="16" height="16"/><rect x="32" y="16" width="16" height="16"/><rect y="16" width="16" height="16"/><rect x="416" y="368" width="16" height="16"/><rect x="416" y="400" width="16" height="16"/><rect x="432" y="384" width="16" height="16"/><rect x="400" y="384" width="16" height="16"/><rect x="464" y="32" width="16" height="16"/><rect x="464" y="64" width="16" height="16"/><rect x="480" y="48" width="16" height="16"/><rect x="448" y="48" width="16" height="16"/><rect x="96" y="384" width="16" height="16"/><rect x="96" y="416" width="16" height="16"/><rect x="112" y="400" width="16" height="16"/><rect x="80" y="400" width="16" height="16"/><rect x="48" y="296" width="16" height="16"/><rect x="48" y="328" width="16" height="16"/><rect x="64" y="312" width="16" height="16"/><rect x="32" y="312" width="16" height="16"/></svg>