<svg width="34" height="35" fill="none" xmlns="http://www.w3.org/2000/svg"><path d="M34 27.485c0 1.101-.9 1.994-2.01 1.994H2.01C.9 29.479 0 28.585 0 27.485V8.217c0-1.1.9-1.993 2.01-1.993h29.98c1.11 0 2.01.893 2.01 1.993v19.268z" fill="#fff"/><path opacity=".15" d="M1.429 27.485V8.217c0-1.1.9-1.993 2.01-1.993h-1.43C.9 6.224 0 7.117 0 8.217v19.268c0 1.101.9 1.994 2.01 1.994h1.429c-1.11 0-2.01-.893-2.01-1.994z" fill="#202121"/><path d="M28.073 17.02c0 3.13-2.55 5.69-5.738 5.69-3.157 0-5.737-2.56-5.737-5.69 0-3.131 2.55-5.69 5.707-5.69 3.218 0 5.768 2.559 5.768 5.69z" fill="#FFB600"/><path d="M22.335 11.33c3.157 0 5.738 2.559 5.738 5.69 0 3.13-2.55 5.69-5.738 5.69-3.157 0-5.737-2.56-5.737-5.69" fill="#F7981D"/><path d="M22.335 11.33c3.157 0 5.737 2.559 5.737 5.69 0 3.13-2.55 5.69-5.737 5.69" fill="#FF8500"/><path d="M14.624 11.33c-3.127.03-5.677 2.559-5.677 5.69 0 3.13 2.55 5.69 5.738 5.69 1.487 0 2.823-.572 3.855-1.475.213-.181.395-.392.577-.602h-1.184a6.922 6.922 0 01-.425-.572h2.034c.121-.181.243-.392.334-.603h-2.702a3.569 3.569 0 01-.243-.602h3.157a5.934 5.934 0 00.304-1.806c0-.422-.06-.813-.121-1.204h-3.522c.03-.211.091-.392.152-.603h3.157a3.569 3.569 0 00-.243-.602h-2.671c.09-.21.212-.391.334-.602h2.034a2.863 2.863 0 00-.456-.602h-1.123a5.15 5.15 0 01.577-.572c-1.002-.933-2.368-1.475-3.856-1.475 0-.06 0-.06-.03-.06z" fill="#FF5050"/><path d="M8.947 17.02c0 3.131 2.55 5.69 5.738 5.69 1.487 0 2.823-.572 3.855-1.475.213-.18.395-.391.577-.602h-1.184a6.94 6.94 0 01-.425-.572h2.034a3.84 3.84 0 00.334-.602h-2.702a3.567 3.567 0 01-.243-.602h3.157a5.935 5.935 0 00.304-1.807c0-.421-.06-.813-.121-1.204h-3.522c.03-.21.091-.392.152-.602h3.157a3.564 3.564 0 00-.243-.602h-2.671c.09-.211.212-.392.334-.602h2.034a2.866 2.866 0 00-.456-.603h-1.123c.182-.21.364-.391.577-.572-1.002-.933-2.368-1.475-3.856-1.475h-.03" fill="#E52836"/><path d="M14.685 22.71c1.487 0 2.823-.572 3.855-1.475.213-.18.395-.391.577-.602h-1.184a6.94 6.94 0 01-.425-.572h2.034a3.84 3.84 0 00.334-.602h-2.702a3.567 3.567 0 01-.243-.602h3.158a5.935 5.935 0 00.303-1.807c0-.421-.06-.813-.121-1.204h-3.522c.03-.21.091-.392.152-.602h3.157a3.564 3.564 0 00-.243-.602h-2.671c.091-.211.212-.392.334-.602h2.034a2.866 2.866 0 00-.456-.603h-1.123c.182-.21.364-.391.577-.572-1.002-.933-2.368-1.475-3.855-1.475h-.03" fill="#CB2026"/><path d="M16.718 18.465l.091-.512c-.03 0-.09.03-.151.03-.213 0-.243-.12-.213-.18l.182-1.054h.334l.091-.572h-.303l.06-.362h-.607s-.364 1.987-.364 2.228c0 .362.213.512.486.512.182 0 .334-.06.394-.09zM16.931 17.501c0 .843.577 1.054 1.063 1.054.455 0 .637-.09.637-.09l.122-.572s-.334.15-.638.15c-.668 0-.546-.482-.546-.482h1.244s.091-.391.091-.541c0-.392-.212-.874-.88-.874-.638-.06-1.093.602-1.093 1.355zm1.063-.873c.334 0 .273.392.273.422h-.668c0-.03.06-.422.395-.422zM21.849 18.465l.121-.663s-.303.151-.516.151c-.425 0-.607-.331-.607-.692 0-.723.364-1.114.79-1.114.303 0 .546.18.546.18l.09-.632s-.363-.15-.697-.15c-.699 0-1.397.602-1.397 1.746 0 .752.365 1.264 1.093 1.264.243 0 .577-.09.577-.09zM13.38 16.086c-.426 0-.73.12-.73.12l-.09.513s.273-.12.667-.12c.213 0 .395.03.395.21 0 .12-.03.15-.03.15h-.273c-.517 0-1.093.211-1.093.904 0 .542.364.662.576.662.425 0 .608-.27.638-.27l-.03.24h.546l.243-1.656c0-.723-.607-.753-.82-.753zm.12 1.355c0 .09-.06.572-.424.572-.182 0-.243-.15-.243-.24 0-.151.09-.362.546-.362.091.03.122.03.122.03zM14.776 18.525c.152 0 .91.03.91-.783 0-.753-.728-.602-.728-.903 0-.15.121-.21.334-.21.09 0 .425.03.425.03l.09-.543s-.212-.06-.576-.06c-.455 0-.91.18-.91.783 0 .692.758.632.758.903 0 .18-.212.21-.364.21-.273 0-.546-.09-.546-.09l-.091.543c.03.06.182.12.698.12zM26.888 15.605l-.121.813s-.243-.301-.577-.301c-.546 0-1.032.662-1.032 1.445 0 .482.243.993.759.993.364 0 .577-.24.577-.24l-.03.21h.606l.456-2.89-.638-.03zm-.273 1.596c0 .33-.152.752-.486.752-.212 0-.334-.18-.334-.481 0-.482.213-.783.486-.783.213 0 .334.15.334.512zM10.07 18.495l.365-2.168.06 2.168h.425l.79-2.168-.334 2.168h.637l.486-2.89h-1.002l-.607 1.776-.03-1.776h-.88l-.486 2.89h.576zM19.48 18.495c.183-.994.213-1.807.638-1.656.061-.391.152-.542.213-.692h-.122c-.273 0-.485.36-.485.36l.06-.33h-.576l-.395 2.348h.668v-.03zM23.245 16.086c-.425 0-.728.12-.728.12l-.091.513s.273-.12.667-.12c.213 0 .395.03.395.21 0 .12-.03.15-.03.15h-.274c-.516 0-1.092.211-1.092.904 0 .542.364.662.576.662.425 0 .608-.27.638-.27l-.03.24h.546l.243-1.656c.03-.723-.607-.753-.82-.753zm.152 1.355c0 .09-.06.572-.425.572-.182 0-.243-.15-.243-.24 0-.151.091-.362.547-.362.09.03.09.03.12.03zM24.581 18.495c.182-.994.213-1.807.638-1.656.06-.391.151-.542.212-.692h-.121c-.274 0-.486.36-.486.36l.06-.33h-.576l-.395 2.348h.668v-.03z" fill="#fff"/><path d="M15.777 18.043c0 .362.213.512.486.512.213 0 .395-.06.455-.09l.092-.512c-.03 0-.091.03-.152.03-.213 0-.243-.12-.213-.18l.183-1.054h.333l.091-.572h-.303l.06-.362M17.235 17.501c0 .843.273 1.054.759 1.054.455 0 .637-.09.637-.09l.122-.572s-.334.15-.638.15c-.668 0-.546-.482-.546-.482h1.244s.091-.391.091-.541c0-.392-.212-.874-.88-.874-.637-.06-.79.602-.79 1.355zm.759-.873c.334 0 .394.392.394.422H17.6c0-.03.06-.422.395-.422zM21.849 18.465l.121-.663s-.303.151-.516.151c-.425 0-.607-.331-.607-.692 0-.723.364-1.114.79-1.114.303 0 .546.18.546.18l.09-.632s-.363-.15-.697-.15c-.699 0-1.093.602-1.093 1.746 0 .752.06 1.264.79 1.264.242 0 .576-.09.576-.09zM12.56 16.749s.273-.12.667-.12c.213 0 .395.03.395.21 0 .12-.03.15-.03.15h-.273c-.517 0-1.093.211-1.093.904 0 .542.364.662.576.662.425 0 .608-.27.638-.27l-.03.24h.546l.243-1.656c0-.692-.607-.723-.85-.723l-.79.603zm1.244.692c0 .09-.364.572-.728.572-.182 0-.243-.15-.243-.24 0-.151.09-.362.546-.362.091.03.425.03.425.03zM14.108 18.465s.182.06.698.06c.152 0 .91.03.91-.783 0-.753-.728-.602-.728-.903 0-.15.122-.21.334-.21.091 0 .425.03.425.03l.091-.543s-.212-.06-.577-.06c-.455 0-.607.18-.607.783 0 .692.456.632.456.903 0 .18-.213.21-.365.21M26.767 16.418s-.243-.301-.577-.301c-.547 0-.729.662-.729 1.445 0 .482-.06.994.456.994.364 0 .576-.241.576-.241l-.03.21h.607l.456-2.89-.76.783zm-.03.783c0 .331-.274.752-.608.752-.212 0-.334-.18-.334-.481 0-.482.213-.783.486-.783.213 0 .455.15.455.512zM10.07 18.495l.365-2.168.06 2.168h.425l.79-2.168-.334 2.168h.637l.486-2.89h-.759l-.85 1.776-.03-1.776h-.334l-1.032 2.89h.576zM18.844 18.495h.637c.182-.994.213-1.807.638-1.656.06-.391.151-.542.212-.692h-.121c-.274 0-.486.36-.486.36l.06-.33M22.425 16.749s.274-.12.668-.12c.213 0 .395.03.395.21 0 .12-.03.15-.03.15h-.274c-.516 0-1.092.211-1.092.904 0 .542.364.662.576.662.425 0 .608-.27.638-.27l-.03.24h.546l.243-1.656c0-.692-.607-.723-.85-.723l-.79.603zm1.245.692c0 .09-.364.572-.728.572-.183 0-.243-.15-.243-.24 0-.151.09-.362.546-.362.122.03.425.03.425.03zM23.944 18.495h.637c.182-.994.213-1.807.638-1.656.06-.391.151-.542.212-.692h-.121c-.273 0-.486.36-.486.36l.06-.33" fill="#DCE5E5"/></svg>