<svg aria-hidden="true" style="position: absolute; width: 0; height: 0; overflow: hidden;" version="1.1" xmlns="http://www.w3.org/2000/svg" xmlns:xlink="http://www.w3.org/1999/xlink">
<defs>
<symbol id="fb" viewBox="0 0 31 32">
<path fill="#fff" style="fill: var(--color1, #fff)" opacity="0.9" d="M28.444 16.34c0-7.078-5.792-12.822-12.929-12.822s-12.929 5.745-12.929 12.821c0 6.206 4.447 11.375 10.343 12.567v-8.721h-2.585v-3.847h2.585v-3.206c0-2.475 2.031-4.488 4.526-4.488h3.232v3.847h-2.585c-0.712 0-1.294 0.577-1.294 1.283v2.564h3.879v3.847h-3.879v8.912c6.53-0.64 11.636-6.103 11.636-12.758z"></path>
</symbol>
<symbol id="insta" viewBox="0 0 31 32">
<path fill="#fff" style="fill: var(--color1, #fff)" opacity="0.9" d="M20.242 3.838h-9.455c-4.351 0-7.879 3.5-7.879 7.815v9.377c0 4.315 3.528 7.814 7.879 7.814h9.455c4.351 0 7.879-3.499 7.879-7.814v-9.377c0-4.315-3.528-7.813-7.879-7.813zM25.758 21.029c0 3.016-2.475 5.469-5.516 5.469h-9.455c-3.041 0-5.516-2.453-5.516-5.469v-9.377c0-3.016 2.475-5.469 5.516-5.469h9.455c3.041 0 5.516 2.453 5.516 5.469v9.377z"></path>
<path fill="#fff" style="fill: var(--color1, #fff)" opacity="0.9" d="M15.515 10.090c-3.481 0-6.303 2.799-6.303 6.251s2.822 6.252 6.303 6.252 6.303-2.8 6.303-6.252-2.822-6.251-6.303-6.251zM15.515 20.247c-2.172 0-3.94-1.753-3.94-3.907s1.769-3.907 3.94-3.907c2.172 0 3.94 1.752 3.94 3.908 0 2.153-1.769 3.906-3.94 3.906zM22.291 10.453c0.001 0 0.003 0 0.004 0 0.461 0 0.834-0.373 0.836-0.833v-0c-0.003-0.46-0.376-0.832-0.837-0.832-0.001 0-0.002 0-0.003 0h0c-0.001 0-0.002 0-0.003 0-0.46 0-0.834 0.372-0.837 0.832v0c0 0.461 0.375 0.834 0.84 0.834z"></path>
</symbol>
<symbol id="tg" viewBox="0 0 31 32">
<path fill="#fff" style="fill: var(--color1, #fff)" opacity="0.9" d="M28.312 6.355c-0.316-0.382-0.787-0.593-1.329-0.593-0.295 0-0.607 0.062-0.928 0.184l-21.84 8.267c-1.159 0.439-1.315 1.098-1.305 1.452s0.204 1.002 1.387 1.374l0.020 0.007 3.064 0.869 14.916-7.558c0.1-0.052 0.219-0.083 0.345-0.083 0.291 0 0.544 0.164 0.671 0.406l0.002 0.004c0.052 0.099 0.082 0.215 0.082 0.339 0 0.2-0.078 0.381-0.206 0.514l0-0v0.002l-8.293 8.74-0.238 0.95 7.077 5.651c0.452 0.347 0.945 0.531 1.427 0.531 0.941 0 1.69-0.691 1.908-1.76l3.578-17.524c0.145-0.703 0.023-1.332-0.339-1.772z"></path>
<path fill="#fff" style="fill: var(--color1, #fff)" opacity="0.9" d="M13.477 19.727c0.033-0.13 0.097-0.243 0.184-0.334l-0 0 5.442-5.736-10.098 5.117 2.292 6.504c0.131 0.37 0.326 0.687 0.566 0.933l1.615-6.484zM13.27 26.814c0.545-0.005 1.080-0.233 1.55-0.661l1.678-1.532-2.237-1.786-0.99 3.98z"></path>
</symbol>
<symbol id="ytube" viewBox="0 0 31 32">
<path fill="#fff" style="fill: var(--color1, #fff)" d="M29.712 7.801c-0.842-1.485-1.755-1.758-3.615-1.862-1.858-0.126-6.53-0.177-10.577-0.177-4.055 0-8.729 0.052-10.585 0.175-1.856 0.107-2.771 0.378-3.621 1.865-0.867 1.484-1.313 4.037-1.313 8.533v0.015c0 4.478 0.446 7.052 1.313 8.519 0.849 1.486 1.763 1.755 3.619 1.879 1.858 0.108 6.532 0.172 10.587 0.172 4.048 0 8.72-0.064 10.579-0.17 1.86-0.125 2.773-0.394 3.615-1.879 0.875-1.467 1.317-4.041 1.317-8.519v-0.015c0-4.499-0.442-7.054-1.319-8.536z"></path>
<path fill="#263238" style="fill: var(--color2, #263238)" d="M11.636 22.111v-11.539l9.697 5.77-9.697 5.77z"></path>
</symbol>
</defs>
</svg>
