<svg width="34" height="35" fill="none" xmlns="http://www.w3.org/2000/svg"><path d="M34 27.485c0 1.101-.9 1.994-2.01 1.994H2.01C.9 29.479 0 28.585 0 27.485V8.217c0-1.1.9-1.993 2.01-1.993h29.98c1.11 0 2.01.893 2.01 1.993v19.268z" fill="#fff"/><path d="M7.546 17.986l-.798-3.799c-.136-.523-.534-.68-1.03-.7h-3.66l-.032.174c2.85.685 4.737 2.339 5.52 4.325z" fill="#F79F1A"/><path d="M16.027 13.563h-2.365l-1.477 8.597h2.361l1.481-8.597zM8.988 22.151l3.72-8.582h-2.504L7.89 19.433l-.246-.886c-.454-1.065-1.75-2.598-3.272-3.563l2.115 7.17 2.5-.003zM22.773 19.35c.009-.976-.623-1.72-1.985-2.335-.827-.398-1.332-.662-1.326-1.065 0-.356.427-.739 1.353-.739a4.395 4.395 0 011.768.33l.214.097.32-1.863A6.17 6.17 0 0021 13.416c-2.335 0-3.978 1.166-3.993 2.837-.015 1.235 1.175 1.924 2.07 2.336.92.42 1.229.688 1.223 1.065-.006.575-.733.838-1.412.838-.946 0-1.448-.13-2.225-.45l-.302-.138-.332 1.926c.551.239 1.571.448 2.63.457 2.483 0 4.097-1.15 4.115-2.937zM25.582 20.871l3.026.003c.071.3.288 1.289.288 1.289h2.192l-1.914-8.59H27.35c-.567 0-.988.152-1.237.711l-3.51 7.879h2.484s.403-1.06.495-1.292zm1.62-4.163c-.012.024.196-.497.314-.82l.16.74.546 2.484h-1.96c.195-.494.94-2.404.94-2.404zM31.99 6.224H2.01C.9 6.224 0 7.117 0 8.217v2.07h34v-2.07c0-1.1-.9-1.993-2.01-1.993z" fill="#059BBF"/><path d="M31.99 29.479H2.01C.9 29.479 0 28.585 0 27.485v-2.069h34v2.07c0 1.1-.9 1.992-2.01 1.992z" fill="#F79F1A"/><path opacity=".15" d="M1.429 27.485V8.217c0-1.1.9-1.993 2.01-1.993h-1.43C.9 6.224 0 7.117 0 8.217v19.268c0 1.101.9 1.994 2.01 1.994h1.429c-1.11 0-2.01-.893-2.01-1.994z" fill="#202121"/></svg>