<svg fill="rgba(40, 40, 40, 0.1)" id="Capa_1" data-name="Capa 1" xmlns="http://www.w3.org/2000/svg" viewBox="0 0 496 496"><path d="M144,352H112v16h32v16H112v16h32v16H112v16h32v16H112v16h30.53A24,24,0,0,1,120,480H96V352H80V480H56a24,24,0,0,1-22.53-16H64V448H32V432H64V416H32V400H64V384H32V368H64V352H16V456a40,40,0,0,0,40,40h64a40,40,0,0,0,40-40V352H144Z" transform="translate(0 0)"/><path d="M472,288H368V264a40,40,0,0,0-40-40H304V208H288v16H208V208H192v16H168a40,40,0,0,0-40,40v24H24A24,24,0,0,0,0,312v24H176V320H320v16H496V312A24,24,0,0,0,472,288ZM160,320H16v-8a8,8,0,0,1,8-8H152a8,8,0,0,1,8,8Zm161.47-16H174.53A24,24,0,0,0,152,288h-8V264a24,24,0,0,1,24-24H328a24,24,0,0,1,24,24v24h-8A24,24,0,0,0,321.47,304ZM480,320H336v-8a8,8,0,0,1,8-8H472a8,8,0,0,1,8,8Z" transform="translate(0 0)"/><path d="M464,352H432v16h32v16H432v16h32v16H432v16h32v16H432v16h30.53A24,24,0,0,1,440,480H416V352H400V480H376a24,24,0,0,1-22.53-16H384V448H352V432h32V416H352V400h32V384H352V368h32V352H336V456a40,40,0,0,0,40,40h64a40,40,0,0,0,40-40V352H464Z" transform="translate(0 0)"/><path d="M320,32H176V160H320ZM304,144H192V48H304Z" transform="translate(0 0)"/><rect x="272" y="64" width="16" height="64"/><path d="M224,112h16v16h16V64H208v64h16Zm0-32h16V96H224Z" transform="translate(0 0)"/><path d="M471.65,219.48A30.6,30.6,0,0,0,472,216a31.71,31.71,0,0,0-8-20.94V120a72.08,72.08,0,0,0-72-72h-8V32H352V0H144V32H112V48h-8a72.08,72.08,0,0,0-72,72v75.06A31.71,31.71,0,0,0,24,216a30.6,30.6,0,0,0,.35,3.48L0,235.72V272H16V244.28l14.23-9.49a31.74,31.74,0,0,0,51.54,0L96,244.28V272h16V235.72L87.65,219.49A31,31,0,0,0,88,216a31.71,31.71,0,0,0-8-20.94V120a24,24,0,0,1,24-24h8v16h32v80H352V112h32V96h8a24,24,0,0,1,24,24v75.06A31.67,31.67,0,0,0,408,216a30.6,30.6,0,0,0,.35,3.48L384,235.72V272h16V244.28l14.23-9.49a31.74,31.74,0,0,0,51.54,0L480,244.28V272h16V235.72ZM56,232a16,16,0,1,1,16-16A16,16,0,0,1,56,232ZM112,80h-8a40,40,0,0,0-40,40v65.14A31.16,31.16,0,0,0,56,184a31.16,31.16,0,0,0-8,1.14V120a56.06,56.06,0,0,1,56-56h8Zm32,16H128V48h16Zm192,80H160V16H336Zm32-80H352V48h16Zm24-16h-8V64h8a56.06,56.06,0,0,1,56,56v65.14a28.64,28.64,0,0,0-16,0V120A40,40,0,0,0,392,80Zm48,152a16,16,0,1,1,16-16A16,16,0,0,1,440,232Z" transform="translate(0 0)"/></svg>