<svg fill="rgba(40, 40, 40, 0.1)" id="Capa_1" data-name="Capa 1" xmlns="http://www.w3.org/2000/svg" viewBox="0 0 496 496"><path d="M144 352h-32v16h32v16h-32v16h32v16h-32v16h32v16h-32v16h30.53A24 24 0 01120 480H96V352H80v128H56a24 24 0 01-22.53-16H64v-16H32v-16h32v-16H32v-16h32v-16H32v-16h32v-16H16v104a40 40 0 0040 40h64a40 40 0 0040-40V352h-16zm328-64H368v-24a40 40 0 00-40-40h-24v-16h-16v16h-80v-16h-16v16h-24a40 40 0 00-40 40v24H24a24 24 0 00-24 24v24h176v-16h144v16h176v-24a24 24 0 00-24-24zm-312 32H16v-8a8 8 0 018-8h128a8 8 0 018 8zm161.47-16H174.53A24 24 0 00152 288h-8v-24a24 24 0 0124-24h160a24 24 0 0124 24v24h-8a24 24 0 00-22.53 16zM480 320H336v-8a8 8 0 018-8h128a8 8 0 018 8zm-16 32h-32v16h32v16h-32v16h32v16h-32v16h32v16h-32v16h30.53A24 24 0 01440 480h-24V352h-16v128h-24a24 24 0 01-22.53-16H384v-16h-32v-16h32v-16h-32v-16h32v-16h-32v-16h32v-16h-48v104a40 40 0 0040 40h64a40 40 0 0040-40V352h-16zM320 32H176v128h144zm-16 112H192V48h112z"/><path d="M272 64h16v64h-16zm-48 48h16v16h16V64h-48v64h16zm0-32h16v16h-16z"/><path d="M471.65 219.48A30.6 30.6 0 00472 216a31.71 31.71 0 00-8-20.94V120a72.08 72.08 0 00-72-72h-8V32h-32V0H144v32h-32v16h-8a72.08 72.08 0 00-72 72v75.06A31.71 31.71 0 0024 216a30.6 30.6 0 00.35 3.48L0 235.72V272h16v-27.72l14.23-9.49a31.74 31.74 0 0051.54 0L96 244.28V272h16v-36.28l-24.35-16.23A31 31 0 0088 216a31.71 31.71 0 00-8-20.94V120a24 24 0 0124-24h8v16h32v80h208v-80h32V96h8a24 24 0 0124 24v75.06a31.67 31.67 0 00-8 20.94 30.6 30.6 0 00.35 3.48L384 235.72V272h16v-27.72l14.23-9.49a31.74 31.74 0 0051.54 0l14.23 9.49V272h16v-36.28zM56 232a16 16 0 1116-16 16 16 0 01-16 16zm56-152h-8a40 40 0 00-40 40v65.14a31.16 31.16 0 00-8-1.14 31.16 31.16 0 00-8 1.14V120a56.06 56.06 0 0156-56h8zm32 16h-16V48h16zm192 80H160V16h176zm32-80h-16V48h16zm24-16h-8V64h8a56.06 56.06 0 0156 56v65.14a28.64 28.64 0 00-16 0V120a40 40 0 00-40-40zm48 152a16 16 0 1116-16 16 16 0 01-16 16z"/></svg>