<svg fill="rgba(40, 40, 40, 0.1)" id="brain" xmlns="http://www.w3.org/2000/svg" viewBox="0 0 496 496.01"><path d="M496 152a24 24 0 00-24-24 23.61 23.61 0 00-7.82 1.42l-35.85-44.81A23.74 23.74 0 00432 72a24 24 0 00-41.15-16.74l-63.06-29.1c.06-.72.21-1.42.21-2.16a23.94 23.94 0 00-46.52-8h-91A23.94 23.94 0 00144 24a23.52 23.52 0 00.3 2.91l-39.68 19.84a23.91 23.91 0 00-36.94 29.86l-35.85 44.81A23.67 23.67 0 0024 120a23.94 23.94 0 00-8 46.53v50.95a23.93 23.93 0 1028.72 34.42l43.68 7.93A24 24 0 00112 280c.32 0 .63-.08 1-.1l15.26 38.17a23.93 23.93 0 1035.24 31.83l68.66 19.61a23.89 23.89 0 0015.84 21v59a24 24 0 1016 0v-59a23.81 23.81 0 006.72-41.35l9.55-28.67 71.78 23.93a23.93 23.93 0 0015.95 22.1v83a24 24 0 1016 0v-82.99a23.63 23.63 0 0014.44-30.81l61.39-51.15A23.68 23.68 0 00472 288a23.94 23.94 0 008-46.53v-66.95A23.94 23.94 0 00496 152zm-88-88a8 8 0 11-8 8 8 8 0 018-8zm-11.37 29a22.72 22.72 0 0019.19 1.58l35.85 44.82A23.79 23.79 0 00448 152a23.5 23.5 0 00.39 3.77l-56.67 30.91-41.28-34.39a23.33 23.33 0 00-.28-17.47zM296 224a23.55 23.55 0 00-10.28 2.41l-33.89-33.9 59.84-31a23.56 23.56 0 0028.51 3.09l36.42 30.35-64.66 35.27A23.78 23.78 0 00296 224zm8 24a8 8 0 11-8-8 8 8 0 018 8zm-120.95-88.1l13.43 43.28-68.14 35.33a24 24 0 00-10.24-5.63l-11.09-85 54.82-2.75a24 24 0 0021.22 14.77zM176 136a8 8 0 118 8 8 8 0 01-8-8zm25.29 82.71l20.29 65.39L136 255.55a23.45 23.45 0 00-.29-2.81zm0-54.16l23.82 23.82-14.15 7.33zm4.36-18.27A23.65 23.65 0 00208 136a23.92 23.92 0 00-2-9.58L244 91l61.23 45.92A23.66 23.66 0 00304 144a25 25 0 00.33 3.26L240 180.64zM320 144a8 8 0 118 8 8 8 0 01-8-8zm69.83 61.94l57.32 47.76L323 242.42zM304 16a8 8 0 11-8 8 8 8 0 018-8zm-11 29.21a23.57 23.57 0 0028.15-4.48l63.06 29.1c-.06.73-.22 1.43-.22 2.17a24 24 0 001.84 9.18L339.38 123a23.6 23.6 0 00-11.38-3 23.84 23.84 0 00-13.28 4l-58.87-44.11zM281.48 32c.19.52.32 1.06.54 1.57l-39.18 36.56L192 32zM168 16a8 8 0 11-8 8 8 8 0 018-8zm-56 48a23.16 23.16 0 00-.29-2.9l39.68-19.84a23.86 23.86 0 0029.9 2.7L231 81.22l-36 33.56a23.67 23.67 0 00-33.88 14.35l-56.19 2.81-6.08-46.65A23.94 23.94 0 00112 64zm-24-8a8 8 0 11-8 8 8 8 0 018-8zm-7.82 30.58a24.74 24.74 0 002.81.88l5.9 45.28-42.71 2.14a23.31 23.31 0 00-1.85-3.49zM24 136a8 8 0 11-8 8 8 8 0 018-8zm0 112a8 8 0 118-8 8 8 0 01-8 8zm67.28-3.9l-43.66-7.93A24 24 0 0032 217.47v-50.95a23.94 23.94 0 0014.88-15.66l44.1-2.2 11.15 85.52a24 24 0 00-10.85 9.92zM112 264a8 8 0 118-8 8 8 0 01-8 8zm32 80a8 8 0 118-8 8 8 0 01-8 8zm92.52 10.1l-68.66-19.61A24 24 0 00144 312c-.32 0-.62.08-.94.1l-15.26-38.17a25.11 25.11 0 003-3.23l96.59 32.2 14.26 46a24.47 24.47 0 00-5.13 5.2zM256 480a8 8 0 118-8 8 8 0 01-8 8zm0-104a8 8 0 118-8 8 8 0 01-8 8zm.28-34.11l-10.17-32.75 19 6.32zm13.87-41.61l-29.87-10-24.55-79.09 21.2-11 37.48 37.48a23.51 23.51 0 006.89 29.1zM376 480a8 8 0 118-8 8 8 0 01-8 8zm0-128a8 8 0 118-8 8 8 0 01-8 8zm12.18-28.58a23.59 23.59 0 00-31 5.88l-71.86-24 11.13-33.3a23.93 23.93 0 0021.29-14l131.09 11.91c.21.8.45 1.58.73 2.35zm16.76-125.73l51.13-27.89a23.79 23.79 0 007.94 4.72v66.95a24.55 24.55 0 00-4.18 2zM472 272a8 8 0 118-8 8 8 0 01-8 8zm0-112a8 8 0 118-8 8 8 0 01-8 8zM16 0h16v16H16zm0 32h16v16H16zm16-16h16v16H32zM0 16h16v16H0z"/><path d="M416 368h16v16h-16zm0 32h16v16h-16zm16-16h16v16h-16zm-32 0h16v16h-16zm64-352h16v16h-16zm0 32h16v16h-16zm16-16h16v16h-16zm-32 0h16v16h-16zM96 384h16v16H96zm0 32h16v16H96zm16-16h16v16h-16zm-32 0h16v16H80zM48 296h16v16H48zm0 32h16v16H48zm16-16h16v16H64zm-32 0h16v16H32z"/></svg>