<svg fill="rgba(40, 40, 40, 0.1)" id="head" xmlns="http://www.w3.org/2000/svg" viewBox="0 0 442.75 496"><path d="M430.23,60.1C397.65,21.9,348.44,0,295.24,0H243.5C215.7,0,190,5.59,167.17,16.63c-60.4,29.16-97.92,88.64-97.92,155.25a66.84,66.84,0,0,1-25.2,52.43L26.62,238.25l3.89,6.07a465.73,465.73,0,0,1,59,135.37l2.5,9.67c4.3,16.67,15,30.2,29.36,37.12a55.12,55.12,0,0,0,50.17-1.14L289.18,359,281.31,345l-117.47,66.3a39,39,0,0,1-35.48.74c-10.11-4.87-17.7-14.61-20.82-26.71l-2.5-9.67c-.66-2.58-1.43-5.12-2.14-7.69h22.35V352h-27A481.24,481.24,0,0,0,47.82,241.78l6.21-5a82.77,82.77,0,0,0,31.22-64.94C85.25,111.46,119.3,57.5,174.12,31c20.66-10,44-15,69.38-15h51.74c2,0,4,.09,6,.15V40h16V17.44c39.86,5.06,75.8,23.73,100.81,53,28.7,33.65,40.49,77.34,33.2,123.05a151.87,151.87,0,0,1-20.5,55.78c-42.86,69.93-65.51,146.23-65.51,220.63V480h-48V328h-16V480h-80V416h-16v80h176V469.94c0-71.45,21.84-144.85,63.15-212.28A167.73,167.73,0,0,0,467.06,196C475.1,145.64,462,97.36,430.23,60.1Z" transform="translate(-26.62 0)"/><rect x="82.62" y="200" width="48" height="16"/><path d="M357.25,168a48,48,0,1,0-48,48A48.05,48.05,0,0,0,357.25,168Zm-48,32a32,32,0,1,1,32-32A32,32,0,0,1,309.25,200Z" transform="translate(-26.62 0)"/><path d="M271.86,256.34l1.36.56L279,280h60.5l5.77-23.1,1.37-.56,20.42,12.24,42.77-42.77-12.25-20.43c.2-.46.39-.91.57-1.36l23.1-5.77v-60.5L398.15,132q-1.09-2.7-2.36-5.35l-14.44,6.89a78.31,78.31,0,0,1,3.26,7.86l1.43,4.06,19.21,4.81v35.5L386,190.56l-1.43,4.06a76.07,76.07,0,0,1-3.26,7.84l-1.85,3.88,10.18,17-25.1,25.11-17-10.18-3.88,1.85a79.53,79.53,0,0,1-7.85,3.26l-4.06,1.43L327,264H291.5l-4.8-19.2-4.05-1.43a79.7,79.7,0,0,1-7.86-3.26l-3.88-1.85-17,10.18-29.52-29.52L213.1,230.23l38.35,38.35Z" transform="translate(-26.62 0)"/><path d="M197.25,137.75v60.5L220.34,204c.73,1.8,1.52,3.59,2.37,5.35l14.43-6.91a79.29,79.29,0,0,1-3.25-7.84l-1.43-4.06-19.21-4.81v-35.5l19.21-4.81,1.43-4.06a78.24,78.24,0,0,1,3.25-7.86l1.85-3.87-10.18-17,25.1-25.11,17,10.18,3.88-1.85a78.53,78.53,0,0,1,7.85-3.26l4.05-1.43,4.8-19.2H327l4.8,19.2,4.05,1.43a79.7,79.7,0,0,1,7.86,3.26l3.88,1.85,17-10.18,29.52,29.52,11.31-11.31L367,67.42,346.61,79.66l-1.37-.56L339.5,56H279l-5.78,23.1-1.36.56L251.43,67.42l-42.77,42.77,12.25,20.43-.57,1.36Z" transform="translate(-26.62 0)"/><rect x="274.62" y="88" width="16" height="16"/><rect x="250.34" y="109.1" width="16" height="16" transform="translate(-33.74 217.01) rotate(-45.01)"/><rect x="202.62" y="160" width="16" height="16"/><rect x="250.34" y="210.87" width="16" height="16" transform="translate(-105.72 246.73) rotate(-44.99)"/><rect x="274.62" y="232" width="16" height="16"/><rect x="352.13" y="210.94" width="16" height="16" transform="translate(-75.94 318.83) rotate(-45.01)"/><rect x="346.62" y="160" width="16" height="16"/><rect x="352.13" y="109.13" width="16" height="16" transform="translate(-3.99 288.91) rotate(-44.99)"/><rect x="274.62" y="296" width="16" height="16"/></svg>