<svg fill="rgba(40, 40, 40, 0.1)" id="head" xmlns="http://www.w3.org/2000/svg" viewBox="0 0 442.75 496"><path d="M430.23 60.1C397.65 21.9 348.44 0 295.24 0H243.5c-27.8 0-53.5 5.59-76.33 16.63-60.4 29.16-97.92 88.64-97.92 155.25a66.84 66.84 0 01-25.2 52.43l-17.43 13.94 3.89 6.07a465.73 465.73 0 0159 135.37l2.5 9.67c4.3 16.67 15 30.2 29.36 37.12a55.12 55.12 0 0050.17-1.14L289.18 359l-7.87-14-117.47 66.3a39 39 0 01-35.48.74c-10.11-4.87-17.7-14.61-20.82-26.71l-2.5-9.67c-.66-2.58-1.43-5.12-2.14-7.69h22.35V352h-27a481.24 481.24 0 00-50.43-110.22l6.21-5a82.77 82.77 0 0031.22-64.94c0-60.38 34.05-114.34 88.87-140.84 20.66-10 44-15 69.38-15h51.74c2 0 4 .09 6 .15V40h16V17.44c39.86 5.06 75.8 23.73 100.81 53 28.7 33.65 40.49 77.34 33.2 123.05a151.87 151.87 0 01-20.5 55.78c-42.86 69.93-65.51 146.23-65.51 220.63V480h-48V328h-16v152h-80v-64h-16v80h176v-26.06c0-71.45 21.84-144.85 63.15-212.28A167.73 167.73 0 00467.06 196c8.04-50.36-5.06-98.64-36.83-135.9z" transform="translate(-26.62)"/><path d="M82.62 200h48v16h-48z"/><path d="M357.25 168a48 48 0 10-48 48 48.05 48.05 0 0048-48zm-48 32a32 32 0 1132-32 32 32 0 01-32 32z" transform="translate(-26.62)"/><path d="M271.86 256.34l1.36.56L279 280h60.5l5.77-23.1 1.37-.56 20.42 12.24 42.77-42.77-12.25-20.43c.2-.46.39-.91.57-1.36l23.1-5.77v-60.5l-23.1-5.75q-1.09-2.7-2.36-5.35l-14.44 6.89a78.31 78.31 0 013.26 7.86l1.43 4.06 19.21 4.81v35.5L386 190.56l-1.43 4.06a76.07 76.07 0 01-3.26 7.84l-1.85 3.88 10.18 17-25.1 25.11-17-10.18-3.88 1.85a79.53 79.53 0 01-7.85 3.26l-4.06 1.43L327 264h-35.5l-4.8-19.2-4.05-1.43a79.7 79.7 0 01-7.86-3.26l-3.88-1.85-17 10.18-29.52-29.52-11.29 11.31 38.35 38.35zm-74.61-118.59v60.5l23.09 5.75c.73 1.8 1.52 3.59 2.37 5.35l14.43-6.91a79.29 79.29 0 01-3.25-7.84l-1.43-4.06-19.21-4.81v-35.5l19.21-4.81 1.43-4.06a78.24 78.24 0 013.25-7.86l1.85-3.87-10.18-17 25.1-25.11 17 10.18 3.88-1.85a78.53 78.53 0 017.85-3.26l4.05-1.43 4.8-19.2H327l4.8 19.2 4.05 1.43a79.7 79.7 0 017.86 3.26l3.88 1.85 17-10.18 29.52 29.52 11.31-11.31L367 67.42l-20.39 12.24-1.37-.56L339.5 56H279l-5.78 23.1-1.36.56-20.43-12.24-42.77 42.77 12.25 20.43-.57 1.36z" transform="translate(-26.62)"/><path d="M274.62 88h16v16h-16z"/><path transform="rotate(-45.01 245.02 149.223)" d="M250.34 109.1h16v16h-16z"/><path d="M202.62 160h16v16h-16z"/><path transform="rotate(-44.99 245.043 251.012)" d="M250.34 210.87h16v16h-16z"/><path d="M274.62 232h16v16h-16z"/><path transform="rotate(-45.01 346.797 251.06)" d="M352.13 210.94h16v16h-16z"/><path d="M346.62 160h16v16h-16z"/><path transform="rotate(-44.99 346.836 149.273)" d="M352.13 109.13h16v16h-16z"/><path d="M274.62 296h16v16h-16z"/></svg>