<svg fill="rgba(40, 40, 40, 0.1)" id="Capa_1" data-name="Capa 1" xmlns="http://www.w3.org/2000/svg" viewBox="0 0 496 496"><path d="M0,248a56.07,56.07,0,0,0,56,56h8V192H56A56.07,56.07,0,0,0,0,248Zm48,39.19a40,40,0,0,1,0-78.38Z" transform="translate(0 0)"/><path d="M40,176H56C56,87.78,127.78,16,216,16h8v84.27A191.48,191.48,0,0,1,102.24,144H80V296c0,51.89,38.25,94.9,88,102.64V496h72V416H224v64H184V400h56V0H216C119,0,40,79,40,176ZM224,334.87A32,32,0,0,1,200,304H184a48.05,48.05,0,0,0,40,47.28V384H184a88.1,88.1,0,0,1-88-88V160h6.24A207.55,207.55,0,0,0,224,120.5Z" transform="translate(0 0)"/><path d="M160,256a24,24,0,1,0-24-24A24,24,0,0,0,160,256Zm0-32a8,8,0,1,1-8,8A8,8,0,0,1,160,224Z" transform="translate(0 0)"/><path d="M440,192h-8V304h8a56,56,0,0,0,0-112Zm8,95.19V208.8a40,40,0,0,1,0,78.39Z" transform="translate(0 0)"/><path d="M256,160H400V296a88.1,88.1,0,0,1-88,88H256v16h56A104.13,104.13,0,0,0,416,296V144H256Z" transform="translate(0 0)"/><path d="M312,0H256V16h16V48H256V64h32V16h16V80H256V96h64V16.41A88.08,88.08,0,0,1,400,104v24h16V104A104.13,104.13,0,0,0,312,0Z" transform="translate(0 0)"/><path d="M432,80h16V46.53a24,24,0,1,0-16,0Zm8-64a8,8,0,1,1-8,8A8,8,0,0,1,440,16Z" transform="translate(0 0)"/><path d="M352,320a32,32,0,0,0-32-32H256v16h16v32H256v16h64A32,32,0,0,0,352,320Zm-32-16a16,16,0,0,1,0,32Zm-16,32H288V304h16Z" transform="translate(0 0)"/><path d="M360,224a40,40,0,1,0-40,40A40,40,0,0,0,360,224Zm-18.41-10.28a23.13,23.13,0,0,1,0,20.56L331.31,224ZM320,200a23.52,23.52,0,0,1,10.28,2.41L320,212.69l-10.28-10.28A23.52,23.52,0,0,1,320,200Zm-21.59,34.28a23.13,23.13,0,0,1,0-20.56L308.69,224Zm21.59,1,10.28,10.28a23.13,23.13,0,0,1-20.56,0Z" transform="translate(0 0)"/><rect x="264" y="112" width="16" height="16"/><rect x="304" y="112" width="16" height="16"/><rect x="344" y="112" width="16" height="16"/><polygon points="320 416 304 416 304 448 256 448 256 464 360 464 360 480 256 480 256 496 376 496 376 448 320 448 320 416"/><rect x="432" y="96" width="16" height="80"/></svg>