<svg width="265" height="75" fill="none" xmlns="http://www.w3.org/2000/svg"><mask id="path-1-inside-1" fill="#fff"><path fill-rule="evenodd" clip-rule="evenodd" d="M37.485 13.485A12 12 0 0129 17H12C5.373 17 0 22.373 0 29v34c0 6.627 5.373 12 12 12h241c6.627 0 12-5.373 12-12V29c0-6.627-5.373-12-12-12H76.255a12 12 0 01-8.485-3.515L55.456 1.172a4 4 0 00-5.657 0L37.485 13.485z"/></mask><path fill-rule="evenodd" clip-rule="evenodd" d="M37.485 13.485A12 12 0 0129 17H12C5.373 17 0 22.373 0 29v34c0 6.627 5.373 12 12 12h241c6.627 0 12-5.373 12-12V29c0-6.627-5.373-12-12-12H76.255a12 12 0 01-8.485-3.515L55.456 1.172a4 4 0 00-5.657 0L37.485 13.485z" fill="#FEC830" fill-opacity=".2"/><path d="M55.456 1.172l.353-.354-.353.354zm-5.657 0l-.353-.354.353.354zm17.97 12.313l-.353.354.354-.354zm-30.284 0l.354.354-.354-.354zM12 16.5c-.623 0-1.235.046-1.834.134l.145.989A11.608 11.608 0 0112 17.5v-1zm-7.447 2.46a12.573 12.573 0 00-2.594 2.593l.803.596a11.569 11.569 0 012.387-2.387l-.596-.803zm-4.92 8.206A12.598 12.598 0 00-.5 29h1c0-.574.042-1.138.123-1.689l-.99-.145zM-.5 29v1.594h1V29h-1zm0 6.906v3.188h1v-3.188h-1zm0 8.5v3.188h1v-3.188h-1zm0 8.5v3.188h1v-3.188h-1zm0 8.5V63h1v-1.594h-1zM-.5 63c0 .623.046 1.235.134 1.834l.989-.145A11.599 11.599 0 01.5 63h-1zm2.46 7.447a12.6 12.6 0 002.593 2.594l.596-.803a11.569 11.569 0 01-2.387-2.388l-.803.597zm8.206 4.92A12.75 12.75 0 0012 75.5v-1c-.574 0-1.138-.042-1.689-.123l-.145.99zM12 75.5h1.506v-1H12v1zm6.527 0h3.013v-1h-3.013v1zm8.033 0h3.013v-1H26.56v1zm8.034 0h3.012v-1h-3.012v1zm8.033 0h3.013v-1h-3.013v1zm8.033 0h3.013v-1H50.66v1zm8.034 0h3.012v-1h-3.012v1zm8.033 0h3.013v-1h-3.013v1zm8.033 0h3.013v-1H74.76v1zm8.034 0h3.012v-1h-3.012v1zm8.033 0h3.013v-1h-3.013v1zm8.033 0h3.013v-1H98.86v1zm8.034 0h3.012v-1h-3.012v1zm8.033 0h3.013v-1h-3.013v1zm8.033 0h3.013v-1h-3.013v1zm8.034 0h3.012v-1h-3.012v1zm8.033 0h3.013v-1h-3.013v1zm8.033 0h3.013v-1h-3.013v1zm8.034 0h3.012v-1h-3.012v1zm8.033 0h3.013v-1h-3.013v1zm8.033 0h3.013v-1h-3.013v1zm8.034 0h3.012v-1h-3.012v1zm8.033 0h3.013v-1h-3.013v1zm8.033 0h3.013v-1h-3.013v1zm8.034 0h3.012v-1h-3.012v1zm8.033 0h3.013v-1h-3.013v1zm8.033 0h3.013v-1h-3.013v1zm8.034 0h3.012v-1h-3.012v1zm8.033 0h3.012v-1h-3.012v1zm8.033 0h3.013v-1h-3.013v1zm8.034 0H253v-1h-1.506v1zm1.506 0c.623 0 1.235-.046 1.834-.134l-.145-.989c-.551.081-1.115.123-1.689.123v1zm7.447-2.46a12.59 12.59 0 002.594-2.593l-.803-.597a11.603 11.603 0 01-2.387 2.388l.596.803zm4.919-8.206c.088-.599.134-1.211.134-1.834h-1c0 .574-.042 1.138-.123 1.689l.989.145zM265.5 63v-1.594h-1V63h1zm0-6.906v-3.188h-1v3.188h1zm0-8.5v-3.188h-1v3.188h1zm0-8.5v-3.188h-1v3.188h1zm0-8.5V29h-1v1.594h1zm0-1.594c0-.623-.046-1.235-.134-1.834l-.989.145c.081.551.123 1.115.123 1.689h1zm-2.459-7.447a12.59 12.59 0 00-2.594-2.594l-.596.803c.907.675 1.712 1.48 2.387 2.387l.803-.596zm-8.207-4.92A12.594 12.594 0 00253 16.5v1c.574 0 1.138.042 1.689.123l.145-.99zM253 16.5h-1.506v1H253v-1zm-6.528 0h-3.012v1h3.012v-1zm-8.033 0h-3.013v1h3.013v-1zm-8.034 0h-3.013v1h3.013v-1zm-8.034 0h-3.013v1h3.013v-1zm-8.034 0h-3.013v1h3.013v-1zm-8.034 0h-3.013v1h3.013v-1zm-8.034 0h-3.012v1h3.012v-1zm-8.034 0h-3.012v1h3.012v-1zm-8.033 0h-3.013v1h3.013v-1zm-8.034 0h-3.013v1h3.013v-1zm-8.034 0h-3.013v1h3.013v-1zm-8.034 0h-3.013v1h3.013v-1zm-8.034 0h-3.013v1h3.013v-1zm-8.034 0h-3.013v1h3.013v-1zm-8.034 0h-3.012v1h3.012v-1zm-8.034 0h-3.012v1h3.012v-1zm-8.033 0h-3.013v1h3.013v-1zm-8.034 0h-3.013v1h3.013v-1zm-8.034 0H98.85v1h3.013v-1zm-8.034 0h-3.013v1h3.013v-1zm-8.034 0h-3.013v1h3.013v-1zm-8.034 0h-1.506v1h1.506v-1zm-1.506 0a11.51 11.51 0 01-1.688-.124l-.146.989c.603.09 1.216.135 1.834.135v-1zm-6.85-2.263a11.57 11.57 0 01-1.282-1.105l-.707.707c.437.436.902.838 1.393 1.201l.595-.803zm-1.282-1.105l-1.154-1.155-.707.707 1.154 1.155.707-.707zm-5.002-5.003L60.81 5.82l-.706.708 2.309 2.308.707-.707zm-6.157-6.157L55.809.818l-.707.707 1.155 1.155.707-.708zM55.809.818A4.499 4.499 0 0054.75.03l-.471.882c.296.158.574.363.824.613l.707-.707zM50.506.03c-.382.205-.74.467-1.06.788l.707.707a3.5 3.5 0 01.824-.613L50.506.03zm-1.06.788L48.29 1.972l.707.708 1.155-1.155-.707-.707zM44.443 5.82l-2.309 2.31.707.706 2.31-2.308-.708-.708zm-6.157 6.157l-1.154 1.155.707.707 1.154-1.155-.707-.707zm-1.154 1.155c-.402.402-.83.77-1.281 1.105l.595.803c.49-.363.956-.764 1.393-1.201l-.707-.707zm-6.444 3.244A11.51 11.51 0 0129 16.5v1c.618 0 1.23-.046 1.834-.135l-.146-.99zM29 16.5h-1.594v1H29v-1zm-6.906 0h-3.188v1h3.188v-1zm-8.5 0H12v1h1.594v-1zM55.456 1.172l.707-.708-.707.708zm-5.657 0l-.707-.708.707.708zm17.97 12.313l-.707.707.708-.707zm-30.284 0l.707.707-.707-.707zM12 16c-.647 0-1.284.047-1.907.139l.291 1.979A11.099 11.099 0 0112 18v-2zm-7.745 2.558a13.069 13.069 0 00-2.697 2.697l1.606 1.193a11.074 11.074 0 012.284-2.285l-1.193-1.605zm-5.116 8.535A13.1 13.1 0 00-1 29h2c0-.55.04-1.089.118-1.616l-1.979-.291zM-1 29v1.594h2V29h-2zm0 6.906v3.188h2v-3.188h-2zm0 8.5v3.188h2v-3.188h-2zm0 8.5v3.188h2v-3.188h-2zm0 8.5V63h2v-1.594h-2zM-1 63c0 .647.047 1.284.139 1.907l1.979-.291A11.099 11.099 0 011 63h-2zm2.558 7.745a13.066 13.066 0 002.697 2.697l1.193-1.606a11.068 11.068 0 01-2.284-2.284l-1.606 1.193zm8.535 5.116c.623.092 1.26.139 1.907.139v-2c-.55 0-1.089-.04-1.616-.118l-.291 1.979zM12 76h1.506v-2H12v2zm6.527 0h3.013v-2h-3.013v2zm8.033 0h3.013v-2H26.56v2zm8.034 0h3.012v-2h-3.012v2zm8.033 0h3.013v-2h-3.013v2zm8.033 0h3.013v-2H50.66v2zm8.034 0h3.012v-2h-3.012v2zm8.033 0h3.013v-2h-3.013v2zm8.033 0h3.013v-2H74.76v2zm8.034 0h3.012v-2h-3.012v2zm8.033 0h3.013v-2h-3.013v2zm8.033 0h3.013v-2H98.86v2zm8.034 0h3.012v-2h-3.012v2zm8.033 0h3.013v-2h-3.013v2zm8.033 0h3.013v-2h-3.013v2zm8.034 0h3.012v-2h-3.012v2zm8.033 0h3.013v-2h-3.013v2zm8.033 0h3.013v-2h-3.013v2zm8.034 0h3.012v-2h-3.012v2zm8.033 0h3.013v-2h-3.013v2zm8.033 0h3.013v-2h-3.013v2zm8.034 0h3.012v-2h-3.012v2zm8.033 0h3.013v-2h-3.013v2zm8.033 0h3.013v-2h-3.013v2zm8.034 0h3.012v-2h-3.012v2zm8.033 0h3.013v-2h-3.013v2zm8.033 0h3.013v-2h-3.013v2zm8.034 0h3.012v-2h-3.012v2zm8.033 0h3.012v-2h-3.012v2zm8.033 0h3.013v-2h-3.013v2zm8.034 0H253v-2h-1.506v2zM253 76c.647 0 1.284-.047 1.907-.139l-.291-1.979c-.527.078-1.066.118-1.616.118v2zm7.745-2.558a13.063 13.063 0 002.697-2.697l-1.606-1.193a11.052 11.052 0 01-2.284 2.284l1.193 1.606zm5.116-8.535c.092-.623.139-1.26.139-1.907h-2c0 .55-.04 1.089-.118 1.616l1.979.291zM266 63v-1.594h-2V63h2zm0-6.906v-3.188h-2v3.188h2zm0-8.5v-3.188h-2v3.188h2zm0-8.5v-3.188h-2v3.188h2zm0-8.5V29h-2v1.594h2zM266 29c0-.647-.047-1.284-.139-1.907l-1.979.291c.078.527.118 1.067.118 1.616h2zm-2.558-7.745a13.063 13.063 0 00-2.697-2.697l-1.193 1.606a11.055 11.055 0 012.284 2.284l1.606-1.193zm-8.535-5.116A13.106 13.106 0 00253 16v2c.55 0 1.089.04 1.616.118l.291-1.979zM253 16h-1.506v2H253v-2zm-6.528 0h-3.012v2h3.012v-2zm-8.033 0h-3.013v2h3.013v-2zm-8.034 0h-3.013v2h3.013v-2zm-8.034 0h-3.013v2h3.013v-2zm-8.034 0h-3.013v2h3.013v-2zm-8.034 0h-3.013v2h3.013v-2zm-8.034 0h-3.012v2h3.012v-2zm-8.034 0h-3.012v2h3.012v-2zm-8.033 0h-3.013v2h3.013v-2zm-8.034 0h-3.013v2h3.013v-2zm-8.034 0h-3.013v2h3.013v-2zm-8.034 0h-3.013v2h3.013v-2zm-8.034 0h-3.013v2h3.013v-2zm-8.034 0h-3.013v2h3.013v-2zm-8.034 0h-3.012v2h3.012v-2zm-8.034 0h-3.012v2h3.012v-2zm-8.033 0h-3.013v2h3.013v-2zm-8.034 0h-3.013v2h3.013v-2zm-8.034 0H98.85v2h3.013v-2zm-8.034 0h-3.013v2h3.013v-2zm-8.034 0h-3.013v2h3.013v-2zm-8.034 0h-1.506v2h1.506v-2zm-1.506 0c-.544 0-1.083-.04-1.614-.119l-.294 1.978c.628.093 1.266.141 1.908.141v-2zm-6.553-2.165a11.13 11.13 0 01-1.225-1.057l-1.415 1.414a13 13 0 001.449 1.25l1.191-1.607zm-1.225-1.057l-1.155-1.154-1.414 1.414 1.154 1.154 1.415-1.414zm-5.003-5.002l-2.309-2.31-1.414 1.415 2.31 2.309 1.413-1.414zm-6.157-6.157L56.163.464 54.749 1.88l1.154 1.154 1.414-1.414zM56.163.464a5.002 5.002 0 00-1.178-.874l-.943 1.763a3 3 0 01.707.526L56.163.464zM50.27-.41a5 5 0 00-1.178.874l1.414 1.415c.216-.216.454-.39.707-.526L50.27-.41zm-1.178.874L47.938 1.62l1.414 1.414 1.154-1.154L49.092.464zM44.09 5.467l-2.31 2.309 1.415 1.414 2.309-2.309-1.414-1.414zm-6.157 6.157l-1.155 1.154 1.414 1.414 1.155-1.154-1.414-1.414zm-1.155 1.154c-.384.384-.794.737-1.225 1.057l1.191 1.607c.51-.378.994-.796 1.448-1.25l-1.414-1.414zm-6.164 3.103c-.531.079-1.07.119-1.614.119v2c.642 0 1.28-.047 1.907-.14l-.293-1.979zM29 16h-1.594v2H29v-2zm-6.906 0h-3.188v2h3.188v-2zm-8.5 0H12v2h1.594v-2z" fill="#FEC830" mask="url(#path-1-inside-1)"/></svg>