<svg width="370" height="76" fill="none" xmlns="http://www.w3.org/2000/svg"><mask id="path-1-inside-1" fill="#fff"><path fill-rule="evenodd" clip-rule="evenodd" d="M37.143 13.828a12 12 0 01-8.486 3.515H12c-6.627 0-12 5.372-12 12v34c0 6.627 5.373 12 12 12h346c6.627 0 12-5.373 12-12v-34c0-6.628-5.373-12-12-12H76.598a12 12 0 01-8.486-3.515L55.456 1.172a4 4 0 00-5.657 0L37.143 13.828z"/></mask><path fill-rule="evenodd" clip-rule="evenodd" d="M37.143 13.828a12 12 0 01-8.486 3.515H12c-6.627 0-12 5.372-12 12v34c0 6.627 5.373 12 12 12h346c6.627 0 12-5.373 12-12v-34c0-6.628-5.373-12-12-12H76.598a12 12 0 01-8.486-3.515L55.456 1.172a4 4 0 00-5.657 0L37.143 13.828z" fill="#FEC830" fill-opacity=".2"/><path d="M55.456 1.172l.353-.354-.353.354zm-5.657 0l-.353-.354.353.354zm18.313 12.656l-.353.354.353-.354zm-30.97 0l-.353-.353.354.353zM12 16.843c-.623 0-1.235.045-1.834.133l.145.99A11.608 11.608 0 0112 17.843v-1zm-7.447 2.46a12.568 12.568 0 00-2.594 2.593l.803.596a11.571 11.571 0 012.387-2.387l-.596-.803zm-4.92 8.206A12.597 12.597 0 00-.5 29.343h1c0-.574.042-1.138.123-1.689l-.99-.145zM-.5 29.343v1.593h1v-1.593h-1zm0 6.906v3.188h1v-3.188h-1zm0 8.5v3.188h1v-3.188h-1zm0 8.5v3.188h1v-3.188h-1zm0 8.5v1.594h1v-1.594h-1zm0 1.594c0 .623.046 1.235.134 1.834l.989-.146A11.599 11.599 0 01.5 63.343h-1zm2.46 7.447a12.569 12.569 0 002.593 2.593l.596-.802a11.571 11.571 0 01-2.387-2.388l-.803.597zm8.206 4.92a12.75 12.75 0 001.834.133v-1c-.574 0-1.138-.042-1.689-.123l-.145.99zm1.834.133h1.509v-1H12v1zm6.538 0h3.017v-1h-3.017v1zm8.046 0h3.018v-1h-3.018v1zm8.047 0h3.017v-1h-3.017v1zm8.046 0h3.018v-1h-3.018v1zm8.047 0h3.017v-1h-3.017v1zm8.046 0h3.018v-1H58.77v1zm8.047 0h3.017v-1h-3.017v1zm8.046 0h3.018v-1h-3.018v1zm8.047 0h3.017v-1H82.91v1zm8.046 0h3.018v-1h-3.018v1zm8.047 0h3.017v-1h-3.017v1zm8.046 0h3.018v-1h-3.018v1zm8.047 0h3.017v-1h-3.017v1zm8.046 0h3.018v-1h-3.018v1zm8.047 0h3.017v-1h-3.017v1zm8.046 0h3.018v-1h-3.018v1zm8.047 0h3.017v-1h-3.017v1zm8.046 0h3.018v-1h-3.018v1zm8.047 0h3.017v-1h-3.017v1zm8.046 0h3.018v-1h-3.018v1zm8.047 0h3.017v-1h-3.017v1zm8.047 0h3.017v-1h-3.017v1zm8.046 0h3.017v-1h-3.017v1zm8.047 0h3.017v-1h-3.017v1zm8.046 0h3.017v-1h-3.017v1zm8.047 0h3.017v-1h-3.017v1zm8.046 0h3.017v-1h-3.017v1zm8.047 0h3.017v-1h-3.017v1zm8.046 0h3.017v-1h-3.017v1zm8.047 0h3.017v-1h-3.017v1zm8.046 0h3.018v-1h-3.018v1zm8.047 0h3.017v-1h-3.017v1zm8.046 0h3.018v-1h-3.018v1zm8.047 0h3.017v-1h-3.017v1zm8.046 0h3.018v-1h-3.018v1zm8.047 0h3.017v-1h-3.017v1zm8.046 0h3.018v-1h-3.018v1zm8.047 0h3.017v-1h-3.017v1zm8.046 0h3.018v-1h-3.018v1zm8.047 0h3.017v-1h-3.017v1zm8.046 0h3.018v-1h-3.018v1zm8.047 0h3.017v-1h-3.017v1zm8.047 0H358v-1h-1.508v1zm1.508 0c.623 0 1.235-.046 1.834-.134l-.145-.99a11.47 11.47 0 01-1.689.124v1zm7.447-2.46a12.586 12.586 0 002.594-2.593l-.803-.597a11.606 11.606 0 01-2.387 2.388l.596.802zm4.919-8.206a12.61 12.61 0 00.134-1.834h-1c0 .574-.042 1.138-.123 1.688l.989.146zm.134-1.834v-1.594h-1v1.594h1zm0-6.907V53.25h-1v3.188h1zm0-8.5V44.75h-1v3.188h1zm0-8.5V36.25h-1v3.188h1zm0-8.5v-1.593h-1v1.593h1zm0-1.593c0-.623-.046-1.235-.134-1.834l-.989.145c.081.551.123 1.115.123 1.689h1zm-2.459-7.447a12.586 12.586 0 00-2.594-2.594l-.596.803c.907.674 1.712 1.48 2.387 2.387l.803-.596zm-8.207-4.92a12.594 12.594 0 00-1.834-.133v1c.574 0 1.138.042 1.689.123l.145-.99zM358 16.843h-1.508v1H358v-1zm-6.533 0h-3.015v1h3.015v-1zm-8.04 0h-3.015v1h3.015v-1zm-8.04 0h-3.015v1h3.015v-1zm-8.04 0h-3.015v1h3.015v-1zm-8.04 0h-3.015v1h3.015v-1zm-8.04 0h-3.015v1h3.015v-1zm-8.04 0h-3.015v1h3.015v-1zm-8.04 0h-3.015v1h3.015v-1zm-8.04 0h-3.015v1h3.015v-1zm-8.04 0h-3.015v1h3.015v-1zm-8.04 0h-3.015v1h3.015v-1zm-8.04 0h-3.015v1h3.015v-1zm-8.04 0h-3.015v1h3.015v-1zm-8.04 0h-3.015v1h3.015v-1zm-8.04 0h-3.015v1h3.015v-1zm-8.041 0h-3.015v1h3.015v-1zm-8.04 0h-3.015v1h3.015v-1zm-8.04 0h-3.015v1h3.015v-1zm-8.04 0h-3.015v1h3.015v-1zm-8.04 0h-3.015v1h3.015v-1zm-8.04 0h-3.015v1h3.015v-1zm-8.04 0h-3.015v1h3.015v-1zm-8.04 0h-3.015v1h3.015v-1zm-8.04 0h-3.015v1h3.015v-1zm-8.04 0h-3.015v1h3.015v-1zm-8.04 0h-3.015v1h3.015v-1zm-8.04 0h-3.015v1h3.015v-1zm-8.04 0h-3.015v1h3.015v-1zm-8.04 0h-3.015v1h3.015v-1zm-8.041 0h-3.015v1h3.015v-1zm-8.04 0h-3.015v1h3.015v-1zm-8.04 0H99.21v1h3.015v-1zm-8.04 0H91.17v1h3.015v-1zm-8.04 0H83.13v1h3.015v-1zm-8.04 0h-1.507v1h1.507v-1zm-1.507 0a11.42 11.42 0 01-1.688-.125l-.147.99c.604.089 1.217.135 1.835.135v-1zm-6.85-2.263a11.5 11.5 0 01-1.282-1.105l-.707.707c.436.436.902.837 1.392 1.2l.596-.802zm-1.282-1.105l-1.187-1.187-.707.707 1.187 1.187.707-.707zm-5.142-5.142L60.951 5.96l-.707.707 2.373 2.373.707-.707zm-6.328-6.328L55.809.818l-.707.707 1.187 1.187.707-.707zM55.809.818A4.499 4.499 0 0054.75.03l-.471.882c.296.158.574.363.824.613l.707-.707zM50.506.03c-.382.205-.74.467-1.06.788l.707.707a3.5 3.5 0 01.824-.613L50.506.03zm-1.06.788l-1.187 1.187.707.707 1.187-1.187-.707-.707zM44.303 5.96L41.93 8.333l.707.707 2.373-2.373-.707-.707zm-6.328 6.328l-1.187 1.187.707.707 1.187-1.187-.707-.707zm-1.187 1.187c-.402.401-.83.77-1.281 1.105l.596.803c.49-.364.955-.765 1.392-1.201l-.707-.707zm-6.444 3.243a11.43 11.43 0 01-1.688.125v1c.618 0 1.23-.046 1.834-.136l-.146-.989zm-1.688.125h-1.561v1h1.561v-1zm-6.767 0h-3.123v1h3.123v-1zm-8.328 0H12v1h1.562v-1zM55.456 1.172l.707-.708-.707.708zm-5.657 0l-.707-.708.707.708zm18.313 12.656l-.707.707.707-.707zm-30.97 0l-.707-.707.708.707zM12 16.343c-.647 0-1.284.047-1.907.139l.291 1.979A11.099 11.099 0 0112 18.343v-2zM4.255 18.9a13.071 13.071 0 00-2.697 2.697l1.606 1.192a11.069 11.069 0 012.284-2.284L4.255 18.9zm-5.116 8.535A13.05 13.05 0 00-1 29.342h2c0-.55.04-1.09.118-1.616l-1.979-.291zM-1 29.343v1.593h2v-1.593h-2zm0 6.906v3.188h2v-3.188h-2zm0 8.5v3.188h2v-3.188h-2zm0 8.5v3.188h2v-3.188h-2zm0 8.5v1.594h2v-1.594h-2zm0 1.594c0 .647.047 1.284.139 1.907l1.979-.291A11.097 11.097 0 011 63.343h-2zm2.558 7.745a13.071 13.071 0 002.697 2.697l1.193-1.606a11.069 11.069 0 01-2.284-2.284l-1.606 1.193zm8.535 5.116c.623.091 1.26.139 1.907.139v-2c-.55 0-1.089-.04-1.616-.118l-.291 1.979zm1.907.139h1.509v-2H12v2zm6.538 0h3.017v-2h-3.017v2zm8.046 0h3.018v-2h-3.018v2zm8.047 0h3.017v-2h-3.017v2zm8.046 0h3.018v-2h-3.018v2zm8.047 0h3.017v-2h-3.017v2zm8.046 0h3.018v-2H58.77v2zm8.047 0h3.017v-2h-3.017v2zm8.046 0h3.018v-2h-3.018v2zm8.047 0h3.017v-2H82.91v2zm8.046 0h3.018v-2h-3.018v2zm8.047 0h3.017v-2h-3.017v2zm8.046 0h3.018v-2h-3.018v2zm8.047 0h3.017v-2h-3.017v2zm8.046 0h3.018v-2h-3.018v2zm8.047 0h3.017v-2h-3.017v2zm8.046 0h3.018v-2h-3.018v2zm8.047 0h3.017v-2h-3.017v2zm8.046 0h3.018v-2h-3.018v2zm8.047 0h3.017v-2h-3.017v2zm8.046 0h3.018v-2h-3.018v2zm8.047 0h3.017v-2h-3.017v2zm8.047 0h3.017v-2h-3.017v2zm8.046 0h3.017v-2h-3.017v2zm8.047 0h3.017v-2h-3.017v2zm8.046 0h3.017v-2h-3.017v2zm8.047 0h3.017v-2h-3.017v2zm8.046 0h3.017v-2h-3.017v2zm8.047 0h3.017v-2h-3.017v2zm8.046 0h3.017v-2h-3.017v2zm8.047 0h3.017v-2h-3.017v2zm8.046 0h3.018v-2h-3.018v2zm8.047 0h3.017v-2h-3.017v2zm8.046 0h3.018v-2h-3.018v2zm8.047 0h3.017v-2h-3.017v2zm8.046 0h3.018v-2h-3.018v2zm8.047 0h3.017v-2h-3.017v2zm8.046 0h3.018v-2h-3.018v2zm8.047 0h3.017v-2h-3.017v2zm8.046 0h3.018v-2h-3.018v2zm8.047 0h3.017v-2h-3.017v2zm8.046 0h3.018v-2h-3.018v2zm8.047 0h3.017v-2h-3.017v2zm8.047 0H358v-2h-1.508v2zm1.508 0c.647 0 1.284-.048 1.907-.14l-.291-1.978c-.527.078-1.066.118-1.616.118v2zm7.745-2.558a13.065 13.065 0 002.697-2.697l-1.606-1.193a11.053 11.053 0 01-2.284 2.284l1.193 1.606zm5.116-8.535c.092-.623.139-1.26.139-1.907h-2c0 .55-.04 1.089-.118 1.616l1.979.29zm.139-1.907v-1.594h-2v1.594h2zm0-6.907V53.25h-2v3.188h2zm0-8.5V44.75h-2v3.188h2zm0-8.5V36.25h-2v3.188h2zm0-8.5v-1.593h-2v1.593h2zm0-1.593c0-.648-.047-1.284-.139-1.907l-1.979.29c.078.528.118 1.067.118 1.617h2zm-2.558-7.745a13.065 13.065 0 00-2.697-2.697l-1.193 1.605a11.053 11.053 0 012.284 2.284l1.606-1.192zm-8.535-5.116a13.05 13.05 0 00-1.907-.14v2c.55 0 1.089.041 1.616.119l.291-1.98zm-1.907-.14h-1.508v2H358v-2zm-6.533 0h-3.015v2h3.015v-2zm-8.04 0h-3.015v2h3.015v-2zm-8.04 0h-3.015v2h3.015v-2zm-8.04 0h-3.015v2h3.015v-2zm-8.04 0h-3.015v2h3.015v-2zm-8.04 0h-3.015v2h3.015v-2zm-8.04 0h-3.015v2h3.015v-2zm-8.04 0h-3.015v2h3.015v-2zm-8.04 0h-3.015v2h3.015v-2zm-8.04 0h-3.015v2h3.015v-2zm-8.04 0h-3.015v2h3.015v-2zm-8.04 0h-3.015v2h3.015v-2zm-8.04 0h-3.015v2h3.015v-2zm-8.04 0h-3.015v2h3.015v-2zm-8.04 0h-3.015v2h3.015v-2zm-8.041 0h-3.015v2h3.015v-2zm-8.04 0h-3.015v2h3.015v-2zm-8.04 0h-3.015v2h3.015v-2zm-8.04 0h-3.015v2h3.015v-2zm-8.04 0h-3.015v2h3.015v-2zm-8.04 0h-3.015v2h3.015v-2zm-8.04 0h-3.015v2h3.015v-2zm-8.04 0h-3.015v2h3.015v-2zm-8.04 0h-3.015v2h3.015v-2zm-8.04 0h-3.015v2h3.015v-2zm-8.04 0h-3.015v2h3.015v-2zm-8.04 0h-3.015v2h3.015v-2zm-8.04 0h-3.015v2h3.015v-2zm-8.04 0h-3.015v2h3.015v-2zm-8.041 0h-3.015v2h3.015v-2zm-8.04 0h-3.015v2h3.015v-2zm-8.04 0H99.21v2h3.015v-2zm-8.04 0H91.17v2h3.015v-2zm-8.04 0H83.13v2h3.015v-2zm-8.04 0h-1.507v2h1.507v-2zm-1.507 0c-.544 0-1.083-.04-1.614-.118l-.294 1.978c.628.093 1.265.14 1.908.14v-2zm-6.553-2.164c-.431-.32-.841-.673-1.225-1.057l-1.415 1.414a13 13 0 001.448 1.25l1.192-1.607zm-1.225-1.057l-1.187-1.187-1.414 1.415 1.186 1.186 1.415-1.414zm-5.142-5.142l-2.373-2.373L59.89 7.02l2.373 2.373 1.414-1.414zM57.35 1.651L56.163.464 54.749 1.88l1.186 1.186 1.414-1.414zM56.163.464a5.002 5.002 0 00-1.178-.874l-.943 1.763a3 3 0 01.707.526L56.163.464zM50.27-.41a5 5 0 00-1.178.874l1.414 1.415c.216-.216.454-.39.707-.526L50.27-.41zm-1.178.874l-1.187 1.187 1.415 1.414 1.186-1.186L49.092.464zM43.95 5.606L41.577 7.98l1.414 1.414 2.373-2.373-1.414-1.414zm-6.328 6.328l-1.187 1.187 1.415 1.414 1.186-1.186-1.414-1.415zm-1.187 1.187c-.384.384-.794.737-1.225 1.057l1.191 1.606a13 13 0 001.449-1.249l-1.415-1.414zm-6.164 3.103a11 11 0 01-1.614.119v2c.643 0 1.28-.048 1.908-.14l-.294-1.98zm-1.614.119h-1.561v2h1.561v-2zm-6.767 0h-3.123v2h3.123v-2zm-8.328 0H12v2h1.562v-2z" fill="#FEC830" mask="url(#path-1-inside-1)"/></svg>