<svg width="570" height="74" fill="none" xmlns="http://www.w3.org/2000/svg"><mask id="path-1-inside-1" fill="#fff"><path fill-rule="evenodd" clip-rule="evenodd" d="M12 0C5.373 0 0 5.373 0 12v34c0 6.627 5.373 12 12 12h18.402a12 12 0 018.485 3.515L49.8 72.427a4 4 0 005.657 0l10.912-10.912A12 12 0 0174.853 58H558c6.627 0 12-5.373 12-12V12c0-6.627-5.373-12-12-12H12z"/></mask><path fill-rule="evenodd" clip-rule="evenodd" d="M12 0C5.373 0 0 5.373 0 12v34c0 6.627 5.373 12 12 12h18.402a12 12 0 018.485 3.515L49.8 72.427a4 4 0 005.657 0l10.912-10.912A12 12 0 0174.853 58H558c6.627 0 12-5.373 12-12V12c0-6.627-5.373-12-12-12H12z" fill="#FEC830" fill-opacity=".2"/><path d="M49.799 72.427l-.353.353.353-.353zm5.657 0l.353.353-.353-.353zM-.5 12v1.594h1V12h-1zm0 6.906v3.188h1v-3.188h-1zm0 8.5v3.188h1v-3.188h-1zm0 8.5v3.188h1v-3.188h-1zm0 8.5V46h1v-1.594h-1zM-.5 46c0 .623.046 1.235.134 1.834l.989-.145A11.599 11.599 0 01.5 46h-1zm2.46 7.447a12.6 12.6 0 002.593 2.594l.596-.803a11.569 11.569 0 01-2.387-2.388l-.803.597zm8.206 4.92A12.75 12.75 0 0012 58.5v-1c-.574 0-1.138-.042-1.689-.123l-.145.99zM12 58.5h1.725v-1H12v1zm7.476 0h3.45v-1h-3.45v1zm9.2 0h1.726v-1h-1.725v1zm1.726 0c.568 0 1.132.042 1.687.124l.147-.989a12.504 12.504 0 00-1.834-.135v1zm6.85 2.263c.451.334.88.704 1.281 1.105l.708-.707a12.5 12.5 0 00-1.393-1.201l-.596.803zm1.281 1.105l1.023 1.023.708-.707-1.023-1.023-.708.707zm4.434 4.433l2.046 2.046.707-.707-2.046-2.046-.707.707zm5.456 5.456l1.023 1.023.707-.707-1.023-1.023-.708.707zm1.023 1.023c.32.321.678.584 1.06.788l.471-.882a3.496 3.496 0 01-.824-.613l-.707.707zm5.303.788c.382-.204.74-.467 1.06-.788l-.707-.707a3.49 3.49 0 01-.824.613l.471.882zm1.06-.788l1.023-1.023-.707-.707-1.023 1.023.707.707zm4.433-4.433l2.046-2.046-.707-.707-2.046 2.046.707.707zm5.456-5.456l1.023-1.023-.707-.707-1.023 1.023.707.707zm1.023-1.023c.402-.401.83-.77 1.282-1.105l-.596-.803c-.49.363-.956.764-1.393 1.201l.707.707zm6.445-3.244a11.544 11.544 0 011.687-.124v-1c-.617 0-1.23.046-1.834.135l.147.99zm1.687-.124h1.51v-1h-1.51v1zm6.543 0h3.02v-1h-3.02v1zm8.052 0h3.02v-1h-3.02v1zm8.053 0h3.019v-1H97.5v1zm8.052 0h3.02v-1h-3.02v1zm8.053 0h3.019v-1h-3.019v1zm8.052 0h3.02v-1h-3.02v1zm8.052 0h3.02v-1h-3.02v1zm8.053 0h3.02v-1h-3.02v1zm8.052 0h3.02v-1h-3.02v1zm8.053 0h3.019v-1h-3.019v1zm8.052 0h3.02v-1h-3.02v1zm8.053 0h3.019v-1h-3.019v1zm8.052 0h3.02v-1h-3.02v1zm8.053 0h3.019v-1h-3.019v1zm8.052 0h3.02v-1h-3.02v1zm8.052 0h3.02v-1h-3.02v1zm8.053 0h3.02v-1h-3.02v1zm8.052 0h3.02v-1h-3.02v1zm8.053 0h3.019v-1h-3.019v1zm8.052 0h3.02v-1h-3.02v1zm8.053 0h3.019v-1h-3.019v1zm8.052 0h3.02v-1h-3.02v1zm8.053 0h3.019v-1h-3.019v1zm8.052 0h3.02v-1h-3.02v1zm8.052 0h3.02v-1h-3.02v1zm8.053 0h3.02v-1h-3.02v1zm8.052 0h3.02v-1h-3.02v1zm8.053 0h3.019v-1h-3.019v1zm8.052 0h3.02v-1h-3.02v1zm8.053 0h3.019v-1h-3.019v1zm8.052 0h3.02v-1h-3.02v1zm8.053 0h3.019v-1h-3.019v1zm8.052 0h3.02v-1h-3.02v1zm8.052 0h3.02v-1h-3.02v1zm8.053 0h3.02v-1h-3.02v1zm8.052 0h3.02v-1h-3.02v1zm8.053 0h3.019v-1h-3.019v1zm8.052 0h3.02v-1h-3.02v1zm8.053 0h3.019v-1h-3.019v1zm8.052 0h3.02v-1h-3.02v1zm8.052 0h3.02v-1h-3.02v1zm8.053 0h3.02v-1h-3.02v1zm8.052 0h3.02v-1h-3.02v1zm8.053 0h3.019v-1h-3.019v1zm8.052 0h3.02v-1h-3.02v1zm8.053 0h3.019v-1h-3.019v1zm8.052 0h3.02v-1h-3.02v1zm8.052 0h3.02v-1h-3.02v1zm8.053 0h3.02v-1h-3.02v1zm8.052 0h3.02v-1h-3.02v1zm8.053 0h3.019v-1h-3.019v1zm8.052 0h3.02v-1h-3.02v1zm8.053 0h3.019v-1h-3.019v1zm8.052 0h3.02v-1h-3.02v1zm8.052 0h3.02v-1h-3.02v1zm8.053 0h3.02v-1h-3.02v1zm8.052 0h3.02v-1h-3.02v1zm8.053 0h3.019v-1h-3.019v1zm8.052 0h3.02v-1h-3.02v1zm8.053 0H558v-1h-1.51v1zm1.51 0c.623 0 1.235-.046 1.834-.134l-.145-.989c-.551.081-1.115.123-1.689.123v1zm7.447-2.46a12.59 12.59 0 002.594-2.593l-.803-.597a11.603 11.603 0 01-2.387 2.388l.596.803zm4.919-8.206c.088-.599.134-1.211.134-1.834h-1c0 .574-.042 1.138-.123 1.689l.989.145zM570.5 46v-1.594h-1V46h1zm0-6.906v-3.188h-1v3.188h1zm0-8.5v-3.188h-1v3.188h1zm0-8.5v-3.188h-1v3.188h1zm0-8.5V12h-1v1.594h1zm0-1.594c0-.623-.046-1.235-.134-1.834l-.989.145c.081.551.123 1.115.123 1.689h1zm-2.459-7.447a12.587 12.587 0 00-2.594-2.594l-.596.803c.907.675 1.712 1.48 2.387 2.387l.803-.596zm-8.207-4.92A12.595 12.595 0 00558-.5v1c.574 0 1.138.042 1.689.123l.145-.99zM558-.5h-1.505v1H558v-1zm-6.524 0h-3.011v1h3.011v-1zm-8.029 0h-3.011v1h3.011v-1zm-8.03 0h-3.011v1h3.011v-1zm-8.029 0h-3.011v1h3.011v-1zm-8.03 0h-3.011v1h3.011v-1zm-8.029 0h-3.011v1h3.011v-1zm-8.029 0h-3.011v1h3.011v-1zm-8.03 0h-3.011v1h3.011v-1zm-8.029 0h-3.011v1h3.011v-1zm-8.03 0H476.2v1h3.011v-1zm-8.029 0h-3.011v1h3.011v-1zm-8.029 0h-3.011v1h3.011v-1zm-8.03 0h-3.011v1h3.011v-1zm-8.029 0h-3.011v1h3.011v-1zm-8.03 0h-3.011v1h3.011v-1zm-8.029 0h-3.011v1h3.011v-1zm-8.03 0h-3.011v1h3.011v-1zm-8.029 0h-3.011v1h3.011v-1zm-8.029 0h-3.011v1h3.011v-1zm-8.03 0h-3.011v1h3.011v-1zm-8.029 0h-3.011v1h3.011v-1zm-8.03 0h-3.011v1h3.011v-1zm-8.029 0h-3.011v1h3.011v-1zm-8.029 0h-3.011v1h3.011v-1zm-8.03 0h-3.011v1h3.011v-1zm-8.029 0h-3.011v1h3.011v-1zm-8.03 0H339.7v1h3.011v-1zm-8.029 0h-3.011v1h3.011v-1zm-8.03 0h-3.011v1h3.011v-1zm-8.029 0h-3.011v1h3.011v-1zm-8.029 0h-3.011v1h3.011v-1zm-8.03 0h-3.011v1h3.011v-1zm-8.029 0h-3.011v1h3.011v-1zm-8.03 0h-3.011v1h3.011v-1zm-8.029 0h-3.011v1h3.011v-1zm-8.029 0h-3.011v1h3.011v-1zm-8.03 0h-3.011v1h3.011v-1zm-8.029 0h-3.011v1h3.011v-1zm-8.03 0h-3.011v1h3.011v-1zm-8.029 0h-3.011v1h3.011v-1zm-8.029 0h-3.011v1h3.011v-1zm-8.03 0h-3.011v1h3.011v-1zm-8.029 0h-3.011v1h3.011v-1zm-8.029 0h-3.011v1h3.011v-1zm-8.03 0h-3.011v1h3.011v-1zm-8.029 0h-3.011v1h3.011v-1zm-8.03 0h-3.011v1h3.011v-1zm-8.029 0h-3.011v1h3.011v-1zm-8.029 0h-3.011v1h3.011v-1zm-8.03 0h-3.011v1h3.011v-1zm-8.029 0h-3.011v1h3.011v-1zm-8.03 0h-3.011v1h3.011v-1zm-8.029 0h-3.011v1h3.011v-1zm-8.029 0h-3.011v1h3.011v-1zm-8.03 0h-3.011v1h3.011v-1zm-8.029 0h-3.011v1h3.011v-1zm-8.03 0h-3.01v1h3.01v-1zM93.8-.5h-3.01v1h3.01v-1zm-8.03 0h-3.01v1h3.01v-1zm-8.029 0h-3.01v1h3.01v-1zm-8.029 0h-3.011v1h3.011v-1zm-8.03 0h-3.01v1h3.01v-1zm-8.029 0h-3.01v1h3.01v-1zm-8.03 0h-3.01v1h3.01v-1zm-8.029 0h-3.01v1h3.01v-1zm-8.03 0h-3.01v1h3.01v-1zm-8.029 0h-3.01v1h3.01v-1zm-8.029 0H12v1h1.506v-1zM12-.5c-.623 0-1.235.046-1.834.134l.145.989A11.6 11.6 0 0112 .5v-1zM4.553 1.96A12.57 12.57 0 001.96 4.552l.803.596A11.57 11.57 0 015.15 2.762l-.596-.803zm-4.92 8.206A12.598 12.598 0 00-.5 12h1c0-.574.042-1.138.123-1.689l-.99-.145zM49.8 72.426l-.707.708.707-.707zm5.657 0l.707.708-.707-.707zM-1 12v1.594h2V12h-2zm0 6.906v3.188h2v-3.188h-2zm0 8.5v3.188h2v-3.188h-2zm0 8.5v3.188h2v-3.188h-2zm0 8.5V46h2v-1.594h-2zM-1 46c0 .647.047 1.284.139 1.907l1.979-.291A11.099 11.099 0 011 46h-2zm2.558 7.745a13.066 13.066 0 002.697 2.697l1.193-1.605a11.071 11.071 0 01-2.284-2.285l-1.606 1.193zm8.535 5.116c.623.092 1.26.139 1.907.139v-2c-.55 0-1.089-.04-1.616-.118l-.29 1.979zM12 59h1.725v-2H12v2zm7.476 0h3.45v-2h-3.45v2zm9.2 0h1.726v-2h-1.725v2zm1.726 0a11 11 0 011.614.119l.293-1.978A12.988 12.988 0 0030.402 57v2zm6.553 2.165c.43.32.84.672 1.225 1.057l1.414-1.414a13.009 13.009 0 00-1.448-1.25l-1.191 1.607zm1.225 1.057l1.023 1.023 1.414-1.414-1.023-1.023-1.414 1.414zm4.433 4.433l2.046 2.046 1.414-1.414-2.046-2.046-1.414 1.414zm5.456 5.456l1.023 1.023 1.414-1.414-1.023-1.023-1.414 1.414zm1.023 1.023c.356.356.753.648 1.178.875l.943-1.764a3.001 3.001 0 01-.707-.525l-1.414 1.414zm5.893.875c.425-.227.822-.52 1.178-.875l-1.414-1.414c-.216.215-.454.39-.707.525l.943 1.764zm1.178-.875l1.023-1.023-1.414-1.414-1.023 1.023 1.414 1.414zm4.433-4.433l2.046-2.046-1.414-1.414-2.046 2.046 1.414 1.414zm5.456-5.456l1.023-1.023-1.414-1.414-1.023 1.023 1.414 1.414zm1.023-1.023c.384-.385.794-.737 1.225-1.057l-1.191-1.607c-.51.378-.994.795-1.448 1.25l1.414 1.414zm6.164-3.103c.531-.079 1.07-.119 1.614-.119v-2c-.642 0-1.28.047-1.907.14l.293 1.979zM74.853 59h1.51v-2h-1.51v2zm6.543 0h3.02v-2h-3.02v2zm8.052 0h3.02v-2h-3.02v2zm8.053 0h3.019v-2H97.5v2zm8.052 0h3.02v-2h-3.02v2zm8.053 0h3.019v-2h-3.019v2zm8.052 0h3.02v-2h-3.02v2zm8.052 0h3.02v-2h-3.02v2zm8.053 0h3.02v-2h-3.02v2zm8.052 0h3.02v-2h-3.02v2zm8.053 0h3.019v-2h-3.019v2zm8.052 0h3.02v-2h-3.02v2zm8.053 0h3.019v-2h-3.019v2zm8.052 0h3.02v-2h-3.02v2zm8.053 0h3.019v-2h-3.019v2zm8.052 0h3.02v-2h-3.02v2zm8.052 0h3.02v-2h-3.02v2zm8.053 0h3.02v-2h-3.02v2zm8.052 0h3.02v-2h-3.02v2zm8.053 0h3.019v-2h-3.019v2zm8.052 0h3.02v-2h-3.02v2zm8.053 0h3.019v-2h-3.019v2zm8.052 0h3.02v-2h-3.02v2zm8.053 0h3.019v-2h-3.019v2zm8.052 0h3.02v-2h-3.02v2zm8.052 0h3.02v-2h-3.02v2zm8.053 0h3.02v-2h-3.02v2zm8.052 0h3.02v-2h-3.02v2zm8.053 0h3.019v-2h-3.019v2zm8.052 0h3.02v-2h-3.02v2zm8.053 0h3.019v-2h-3.019v2zm8.052 0h3.02v-2h-3.02v2zm8.053 0h3.019v-2h-3.019v2zm8.052 0h3.02v-2h-3.02v2zm8.052 0h3.02v-2h-3.02v2zm8.053 0h3.02v-2h-3.02v2zm8.052 0h3.02v-2h-3.02v2zm8.053 0h3.019v-2h-3.019v2zm8.052 0h3.02v-2h-3.02v2zm8.053 0h3.019v-2h-3.019v2zm8.052 0h3.02v-2h-3.02v2zm8.052 0h3.02v-2h-3.02v2zm8.053 0h3.02v-2h-3.02v2zm8.052 0h3.02v-2h-3.02v2zm8.053 0h3.019v-2h-3.019v2zm8.052 0h3.02v-2h-3.02v2zm8.053 0h3.019v-2h-3.019v2zm8.052 0h3.02v-2h-3.02v2zm8.052 0h3.02v-2h-3.02v2zm8.053 0h3.02v-2h-3.02v2zm8.052 0h3.02v-2h-3.02v2zm8.053 0h3.019v-2h-3.019v2zm8.052 0h3.02v-2h-3.02v2zm8.053 0h3.019v-2h-3.019v2zm8.052 0h3.02v-2h-3.02v2zm8.052 0h3.02v-2h-3.02v2zm8.053 0h3.02v-2h-3.02v2zm8.052 0h3.02v-2h-3.02v2zm8.053 0h3.019v-2h-3.019v2zm8.052 0h3.02v-2h-3.02v2zm8.053 0H558v-2h-1.51v2zm1.51 0c.647 0 1.284-.047 1.907-.139l-.291-1.979c-.527.078-1.067.118-1.616.118v2zm7.745-2.558a13.063 13.063 0 002.697-2.697l-1.606-1.193a11.055 11.055 0 01-2.284 2.285l1.193 1.605zm5.116-8.535c.092-.623.139-1.26.139-1.907h-2c0 .55-.04 1.089-.118 1.616l1.979.291zM571 46v-1.594h-2V46h2zm0-6.906v-3.188h-2v3.188h2zm0-8.5v-3.188h-2v3.188h2zm0-8.5v-3.188h-2v3.188h2zm0-8.5V12h-2v1.594h2zM571 12c0-.647-.047-1.284-.139-1.907l-1.979.291c.078.527.118 1.066.118 1.616h2zm-2.558-7.745a13.064 13.064 0 00-2.697-2.697l-1.193 1.606a11.054 11.054 0 012.284 2.284l1.606-1.193zm-8.535-5.116A13.102 13.102 0 00558-1v2c.549 0 1.089.04 1.616.118l.291-1.979zM558-1h-1.505v2H558v-2zm-6.524 0h-3.011v2h3.011v-2zm-8.029 0h-3.011v2h3.011v-2zm-8.03 0h-3.011v2h3.011v-2zm-8.029 0h-3.011v2h3.011v-2zm-8.03 0h-3.011v2h3.011v-2zm-8.029 0h-3.011v2h3.011v-2zM503.3-1h-3.011v2h3.011v-2zm-8.03 0h-3.011v2h3.011v-2zm-8.029 0h-3.011v2h3.011v-2zm-8.03 0H476.2v2h3.011v-2zm-8.029 0h-3.011v2h3.011v-2zm-8.029 0h-3.011v2h3.011v-2zm-8.03 0h-3.011v2h3.011v-2zm-8.029 0h-3.011v2h3.011v-2zm-8.03 0h-3.011v2h3.011v-2zm-8.029 0h-3.011v2h3.011v-2zm-8.03 0h-3.011v2h3.011v-2zm-8.029 0h-3.011v2h3.011v-2zm-8.029 0h-3.011v2h3.011v-2zm-8.03 0h-3.011v2h3.011v-2zm-8.029 0h-3.011v2h3.011v-2zm-8.03 0h-3.011v2h3.011v-2zm-8.029 0h-3.011v2h3.011v-2zM366.8-1h-3.011v2h3.011v-2zm-8.03 0h-3.011v2h3.011v-2zm-8.029 0h-3.011v2h3.011v-2zm-8.03 0H339.7v2h3.011v-2zm-8.029 0h-3.011v2h3.011v-2zm-8.03 0h-3.011v2h3.011v-2zm-8.029 0h-3.011v2h3.011v-2zm-8.029 0h-3.011v2h3.011v-2zm-8.03 0h-3.011v2h3.011v-2zm-8.029 0h-3.011v2h3.011v-2zm-8.03 0h-3.011v2h3.011v-2zm-8.029 0h-3.011v2h3.011v-2zm-8.029 0h-3.011v2h3.011v-2zm-8.03 0h-3.011v2h3.011v-2zm-8.029 0h-3.011v2h3.011v-2zm-8.03 0h-3.011v2h3.011v-2zm-8.029 0h-3.011v2h3.011v-2zM230.3-1h-3.011v2h3.011v-2zm-8.03 0h-3.011v2h3.011v-2zm-8.029 0h-3.011v2h3.011v-2zm-8.029 0h-3.011v2h3.011v-2zm-8.03 0h-3.011v2h3.011v-2zm-8.029 0h-3.011v2h3.011v-2zm-8.03 0h-3.011v2h3.011v-2zm-8.029 0h-3.011v2h3.011v-2zm-8.029 0h-3.011v2h3.011v-2zm-8.03 0h-3.011v2h3.011v-2zm-8.029 0h-3.011v2h3.011v-2zm-8.03 0h-3.011v2h3.011v-2zm-8.029 0h-3.011v2h3.011v-2zm-8.029 0h-3.011v2h3.011v-2zm-8.03 0h-3.011v2h3.011v-2zm-8.029 0h-3.011v2h3.011v-2zm-8.03 0h-3.01v2h3.01v-2zM93.8-1h-3.01v2h3.01v-2zm-8.03 0h-3.01v2h3.01v-2zm-8.029 0h-3.01v2h3.01v-2zm-8.029 0h-3.011v2h3.011v-2zm-8.03 0h-3.01v2h3.01v-2zm-8.029 0h-3.01v2h3.01v-2zm-8.03 0h-3.01v2h3.01v-2zm-8.029 0h-3.01v2h3.01v-2zm-8.03 0h-3.01v2h3.01v-2zm-8.029 0h-3.01v2h3.01v-2zm-8.029 0H12v2h1.506v-2zM12-1a13.1 13.1 0 00-1.907.139l.291 1.979A11.099 11.099 0 0112 1v-2zM4.255 1.558a13.07 13.07 0 00-2.697 2.697l1.606 1.193a11.07 11.07 0 012.284-2.284L4.255 1.558zm-5.116 8.535A13.1 13.1 0 00-1 12h2c0-.55.04-1.089.118-1.616l-1.979-.291z" fill="#FEC830" mask="url(#path-1-inside-1)"/></svg>