<svg fill="none" xmlns="http://www.w3.org/2000/svg"><path opacity=".15" d="M343.814 27.58c12.948 19.978-7.642 59.336-30.993 101.89-23.35 42.554-49.248 88.305-78.755 90.103-29.506 1.998-62.621-39.757-91.703-85.508-29.294-45.75-54.767-95.498-38.21-117.274C120.711-5.185 179.087 1.008 231.731 4.204c52.645 3.197 99.134 3.597 112.083 23.375z" fill="#fff"/><path opacity=".15" d="M224.025 293.626c-20.325 13.629-63.847-2.666-110.985-21.302-47.138-18.635-97.877-39.414-102.022-66.892-4.358-27.464 37.664-61.612 84.251-92.288 46.571-30.875 97.692-58.476 122.162-44.627 24.683 13.835 22.488 68.936 23.054 118.447.567 49.51 3.652 93.048-16.46 106.662z" fill="#fff"/></svg>