<svg aria-hidden="true" style="position:absolute;width:0;height:0" xmlns="http://www.w3.org/2000/svg" overflow="hidden"><defs><symbol id="pin" viewBox="0 0 32 32"><path fill="#AA43A2" d="M28.428 12.428c0 9.952-11.234 19.168-11.234 19.168-.656.539-1.731.539-2.387 0 0 0-11.234-9.217-11.234-19.168C3.573 5.564 9.137 0 16.001 0s12.428 5.564 12.428 12.428z"/><path fill="#AA43A2" d="M16 18.681c-3.448 0-6.253-2.805-6.253-6.253S12.552 6.175 16 6.175s6.253 2.805 6.253 6.253-2.805 6.253-6.253 6.253z"/></symbol><symbol id="location-icon" viewBox="0 0 32 32"><path fill="var(--color3, #aa43a2)" d="M31.336 14.964L1.622 1.25a1.147 1.147 0 00-1.364.321c-.329.4-.343.979-.029 1.4L10 16 .229 29.029c-.314.421-.307 1 .029 1.4a1.129 1.129 0 001.365.322l29.714-13.714a1.139 1.139 0 000-2.072z"/></symbol><symbol id="burger" viewBox="0 0 32 32"><path d="M0 5.032a2.589 2.589 0 012.581-2.581H29.42c1.419 0 2.581 1.161 2.581 2.581S30.84 7.613 29.42 7.613H2.581A2.589 2.589 0 010 5.032zm29.419 8.387H2.58C1.161 13.419-.001 14.58-.001 16s1.161 2.581 2.581 2.581h26.839C30.838 18.581 32 17.42 32 16s-1.161-2.581-2.581-2.581zm0 10.968H2.58c-1.419 0-2.581 1.161-2.581 2.581s1.161 2.581 2.581 2.581h26.839c1.419 0 2.581-1.161 2.581-2.581s-1.161-2.581-2.581-2.581z"/></symbol><symbol id="close" viewBox="0 0 32 32"><path d="M21.281 16.004l9.897-9.905a2.793 2.793 0 000-3.955L29.857.823a2.793 2.793 0 00-3.955 0l-9.897 9.897L6.1.823a2.793 2.793 0 00-3.955 0L.824 2.144a2.793 2.793 0 000 3.955l9.905 9.905-9.905 9.897a2.793 2.793 0 000 3.955l1.321 1.321a2.793 2.793 0 003.955 0l9.897-9.897 9.905 9.897a2.793 2.793 0 003.955 0l1.321-1.321a2.793 2.793 0 000-3.955l-9.897-9.897z"/></symbol><symbol id="zoom" viewBox="0 0 33 32"><path d="M24.54 21.092a13.282 13.282 0 002.376-7.616v-.017.001c0-7.432-6.025-13.459-13.458-13.459S0 6.029 0 13.46s6.024 13.456 13.458 13.456h.017c3.11 0 5.973-1.06 8.247-2.839l-.029.022 7.9 7.901 2.928-2.928zm-11.082 2.925c-5.823 0-10.559-4.737-10.559-10.56S7.635 2.898 13.458 2.898s10.559 4.737 10.559 10.561-4.736 10.558-10.559 10.558z"/><path d="M14.907 12.216V7.04h-2.898v5.176H6.833v2.899h5.176v5.176h2.898v-5.176h5.177v-2.899h-5.177z"/></symbol><symbol id="calendar" viewBox="0 0 35 32"><path d="M34.4 13.6c-.481 0-.8.32-.8.8v8.8a1.605 1.605 0 01-1.6 1.6h-1.601c-1.36 0-2.4 1.04-2.4 2.4v1.6a1.605 1.605 0 01-1.6 1.6h-24c-.481 0-.8-.32-.8-.8V14.4c0-.481-.32-.8-.8-.8s-.8.32-.8.8v15.2c0 1.36 1.04 2.4 2.4 2.4h25.04c1.04 0 2.08-.4 2.8-1.2L34 27.04c.718-.72 1.2-1.759 1.2-2.8V14.4c0-.481-.32-.8-.8-.8zm-4.881 15.761c0-.16.08-.32.08-.56v-1.6c0-.481.32-.8.8-.8h1.6l.063.001c.178 0 .349-.03.508-.084l-.011.003zM32.8 2.4h-5.6V.8c0-.481-.32-.8-.8-.8s-.8.32-.8.8v1.6h-16V.8c0-.481-.32-.8-.8-.8S8 .32 8 .8v1.6H2.4C1.04 2.4 0 3.44 0 4.8v6.4c0 .481.32.8.8.8h33.6c.481 0 .8-.32.8-.8V4.8c0-1.36-1.04-2.4-2.4-2.4zm.801 8H1.6V4.8c0-.481.32-.8.8-.8H8v1.84c-.481.24-.8.8-.8 1.36a1.6 1.6 0 103.2 0c0-.56-.32-1.12-.8-1.36V4h16v1.84c-.481.24-.8.8-.8 1.36a1.6 1.6 0 103.2 0c0-.56-.32-1.12-.8-1.36V4h5.6c.481 0 .8.32.8.8v5.6z"/><path d="M16 16.8a1.6 1.6 0 11-3.2 0 1.6 1.6 0 013.2 0zm6.4 0a1.6 1.6 0 11-3.2 0 1.6 1.6 0 013.2 0zm6.4 0a1.6 1.6 0 11-3.2 0 1.6 1.6 0 013.2 0zM8.114 22.407a1.6 1.6 0 11-.227 3.191 1.6 1.6 0 01.227-3.191zM16 24a1.6 1.6 0 11-3.2 0 1.6 1.6 0 013.2 0zm6.4 0a1.6 1.6 0 11-3.2 0 1.6 1.6 0 013.2 0z"/></symbol><symbol id="day" viewBox="0 0 27 32"><path d="M22.4 24a1.6 1.6 0 11-3.2 0 1.6 1.6 0 013.2 0z"/></symbol><symbol id="money" viewBox="0 0 34 32"><path d="M25.904 10.667a1.524 1.524 0 11-3.048 0 1.524 1.524 0 013.048 0zm-15.237 0a1.524 1.524 0 11-3.048 0 1.524 1.524 0 013.048 0zm6.095-4.572a4.572 4.572 0 104.572 4.572 4.584 4.584 0 00-4.571-4.572h-.001zm0 7.619h-.001a3.048 3.048 0 113.048-3.048 3.056 3.056 0 01-3.047 3.048z"/><path d="M31.238 0H2.286C.991 0 0 .99 0 2.285v16.762c0 1.296.991 2.286 2.286 2.286h9.905c.458 0 .762-.304.762-.761s-.305-.762-.762-.762H2.286c-.458 0-.762-.304-.762-.761V2.287c0-.458.305-.762.762-.762h28.952c.458 0 .762.305.762.762v12.19c0 .458.304.761.761.761s.762-.304.762-.761V2.286c0-1.295-.991-2.285-2.286-2.285z"/><path d="M29.638 4.571c-.458 0-.761-.304-.761-.761s-.305-.762-.762-.762H5.335c-.458 0-.762.305-.762.762s-.305.761-.762.761-.761.305-.761.762V16c0 .458.304.762.761.762s.762.304.762.761.304.762.762.762h7.619c.458 0 .762-.305.762-.762s-.305-.761-.762-.761h-7.01c-.229-.686-.761-1.143-1.371-1.372V5.943c.686-.229 1.143-.762 1.371-1.375h21.562c.229.686.762 1.143 1.372 1.375v6.248c0 .458.304.761.761.761s.762-.304.762-.761V5.334c0-.457-.304-.762-.762-.762z"/><path d="M26.666 13.714a5.863 5.863 0 00-2.624.625l.034-.015c-.381.153-.534.61-.381.991s.61.533.991.38a4.387 4.387 0 011.967-.458h.015-.001.036a4.535 4.535 0 013.687 7.176l.009-.014c-.229.381-.153.838.153 1.067.153.076.304.152.458.152l.035.001c.238 0 .448-.12.573-.303l.002-.002a6.093 6.093 0 001.067-3.461v-.046.002c.076-3.35-2.667-6.094-6.019-6.094z"/><path d="M26.666 17.523c-.458 0-.761.305-.761.762v.761c0 .458.304.762.761.762s.762-.304.762-.762v-.761c0-.457-.304-.762-.762-.762zm-2.514-.457c-1.143-1.143-2.666-1.829-4.342-1.829-3.352 0-6.096 2.743-6.096 6.095 0 1.676.686 3.2 1.829 4.343a.734.734 0 001.066.001.734.734 0 000-1.066 4.58 4.58 0 013.2-7.847c1.219 0 2.438.458 3.274 1.371a.753.753 0 101.066-1.066z"/><path d="M23.619 19.809c-3.352 0-6.095 2.743-6.095 6.095s2.743 6.095 6.095 6.095 6.095-2.743 6.095-6.095-2.743-6.095-6.095-6.095zm0 10.667h-.001a4.572 4.572 0 114.572-4.572 4.585 4.585 0 01-4.57 4.572h-.001z"/><path d="M23.619 23.618c-.458 0-.762.305-.762.762v3.047c0 .458.305.762.762.762s.761-.304.761-.762V24.38c0-.458-.304-.762-.761-.762zm-3.047-3.808a.762.762 0 11-1.524 0 .762.762 0 011.524 0z"/></symbol><symbol id="time" viewBox="0 0 32 32"><path d="M11.636 7.272a.728.728 0 11-1.456 0 .728.728 0 011.456 0zM21.821 24.73a.727.727 0 11-1.454 0 .727.727 0 011.454 0zM8 10.909a.728.728 0 11-.728-.726c.402 0 .728.326.728.727zm17.454 10.182a.727.727 0 11-1.454 0 .727.727 0 011.454 0zM21.818 7.27a.728.728 0 11-1.456 0 .728.728 0 011.456 0zM11.636 24.728a.727.727 0 11-1.452 0 .727.727 0 011.451 0zm13.818-13.819a.728.728 0 11-.727-.726c.401 0 .727.326.727.727zM7.999 21.091a.727.727 0 11-1.454 0 .727.727 0 011.454 0z"/><path d="M16 0C7.178 0 0 7.178 0 16s7.178 16 16 16h.021a.727.727 0 000-1.454h-.022H16C7.979 30.546 1.454 24.021 1.454 16S7.979 1.454 16 1.454 30.546 7.979 30.546 16c0 6.96-4.953 12.966-11.775 14.282a.728.728 0 10.28 1.427l-.005.001C26.552 30.262 32 23.656 32 16c0-8.822-7.178-16-16-16z"/><path d="M19.079 3.273a.727.727 0 00-.345 1.414l.005.001c4.913 1.206 8.554 5.43 8.866 10.553l.002.033h-1.424a.727.727 0 000 1.454h1.418c-.363 5.834-5.037 10.509-10.872 10.875v-1.421a.727.727 0 00-1.454 0V27.6C9.44 27.237 4.766 22.563 4.403 16.728h1.418a.728.728 0 100-1.454H4.402C4.764 9.439 9.44 4.751 15.275 4.388V5.82a.728.728 0 101.454 0V3.638a.727.727 0 00-.727-.727c-7.218 0-13.091 5.875-13.091 13.091s5.875 13.091 13.091 13.091 13.091-5.875 13.091-13.091v-.037c0-6.129-4.225-11.271-9.922-12.672l-.09-.019z"/><path d="M22.332 21.304l-4.364-4.363s-.004 0-.007-.004a2.13 2.13 0 00.22-.937v-.001a2.18 2.18 0 00-1.439-2.043l-.015-.005v-3.769a.727.727 0 00-1.454 0v3.77a2.177 2.177 0 00.724 4.23h.004c.342-.002.664-.083.95-.226l-.012.006s0 .004.004.007l4.363 4.364a.727.727 0 101.028-1.028zM16 16.727a.727.727 0 11.727-.727.728.728 0 01-.727.727z"/></symbol></defs></svg>