<svg aria-hidden="true" style="position: absolute; width: 0; height: 0; overflow: hidden;" version="1.1" xmlns="http://www.w3.org/2000/svg" xmlns:xlink="http://www.w3.org/1999/xlink">
<defs>
<symbol id="pin" viewBox="0 0 32 32">
<path fill="rgb(170, 67, 162)" d="M28.428 12.428c0 9.952-11.234 19.168-11.234 19.168-0.656 0.539-1.731 0.539-2.387 0 0 0-11.234-9.217-11.234-19.168 0-6.864 5.564-12.428 12.428-12.428s12.428 5.564 12.428 12.428z"></path>
<path fill="rgb(170, 67, 162)"  d="M16 18.681c-3.448 0-6.253-2.805-6.253-6.253s2.805-6.253 6.253-6.253 6.253 2.805 6.253 6.253-2.805 6.253-6.253 6.253z"></path>
</symbol>
<symbol id="location-icon" viewBox="0 0 32 32">
<path fill="#aa43a2" style="fill: var(--color3, #aa43a2)" d="M31.336 14.964l-29.714-13.714c-0.471-0.214-1.036-0.086-1.364 0.321-0.329 0.4-0.343 0.979-0.029 1.4l9.771 13.029-9.771 13.029c-0.314 0.421-0.307 1 0.029 1.4 0.221 0.279 0.55 0.429 0.886 0.429 0.164 0 0.321-0.036 0.479-0.107l29.714-13.714c0.407-0.186 0.664-0.593 0.664-1.036s-0.257-0.85-0.664-1.036z"></path>
</symbol>
<symbol id="burger" viewBox="0 0 32 32">
<path d="M0 5.032c0-1.419 1.161-2.581 2.581-2.581h26.839c1.419 0 2.581 1.161 2.581 2.581s-1.161 2.581-2.581 2.581h-26.839c-1.419 0-2.581-1.161-2.581-2.581zM29.419 13.419h-26.839c-1.419 0-2.581 1.161-2.581 2.581s1.161 2.581 2.581 2.581h26.839c1.419 0 2.581-1.161 2.581-2.581s-1.161-2.581-2.581-2.581zM29.419 24.387h-26.839c-1.419 0-2.581 1.161-2.581 2.581s1.161 2.581 2.581 2.581h26.839c1.419 0 2.581-1.161 2.581-2.581s-1.161-2.581-2.581-2.581z"></path>
</symbol>
<symbol id="close" viewBox="0 0 32 32">
<path d="M21.281 16.004l9.897-9.905c1.094-1.094 1.094-2.87 0-3.955l-1.321-1.321c-1.094-1.094-2.87-1.094-3.955 0l-9.897 9.897-9.905-9.897c-1.094-1.094-2.861-1.094-3.955 0l-1.321 1.321c-1.094 1.094-1.094 2.861 0 3.955l9.905 9.905-9.905 9.897c-1.094 1.094-1.094 2.87 0 3.955l1.321 1.321c1.094 1.094 2.87 1.094 3.955 0l9.897-9.897 9.905 9.897c1.094 1.094 2.87 1.094 3.955 0l1.321-1.321c1.094-1.094 1.094-2.87 0-3.955l-9.897-9.897z"></path>
</symbol>
<symbol id="zoom" viewBox="0 0 33 32">
<path d="M24.54 21.092c1.487-2.127 2.376-4.768 2.376-7.616 0-0.006 0-0.012 0-0.017v0.001c0-7.432-6.025-13.459-13.458-13.459s-13.458 6.028-13.458 13.459 6.024 13.456 13.458 13.456c0.005 0 0.011 0 0.017 0 3.11 0 5.973-1.060 8.247-2.839l-0.029 0.022 7.9 7.901 2.928-2.928zM13.458 24.017c-5.823 0-10.559-4.737-10.559-10.56s4.736-10.559 10.559-10.559 10.559 4.737 10.559 10.561-4.736 10.558-10.559 10.558z"></path>
<path d="M14.907 12.216v-5.176h-2.898v5.176h-5.176v2.899h5.176v5.176h2.898v-5.176h5.177v-2.899h-5.177z"></path>
</symbol>
<symbol id="calendar" viewBox="0 0 35 32">
<path d="M34.4 13.6c-0.481 0-0.8 0.32-0.8 0.8v8.8c-0.003 0.882-0.717 1.597-1.6 1.6h-1.601c-1.36 0-2.4 1.040-2.4 2.4v1.6c-0.003 0.882-0.717 1.597-1.6 1.6h-24c-0.481 0-0.8-0.32-0.8-0.8v-15.2c0-0.481-0.32-0.8-0.8-0.8s-0.8 0.32-0.8 0.8v15.2c0 1.36 1.040 2.4 2.4 2.4h25.040c1.040 0 2.080-0.4 2.8-1.2l3.761-3.76c0.718-0.72 1.2-1.759 1.2-2.8v-9.84c0-0.481-0.32-0.8-0.8-0.8zM29.519 29.361c0-0.16 0.080-0.32 0.080-0.56v-1.6c0-0.481 0.32-0.8 0.8-0.8h1.6c0.019 0.001 0.041 0.001 0.063 0.001 0.178 0 0.349-0.030 0.508-0.084l-0.011 0.003z"></path>
<path d="M32.8 2.4h-5.6v-1.6c0-0.481-0.32-0.8-0.8-0.8s-0.8 0.32-0.8 0.8v1.6h-16v-1.6c0-0.481-0.32-0.8-0.8-0.8s-0.8 0.32-0.8 0.8v1.6h-5.6c-1.36 0-2.4 1.040-2.4 2.4v6.4c0 0.481 0.32 0.8 0.8 0.8h33.6c0.481 0 0.8-0.32 0.8-0.8v-6.4c0-1.36-1.040-2.4-2.4-2.4zM33.601 10.4h-32.001v-5.6c0-0.481 0.32-0.8 0.8-0.8h5.6v1.84c-0.481 0.24-0.8 0.8-0.8 1.36 0 0.884 0.716 1.6 1.6 1.6s1.6-0.716 1.6-1.6v0c0-0.56-0.32-1.12-0.8-1.36v-1.84h16v1.84c-0.481 0.24-0.8 0.8-0.8 1.36 0 0.884 0.716 1.6 1.6 1.6s1.6-0.716 1.6-1.6v0c0-0.56-0.32-1.12-0.8-1.36v-1.84h5.6c0.481 0 0.8 0.32 0.8 0.8v5.6z"></path>
<path d="M16 16.8c0 0.884-0.716 1.6-1.6 1.6s-1.6-0.716-1.6-1.6c0-0.884 0.716-1.6 1.6-1.6s1.6 0.716 1.6 1.6z"></path>
<path d="M22.4 16.8c0 0.884-0.716 1.6-1.6 1.6s-1.6-0.716-1.6-1.6c0-0.884 0.716-1.6 1.6-1.6s1.6 0.716 1.6 1.6z"></path>
<path d="M28.8 16.8c0 0.884-0.716 1.6-1.6 1.6s-1.6-0.716-1.6-1.6c0-0.884 0.716-1.6 1.6-1.6s1.6 0.716 1.6 1.6z"></path>
<path d="M8.114 22.407c0.881 0.063 1.545 0.828 1.482 1.709s-0.828 1.545-1.709 1.482c-0.881-0.063-1.545-0.828-1.482-1.709s0.828-1.545 1.709-1.482z"></path>
<path d="M16 24c0 0.884-0.716 1.6-1.6 1.6s-1.6-0.716-1.6-1.6c0-0.884 0.716-1.6 1.6-1.6s1.6 0.716 1.6 1.6z"></path>
<path d="M22.4 24c0 0.884-0.716 1.6-1.6 1.6s-1.6-0.716-1.6-1.6c0-0.884 0.716-1.6 1.6-1.6s1.6 0.716 1.6 1.6z"></path>
</symbol>
<symbol id="day" viewBox="0 0 27 32">
<path d="M22.4 24c0 0.884-0.716 1.6-1.6 1.6s-1.6-0.716-1.6-1.6c0-0.884 0.716-1.6 1.6-1.6s1.6 0.716 1.6 1.6z"></path>
</symbol>
<symbol id="money" viewBox="0 0 34 32">
<path d="M25.904 10.667c0 0.841-0.682 1.524-1.524 1.524s-1.524-0.682-1.524-1.524c0-0.841 0.682-1.524 1.524-1.524s1.524 0.682 1.524 1.524z"></path>
<path d="M10.667 10.667c0 0.841-0.682 1.524-1.524 1.524s-1.524-0.682-1.524-1.524c0-0.841 0.682-1.524 1.524-1.524s1.524 0.682 1.524 1.524z"></path>
<path d="M16.762 6.095c-2.525 0-4.572 2.047-4.572 4.572s2.047 4.572 4.572 4.572c2.525 0 4.572-2.047 4.572-4.572v0c-0.007-2.522-2.049-4.565-4.571-4.572h-0.001zM16.762 13.714c-0 0-0 0-0.001 0-1.683 0-3.048-1.365-3.048-3.048s1.365-3.048 3.048-3.048c1.683 0 3.048 1.365 3.048 3.048v0c-0.004 1.681-1.366 3.043-3.047 3.048h-0z"></path>
<path d="M31.238 0h-28.952c-1.295 0-2.286 0.99-2.286 2.285v16.762c0 1.296 0.991 2.286 2.286 2.286h9.905c0.458 0 0.762-0.304 0.762-0.761s-0.305-0.762-0.762-0.762h-9.905c-0.458 0-0.762-0.304-0.762-0.761v-16.762c0-0.458 0.305-0.762 0.762-0.762h28.952c0.458 0 0.762 0.305 0.762 0.762v12.19c0 0.458 0.304 0.761 0.761 0.761s0.762-0.304 0.762-0.761v-12.191c0-1.295-0.991-2.285-2.286-2.285z"></path>
<path d="M29.638 4.571c-0.458 0-0.761-0.304-0.761-0.761s-0.305-0.762-0.762-0.762h-22.78c-0.458 0-0.762 0.305-0.762 0.762s-0.305 0.761-0.762 0.761-0.761 0.305-0.761 0.762v10.667c0 0.458 0.304 0.762 0.761 0.762s0.762 0.304 0.762 0.761 0.304 0.762 0.762 0.762h7.619c0.458 0 0.762-0.305 0.762-0.762s-0.305-0.761-0.762-0.761h-7.010c-0.229-0.686-0.761-1.143-1.371-1.372v-9.447c0.686-0.229 1.143-0.762 1.371-1.375h21.562c0.229 0.686 0.762 1.143 1.372 1.375v6.248c0 0.458 0.304 0.761 0.761 0.761s0.762-0.304 0.762-0.761v-6.857c0-0.457-0.304-0.762-0.762-0.762z"></path>
<path d="M26.666 13.714c-0.944 0.003-1.835 0.228-2.624 0.625l0.034-0.015c-0.381 0.153-0.534 0.61-0.381 0.991s0.61 0.533 0.991 0.38c0.574-0.289 1.25-0.458 1.967-0.458 0.005 0 0.010 0 0.015 0h-0.001c0.011-0 0.023-0 0.036-0 2.505 0 4.535 2.030 4.535 4.535 0 0.985-0.314 1.897-0.848 2.641l0.009-0.014c-0.229 0.381-0.153 0.838 0.153 1.067 0.153 0.076 0.304 0.152 0.458 0.152 0.010 0.001 0.023 0.001 0.035 0.001 0.238 0 0.448-0.12 0.573-0.303l0.002-0.002c0.668-0.969 1.067-2.168 1.067-3.461 0-0.015-0-0.031-0-0.046v0.002c0.076-3.35-2.667-6.094-6.019-6.094z"></path>
<path d="M26.666 17.523c-0.458 0-0.761 0.305-0.761 0.762v0.761c0 0.458 0.304 0.762 0.761 0.762s0.762-0.304 0.762-0.762v-0.761c0-0.457-0.304-0.762-0.762-0.762z"></path>
<path d="M24.152 17.066c-1.143-1.143-2.666-1.829-4.342-1.829-3.352 0-6.096 2.743-6.096 6.095 0 1.676 0.686 3.2 1.829 4.343 0.134 0.141 0.324 0.229 0.533 0.229s0.399-0.088 0.533-0.228l0-0c0.141-0.134 0.229-0.324 0.229-0.533s-0.088-0.399-0.229-0.533l-0-0c-0.847-0.832-1.371-1.988-1.371-3.268 0-2.526 2.046-4.575 4.571-4.579h0c1.219 0 2.438 0.458 3.274 1.371 0.137 0.141 0.329 0.229 0.541 0.229 0.417 0 0.754-0.338 0.754-0.754 0-0.212-0.088-0.404-0.229-0.541l-0-0z"></path>
<path d="M23.619 19.809c-3.352 0-6.095 2.743-6.095 6.095s2.743 6.095 6.095 6.095 6.095-2.743 6.095-6.095-2.743-6.095-6.095-6.095zM23.619 30.476c-0 0-0 0-0.001 0-2.525 0-4.572-2.047-4.572-4.572s2.047-4.572 4.572-4.572c2.525 0 4.572 2.047 4.572 4.572v0c-0.007 2.522-2.049 4.564-4.57 4.572h-0.001z"></path>
<path d="M23.619 23.618c-0.458 0-0.762 0.305-0.762 0.762v3.047c0 0.458 0.305 0.762 0.762 0.762s0.761-0.304 0.761-0.762v-3.047c0-0.458-0.304-0.762-0.761-0.762z"></path>
<path d="M20.572 19.81c0 0.421-0.341 0.762-0.762 0.762s-0.762-0.341-0.762-0.762c0-0.421 0.341-0.762 0.762-0.762s0.762 0.341 0.762 0.762z"></path>
</symbol>
<symbol id="time" viewBox="0 0 32 32">
<path d="M11.636 7.272c0 0.402-0.326 0.728-0.727 0.728s-0.727-0.326-0.727-0.728c0-0.402 0.326-0.728 0.727-0.728s0.727 0.326 0.727 0.728z"></path>
<path d="M21.821 24.73c0 0.402-0.326 0.727-0.727 0.727s-0.727-0.326-0.727-0.727c0-0.402 0.326-0.727 0.727-0.727s0.727 0.326 0.727 0.727z"></path>
<path d="M8 10.909c0 0.402-0.326 0.728-0.728 0.728s-0.728-0.326-0.728-0.727c0-0.402 0.326-0.727 0.728-0.727s0.728 0.326 0.728 0.727z"></path>
<path d="M25.454 21.091c0 0.402-0.326 0.727-0.727 0.727s-0.727-0.326-0.727-0.727c0-0.402 0.326-0.727 0.727-0.727s0.727 0.326 0.727 0.727z"></path>
<path d="M21.818 7.27c0 0.402-0.326 0.728-0.727 0.728s-0.727-0.326-0.727-0.728c0-0.402 0.326-0.728 0.727-0.728s0.727 0.326 0.727 0.728z"></path>
<path d="M11.636 24.728c0 0.402-0.326 0.727-0.728 0.727s-0.727-0.326-0.727-0.727c0-0.402 0.326-0.727 0.727-0.727s0.727 0.326 0.727 0.727z"></path>
<path d="M25.454 10.909c0 0.402-0.326 0.728-0.727 0.728s-0.727-0.326-0.727-0.727c0-0.402 0.326-0.727 0.727-0.727s0.727 0.326 0.727 0.727z"></path>
<path d="M7.999 21.091c0 0.402-0.326 0.727-0.728 0.727s-0.728-0.326-0.728-0.727c0-0.402 0.326-0.727 0.728-0.727s0.728 0.326 0.728 0.727z"></path>
<path d="M16 0c-8.822 0-16 7.178-16 16s7.178 16 16 16c0.006 0 0.014 0 0.021 0 0.402 0 0.727-0.326 0.727-0.727s-0.326-0.727-0.727-0.727c-0.008 0-0.015 0-0.022 0l0.001-0c-8.021 0-14.546-6.525-14.546-14.546s6.525-14.546 14.546-14.546 14.546 6.525 14.546 14.546c0 6.96-4.953 12.966-11.775 14.282-0.338 0.067-0.589 0.361-0.589 0.714 0 0.401 0.325 0.727 0.727 0.727 0.049 0 0.096-0.005 0.142-0.014l-0.005 0.001c7.506-1.448 12.954-8.054 12.954-15.71 0-8.822-7.178-16-16-16z"></path>
<path d="M19.079 3.273c-0.050-0.012-0.107-0.019-0.165-0.019-0.402 0-0.727 0.326-0.727 0.728 0 0.339 0.232 0.624 0.547 0.705l0.005 0.001c4.913 1.206 8.554 5.43 8.866 10.553l0.002 0.033h-1.424c-0.402 0-0.727 0.326-0.727 0.727s0.326 0.727 0.727 0.727h1.418c-0.363 5.834-5.037 10.509-10.872 10.875v-1.421c0-0.402-0.326-0.727-0.727-0.727s-0.727 0.326-0.727 0.727v0 1.418c-5.835-0.363-10.509-5.037-10.872-10.872h1.418c0.402 0 0.728-0.326 0.728-0.727s-0.326-0.727-0.728-0.727v0h-1.419c0.362-5.835 5.038-10.523 10.873-10.886v1.432c0 0.402 0.326 0.728 0.727 0.728s0.727-0.326 0.727-0.728v-2.182c-0-0.402-0.326-0.727-0.727-0.727v0c-7.218 0-13.091 5.875-13.091 13.091s5.875 13.091 13.091 13.091 13.091-5.875 13.091-13.091c0-0.011 0-0.024 0-0.037 0-6.129-4.225-11.271-9.922-12.672l-0.090-0.019z"></path>
<path d="M22.332 21.304l-4.364-4.363s-0.004 0-0.007-0.004c0.137-0.274 0.218-0.596 0.22-0.937v-0.001c-0.003-0.941-0.602-1.741-1.439-2.043l-0.015-0.005v-3.769c0-0.402-0.326-0.727-0.727-0.727s-0.727 0.326-0.727 0.727v0 3.77c-0.854 0.307-1.453 1.11-1.453 2.053 0 1.202 0.975 2.177 2.177 2.177 0.001 0 0.003 0 0.004 0h-0c0.342-0.002 0.664-0.083 0.95-0.226l-0.012 0.006s0 0.004 0.004 0.007l4.363 4.364c0.132 0.136 0.317 0.22 0.521 0.22 0.402 0 0.727-0.326 0.727-0.727 0-0.204-0.084-0.389-0.22-0.521l-0-0zM16 16.727c-0.402 0-0.727-0.326-0.727-0.727s0.326-0.727 0.727-0.727c0.402 0 0.727 0.326 0.727 0.727v0c-0.001 0.401-0.326 0.727-0.727 0.727h-0z"></path>
</symbol>
<symbol id="name-icon" viewBox="0 0 32 32">
<path d="M16 16c4.42 0 8-3.58 8-8s-3.58-8-8-8c-4.42 0-8 3.58-8 8s3.58 8 8 8zM16 20c-5.34 0-16 2.68-16 8v2c0 1.1 0.9 2 2 2h28c1.1 0 2-0.9 2-2v-2c0-5.32-10.66-8-16-8z"></path>
</symbol>
<symbol id="phone-icon" viewBox="0 0 32 32">
<path d="M24.881 19.774l-3.268-0.373c-0.785-0.090-1.557 0.18-2.11 0.733l-2.367 2.367c-3.641-1.853-6.626-4.825-8.478-8.478l2.38-2.38c0.553-0.553 0.823-1.325 0.733-2.11l-0.373-3.242c-0.154-1.299-1.248-2.277-2.56-2.277h-2.226c-1.454 0-2.663 1.209-2.573 2.663 0.682 10.987 9.469 19.761 20.443 20.443 1.454 0.090 2.663-1.119 2.663-2.573v-2.226c0.013-1.299-0.965-2.393-2.264-2.547z"></path>
</symbol>
<symbol id="close-icon" viewBox="0 0 32 32">
<path d="M26.667 7.303l-1.97-1.97-7.808 7.808-7.808-7.808-1.97 1.97 7.808 7.808-7.808 7.808 1.97 1.97 7.808-7.808 7.808 7.808 1.97-1.97-7.808-7.808 7.808-7.808z"></path>
</symbol>

<symbol id="calculator" viewBox="0 0 32 32">
<path d="M4.286 2.665v26.653c0.002 1.471 1.194 2.664 2.665 2.665h18.124c1.471-0.002 2.664-1.194 2.665-2.665v-26.653c-0.002-1.471-1.194-2.664-2.665-2.665h-18.124c-1.471 0.002-2.663 1.194-2.665 2.665zM5.352 2.665c0-0.883 0.716-1.599 1.599-1.599h18.124c0.883 0 1.599 0.716 1.599 1.599v26.653c0 0.883-0.716 1.599-1.599 1.599h-18.124c-0.883 0-1.599-0.716-1.599-1.599z"></path>
<path d="M7.484 10.128h17.058c0.294 0 0.533-0.239 0.533-0.533v-5.864c0-0.294-0.239-0.533-0.533-0.533h-17.058c-0.294 0-0.533 0.238-0.533 0.533v5.864c0 0.294 0.239 0.533 0.533 0.533zM8.017 4.265h15.992v4.798h-15.992z"></path>
<path d="M18.146 11.194h-4.265c-0.294 0-0.533 0.239-0.533 0.533v4.265c0 0.294 0.239 0.533 0.533 0.533h4.265c0.294 0 0.533-0.239 0.533-0.533v-4.265c0-0.294-0.238-0.533-0.533-0.533zM17.613 15.459h-3.199v-3.198h3.199z"></path>
<path d="M24.543 11.194h-4.265c-0.294 0-0.533 0.239-0.533 0.533v4.265c0 0.294 0.239 0.533 0.533 0.533h4.265c0.294 0 0.533-0.239 0.533-0.533v-4.265c0-0.294-0.239-0.533-0.533-0.533zM24.009 15.459h-3.199v-3.198h3.199z"></path>
<path d="M7.484 16.525h4.265c0.294 0 0.533-0.239 0.533-0.533v-4.265c0-0.294-0.239-0.533-0.533-0.533h-4.265c-0.294 0-0.533 0.239-0.533 0.533v4.265c0 0.294 0.239 0.533 0.533 0.533zM8.017 12.261h3.198v3.198h-3.198z"></path>
<path d="M18.146 17.591h-4.265c-0.294 0-0.533 0.239-0.533 0.533v4.265c0 0.294 0.239 0.533 0.533 0.533h4.265c0.294 0 0.533-0.238 0.533-0.533v-4.265c0-0.294-0.238-0.533-0.533-0.533zM17.613 21.856h-3.199v-3.198h3.199z"></path>
<path d="M24.543 17.591h-4.265c-0.294 0-0.533 0.239-0.533 0.533v10.661c0 0.294 0.239 0.533 0.533 0.533h4.265c0.294 0 0.533-0.239 0.533-0.533v-10.661c0-0.294-0.239-0.533-0.533-0.533zM24.009 28.253h-3.199v-9.595h3.199z"></path>
<path d="M7.484 22.922h4.265c0.294 0 0.533-0.238 0.533-0.533v-4.265c0-0.294-0.239-0.533-0.533-0.533h-4.265c-0.294 0-0.533 0.239-0.533 0.533v4.265c0 0.294 0.239 0.533 0.533 0.533zM8.017 18.657h3.198v3.198h-3.198z"></path>
<path d="M18.146 23.988h-4.265c-0.294 0-0.533 0.239-0.533 0.533v4.264c0 0.294 0.239 0.533 0.533 0.533h4.265c0.294 0 0.533-0.239 0.533-0.533v-4.264c0-0.294-0.238-0.533-0.533-0.533zM17.613 28.253h-3.199v-3.199h3.199z"></path>
<path d="M7.484 29.319h4.265c0.294 0 0.533-0.239 0.533-0.533v-4.264c0-0.294-0.239-0.533-0.533-0.533h-4.265c-0.294 0-0.533 0.239-0.533 0.533v4.264c0 0.294 0.239 0.533 0.533 0.533zM8.017 25.054h3.198v3.198h-3.198z"></path>
<path d="M21.877 6.93h1.066v1.066h-1.066z"></path>
<path d="M19.745 6.93h1.066v1.066h-1.066z"></path>
<path d="M17.613 6.93h1.066v1.066h-1.066z"></path>
</symbol>
<symbol id="leader" viewBox="0 0 32 32">
<path d="M29.656 12.188h-6.604c-0.527 0-1.014 0.175-1.406 0.47 0-1.294-1.051-2.345-2.344-2.345h-6.604c-1.292 0-2.344 1.051-2.344 2.344-0.392-0.294-0.879-0.469-1.406-0.469h-6.604c-1.292 0-2.344 1.051-2.344 2.344v7.626c0 0.775 0.631 1.406 1.406 1.406 0.164 0 0.322-0.029 0.469-0.081v6.866c0 0.91 0.741 1.651 1.651 1.651s1.651-0.741 1.651-1.651c0-0.259-0.21-0.469-0.469-0.469s-0.469 0.21-0.469 0.469c0 0.393-0.32 0.713-0.714 0.713s-0.713-0.32-0.713-0.713v-15.818c0-0.259-0.21-0.469-0.469-0.469s-0.469 0.21-0.469 0.469v7.626c0 0.259-0.21 0.469-0.469 0.469s-0.469-0.21-0.469-0.469v-7.626c0-0.775 0.631-1.406 1.406-1.406h6.604c0.775 0 1.406 0.631 1.406 1.406v7.657c0 0.249-0.202 0.438-0.469 0.438s-0.469-0.188-0.469-0.438c-0 0-0-7.657-0-7.657 0-0.259-0.21-0.469-0.469-0.469s-0.469 0.21-0.469 0.469v15.818c0 0.393-0.32 0.713-0.714 0.713s-0.713-0.32-0.713-0.713v-8.192c0-0.259-0.21-0.469-0.469-0.469h-1.875c-0.259 0-0.469 0.21-0.469 0.469v6.317c0 0.259 0.21 0.469 0.469 0.469s0.469-0.21 0.469-0.469v-5.848h0.938v7.723c0 0.91 0.741 1.651 1.651 1.651s1.651-0.741 1.651-1.651v-6.862c0.146 0.049 0.304 0.076 0.469 0.076 0.668 0 1.213-0.433 1.364-1.034 0.158 0.062 0.331 0.096 0.511 0.096 0.164 0 0.322-0.029 0.469-0.081v7.804c0 0.91 0.741 1.651 1.651 1.651s1.651-0.741 1.651-1.651v-8.661h0.938v8.661c0 0.91 0.741 1.651 1.651 1.651s1.651-0.741 1.651-1.651v-7.799c0.146 0.049 0.304 0.076 0.469 0.076 0.185 0 0.36-0.034 0.52-0.094 0.164 0.594 0.709 1.032 1.355 1.032 0.164 0 0.322-0.029 0.469-0.081v6.866c0 0.91 0.741 1.651 1.651 1.651s1.651-0.741 1.651-1.651v-7.723h0.938v7.723c0 0.91 0.741 1.651 1.651 1.651s1.651-0.741 1.651-1.651v-6.862c0.146 0.049 0.304 0.076 0.469 0.076 0.789 0 1.406-0.604 1.406-1.375v-7.657c0-1.292-1.051-2.344-2.344-2.344zM20.708 21.251c0 0.249-0.202 0.438-0.469 0.438s-0.469-0.188-0.469-0.438v-8.594c0-0.259-0.21-0.469-0.469-0.469s-0.469 0.21-0.469 0.469v17.693c0 0.393-0.32 0.713-0.714 0.713s-0.713-0.32-0.713-0.713v-9.13c0-0.259-0.21-0.469-0.469-0.469h-1.875c-0.259 0-0.469 0.21-0.469 0.469v9.13c0 0.393-0.32 0.713-0.714 0.713s-0.713-0.32-0.713-0.713v-17.693c0-0.259-0.21-0.469-0.469-0.469s-0.469 0.21-0.469 0.469v8.563c0 0.259-0.21 0.469-0.469 0.469s-0.469-0.21-0.469-0.469v-8.563c0-0.775 0.631-1.406 1.406-1.406h6.604c0.775 0 1.406 0.631 1.406 1.406zM31.063 22.188c0 0.249-0.202 0.438-0.469 0.438s-0.469-0.188-0.469-0.438c-0 0-0-7.657-0-7.657 0-0.259-0.21-0.469-0.469-0.469s-0.469 0.21-0.469 0.469v15.818c0 0.393-0.32 0.713-0.713 0.713s-0.714-0.32-0.714-0.713v-8.192c0-0.259-0.21-0.469-0.469-0.469h-1.875c-0.259 0-0.469 0.21-0.469 0.469v8.192c0 0.393-0.32 0.713-0.713 0.713s-0.714-0.32-0.714-0.713v-15.818c0-0.259-0.21-0.469-0.469-0.469s-0.469 0.21-0.469 0.469v7.626c0 0.259-0.21 0.469-0.469 0.469s-0.469-0.21-0.469-0.469v-7.626c0-0.775 0.631-1.406 1.406-1.406h6.604c0.775 0 1.406 0.631 1.406 1.406z"></path>
<path d="M26.334 11.25c1.809 0 3.281-1.472 3.281-3.281s-1.472-3.281-3.281-3.281-3.281 1.472-3.281 3.281 1.472 3.281 3.281 3.281zM26.334 5.625c1.292 0 2.344 1.051 2.344 2.344s-1.051 2.344-2.344 2.344-2.344-1.051-2.344-2.344 1.051-2.344 2.344-2.344z"></path>
<path d="M5.666 11.25c1.809 0 3.281-1.472 3.281-3.281s-1.472-3.281-3.281-3.281-3.281 1.472-3.281 3.281 1.472 3.281 3.281 3.281zM5.666 5.625c1.292 0 2.344 1.051 2.344 2.344s-1.051 2.344-2.344 2.344-2.344-1.051-2.344-2.344 1.051-2.344 2.344-2.344z"></path>
<path d="M16.021 9.375c1.809 0 3.281-1.472 3.281-3.281s-1.472-3.281-3.281-3.281-3.281 1.472-3.281 3.281 1.472 3.281 3.281 3.281zM16.021 3.75c1.292 0 2.344 1.051 2.344 2.344s-1.051 2.344-2.344 2.344-2.344-1.051-2.344-2.344 1.051-2.344 2.344-2.344z"></path>
<path d="M16.021 1.875c0.259 0 0.469-0.21 0.469-0.469v-0.938c0-0.259-0.21-0.469-0.469-0.469s-0.469 0.21-0.469 0.469v0.938c0 0.259 0.21 0.469 0.469 0.469z"></path>
<path d="M13.271 2.269c0.13 0.224 0.416 0.301 0.64 0.172s0.301-0.416 0.172-0.64l-0.469-0.812c-0.13-0.224-0.416-0.301-0.64-0.172s-0.301 0.416-0.172 0.64z"></path>
<path d="M18.13 2.44c0.224 0.129 0.511 0.053 0.64-0.172l0.469-0.812c0.129-0.224 0.053-0.511-0.172-0.64s-0.511-0.053-0.64 0.172l-0.469 0.812c-0.129 0.224-0.053 0.511 0.172 0.64z"></path>
</symbol>
<symbol id="leader-1" viewBox="0 0 32 32">
<path d="M7.443 9.072c1.644 0 2.976-1.332 2.976-2.976s-1.333-2.976-2.976-2.976-2.976 1.333-2.976 2.976c0.002 1.643 1.333 2.975 2.976 2.976zM7.443 4.112c1.096 0 1.984 0.888 1.984 1.984s-0.889 1.984-1.984 1.984c-1.096 0-1.984-0.888-1.984-1.984s0.888-1.984 1.984-1.984z"></path>
<path d="M6.946 21.474h0.992v9.425h-0.992z"></path>
<path d="M30.994 4.608h-5.693v-1.984h-7.441v-0.248c0-0.685-0.555-1.24-1.24-1.24s-1.24 0.556-1.24 1.24v7.689h-10.913c-1.917 0.002-3.47 1.556-3.472 3.472v4.961c0.002 1.369 1.111 2.479 2.48 2.48h0.496v9.921h0.992v-17.858h-0.992v6.945h-0.496c-0.822 0-1.488-0.666-1.488-1.488v-4.961c0.002-1.369 1.111-2.478 2.48-2.48h13.393v0.496c0 0.822-0.666 1.488-1.488 1.488h-6.449v17.858h0.992v-16.866h4.464v16.866h2.48v-17.375c0.622-0.464 0.99-1.194 0.992-1.971v-1.488h-0.992v-1.488h4.961v1.984h8.174l-1.19-2.976zM16.868 29.907h-0.496v-15.874c0.167 0 0.333-0.016 0.496-0.049zM16.868 10.064h-0.496v-7.689c0-0.137 0.111-0.248 0.248-0.248s0.248 0.111 0.248 0.248zM17.86 3.616h6.449v3.968h-6.449zM29.528 9.568h-5.716v-0.992h1.488v-2.976h4.228l-0.794 1.984z"></path>
</symbol>
<symbol id="protest" viewBox="0 0 32 32">
<path d="M7.875 10.375v2.88c-0.629 0.219-1.147 0.68-1.438 1.302l-1.235 2.648c-0.797 1.709-0.412 3.729 0.957 5.026l3.59 3.399v5.744c0 0.345 0.28 0.625 0.625 0.625h2.813c0.345 0 0.625-0.28 0.625-0.625s-0.28-0.625-0.625-0.625h-2.188v-5.388c0-0.172-0.071-0.336-0.195-0.454l-3.785-3.584c-0.978-0.926-1.253-2.369-0.684-3.59l1.235-2.648c0.3-0.641 1.049-0.891 1.662-0.605l6.174 2.879c-0.865 1.169-2.464 1.61-3.832 0.972l-1.699-0.793c-0.313-0.146-0.685-0.011-0.831 0.302s-0.011 0.685 0.302 0.831l1.699 0.793c0.697 0.325 1.479 0.469 2.288 0.386 1.319 1.425 2.042 3.266 2.042 5.219 0 0.345 0.28 0.625 0.625 0.625s0.625-0.28 0.625-0.625c0-2.052-0.687-3.998-1.951-5.576 0.931-0.414 1.722-1.152 2.186-2.146 0-0 0-0.001 0.001-0.002 0.31 0.138 0.654 0.216 1.015 0.216 0.558 0 1.074-0.184 1.49-0.494 0.401 0.846 1.263 1.432 2.26 1.432 0.385 0 0.75-0.088 1.076-0.244-0.172 1.122-0.452 2.145-0.741 3.204-0.472 1.725-0.96 3.509-0.96 5.79v3.5h-2.188c-0.345 0-0.625 0.28-0.625 0.625s0.28 0.625 0.625 0.625h2.813c0.345 0 0.625-0.28 0.625-0.625v-4.125c0-2.113 0.445-3.739 0.915-5.46 0.472-1.725 0.96-3.509 0.96-5.79v-3.75c0-1.379-1.122-2.5-2.5-2.5-0.558 0-1.074 0.184-1.49 0.494-0.401-0.845-1.263-1.432-2.26-1.432-0.558 0-1.074 0.184-1.49 0.494-0.401-0.845-1.263-1.432-2.26-1.432-0.746 0-1.417 0.329-1.875 0.849-0.458-0.52-1.129-0.849-1.875-0.849-1.379 0-2.5 1.121-2.5 2.5zM20.375 12.25c0-0.689 0.561-1.25 1.25-1.25s1.25 0.561 1.25 1.25v3.75c0 0.689-0.561 1.25-1.25 1.25s-1.25-0.561-1.25-1.25zM16.625 11.313c0-0.689 0.561-1.25 1.25-1.25s1.25 0.561 1.25 1.25v3.75c0 0.689-0.561 1.25-1.25 1.25s-1.25-0.561-1.25-1.25zM12.875 10.375c0-0.689 0.561-1.25 1.25-1.25s1.25 0.561 1.25 1.25v4.688c0 0.356 0.075 0.695 0.21 1.002l-2.71-1.264zM9.125 10.375c0-0.689 0.561-1.25 1.25-1.25s1.25 0.561 1.25 1.25v3.843l-1.865-0.87c-0.203-0.095-0.417-0.161-0.635-0.199z"></path>
<path d="M16.625 2.875v-2.25c0-0.345-0.28-0.625-0.625-0.625s-0.625 0.28-0.625 0.625v2.25c0 0.345 0.28 0.625 0.625 0.625s0.625-0.28 0.625-0.625z"></path>
<path d="M10.687 4.924c0.299-0.173 0.401-0.555 0.229-0.854l-0.938-1.624c-0.173-0.299-0.555-0.401-0.854-0.229s-0.401 0.555-0.229 0.854l0.938 1.624c0.172 0.298 0.554 0.402 0.854 0.229z"></path>
<path d="M5.632 7.959l-1.624-0.938c-0.299-0.173-0.681-0.070-0.854 0.229s-0.070 0.681 0.229 0.854l1.624 0.938c0.298 0.172 0.681 0.071 0.854-0.229 0.173-0.299 0.070-0.681-0.229-0.854z"></path>
<path d="M22.166 4.695l0.938-1.624c0.173-0.299 0.070-0.681-0.229-0.854s-0.681-0.070-0.854 0.229l-0.938 1.624c-0.173 0.299-0.070 0.681 0.229 0.854 0.298 0.172 0.68 0.071 0.854-0.229z"></path>
<path d="M26.992 9.041l1.624-0.938c0.299-0.173 0.401-0.555 0.229-0.854s-0.555-0.402-0.854-0.229l-1.624 0.938c-0.299 0.173-0.401 0.555-0.229 0.854s0.554 0.402 0.854 0.229z"></path>
<path d="M16.625 31.375c0 0.345-0.28 0.625-0.625 0.625s-0.625-0.28-0.625-0.625c0-0.345 0.28-0.625 0.625-0.625s0.625 0.28 0.625 0.625z"></path>
</symbol>
<symbol id="color-palette" viewBox="0 0 32 32">
<path d="M10.432 15.513c1.384 0 2.51-1.126 2.51-2.51s-1.126-2.51-2.51-2.51c-1.384 0-2.51 1.126-2.51 2.51s1.126 2.51 2.51 2.51zM10.432 11.431c0.867 0 1.572 0.705 1.572 1.572s-0.705 1.572-1.572 1.572-1.572-0.705-1.572-1.572 0.705-1.572 1.572-1.572z"></path>
<path d="M15.958 12.886c1.35 0 2.449-1.099 2.449-2.449s-1.099-2.449-2.449-2.449-2.449 1.099-2.449 2.449 1.099 2.449 2.449 2.449zM15.958 8.926c0.833 0 1.511 0.678 1.511 1.511s-0.678 1.511-1.511 1.511-1.511-0.678-1.511-1.511 0.678-1.511 1.511-1.511z"></path>
<path d="M11.439 27.405c1.35 0 2.449-1.099 2.449-2.449s-1.099-2.449-2.449-2.449-2.449 1.099-2.449 2.449 1.099 2.449 2.449 2.449zM11.439 23.445c0.833 0 1.511 0.678 1.511 1.511s-0.678 1.511-1.511 1.511-1.511-0.678-1.511-1.511 0.678-1.511 1.511-1.511z"></path>
<path d="M17.206 29.255c1.35 0 2.449-1.099 2.449-2.449s-1.099-2.449-2.449-2.449-2.449 1.099-2.449 2.449 1.099 2.449 2.449 2.449zM17.206 25.295c0.833 0 1.511 0.678 1.511 1.511s-0.678 1.511-1.511 1.511-1.511-0.678-1.511-1.511 0.678-1.511 1.511-1.511z"></path>
<path d="M5.309 19.183c0 1.576 1.282 2.858 2.858 2.858s2.858-1.282 2.858-2.858-1.282-2.858-2.858-2.858-2.858 1.282-2.858 2.858zM8.167 17.262c1.059 0 1.92 0.861 1.92 1.92s-0.861 1.92-1.92 1.92-1.92-0.861-1.92-1.92 0.861-1.92 1.92-1.92z"></path>
<path d="M2.884 18.691c0 7.071 6.092 12.446 13.2 12.879 0.010 0.001 0.019 0.001 0.029 0.001 0.246 0 0.452-0.192 0.467-0.44 0.016-0.258-0.181-0.481-0.439-0.496-6.908-0.421-12.32-5.667-12.32-11.943 0-7.111 6.771-12.598 14.508-11.897 0.352 0.367 0.785 0.661 1.238 0.876-0.037 0.171-0.031 0.354 0.014 0.519l0.928 3.412c-0.216 0.252-0.291 0.596-0.205 0.913l0.221 0.812c0.134 0.495 0.629 0.811 1.134 0.724l0.438 1.896c-1.583 0.721-2.449 1.687-2.449 2.745 0 1.062 0.885 2.044 2.492 2.765 0.571 0.256 1.066 0.608 1.471 1.046 0.516 2.263 0.674 2.982 1.052 4.12-0.35 1.526-1.396 2.696-2.887 3.221-1.137 0.401-2.321 0.657-3.518 0.763-0.258 0.023-0.449 0.25-0.426 0.508s0.251 0.448 0.508 0.426c1.275-0.112 2.536-0.386 3.747-0.812 1.379-0.486 2.468-1.469 3.082-2.738 0.627 1.538 1.198 2.488 1.729 3.415 0.268 0.468 0.82 0.697 1.341 0.555s0.881-0.618 0.876-1.158c-0.016-1.57 0.025-3.931-1.078-7.448-0.078-0.247-0.34-0.384-0.588-0.307s-0.384 0.341-0.307 0.588c1.036 3.301 1.018 5.491 1.035 7.177 0.001 0.113-0.074 0.214-0.184 0.243s-0.226-0.018-0.282-0.117c-1.972-3.439-2.221-4.46-3.215-8.764 0 0-1.931-8.364-1.931-8.365l1.377-0.374 2.545 8.112c0.078 0.247 0.34 0.384 0.588 0.307s0.384-0.341 0.307-0.588l-1.709-5.449c2.583-1.046 3.305-4.515 1.094-6.446-0.906-0.791-1.922-1.466-3.019-2.011l-0.077-0.282c-0.047-0.172-0.133-0.327-0.251-0.455 0.473-0.699 0.945-1.779 0.602-3.044-0.33-1.214-1.142-1.682-2-2.178-0.521-0.301-1.060-0.612-1.579-1.129-0.505-0.502-1.339-0.277-1.521 0.413-0.186 0.709-0.494 1.25-0.791 1.773-0.495 0.872-1.098 1.887-0.459 3.353-7.957-0.343-14.788 5.429-14.788 12.88zM23.265 21.002c-0.234-0.15-0.48-0.284-0.741-0.401-1.232-0.553-1.938-1.249-1.938-1.91 0-0.629 0.622-1.275 1.727-1.811zM26.151 10.077c1.659 1.449 1.124 4.034-0.759 4.843-0.484-1.543-0.353-1.125-0.545-1.737 0.49-0.188 0.743-0.713 0.611-1.198l-0.221-0.812c-0.087-0.318-0.327-0.576-0.639-0.683l-0.513-1.888c0.739 0.427 1.431 0.921 2.065 1.475zM24.256 11.374l0-0c0.030-0.008 0.067 0.008 0.077 0.044l0.221 0.812c0.009 0.034-0.011 0.068-0.044 0.077-0.627 0.171-2.431 0.661-3.003 0.816-0.033 0.009-0.068-0.010-0.077-0.044l-0.221-0.812c-0.010-0.036 0.015-0.069 0.044-0.077zM23.649 10.568l-2.28 0.62-0.882-3.245c-0.023-0.083 0.029-0.17 0.11-0.192l1.978-0.538c0.077-0.021 0.168 0.021 0.192 0.11 0.29 1.067 0.087 0.319 0.882 3.245zM18.946 2.922c0.305-0.537 0.65-1.145 0.87-1.951 0.595 0.583 1.201 0.933 1.737 1.242 0.776 0.448 1.336 0.771 1.564 1.612 0.279 1.028-0.202 1.924-0.6 2.45-0.060 0.005-0.131 0.018-0.189 0.034l-1.978 0.538c-0.060 0.016-0.129 0.042-0.18 0.066-0.829-0.34-1.521-0.936-1.758-1.808-0.229-0.841 0.091-1.404 0.533-2.182z"></path>
</symbol>
<symbol id="brain" viewBox="0 0 32 32">
<path d="M19.125 5.188c-0.345 0-0.625 0.28-0.625 0.625s0.28 0.625 0.625 0.625c0.345 0 0.625-0.28 0.625-0.625s-0.28-0.625-0.625-0.625z"></path>
<path d="M12.875 5.188c-0.345 0-0.625 0.28-0.625 0.625s0.28 0.625 0.625 0.625 0.625-0.28 0.625-0.625-0.28-0.625-0.625-0.625z"></path>
<path d="M29.57 18.68c0.536-0.805 0.805-1.81 0.805-2.68 0-1.312-0.583-2.531-1.583-3.358 0.221-0.529 0.333-1.079 0.333-1.642 0-1.741-1.016-3.363-2.527-4.12 0.229-1.901-1.009-3.643-2.845-4.088-0.718-1.661-2.317-2.792-4.003-2.792-1.569 0-2.977 0.915-3.75 2.251-0.773-1.336-2.181-2.251-3.75-2.251-1.686 0-3.285 1.131-4.003 2.792-1.847 0.447-3.074 2.198-2.845 4.088-1.51 0.757-2.527 2.379-2.527 4.12 0 0.563 0.112 1.113 0.333 1.642-1 0.827-1.583 2.046-1.583 3.358 0 0.875 0.271 1.878 0.805 2.68-0.522 0.737-0.805 1.61-0.805 2.507 0 1.163 0.472 2.272 1.306 3.095-0.429 2.593 1.639 5.218 4.319 5.218 0.019 0 0.038-0 0.057-0.001 0.888 1.533 2.538 2.501 4.318 2.501 1.855 0 3.514-1.114 4.375-2.718 0.861 1.605 2.52 2.718 4.375 2.718 1.78 0 3.429-0.968 4.318-2.501 0.019 0.001 0.038 0.001 0.057 0.001 2.372 0 4.375-2.089 4.375-4.563 0-0.211-0.018-0.427-0.056-0.655 0.834-0.823 1.306-1.931 1.306-3.095 0-0.897-0.283-1.771-0.805-2.507zM15.375 9.461c-0.368-0.213-0.795-0.336-1.25-0.336-0.345 0-0.625 0.28-0.625 0.625s0.28 0.625 0.625 0.625c0.689 0 1.25 0.561 1.25 1.25v11.886c-0.917-1.040-2.258-1.698-3.75-1.698-0.345 0-0.625 0.28-0.625 0.625s0.28 0.625 0.625 0.625c2.068 0 3.75 1.682 3.75 3.75 0 2.134-1.717 3.938-3.75 3.938-1.447 0-2.779-0.856-3.394-2.18-0.113-0.244-0.37-0.388-0.638-0.358-0.044 0.005-0.088 0.011-0.132 0.017-1.779 0.243-3.782-1.771-3.24-4.024 0.056-0.231-0.025-0.474-0.208-0.627-0.724-0.602-1.139-1.474-1.139-2.391 0-0.567 0.16-1.122 0.459-1.608 0.75 0.614 1.682 0.983 2.666 0.983 0.345 0 0.625-0.28 0.625-0.625s-0.28-0.625-0.625-0.625c-1.696 0-3.125-1.548-3.125-3.313 0-1.070 0.546-2.055 1.46-2.634 0.282-0.178 0.374-0.546 0.209-0.836-0.278-0.49-0.419-1.005-0.419-1.53 0-1.687 1.375-3.313 3.125-3.313 1.665 0 3.125 1.548 3.125 3.313 0 0.345 0.28 0.625 0.625 0.625s0.625-0.28 0.625-0.625c0-2.473-2.003-4.563-4.375-4.563-0.209 0-0.417 0.017-0.623 0.049-0-0.016-0.002-0.032-0.002-0.049 0-1.395 1.132-2.5 2.5-2.5 0.668 0 1.296 0.26 1.768 0.732 0.244 0.244 0.64 0.244 0.884-0s0.244-0.64-0-0.884c-0.57-0.57-1.291-0.933-2.073-1.053 0.551-0.818 1.468-1.482 2.546-1.482 1.665 0 3.125 1.548 3.125 3.313v4.899zM26 20.563c0.984 0 1.917-0.369 2.666-0.983 0.298 0.486 0.459 1.041 0.459 1.608 0 0.917-0.415 1.788-1.139 2.391-0.183 0.152-0.264 0.395-0.208 0.627 0.066 0.275 0.097 0.508 0.097 0.733 0 1.94-1.755 3.508-3.337 3.292-0.044-0.006-0.088-0.012-0.132-0.017-0.268-0.030-0.524 0.114-0.637 0.358-0.615 1.324-1.947 2.18-3.394 2.18-2.033 0-3.75-1.803-3.75-3.938 0-2.068 1.682-3.75 3.75-3.75 0.345 0 0.625-0.28 0.625-0.625s-0.28-0.625-0.625-0.625c-1.492 0-2.833 0.658-3.75 1.698v-11.886c0-0.689 0.561-1.25 1.25-1.25 0.345 0 0.625-0.28 0.625-0.625s-0.28-0.625-0.625-0.625c-0.455 0-0.882 0.123-1.25 0.336v-4.899c0-1.765 1.46-3.313 3.125-3.313 1.078 0 1.995 0.664 2.546 1.482-0.782 0.12-1.503 0.484-2.073 1.053-0.244 0.244-0.244 0.64-0.001 0.884s0.64 0.244 0.884 0c0.473-0.472 1.101-0.732 1.768-0.732 1.375 0 2.5 1.112 2.5 2.5 0 0.016-0.001 0.033-0.002 0.049-0.206-0.032-0.414-0.049-0.623-0.049-2.372 0-4.375 2.089-4.375 4.562 0 0.345 0.28 0.625 0.625 0.625s0.625-0.28 0.625-0.625c0-1.765 1.46-3.313 3.125-3.313 1.749 0 3.125 1.625 3.125 3.313 0 0.525-0.141 1.040-0.419 1.53-0.164 0.29-0.072 0.658 0.209 0.836 0.914 0.579 1.459 1.564 1.459 2.634 0 1.771-1.434 3.313-3.125 3.313-0.345 0-0.625 0.28-0.625 0.625s0.28 0.625 0.625 0.625z"></path>
<path d="M13.966 13.378c-0.23-0.257-0.625-0.279-0.883-0.049-2.004 1.793-5.208 0.36-5.208-2.329 0-0.345-0.28-0.625-0.625-0.625s-0.625 0.28-0.625 0.625c0 2.17 1.588 3.975 3.662 4.316-0.241 0.758-0.951 1.309-1.787 1.309-0.345 0-0.625 0.28-0.625 0.625s0.28 0.625 0.625 0.625c1.522 0 2.793-1.094 3.069-2.538 0.869-0.114 1.687-0.486 2.348-1.077 0.257-0.23 0.279-0.625 0.049-0.883z"></path>
<path d="M7.25 24.313c-0.345 0-0.625 0.28-0.625 0.625s0.28 0.625 0.625 0.625c1.665 0 3.125 1.548 3.125 3.313 0 0.345 0.28 0.625 0.625 0.625s0.625-0.28 0.625-0.625c0-2.473-2.003-4.563-4.375-4.563z"></path>
<path d="M12.25 19.313c-2.118 0-3.936 1.162-4.894 2.851-0.17 0.3-0.065 0.682 0.236 0.852s0.682 0.065 0.852-0.235c0.746-1.316 2.161-2.217 3.806-2.217 0.345 0 0.625-0.28 0.625-0.625s-0.28-0.625-0.625-0.625z"></path>
<path d="M23.5 16.625c-0.837 0-1.547-0.551-1.788-1.309 2.075-0.341 3.663-2.146 3.663-4.316 0-0.345-0.28-0.625-0.625-0.625s-0.625 0.28-0.625 0.625c0 1.723-1.402 3.125-3.125 3.125-0.77 0-1.51-0.283-2.083-0.796-0.257-0.23-0.652-0.208-0.883 0.049s-0.208 0.652 0.049 0.883c0.661 0.591 1.479 0.963 2.348 1.077 0.276 1.443 1.547 2.538 3.069 2.538 0.345 0 0.625-0.28 0.625-0.625s-0.28-0.625-0.625-0.625z"></path>
<path d="M24.75 24.313c-2.372 0-4.375 2.089-4.375 4.563 0 0.345 0.28 0.625 0.625 0.625s0.625-0.28 0.625-0.625c0-1.765 1.46-3.313 3.125-3.313 0.345 0 0.625-0.28 0.625-0.625s-0.28-0.625-0.625-0.625z"></path>
<path d="M24.644 22.163c-0.955-1.685-2.771-2.851-4.894-2.851-0.345 0-0.625 0.28-0.625 0.625s0.28 0.625 0.625 0.625c1.644 0 3.060 0.901 3.806 2.217 0.17 0.301 0.552 0.406 0.852 0.236s0.406-0.552 0.236-0.852z"></path>
</symbol>
<symbol id="profile" viewBox="0 0 32 32">
<path d="M12 13.333c-3.676 0-6.667-2.991-6.667-6.667s2.991-6.667 6.667-6.667 6.667 2.991 6.667 6.667-2.991 6.667-6.667 6.667zM12 1.333c-2.941 0-5.333 2.392-5.333 5.333s2.392 5.333 5.333 5.333 5.333-2.392 5.333-5.333-2.392-5.333-5.333-5.333z"></path>
<path d="M11.333 28h-10.667c-0.368 0-0.667-0.299-0.667-0.667v-5.333c0-3.308 2.692-6 6-6h8c0.368 0 0.667 0.299 0.667 0.667s-0.299 0.667-0.667 0.667h-8c-2.573 0-4.667 2.093-4.667 4.667v4.667h10c0.368 0 0.667 0.299 0.667 0.667s-0.299 0.667-0.667 0.667z"></path>
<path d="M22.667 26.667c-1.837 0-3.333-1.496-3.333-3.333s1.496-3.333 3.333-3.333 3.333 1.496 3.333 3.333-1.496 3.333-3.333 3.333zM22.667 21.333c-1.103 0-2 0.897-2 2s0.897 2 2 2 2-0.897 2-2-0.897-2-2-2z"></path>
<path d="M23.729 32h-2.127c-0.688 0-1.259-0.516-1.327-1.201l-0.169-1.695c-0.404-0.18-0.789-0.404-1.153-0.671l-1.557 0.703c-0.625 0.285-1.36 0.047-1.703-0.549l-1.063-1.841c-0.344-0.596-0.181-1.348 0.376-1.749l1.372-0.987c-0.027-0.207-0.045-0.436-0.045-0.676s0.019-0.471 0.045-0.676l-1.372-0.987c-0.557-0.401-0.72-1.153-0.376-1.749l1.063-1.841c0.344-0.596 1.075-0.832 1.703-0.549l1.557 0.703c0.364-0.267 0.749-0.491 1.153-0.671l0.169-1.695c0.068-0.684 0.639-1.2 1.327-1.2h2.127c0.688 0 1.259 0.516 1.327 1.201l0.169 1.695c0.405 0.18 0.791 0.405 1.153 0.671l1.557-0.703c0.628-0.281 1.36-0.045 1.703 0.549l1.063 1.841c0.344 0.596 0.181 1.348-0.376 1.749l-1.372 0.987c0.027 0.207 0.045 0.436 0.045 0.676s-0.019 0.471-0.045 0.676l1.372 0.987c0.557 0.401 0.72 1.153 0.376 1.749l-1.061 1.84c-0.344 0.595-1.073 0.833-1.703 0.549l-1.557-0.703c-0.364 0.267-0.749 0.491-1.153 0.671l-0.171 1.696c-0.068 0.684-0.639 1.2-1.327 1.2zM19.047 26.993c0.153 0 0.305 0.053 0.428 0.156 0.452 0.379 0.952 0.668 1.484 0.863 0.24 0.088 0.409 0.305 0.435 0.56l0.211 2.095h2.127l0.209-2.095c0.025-0.255 0.195-0.472 0.435-0.56 0.532-0.195 1.032-0.485 1.484-0.863 0.197-0.164 0.469-0.201 0.701-0.096l1.925 0.869 1.063-1.841-1.704-1.224c-0.208-0.149-0.311-0.405-0.268-0.657 0.049-0.281 0.089-0.568 0.089-0.864s-0.040-0.583-0.089-0.864c-0.044-0.252 0.060-0.507 0.268-0.657l1.704-1.224-1.063-1.841-1.925 0.868c-0.233 0.105-0.505 0.068-0.703-0.096-0.451-0.379-0.949-0.668-1.484-0.863-0.24-0.088-0.409-0.305-0.435-0.56l-0.209-2.099h-2.127l-0.209 2.095c-0.025 0.255-0.195 0.472-0.435 0.56-0.532 0.195-1.032 0.485-1.484 0.863-0.196 0.164-0.468 0.203-0.701 0.096l-1.925-0.869-1.063 1.841 1.704 1.224c0.208 0.149 0.311 0.405 0.268 0.657-0.049 0.281-0.089 0.568-0.089 0.864s0.040 0.583 0.089 0.864c0.044 0.252-0.060 0.507-0.268 0.657l-1.704 1.224 1.063 1.841 1.925-0.868c0.088-0.037 0.18-0.056 0.273-0.056z"></path>
</symbol>
<symbol id="microphone" viewBox="0 0 32 32">
<path d="M16.378 17.221l-1.6-1.6c-0.208-0.208-0.546-0.208-0.754 0l-3.2 3.2c-0.208 0.208-0.208 0.546 0 0.754l1.6 1.6c0.208 0.208 0.546 0.208 0.754 0l3.2-3.2c0.208-0.208 0.208-0.546 0-0.754zM12.801 20.044l-0.846-0.846 0.846-0.846 0.846 0.846-0.846 0.846zM14.401 18.444l-0.846-0.846 0.846-0.846 0.846 0.846-0.846 0.846z"></path>
<path d="M30.851 11.424c2.194-3.481 1.151-8.081-2.329-10.275-2.428-1.531-5.52-1.53-7.947 0.001l-0.463-0.463c-0.208-0.208-0.546-0.208-0.754 0l-1.6 1.6c-0.208 0.208-0.208 0.546 0 0.754l0.465 0.465c-0.885 1.42-1.271 3.095-1.098 4.759l-16.984 18.574c-0.193 0.211-0.185 0.535 0.017 0.737l4.267 4.267c0.202 0.202 0.527 0.209 0.737 0.017l18.574-16.981c1.666 0.186 3.346-0.202 4.763-1.098l0.461 0.461c0.208 0.208 0.546 0.208 0.754 0l1.6-1.6c0.208-0.208 0.208-0.546 0-0.754l-0.462-0.463zM30.078 4.265c1.14 1.977 1.14 4.412-0 6.389l-0.001 0.003-8.731-8.735c3.058-1.764 6.968-0.715 8.732 2.344zM4.817 30.728l-3.546-3.546 14.564-15.931 4.913 4.913-15.931 14.564zM21.534 15.443l-4.978-4.978 1.062-1.163 5.078 5.079-1.162 1.062zM23.618 13.795l-5.415-5.415c-0.199-1.417 0.079-2.861 0.789-4.103l8.729 8.73c-1.243 0.71-2.686 0.988-4.103 0.788zM29.334 13.113l-10.445-10.449 0.846-0.846 10.446 10.446-0.847 0.848z"></path>
</symbol>
<symbol id="price-dollar" viewBox="0 0 32 32">
<path d="M27.314 4.686c-3.022-3.022-7.040-4.686-11.314-4.686s-8.292 1.664-11.314 4.686-4.686 7.040-4.686 11.314 1.664 8.292 4.686 11.314 7.040 4.686 11.314 4.686 8.292-1.664 11.314-4.686 4.686-7.040 4.686-11.314-1.664-8.292-4.686-11.314zM16 15c2.481 0 4.5 2.019 4.5 4.5 0 2.055-1.385 3.791-3.27 4.328-0.135 0.039-0.23 0.16-0.23 0.301v0.843c0 0.538-0.414 1.002-0.952 1.027-0.574 0.027-1.048-0.431-1.048-0.999v-0.871c0-0.14-0.094-0.262-0.229-0.301-1.877-0.534-3.258-2.257-3.271-4.3-0.003-0.545 0.425-1.012 0.971-1.027 0.566-0.016 1.029 0.438 1.029 1 0 1.438 1.22 2.596 2.679 2.494 1.232-0.086 2.229-1.084 2.315-2.315 0.102-1.459-1.056-2.679-2.494-2.679-2.481 0-4.5-2.019-4.5-4.5 0-2.055 1.385-3.791 3.27-4.328 0.135-0.039 0.23-0.16 0.23-0.301v-0.843c0-0.538 0.414-1.002 0.952-1.027 0.574-0.027 1.048 0.431 1.048 0.999v0.871c0 0.14 0.094 0.262 0.229 0.301 1.877 0.534 3.258 2.257 3.271 4.3 0.003 0.545-0.425 1.012-0.971 1.027-0.566 0.016-1.029-0.438-1.029-1 0-1.438-1.22-2.596-2.679-2.494-1.232 0.086-2.229 1.084-2.315 2.315-0.102 1.459 1.056 2.679 2.494 2.679z"></path>
</symbol>
<symbol id="avatar" viewBox="0 0 32 32">
<path d="M26.324 24.060l-5.108-1.277-0.435-1.739c1.367-1.353 2.303-3.212 2.58-5.119 0.757-0.213 1.344-0.863 1.445-1.677l0.333-2.667c0.071-0.563-0.103-1.132-0.476-1.559-0.219-0.251-0.495-0.44-0.8-0.556l0.123-2.511 0.499-0.5c0.751-0.799 1.373-2.168 0.072-4.155-1-1.527-2.699-2.301-5.051-2.301-0.928 0-3.064 0-5.053 1.336-5.68 0.119-6.453 2.757-6.453 5.331 0 0.599 0.145 1.947 0.241 2.76-0.343 0.108-0.653 0.308-0.896 0.584-0.38 0.431-0.556 1.003-0.485 1.572l0.333 2.667c0.109 0.869 0.769 1.553 1.604 1.716 0.276 1.833 1.164 3.632 2.452 4.963l-0.464 1.857-5.108 1.277c-3.344 0.833-5.677 3.823-5.677 7.271 0 0.368 0.299 0.667 0.667 0.667h30.667c0.368 0 0.667-0.301 0.667-0.669-0-3.445-2.333-6.435-5.676-7.271z"></path>
</symbol>
<symbol id="map-pin" viewBox="0 0 24 32">
<path d="M23.538 11.769c0 6.499-8.877 20.25-11.769 20.25-3.207 0-11.769-13.752-11.769-20.25 0-6.5 5.269-11.769 11.769-11.769s11.769 5.269 11.769 11.769v0z"></path>
</symbol>
<symbol id="telegram" viewBox="0 0 32 32">
<path d="M31.506 3.179c-0.391-0.478-0.976-0.741-1.649-0.741-0.365 0-0.753 0.077-1.151 0.229l-27.087 10.34c-1.438 0.549-1.631 1.372-1.619 1.814s0.252 1.253 1.719 1.719c0.009 0.003 0.018 0.005 0.026 0.008l5.619 1.608 3.039 8.689c0.414 1.185 1.344 1.92 2.427 1.92 0.683 0 1.354-0.286 1.942-0.827l3.475-3.2 5.041 4.059c0 0 0.001 0.001 0.002 0.001l0.048 0.039c0.004 0.003 0.009 0.007 0.013 0.011 0.56 0.435 1.172 0.664 1.769 0.664h0c1.167 0 2.097-0.864 2.367-2.201l4.438-21.915c0.178-0.88 0.029-1.667-0.421-2.217zM9.244 17.85l10.84-5.538-6.75 7.172c-0.111 0.117-0.189 0.261-0.228 0.418l-1.302 5.272zM13.502 26.558c-0.045 0.041-0.090 0.078-0.135 0.112l1.208-4.891 2.197 1.769zM30.089 5.023l-4.438 21.915c-0.043 0.21-0.179 0.698-0.53 0.698-0.173 0-0.391-0.094-0.614-0.266l-5.712-4.599c-0.001-0.001-0.002-0.001-0.003-0.002l-3.399-2.737 9.761-10.372c0.313-0.332 0.341-0.841 0.067-1.205s-0.77-0.479-1.176-0.272l-16.054 8.202-5.695-1.629 27.079-10.337c0.229-0.087 0.388-0.106 0.482-0.106 0.057 0 0.159 0.007 0.197 0.053 0.050 0.061 0.113 0.268 0.035 0.657z"></path>
</symbol>
<symbol id="facebook" viewBox="0 0 32 32">
<path d="M18.478 32v-14.596h4.897l0.735-5.69h-5.632v-3.632c0-1.647 0.455-2.769 2.82-2.769l3.010-0.001v-5.089c-0.521-0.068-2.308-0.223-4.388-0.223-4.343 0-7.317 2.651-7.317 7.519v4.196h-4.912v5.69h4.912v14.596h5.874z"></path>
</symbol>
<symbol id="instagram" viewBox="0 0 32 32">
<path d="M22 0h-12c-5.522 0-10 4.478-10 10v12c0 5.522 4.478 10 10 10h12c5.522 0 10-4.478 10-10v-12c0-5.522-4.478-10-10-10zM29 22c0 3.86-3.14 7-7 7h-12c-3.86 0-7-3.14-7-7v-12c0-3.86 3.14-7 7-7h12c3.86 0 7 3.14 7 7v12z"></path>
<path d="M16 8c-4.418 0-8 3.582-8 8s3.582 8 8 8 8-3.582 8-8-3.582-8-8-8zM16 21c-2.756 0-5-2.244-5-5 0-2.758 2.244-5 5-5s5 2.242 5 5c0 2.756-2.244 5-5 5z"></path>
<path d="M25.666 7.4c0 0.589-0.477 1.066-1.066 1.066s-1.066-0.477-1.066-1.066c0-0.589 0.477-1.066 1.066-1.066s1.066 0.477 1.066 1.066z"></path>
</symbol>
<symbol id="viber" viewBox="0 0 32 32">
<path d="M30.873 18.524c0.955-8.036-0.459-13.109-3.008-15.404l0.001-0.001c-4.115-3.919-18.011-4.499-22.933 0.176-2.211 2.287-2.989 5.643-3.075 9.797-0.085 4.156-0.187 11.941 7.068 14.053h0.007l-0.007 3.225s-0.049 1.307 0.785 1.569c0.955 0.309 1.387-0.297 4.356-3.844 4.965 0.431 8.779-0.556 9.212-0.7 1.003-0.336 6.676-1.087 7.593-8.872zM14.557 25.827s-3.143 3.919-4.12 4.936c-0.32 0.331-0.671 0.3-0.665-0.356 0-0.431 0.024-5.355 0.024-5.355-6.151-1.763-5.788-8.392-5.721-11.86 0.067-3.469 0.701-6.311 2.573-8.224 4.319-4.049 16.501-3.144 19.605-0.227 3.795 3.364 2.444 12.868 2.452 13.192-0.78 6.499-5.377 6.911-6.223 7.192-0.361 0.12-3.715 0.983-7.925 0.701z"></path>
<path d="M16.296 5.729c-0.513 0-0.513 0.8 0 0.807 3.983 0.031 7.263 2.807 7.299 7.899 0 0.537 0.787 0.531 0.78-0.007h-0.001c-0.043-5.487-3.624-8.668-8.077-8.699z"></path>
<path d="M21.535 13.591c-0.012 0.531 0.773 0.556 0.78 0.019 0.065-3.025-1.8-5.517-5.305-5.78-0.513-0.037-0.567 0.769-0.055 0.807 3.040 0.231 4.641 2.305 4.58 4.955z"></path>
<path d="M20.695 17.032c-0.659-0.381-1.329-0.144-1.607 0.231l-0.58 0.751c-0.295 0.381-0.845 0.331-0.845 0.331-4.019-1.063-5.093-5.268-5.093-5.268s-0.049-0.569 0.319-0.875l0.725-0.6c0.363-0.288 0.592-0.981 0.223-1.663-0.987-1.783-1.649-2.397-1.987-2.869-0.355-0.444-0.888-0.544-1.443-0.244h-0.012c-1.153 0.675-2.416 1.937-2.012 3.237 0.689 1.371 1.956 5.74 5.993 9.041 1.897 1.561 4.9 3.161 6.175 3.531l0.012 0.019c1.256 0.419 2.477-0.893 3.129-2.081v-0.009c0.289-0.575 0.193-1.119-0.229-1.475-0.749-0.731-1.88-1.537-2.768-2.056z"></path>
<path d="M17.559 10.805c1.281 0.075 1.903 0.744 1.969 2.119 0.024 0.537 0.804 0.5 0.78-0.037-0.085-1.795-1.021-2.795-2.707-2.888-0.513-0.031-0.561 0.776-0.043 0.807z"></path>
</symbol>
<symbol id="location-pin" viewBox="0 0 32 32">
<path fill="#aa43a2" style="fill: var(--color1, #aa43a2)" d="M28.8 12.8c0 0.24 0 0.464-0.016 0.704-0.208 5.68-3.184 12.192-11.408 18.064-0.816 0.576-1.936 0.576-2.752 0-8.224-5.872-11.2-12.384-11.408-18.064-0.016-0.24-0.016-0.464-0.016-0.704 0-7.072 5.728-12.8 12.8-12.8s12.8 5.728 12.8 12.8zM19.393 16.194c0.446-0.445 0.8-0.974 1.042-1.557s0.366-1.207 0.366-1.837c0-0.63-0.124-1.255-0.366-1.837s-0.596-1.111-1.042-1.557c-0.445-0.446-0.974-0.8-1.556-1.042s-1.207-0.366-1.837-0.366c-0.63 0-1.255 0.124-1.837 0.366s-1.111 0.596-1.557 1.042c-0.446 0.445-0.8 0.974-1.042 1.557s-0.366 1.207-0.366 1.837c0 0.63 0.124 1.255 0.366 1.837s0.596 1.111 1.042 1.557c0.445 0.446 0.974 0.8 1.557 1.042s1.207 0.366 1.837 0.366c0.63 0 1.255-0.124 1.837-0.366s1.111-0.596 1.556-1.042z"></path>
</symbol>
<symbol id="puzzle" viewBox="0 0 32 32">
<path d="M25.612 3.9c-1.793-2.002-4.161-3.859-10.016-3.9-2.287-0.018-5.779 0.523-8.496 3.396-1.644 1.735-2.853 3.927-2.509 7.509 0.075 0.777 1.185 1.677 0.405 3.177 0 0-1.675 2.949-1.617 3.439 0 0-0.030 0.897 1.358 0.925 0 0 0.346 0.045 0.247 0.809l-0.017 1.114c0 0 0.044 0.332 0.651 0.533 0 0 0.116 0.116-0.057 0.334 0 0-0.319 0.356 0.231 1.126 0.204 0.28 0.535 0.634 0.332 1.36 0 0-0.26 1.399 0.289 1.734 0 0 0.624 0.741 3.137 0.431 0.879-0.108 2.5-0.533 3.467 0.681 0 0 2.311 4.391 2.487 5.43 0 0 3.944-7.021 8.758-8.105 0 0-1.173-2.645 1.213-6.070 0 0 2.991-3.945 3.079-6.112-0.002-0 0.787-3.652-2.942-7.813zM11.319 8.244c-0.171 0.062-0.285 0.225-0.287 0.406l-0.018 2.041c-3.435-0.202-3.404-1.714-3.107-3.637 0.236-1.527 1.424-2.781 3.174-3.58l-0.020 2.286c-0.002 0.181 0.11 0.345 0.278 0.41s0.36 0.019 0.482-0.117c0.341-0.383 0.819-0.602 1.318-0.602 0.006 0 0.010 0 0.015 0 0.975 0.009 1.762 0.811 1.754 1.787-0.010 0.971-0.803 1.757-1.772 1.757-0.006 0-0.011 0-0.016 0-0.504-0.004-0.985-0.232-1.321-0.623-0.122-0.141-0.315-0.19-0.483-0.129zM21.86 13.667c-0.74-0.075-1.494-0.277-2.184-0.573-1.8-0.772-2.299-2.825-5.128-2.535-1.042 0.107-1.912 0.151-2.667 0.153l0.011-1.163c0.372 0.2 0.788 0.311 1.216 0.315 0.008 0 0.015 0 0.021 0 1.445 0 2.63-1.17 2.643-2.62 0.013-1.457-1.162-2.652-2.617-2.665-0.413 0.002-0.846 0.1-1.22 0.294l0.017-1.749c1.415-0.478 3.102-0.694 4.918-0.563 1.868 0.131 3.615 0.684 5.078 1.521l-0.009 0.876c-0.372-0.201-0.787-0.312-1.216-0.315-1.432 0.019-2.649 1.163-2.666 2.619-0.007 0.707 0.264 1.372 0.758 1.876 0.495 0.503 1.155 0.783 1.862 0.788 0.443-0.011 0.846-0.099 1.219-0.294l-0.034 4.035zM22.731 13.69l0.044-4.942c0.002-0.181-0.11-0.345-0.278-0.41s-0.36-0.020-0.483 0.117c-0.344 0.386-0.812 0.583-1.33 0.601-0.473-0.003-0.916-0.193-1.247-0.528-0.333-0.338-0.513-0.783-0.509-1.256 0.011-0.973 0.803-1.758 1.771-1.758 0.005 0 0.011 0 0.016 0 0.512 0.004 0.981 0.226 1.322 0.624 0.117 0.138 0.309 0.187 0.48 0.127 0.171-0.062 0.285-0.223 0.287-0.405l0.012-1.222c1.724 1.233 2.899 2.908 3.121 4.767 0.358 3.024-1.25 4.191-3.205 4.287z"></path>
</symbol>
</defs>
</svg>
