<svg aria-hidden="true" style="position:absolute;width:0;height:0" xmlns="http://www.w3.org/2000/svg" overflow="hidden"><defs><symbol id="pin" viewBox="0 0 32 32"><path fill="#AA43A2" d="M28.428 12.428c0 9.952-11.234 19.168-11.234 19.168-.656.539-1.731.539-2.387 0 0 0-11.234-9.217-11.234-19.168C3.573 5.564 9.137 0 16.001 0s12.428 5.564 12.428 12.428z"/><path fill="#AA43A2" d="M16 18.681c-3.448 0-6.253-2.805-6.253-6.253S12.552 6.175 16 6.175s6.253 2.805 6.253 6.253-2.805 6.253-6.253 6.253z"/></symbol><symbol id="location-icon" viewBox="0 0 32 32"><path fill="var(--color3, #aa43a2)" d="M31.336 14.964L1.622 1.25a1.147 1.147 0 00-1.364.321c-.329.4-.343.979-.029 1.4L10 16 .229 29.029c-.314.421-.307 1 .029 1.4a1.129 1.129 0 001.365.322l29.714-13.714a1.139 1.139 0 000-2.072z"/></symbol><symbol id="burger" viewBox="0 0 32 32"><path d="M0 5.032a2.589 2.589 0 012.581-2.581H29.42c1.419 0 2.581 1.161 2.581 2.581S30.84 7.613 29.42 7.613H2.581A2.589 2.589 0 010 5.032zm29.419 8.387H2.58C1.161 13.419-.001 14.58-.001 16s1.161 2.581 2.581 2.581h26.839C30.838 18.581 32 17.42 32 16s-1.161-2.581-2.581-2.581zm0 10.968H2.58c-1.419 0-2.581 1.161-2.581 2.581s1.161 2.581 2.581 2.581h26.839c1.419 0 2.581-1.161 2.581-2.581s-1.161-2.581-2.581-2.581z"/></symbol><symbol id="close" viewBox="0 0 32 32"><path d="M21.281 16.004l9.897-9.905a2.793 2.793 0 000-3.955L29.857.823a2.793 2.793 0 00-3.955 0l-9.897 9.897L6.1.823a2.793 2.793 0 00-3.955 0L.824 2.144a2.793 2.793 0 000 3.955l9.905 9.905-9.905 9.897a2.793 2.793 0 000 3.955l1.321 1.321a2.793 2.793 0 003.955 0l9.897-9.897 9.905 9.897a2.793 2.793 0 003.955 0l1.321-1.321a2.793 2.793 0 000-3.955l-9.897-9.897z"/></symbol><symbol id="zoom" viewBox="0 0 33 32"><path d="M24.54 21.092a13.282 13.282 0 002.376-7.616v-.017.001c0-7.432-6.025-13.459-13.458-13.459S0 6.029 0 13.46s6.024 13.456 13.458 13.456h.017c3.11 0 5.973-1.06 8.247-2.839l-.029.022 7.9 7.901 2.928-2.928zm-11.082 2.925c-5.823 0-10.559-4.737-10.559-10.56S7.635 2.898 13.458 2.898s10.559 4.737 10.559 10.561-4.736 10.558-10.559 10.558z"/><path d="M14.907 12.216V7.04h-2.898v5.176H6.833v2.899h5.176v5.176h2.898v-5.176h5.177v-2.899h-5.177z"/></symbol><symbol id="calendar" viewBox="0 0 35 32"><path d="M34.4 13.6c-.481 0-.8.32-.8.8v8.8a1.605 1.605 0 01-1.6 1.6h-1.601c-1.36 0-2.4 1.04-2.4 2.4v1.6a1.605 1.605 0 01-1.6 1.6h-24c-.481 0-.8-.32-.8-.8V14.4c0-.481-.32-.8-.8-.8s-.8.32-.8.8v15.2c0 1.36 1.04 2.4 2.4 2.4h25.04c1.04 0 2.08-.4 2.8-1.2L34 27.04c.718-.72 1.2-1.759 1.2-2.8V14.4c0-.481-.32-.8-.8-.8zm-4.881 15.761c0-.16.08-.32.08-.56v-1.6c0-.481.32-.8.8-.8h1.6l.063.001c.178 0 .349-.03.508-.084l-.011.003zM32.8 2.4h-5.6V.8c0-.481-.32-.8-.8-.8s-.8.32-.8.8v1.6h-16V.8c0-.481-.32-.8-.8-.8S8 .32 8 .8v1.6H2.4C1.04 2.4 0 3.44 0 4.8v6.4c0 .481.32.8.8.8h33.6c.481 0 .8-.32.8-.8V4.8c0-1.36-1.04-2.4-2.4-2.4zm.801 8H1.6V4.8c0-.481.32-.8.8-.8H8v1.84c-.481.24-.8.8-.8 1.36a1.6 1.6 0 103.2 0c0-.56-.32-1.12-.8-1.36V4h16v1.84c-.481.24-.8.8-.8 1.36a1.6 1.6 0 103.2 0c0-.56-.32-1.12-.8-1.36V4h5.6c.481 0 .8.32.8.8v5.6z"/><path d="M16 16.8a1.6 1.6 0 11-3.2 0 1.6 1.6 0 013.2 0zm6.4 0a1.6 1.6 0 11-3.2 0 1.6 1.6 0 013.2 0zm6.4 0a1.6 1.6 0 11-3.2 0 1.6 1.6 0 013.2 0zM8.114 22.407a1.6 1.6 0 11-.227 3.191 1.6 1.6 0 01.227-3.191zM16 24a1.6 1.6 0 11-3.2 0 1.6 1.6 0 013.2 0zm6.4 0a1.6 1.6 0 11-3.2 0 1.6 1.6 0 013.2 0z"/></symbol><symbol id="day" viewBox="0 0 27 32"><path d="M22.4 24a1.6 1.6 0 11-3.2 0 1.6 1.6 0 013.2 0z"/></symbol><symbol id="money" viewBox="0 0 34 32"><path d="M25.904 10.667a1.524 1.524 0 11-3.048 0 1.524 1.524 0 013.048 0zm-15.237 0a1.524 1.524 0 11-3.048 0 1.524 1.524 0 013.048 0zm6.095-4.572a4.572 4.572 0 104.572 4.572 4.584 4.584 0 00-4.571-4.572h-.001zm0 7.619h-.001a3.048 3.048 0 113.048-3.048 3.056 3.056 0 01-3.047 3.048z"/><path d="M31.238 0H2.286C.991 0 0 .99 0 2.285v16.762c0 1.296.991 2.286 2.286 2.286h9.905c.458 0 .762-.304.762-.761s-.305-.762-.762-.762H2.286c-.458 0-.762-.304-.762-.761V2.287c0-.458.305-.762.762-.762h28.952c.458 0 .762.305.762.762v12.19c0 .458.304.761.761.761s.762-.304.762-.761V2.286c0-1.295-.991-2.285-2.286-2.285z"/><path d="M29.638 4.571c-.458 0-.761-.304-.761-.761s-.305-.762-.762-.762H5.335c-.458 0-.762.305-.762.762s-.305.761-.762.761-.761.305-.761.762V16c0 .458.304.762.761.762s.762.304.762.761.304.762.762.762h7.619c.458 0 .762-.305.762-.762s-.305-.761-.762-.761h-7.01c-.229-.686-.761-1.143-1.371-1.372V5.943c.686-.229 1.143-.762 1.371-1.375h21.562c.229.686.762 1.143 1.372 1.375v6.248c0 .458.304.761.761.761s.762-.304.762-.761V5.334c0-.457-.304-.762-.762-.762z"/><path d="M26.666 13.714a5.863 5.863 0 00-2.624.625l.034-.015c-.381.153-.534.61-.381.991s.61.533.991.38a4.387 4.387 0 011.967-.458h.015-.001.036a4.535 4.535 0 013.687 7.176l.009-.014c-.229.381-.153.838.153 1.067.153.076.304.152.458.152l.035.001c.238 0 .448-.12.573-.303l.002-.002a6.093 6.093 0 001.067-3.461v-.046.002c.076-3.35-2.667-6.094-6.019-6.094z"/><path d="M26.666 17.523c-.458 0-.761.305-.761.762v.761c0 .458.304.762.761.762s.762-.304.762-.762v-.761c0-.457-.304-.762-.762-.762zm-2.514-.457c-1.143-1.143-2.666-1.829-4.342-1.829-3.352 0-6.096 2.743-6.096 6.095 0 1.676.686 3.2 1.829 4.343a.734.734 0 001.066.001.734.734 0 000-1.066 4.58 4.58 0 013.2-7.847c1.219 0 2.438.458 3.274 1.371a.753.753 0 101.066-1.066z"/><path d="M23.619 19.809c-3.352 0-6.095 2.743-6.095 6.095s2.743 6.095 6.095 6.095 6.095-2.743 6.095-6.095-2.743-6.095-6.095-6.095zm0 10.667h-.001a4.572 4.572 0 114.572-4.572 4.585 4.585 0 01-4.57 4.572h-.001z"/><path d="M23.619 23.618c-.458 0-.762.305-.762.762v3.047c0 .458.305.762.762.762s.761-.304.761-.762V24.38c0-.458-.304-.762-.761-.762zm-3.047-3.808a.762.762 0 11-1.524 0 .762.762 0 011.524 0z"/></symbol><symbol id="time" viewBox="0 0 32 32"><path d="M11.636 7.272a.728.728 0 11-1.456 0 .728.728 0 011.456 0zM21.821 24.73a.727.727 0 11-1.454 0 .727.727 0 011.454 0zM8 10.909a.728.728 0 11-.728-.726c.402 0 .728.326.728.727zm17.454 10.182a.727.727 0 11-1.454 0 .727.727 0 011.454 0zM21.818 7.27a.728.728 0 11-1.456 0 .728.728 0 011.456 0zM11.636 24.728a.727.727 0 11-1.452 0 .727.727 0 011.451 0zm13.818-13.819a.728.728 0 11-.727-.726c.401 0 .727.326.727.727zM7.999 21.091a.727.727 0 11-1.454 0 .727.727 0 011.454 0z"/><path d="M16 0C7.178 0 0 7.178 0 16s7.178 16 16 16h.021a.727.727 0 000-1.454h-.022H16C7.979 30.546 1.454 24.021 1.454 16S7.979 1.454 16 1.454 30.546 7.979 30.546 16c0 6.96-4.953 12.966-11.775 14.282a.728.728 0 10.28 1.427l-.005.001C26.552 30.262 32 23.656 32 16c0-8.822-7.178-16-16-16z"/><path d="M19.079 3.273a.727.727 0 00-.345 1.414l.005.001c4.913 1.206 8.554 5.43 8.866 10.553l.002.033h-1.424a.727.727 0 000 1.454h1.418c-.363 5.834-5.037 10.509-10.872 10.875v-1.421a.727.727 0 00-1.454 0V27.6C9.44 27.237 4.766 22.563 4.403 16.728h1.418a.728.728 0 100-1.454H4.402C4.764 9.439 9.44 4.751 15.275 4.388V5.82a.728.728 0 101.454 0V3.638a.727.727 0 00-.727-.727c-7.218 0-13.091 5.875-13.091 13.091s5.875 13.091 13.091 13.091 13.091-5.875 13.091-13.091v-.037c0-6.129-4.225-11.271-9.922-12.672l-.09-.019z"/><path d="M22.332 21.304l-4.364-4.363s-.004 0-.007-.004a2.13 2.13 0 00.22-.937v-.001a2.18 2.18 0 00-1.439-2.043l-.015-.005v-3.769a.727.727 0 00-1.454 0v3.77a2.177 2.177 0 00.724 4.23h.004c.342-.002.664-.083.95-.226l-.012.006s0 .004.004.007l4.363 4.364a.727.727 0 101.028-1.028zM16 16.727a.727.727 0 11.727-.727.728.728 0 01-.727.727z"/></symbol><symbol id="name-icon" viewBox="0 0 32 32"><path d="M16 16c4.42 0 8-3.58 8-8s-3.58-8-8-8-8 3.58-8 8 3.58 8 8 8zm0 4c-5.34 0-16 2.68-16 8v2c0 1.1.9 2 2 2h28c1.1 0 2-.9 2-2v-2c0-5.32-10.66-8-16-8z"/></symbol><symbol id="phone-icon" viewBox="0 0 32 32"><path d="M24.881 19.774l-3.268-.373a2.561 2.561 0 00-2.11.733l-2.367 2.367a19.357 19.357 0 01-8.478-8.478l2.38-2.38a2.561 2.561 0 00.733-2.11l-.373-3.242a2.575 2.575 0 00-2.56-2.277H6.612c-1.454 0-2.663 1.209-2.573 2.663.682 10.987 9.469 19.761 20.443 20.443 1.454.09 2.663-1.119 2.663-2.573v-2.226a2.55 2.55 0 00-2.264-2.547z"/></symbol><symbol id="close-icon" viewBox="0 0 32 32"><path d="M26.667 7.303l-1.97-1.97-7.808 7.808-7.808-7.808-1.97 1.97 7.808 7.808-7.808 7.808 1.97 1.97 7.808-7.808 7.808 7.808 1.97-1.97-7.808-7.808 7.808-7.808z"/></symbol><symbol id="calculator" viewBox="0 0 32 32"><path d="M4.286 2.665v26.653a2.668 2.668 0 002.665 2.665h18.124a2.668 2.668 0 002.665-2.665V2.665A2.668 2.668 0 0025.075 0H6.951a2.669 2.669 0 00-2.665 2.665zm1.066 0a1.6 1.6 0 011.599-1.599h18.124a1.6 1.6 0 011.599 1.599v26.653a1.6 1.6 0 01-1.599 1.599H6.951a1.6 1.6 0 01-1.599-1.599z"/><path d="M7.484 10.128h17.058a.533.533 0 00.533-.533V3.731a.533.533 0 00-.533-.533H7.484a.533.533 0 00-.533.533v5.864c0 .294.239.533.533.533zm.533-5.863h15.992v4.798H8.017zm10.129 6.929h-4.265a.533.533 0 00-.533.533v4.265c0 .294.239.533.533.533h4.265a.533.533 0 00.533-.533v-4.265a.533.533 0 00-.533-.533zm-.533 4.265h-3.199v-3.198h3.199zm6.93-4.265h-4.265a.533.533 0 00-.533.533v4.265c0 .294.239.533.533.533h4.265a.533.533 0 00.533-.533v-4.265a.533.533 0 00-.533-.533zm-.534 4.265H20.81v-3.198h3.199zM7.484 16.525h4.265a.533.533 0 00.533-.533v-4.265a.533.533 0 00-.533-.533H7.484a.533.533 0 00-.533.533v4.265c0 .294.239.533.533.533zm.533-4.264h3.198v3.198H8.017zm10.129 5.33h-4.265a.533.533 0 00-.533.533v4.265c0 .294.239.533.533.533h4.265a.533.533 0 00.533-.533v-4.265a.533.533 0 00-.533-.533zm-.533 4.265h-3.199v-3.198h3.199zm6.93-4.265h-4.265a.533.533 0 00-.533.533v10.661c0 .294.239.533.533.533h4.265a.533.533 0 00.533-.533V18.124a.533.533 0 00-.533-.533zm-.534 10.662H20.81v-9.595h3.199zM7.484 22.922h4.265a.533.533 0 00.533-.533v-4.265a.533.533 0 00-.533-.533H7.484a.533.533 0 00-.533.533v4.265c0 .294.239.533.533.533zm.533-4.265h3.198v3.198H8.017zm10.129 5.331h-4.265a.533.533 0 00-.533.533v4.264c0 .294.239.533.533.533h4.265a.533.533 0 00.533-.533v-4.264a.533.533 0 00-.533-.533zm-.533 4.265h-3.199v-3.199h3.199zM7.484 29.319h4.265a.533.533 0 00.533-.533v-4.264a.533.533 0 00-.533-.533H7.484a.533.533 0 00-.533.533v4.264c0 .294.239.533.533.533zm.533-4.265h3.198v3.198H8.017z"/><path d="M21.877 6.93h1.066v1.066h-1.066zm-2.132 0h1.066v1.066h-1.066zm-2.132 0h1.066v1.066h-1.066z"/></symbol><symbol id="leader" viewBox="0 0 32 32"><path d="M29.656 12.188h-6.604a2.33 2.33 0 00-1.406.47 2.346 2.346 0 00-2.344-2.345h-6.604a2.347 2.347 0 00-2.344 2.344 2.336 2.336 0 00-1.406-.469H2.344A2.347 2.347 0 000 14.532v7.626a1.408 1.408 0 001.875 1.325v6.866c0 .91.741 1.651 1.651 1.651s1.651-.741 1.651-1.651a.469.469 0 00-.938 0 .714.714 0 01-1.427 0V14.531a.469.469 0 00-.938 0v7.626a.469.469 0 01-.938 0v-7.626c0-.775.631-1.406 1.406-1.406h6.604c.775 0 1.406.631 1.406 1.406v7.657c0 .249-.202.438-.469.438s-.469-.188-.469-.438v-7.657a.469.469 0 00-.938 0v15.818a.714.714 0 01-1.427 0v-8.192a.469.469 0 00-.469-.469H4.705a.469.469 0 00-.469.469v6.317a.469.469 0 00.938 0v-5.848h.938v7.723c0 .91.741 1.651 1.651 1.651s1.651-.741 1.651-1.651v-6.862c.146.049.304.076.469.076.668 0 1.213-.433 1.364-1.034a1.398 1.398 0 00.98.015v7.804c0 .91.741 1.651 1.651 1.651s1.651-.741 1.651-1.651v-8.661h.938v8.661c0 .91.741 1.651 1.651 1.651s1.651-.741 1.651-1.651v-7.799a1.473 1.473 0 00.989-.018 1.408 1.408 0 001.824.951v6.866c0 .91.741 1.651 1.651 1.651s1.651-.741 1.651-1.651v-7.723h.938v7.723c0 .91.741 1.651 1.651 1.651s1.651-.741 1.651-1.651v-6.862c.146.049.304.076.469.076.789 0 1.406-.604 1.406-1.375V14.53a2.347 2.347 0 00-2.344-2.344zm-8.948 9.063c0 .249-.202.438-.469.438s-.469-.188-.469-.438v-8.594a.469.469 0 00-.938 0V30.35a.714.714 0 01-1.427 0v-9.13a.469.469 0 00-.469-.469h-1.875a.469.469 0 00-.469.469v9.13a.714.714 0 01-1.427 0V12.657a.469.469 0 00-.938 0v8.563a.469.469 0 01-.938 0v-8.563c0-.775.631-1.406 1.406-1.406h6.604c.775 0 1.406.631 1.406 1.406zm10.355.937c0 .249-.202.438-.469.438s-.469-.188-.469-.438v-7.657a.469.469 0 00-.938 0v15.818a.714.714 0 01-1.427 0v-8.192a.469.469 0 00-.469-.469h-1.875a.469.469 0 00-.469.469v8.192a.714.714 0 01-1.427 0V14.531a.469.469 0 00-.938 0v7.626a.469.469 0 01-.938 0v-7.626c0-.775.631-1.406 1.406-1.406h6.604c.775 0 1.406.631 1.406 1.406zM26.334 11.25c1.809 0 3.281-1.472 3.281-3.281s-1.472-3.281-3.281-3.281-3.281 1.472-3.281 3.281 1.472 3.281 3.281 3.281zm0-5.625c1.292 0 2.344 1.051 2.344 2.344s-1.051 2.344-2.344 2.344-2.344-1.051-2.344-2.344 1.051-2.344 2.344-2.344zM5.666 11.25c1.809 0 3.281-1.472 3.281-3.281S7.475 4.688 5.666 4.688 2.385 6.16 2.385 7.969s1.472 3.281 3.281 3.281zm0-5.625c1.292 0 2.344 1.051 2.344 2.344s-1.051 2.344-2.344 2.344-2.344-1.051-2.344-2.344 1.051-2.344 2.344-2.344zm10.355 3.75c1.809 0 3.281-1.472 3.281-3.281s-1.472-3.281-3.281-3.281-3.281 1.472-3.281 3.281 1.472 3.281 3.281 3.281zm0-5.625c1.292 0 2.344 1.051 2.344 2.344s-1.051 2.344-2.344 2.344-2.344-1.051-2.344-2.344 1.051-2.344 2.344-2.344zm0-1.875c.259 0 .469-.21.469-.469V.468a.469.469 0 00-.938 0v.938c0 .259.21.469.469.469zm-2.75.394a.47.47 0 00.812-.468l-.469-.812a.47.47 0 00-.812.468zm4.859.171a.468.468 0 00.64-.172l.469-.812a.468.468 0 10-.812-.468l-.469.812a.468.468 0 00.172.64z"/></symbol><symbol id="leader-1" viewBox="0 0 32 32"><path d="M7.443 9.072a2.975 2.975 0 10.001-5.951 2.975 2.975 0 00-.001 5.951zm0-4.96a1.984 1.984 0 110 3.967 1.984 1.984 0 010-3.967zm-.497 17.362h.992v9.425h-.992z"/><path d="M30.994 4.608h-5.693V2.624H17.86v-.248a1.24 1.24 0 10-2.48 0v7.689H4.467a3.476 3.476 0 00-3.472 3.472v4.961a2.483 2.483 0 002.48 2.48h.496v9.921h.992V13.041h-.992v6.945h-.496a1.488 1.488 0 01-1.488-1.488v-4.961a2.483 2.483 0 012.48-2.48H17.86v.496c0 .822-.666 1.488-1.488 1.488H9.923v17.858h.992V14.033h4.464v16.866h2.48V13.524c.622-.464.99-1.194.992-1.971v-1.488h-.992V8.577h4.961v1.984h8.174l-1.19-2.976zM16.868 29.907h-.496V14.033c.167 0 .333-.016.496-.049zm0-19.843h-.496V2.375a.248.248 0 11.496 0zm.992-6.448h6.449v3.968H17.86zm11.668 5.952h-5.716v-.992H25.3V5.6h4.228l-.794 1.984z"/></symbol><symbol id="protest" viewBox="0 0 32 32"><path d="M7.875 10.375v2.88a2.485 2.485 0 00-1.438 1.302l-1.235 2.648a4.37 4.37 0 00.957 5.026l3.59 3.399v5.744c0 .345.28.625.625.625h2.813a.625.625 0 000-1.25h-2.188v-5.388a.627.627 0 00-.195-.454l-3.785-3.584a3.122 3.122 0 01-.684-3.59l1.235-2.648a1.25 1.25 0 011.662-.605l6.174 2.879a3.13 3.13 0 01-3.832.972l-1.699-.793a.625.625 0 10-.529 1.133l1.699.793a4.342 4.342 0 002.288.386 7.635 7.635 0 012.042 5.219.625.625 0 001.25 0 8.872 8.872 0 00-1.951-5.576 4.359 4.359 0 002.186-2.146l.001-.002a2.492 2.492 0 002.505-.278 2.502 2.502 0 003.336 1.188c-.172 1.122-.452 2.145-.741 3.204-.472 1.725-.96 3.509-.96 5.79v3.5h-2.188a.625.625 0 000 1.25h2.813c.345 0 .625-.28.625-.625v-4.125c0-2.113.445-3.739.915-5.46.472-1.725.96-3.509.96-5.79v-3.75c0-1.379-1.122-2.5-2.5-2.5-.558 0-1.074.184-1.49.494a2.504 2.504 0 00-2.26-1.432c-.558 0-1.074.184-1.49.494a2.504 2.504 0 00-2.26-1.432c-.746 0-1.417.329-1.875.849a2.494 2.494 0 00-1.875-.849 2.502 2.502 0 00-2.5 2.5zm12.5 1.875c0-.689.561-1.25 1.25-1.25s1.25.561 1.25 1.25V16c0 .689-.561 1.25-1.25 1.25s-1.25-.561-1.25-1.25zm-3.75-.937c0-.689.561-1.25 1.25-1.25s1.25.561 1.25 1.25v3.75c0 .689-.561 1.25-1.25 1.25s-1.25-.561-1.25-1.25zm-3.75-.938c0-.689.561-1.25 1.25-1.25s1.25.561 1.25 1.25v4.688c0 .356.075.695.21 1.002l-2.71-1.264zm-3.75 0c0-.689.561-1.25 1.25-1.25s1.25.561 1.25 1.25v3.843l-1.865-.87a2.518 2.518 0 00-.635-.199zm7.5-7.5V.625a.625.625 0 00-1.25 0v2.25a.625.625 0 001.25 0zm-5.938 2.049a.626.626 0 00.229-.854l-.938-1.624a.626.626 0 00-1.083.625l.938 1.624a.625.625 0 00.854.229zM5.632 7.959l-1.624-.938a.625.625 0 10-.625 1.083l1.624.938a.625.625 0 00.625-1.083zm16.534-3.264l.938-1.624a.625.625 0 10-1.083-.625l-.938 1.624a.625.625 0 101.083.625zm4.826 4.346l1.624-.938a.626.626 0 00-.625-1.083l-1.624.938a.626.626 0 00.625 1.083z"/><path d="M16.625 31.375a.625.625 0 11-1.25 0 .625.625 0 011.25 0z"/></symbol><symbol id="color-palette" viewBox="0 0 32 32"><path d="M10.432 15.513c1.384 0 2.51-1.126 2.51-2.51s-1.126-2.51-2.51-2.51-2.51 1.126-2.51 2.51 1.126 2.51 2.51 2.51zm0-4.082c.867 0 1.572.705 1.572 1.572s-.705 1.572-1.572 1.572-1.572-.705-1.572-1.572.705-1.572 1.572-1.572zm5.526 1.455c1.35 0 2.449-1.099 2.449-2.449s-1.099-2.449-2.449-2.449-2.449 1.099-2.449 2.449 1.099 2.449 2.449 2.449zm0-3.96c.833 0 1.511.678 1.511 1.511s-.678 1.511-1.511 1.511-1.511-.678-1.511-1.511.678-1.511 1.511-1.511zm-4.519 18.479c1.35 0 2.449-1.099 2.449-2.449s-1.099-2.449-2.449-2.449-2.449 1.099-2.449 2.449 1.099 2.449 2.449 2.449zm0-3.96c.833 0 1.511.678 1.511 1.511s-.678 1.511-1.511 1.511-1.511-.678-1.511-1.511.678-1.511 1.511-1.511zm5.767 5.81c1.35 0 2.449-1.099 2.449-2.449s-1.099-2.449-2.449-2.449-2.449 1.099-2.449 2.449 1.099 2.449 2.449 2.449zm0-3.96c.833 0 1.511.678 1.511 1.511s-.678 1.511-1.511 1.511-1.511-.678-1.511-1.511.678-1.511 1.511-1.511zM5.309 19.183c0 1.576 1.282 2.858 2.858 2.858s2.858-1.282 2.858-2.858-1.282-2.858-2.858-2.858-2.858 1.282-2.858 2.858zm2.858-1.921c1.059 0 1.92.861 1.92 1.92s-.861 1.92-1.92 1.92-1.92-.861-1.92-1.92.861-1.92 1.92-1.92z"/><path d="M2.884 18.691c0 7.071 6.092 12.446 13.2 12.879l.029.001a.468.468 0 00.028-.936c-6.908-.421-12.32-5.667-12.32-11.943 0-7.111 6.771-12.598 14.508-11.897.352.367.785.661 1.238.876a1.11 1.11 0 00.014.519l.928 3.412a1.003 1.003 0 00-.205.913l.221.812c.134.495.629.811 1.134.724l.438 1.896c-1.583.721-2.449 1.687-2.449 2.745 0 1.062.885 2.044 2.492 2.765a4.486 4.486 0 011.471 1.046c.516 2.263.674 2.982 1.052 4.12-.35 1.526-1.396 2.696-2.887 3.221a14.406 14.406 0 01-3.518.763.469.469 0 10.082.934 15.351 15.351 0 003.747-.812 5.386 5.386 0 003.082-2.738c.627 1.538 1.198 2.488 1.729 3.415a1.187 1.187 0 002.217-.603c-.016-1.57.025-3.931-1.078-7.448a.47.47 0 00-.895.281c1.036 3.301 1.018 5.491 1.035 7.177a.25.25 0 01-.466.126c-1.972-3.439-2.221-4.46-3.215-8.764l-1.931-8.365 1.377-.374 2.545 8.112a.47.47 0 00.895-.281l-1.709-5.449c2.583-1.046 3.305-4.515 1.094-6.446a14.178 14.178 0 00-3.019-2.011l-.077-.282a1.095 1.095 0 00-.251-.455c.473-.699.945-1.779.602-3.044-.33-1.214-1.142-1.682-2-2.178-.521-.301-1.06-.612-1.579-1.129a.902.902 0 00-1.521.413c-.186.709-.494 1.25-.791 1.773-.495.872-1.098 1.887-.459 3.353-7.957-.343-14.788 5.429-14.788 12.88zm20.381 2.311a5.659 5.659 0 00-.741-.401c-1.232-.553-1.938-1.249-1.938-1.91 0-.629.622-1.275 1.727-1.811zm2.886-10.925c1.659 1.449 1.124 4.034-.759 4.843l-.545-1.737c.49-.188.743-.713.611-1.198l-.221-.812a1.003 1.003 0 00-.639-.683l-.513-1.888a13.09 13.09 0 012.065 1.475zm-1.895 1.297a.063.063 0 01.077.044l.221.812a.063.063 0 01-.044.077l-3.003.816a.062.062 0 01-.077-.044l-.221-.812a.064.064 0 01.044-.077zm-.607-.806l-2.28.62-.882-3.245a.158.158 0 01.11-.192l1.978-.538a.157.157 0 01.192.11l.882 3.245zm-4.703-7.646c.305-.537.65-1.145.87-1.951.595.583 1.201.933 1.737 1.242.776.448 1.336.771 1.564 1.612.279 1.028-.202 1.924-.6 2.45-.06.005-.131.018-.189.034l-1.978.538c-.06.016-.129.042-.18.066-.829-.34-1.521-.936-1.758-1.808-.229-.841.091-1.404.533-2.182z"/></symbol><symbol id="brain" viewBox="0 0 32 32"><path d="M19.125 5.188a.625.625 0 100 1.25.625.625 0 000-1.25zm-6.25 0a.625.625 0 100 1.25.625.625 0 000-1.25z"/><path d="M29.57 18.68c.536-.805.805-1.81.805-2.68a4.342 4.342 0 00-1.583-3.358A4.231 4.231 0 0029.125 11c0-1.741-1.016-3.363-2.527-4.12a3.746 3.746 0 00-2.845-4.088C23.035 1.131 21.436 0 19.75 0 18.181 0 16.773.915 16 2.251 15.227.915 13.819 0 12.25 0c-1.686 0-3.285 1.131-4.003 2.792A3.745 3.745 0 005.402 6.88c-1.51.757-2.527 2.379-2.527 4.12 0 .563.112 1.113.333 1.642A4.342 4.342 0 001.625 16a5 5 0 00.805 2.68 4.336 4.336 0 00-.805 2.507c0 1.163.472 2.272 1.306 3.095C2.502 26.875 4.57 29.5 7.25 29.5l.057-.001A5.012 5.012 0 0011.625 32c1.855 0 3.514-1.114 4.375-2.718.861 1.605 2.52 2.718 4.375 2.718 1.78 0 3.429-.968 4.318-2.501l.057.001c2.372 0 4.375-2.089 4.375-4.563a3.96 3.96 0 00-.056-.655 4.344 4.344 0 001.306-3.095c0-.897-.283-1.771-.805-2.507zM15.375 9.461a2.489 2.489 0 00-1.25-.336.625.625 0 000 1.25c.689 0 1.25.561 1.25 1.25v11.886a4.99 4.99 0 00-3.75-1.698.625.625 0 000 1.25 3.754 3.754 0 013.75 3.75c0 2.134-1.717 3.938-3.75 3.938a3.762 3.762 0 01-3.394-2.18.626.626 0 00-.638-.358l-.132.017c-1.779.243-3.782-1.771-3.24-4.024a.626.626 0 00-.208-.627 3.11 3.11 0 01-1.139-2.391c0-.567.16-1.122.459-1.608.75.614 1.682.983 2.666.983a.625.625 0 000-1.25c-1.696 0-3.125-1.548-3.125-3.313 0-1.07.546-2.055 1.46-2.634a.624.624 0 00.209-.836A3.075 3.075 0 014.124 11c0-1.687 1.375-3.313 3.125-3.313 1.665 0 3.125 1.548 3.125 3.313a.625.625 0 001.25 0c0-2.473-2.003-4.563-4.375-4.563-.209 0-.417.017-.623.049l-.002-.049a2.499 2.499 0 014.268-1.768.625.625 0 00.884-.884 3.717 3.717 0 00-2.073-1.053c.551-.818 1.468-1.482 2.546-1.482 1.665 0 3.125 1.548 3.125 3.313v4.899zM26 20.563c.984 0 1.917-.369 2.666-.983.298.486.459 1.041.459 1.608 0 .917-.415 1.788-1.139 2.391a.624.624 0 00-.208.627c.066.275.097.508.097.733 0 1.94-1.755 3.508-3.337 3.292a5.953 5.953 0 00-.132-.017.624.624 0 00-.637.358 3.762 3.762 0 01-3.394 2.18c-2.033 0-3.75-1.803-3.75-3.938a3.754 3.754 0 013.75-3.75.625.625 0 000-1.25 4.99 4.99 0 00-3.75 1.698V11.626c0-.689.561-1.25 1.25-1.25a.625.625 0 000-1.25c-.455 0-.882.123-1.25.336V4.563c0-1.765 1.46-3.313 3.125-3.313 1.078 0 1.995.664 2.546 1.482a3.724 3.724 0 00-2.073 1.053.625.625 0 10.883.884 2.499 2.499 0 014.266 1.817 4.057 4.057 0 00-.623-.049c-2.372 0-4.375 2.089-4.375 4.562a.625.625 0 001.25 0c0-1.765 1.46-3.313 3.125-3.313 1.749 0 3.125 1.625 3.125 3.313 0 .525-.141 1.04-.419 1.53a.625.625 0 00.209.836 3.108 3.108 0 011.459 2.634c0 1.771-1.434 3.313-3.125 3.313a.625.625 0 000 1.25z"/><path d="M13.966 13.378a.626.626 0 00-.883-.049c-2.004 1.793-5.208.36-5.208-2.329a.625.625 0 00-1.25 0 4.38 4.38 0 003.662 4.316A1.879 1.879 0 018.5 16.625a.625.625 0 000 1.25 3.13 3.13 0 003.069-2.538 4.373 4.373 0 002.348-1.077.626.626 0 00.049-.883zM7.25 24.313a.625.625 0 000 1.25c1.665 0 3.125 1.548 3.125 3.313a.625.625 0 001.25 0c0-2.473-2.003-4.563-4.375-4.563zm5-5a5.614 5.614 0 00-4.894 2.851.625.625 0 001.088.617 4.365 4.365 0 013.806-2.217.625.625 0 000-1.25zm11.25-2.688a1.879 1.879 0 01-1.788-1.309A4.38 4.38 0 0025.375 11a.625.625 0 00-1.25 0A3.129 3.129 0 0121 14.125a3.12 3.12 0 01-2.083-.796.626.626 0 00-.834.932 4.373 4.373 0 002.348 1.077 3.13 3.13 0 003.069 2.538.625.625 0 000-1.25zm1.25 7.688c-2.372 0-4.375 2.089-4.375 4.563a.625.625 0 001.25 0c0-1.765 1.46-3.313 3.125-3.313a.625.625 0 000-1.25zm-.106-2.15a5.613 5.613 0 00-4.894-2.851.625.625 0 000 1.25c1.644 0 3.06.901 3.806 2.217a.625.625 0 101.088-.616z"/></symbol><symbol id="profile" viewBox="0 0 32 32"><path d="M12 13.333c-3.676 0-6.667-2.991-6.667-6.667S8.324-.001 12-.001s6.667 2.991 6.667 6.667-2.991 6.667-6.667 6.667zm0-12c-2.941 0-5.333 2.392-5.333 5.333S9.059 11.999 12 11.999s5.333-2.392 5.333-5.333S14.941 1.333 12 1.333zM11.333 28H.666a.667.667 0 01-.667-.667V22c0-3.308 2.692-6 6-6h8a.667.667 0 010 1.334h-8a4.672 4.672 0 00-4.667 4.667v4.667h10a.667.667 0 010 1.334zm11.334-1.333c-1.837 0-3.333-1.496-3.333-3.333s1.496-3.333 3.333-3.333S26 21.497 26 23.334s-1.496 3.333-3.333 3.333zm0-5.334c-1.103 0-2 .897-2 2s.897 2 2 2 2-.897 2-2-.897-2-2-2z"/><path d="M23.729 32h-2.127a1.329 1.329 0 01-1.327-1.201l-.169-1.695a6.242 6.242 0 01-1.153-.671l-1.557.703a1.327 1.327 0 01-1.703-.549l-1.063-1.841a1.33 1.33 0 01.376-1.749l1.372-.987c-.027-.207-.045-.436-.045-.676s.019-.471.045-.676l-1.372-.987a1.33 1.33 0 01-.376-1.749l1.063-1.841a1.329 1.329 0 011.703-.549l1.557.703a6.242 6.242 0 011.153-.671l.169-1.695c.068-.684.639-1.2 1.327-1.2h2.127c.688 0 1.259.516 1.327 1.201l.169 1.695a6.2 6.2 0 011.153.671l1.557-.703a1.332 1.332 0 011.703.549l1.063 1.841a1.33 1.33 0 01-.376 1.749l-1.372.987c.027.207.045.436.045.676s-.019.471-.045.676l1.372.987a1.33 1.33 0 01.376 1.749l-1.061 1.84a1.328 1.328 0 01-1.703.549l-1.557-.703a6.242 6.242 0 01-1.153.671l-.171 1.696a1.329 1.329 0 01-1.327 1.2zm-4.682-5.007c.153 0 .305.053.428.156.452.379.952.668 1.484.863.24.088.409.305.435.56l.211 2.095h2.127l.209-2.095a.667.667 0 01.435-.56 4.988 4.988 0 001.484-.863.666.666 0 01.701-.096l1.925.869 1.063-1.841-1.704-1.224a.67.67 0 01-.268-.657c.049-.281.089-.568.089-.864s-.04-.583-.089-.864a.668.668 0 01.268-.657l1.704-1.224-1.063-1.841-1.925.868a.67.67 0 01-.703-.096 4.918 4.918 0 00-1.484-.863.668.668 0 01-.435-.56L23.73 16h-2.127l-.209 2.095a.667.667 0 01-.435.56 4.988 4.988 0 00-1.484.863.661.661 0 01-.701.096l-1.925-.869-1.063 1.841 1.704 1.224a.67.67 0 01.268.657c-.049.281-.089.568-.089.864s.04.583.089.864a.668.668 0 01-.268.657l-1.704 1.224 1.063 1.841 1.925-.868a.702.702 0 01.273-.056z"/></symbol><symbol id="microphone" viewBox="0 0 32 32"><path d="M16.378 17.221l-1.6-1.6a.534.534 0 00-.754 0l-3.2 3.2a.534.534 0 000 .754l1.6 1.6a.534.534 0 00.754 0l3.2-3.2a.534.534 0 000-.754zm-3.577 2.823l-.846-.846.846-.846.846.846-.846.846zm1.6-1.6l-.846-.846.846-.846.846.846-.846.846z"/><path d="M30.851 11.424A7.45 7.45 0 0020.575 1.15l-.463-.463a.534.534 0 00-.754 0l-1.6 1.6a.534.534 0 000 .754l.465.465a7.527 7.527 0 00-1.098 4.759L.141 26.839a.533.533 0 00.017.737l4.267 4.267a.534.534 0 00.737.017l18.574-16.981a7.381 7.381 0 004.763-1.098l.461.461a.534.534 0 00.754 0l1.6-1.6a.534.534 0 000-.754l-.462-.463zm-.773-7.159a6.395 6.395 0 010 6.389l-.001.003-8.731-8.735a6.393 6.393 0 018.732 2.344zM4.817 30.728l-3.546-3.546 14.564-15.931 4.913 4.913L4.817 30.728zm16.717-15.285l-4.978-4.978 1.062-1.163 5.078 5.079-1.162 1.062zm2.084-1.648L18.203 8.38a6.46 6.46 0 01.789-4.103l8.729 8.73a6.454 6.454 0 01-4.103.788zm5.716-.682L18.889 2.664l.846-.846 10.446 10.446-.847.848z"/></symbol><symbol id="price-dollar" viewBox="0 0 32 32"><path d="M27.314 4.686C24.292 1.664 20.274 0 16 0S7.708 1.664 4.686 4.686 0 11.726 0 16s1.664 8.292 4.686 11.314S11.726 32 16 32s8.292-1.664 11.314-4.686S32 20.274 32 16s-1.664-8.292-4.686-11.314zM16 15c2.481 0 4.5 2.019 4.5 4.5a4.508 4.508 0 01-3.27 4.328.314.314 0 00-.23.301v.843c0 .538-.414 1.002-.952 1.027A1 1 0 0115 25v-.871a.314.314 0 00-.229-.301 4.508 4.508 0 01-3.271-4.3c-.003-.545.425-1.012.971-1.027a1 1 0 011.029 1 2.503 2.503 0 002.679 2.494 2.51 2.51 0 002.315-2.315A2.503 2.503 0 0016 17.001a4.505 4.505 0 01-4.5-4.5 4.508 4.508 0 013.27-4.328.314.314 0 00.23-.301v-.843c0-.538.414-1.002.952-1.027A1 1 0 0117 7.001v.871c0 .14.094.262.229.301a4.508 4.508 0 013.271 4.3c.003.545-.425 1.012-.971 1.027a1 1 0 01-1.029-1 2.503 2.503 0 00-2.679-2.494 2.51 2.51 0 00-2.315 2.315A2.503 2.503 0 0016 15z"/></symbol><symbol id="avatar" viewBox="0 0 32 32"><path d="M26.324 24.06l-5.108-1.277-.435-1.739a9.188 9.188 0 002.58-5.119 2.003 2.003 0 001.445-1.677l.333-2.667a1.994 1.994 0 00-1.276-2.115l.123-2.511.499-.5c.751-.799 1.373-2.168.072-4.155-1-1.527-2.699-2.301-5.051-2.301-.928 0-3.064 0-5.053 1.336C8.773 1.454 8 4.092 8 6.666c0 .599.145 1.947.241 2.76a2.001 2.001 0 00-1.381 2.156l.333 2.667a2.006 2.006 0 001.604 1.716 9.254 9.254 0 002.452 4.963l-.464 1.857-5.108 1.277A7.478 7.478 0 000 31.333c0 .368.299.667.667.667h30.667a.67.67 0 00.667-.669 7.483 7.483 0 00-5.676-7.271z"/></symbol><symbol id="map-pin" viewBox="0 0 24 32"><path d="M23.538 11.769c0 6.499-8.877 20.25-11.769 20.25C8.562 32.019 0 18.267 0 11.769 0 5.269 5.269 0 11.769 0s11.769 5.269 11.769 11.769z"/></symbol><symbol id="telegram" viewBox="0 0 32 32"><path d="M31.506 3.179c-.391-.478-.976-.741-1.649-.741a3.24 3.24 0 00-1.151.229L1.619 13.007C.181 13.556-.012 14.379 0 14.821s.252 1.253 1.719 1.719l.026.008 5.619 1.608 3.039 8.689c.414 1.185 1.344 1.92 2.427 1.92.683 0 1.354-.286 1.942-.827l3.475-3.2 5.041 4.059.002.001.048.039a.127.127 0 01.013.011c.56.435 1.172.664 1.769.664 1.167 0 2.097-.864 2.367-2.201l4.438-21.915c.178-.88.029-1.667-.421-2.217zM9.244 17.85l10.84-5.538-6.75 7.172a.933.933 0 00-.228.418l-1.302 5.272zm4.258 8.708c-.045.041-.09.078-.135.112l1.208-4.891 2.197 1.769zM30.089 5.023l-4.438 21.915c-.043.21-.179.698-.53.698-.173 0-.391-.094-.614-.266l-5.712-4.599-.003-.002-3.399-2.737L25.154 9.66a.936.936 0 00-1.109-1.477L7.991 16.385l-5.695-1.629L29.375 4.419c.229-.087.388-.106.482-.106.057 0 .159.007.197.053.05.061.113.268.035.657z"/></symbol><symbol id="facebook" viewBox="0 0 32 32"><path d="M18.478 32V17.404h4.897l.735-5.69h-5.632V8.082c0-1.647.455-2.769 2.82-2.769l3.01-.001V.223C23.787.155 22 0 19.92 0c-4.343 0-7.317 2.651-7.317 7.519v4.196H7.691v5.69h4.912v14.596h5.874z"/></symbol><symbol id="instagram" viewBox="0 0 32 32"><path d="M22 0H10C4.478 0 0 4.478 0 10v12c0 5.522 4.478 10 10 10h12c5.522 0 10-4.478 10-10V10c0-5.522-4.478-10-10-10zm7 22c0 3.86-3.14 7-7 7H10c-3.86 0-7-3.14-7-7V10c0-3.86 3.14-7 7-7h12c3.86 0 7 3.14 7 7v12z"/><path d="M16 8a8 8 0 100 16 8 8 0 000-16zm0 13c-2.756 0-5-2.244-5-5 0-2.758 2.244-5 5-5s5 2.242 5 5c0 2.756-2.244 5-5 5zm9.666-13.6a1.066 1.066 0 11-2.131 0 1.066 1.066 0 012.131 0z"/></symbol><symbol id="viber" viewBox="0 0 32 32"><path d="M30.873 18.524c.955-8.036-.459-13.109-3.008-15.404l.001-.001C23.751-.8 9.855-1.38 4.933 3.295c-2.211 2.287-2.989 5.643-3.075 9.797-.085 4.156-.187 11.941 7.068 14.053h.007l-.007 3.225s-.049 1.307.785 1.569c.955.309 1.387-.297 4.356-3.844 4.965.431 8.779-.556 9.212-.7 1.003-.336 6.676-1.087 7.593-8.872zm-16.316 7.303s-3.143 3.919-4.12 4.936c-.32.331-.671.3-.665-.356 0-.431.024-5.355.024-5.355-6.151-1.763-5.788-8.392-5.721-11.86.067-3.469.701-6.311 2.573-8.224 4.319-4.049 16.501-3.144 19.605-.227 3.795 3.364 2.444 12.868 2.452 13.192-.78 6.499-5.377 6.911-6.223 7.192-.361.12-3.715.983-7.925.701z"/><path d="M16.296 5.729c-.513 0-.513.8 0 .807 3.983.031 7.263 2.807 7.299 7.899 0 .537.787.531.78-.007h-.001c-.043-5.487-3.624-8.668-8.077-8.699z"/><path d="M21.535 13.591c-.012.531.773.556.78.019.065-3.025-1.8-5.517-5.305-5.78-.513-.037-.567.769-.055.807 3.04.231 4.641 2.305 4.58 4.955zm-.84 3.441c-.659-.381-1.329-.144-1.607.231l-.58.751c-.295.381-.845.331-.845.331-4.019-1.063-5.093-5.268-5.093-5.268s-.049-.569.319-.875l.725-.6c.363-.288.592-.981.223-1.663-.987-1.783-1.649-2.397-1.987-2.869-.355-.444-.888-.544-1.443-.244h-.012c-1.153.675-2.416 1.937-2.012 3.237.689 1.371 1.956 5.74 5.993 9.041 1.897 1.561 4.9 3.161 6.175 3.531l.012.019c1.256.419 2.477-.893 3.129-2.081v-.009c.289-.575.193-1.119-.229-1.475-.749-.731-1.88-1.537-2.768-2.056z"/><path d="M17.559 10.805c1.281.075 1.903.744 1.969 2.119.024.537.804.5.78-.037-.085-1.795-1.021-2.795-2.707-2.888-.513-.031-.561.776-.043.807z"/></symbol></defs></svg>