<svg width="537" height="50" fill="none" xmlns="http://www.w3.org/2000/svg"><g clip-path="url(#clip0)" fill="#fff"><path d="M13.89 33.33c-1.167.12-2.167-.696-1.724-1.048-2.398.92-2.416-.19-2.77 1.719-1.548.86-3.14-.413-1.389-1.143l-4.423 1.057 2.654.352c-.752 1.548-4.185-.558-5.06 1.247l4.76-.052-.249.516c1.097-.541 3.194-.258 3.92 0-.115.25-.053.67-.885.705 5.742.232 1.61-2.708 6.388-3.13a2.775 2.775 0 01-1.221-.223zm4.794 3.93l2.044-1.918 3.353.576c.053-.679 2.513-1.178.885-1.805a4.005 4.005 0 01-1.486.215c.407-1.453 4.485-.636 3.538-2.14-2.654.334-3.07 0-4.733 1.16a15.35 15.35 0 01-5.308-1.118c-.726.207-.885 1.1-1.77 1.264.204 0 .39-.043.62-.043l.053 2.2c.778-.446 1.495-.214 2.353-.24l-4.079 2.485c1.23 2.089 5.123.954 6.654 1.848-1.85-1.917 1.575-.894-2.124-2.485zm290.351-14.693a1.29 1.29 0 00.741-.241c.214-.155.373-.371.453-.619l-8.9.112a4.28 4.28 0 001.166-1.2c.303-.47.508-.994.603-1.542-.752.25-1.389.98-1.769 2.742h-.522c.301.576 3.017 1.273 1.203 1.634.814.636 3.273.069 3.619-.714l-.673.86c2.159-1.143 3.654 1.057 2.247 1.72h.186l5.963-4.385c-2.185-.19-1.663 1.556-4.317 1.633zm192.021-.49a4.7 4.7 0 001.213-.662c-1.213.241-1.363.448-1.213.662zm-186.288-2.124l1.867-1.375a6.372 6.372 0 00-1.867 1.375zm-12.872 20.779a.383.383 0 000 .233l.885-.697c-.345.138-.619.31-.885.464zm-25.489 7.928l4.185-1.333c-.549.627 1.468.43.592 1.16.319-.103 1.814-.352 1.407-.67l-.885.043c2.203-1.814.885-2.502 4.513-3.895-2.283-1.057-3.274-.077-4.468.748a9.865 9.865 0 01-1.097.258l-3.477 2.536-.77 1.152zm167.816-15.604l-.045.146a.204.204 0 00.038-.069.202.202 0 00.007-.077z"/><path d="M444.011 33.777l.168-.576c-.222.327-1.071.585-.168.576zM314.079 21.123a2.47 2.47 0 01.681-1.17l-1.398 1.032c.241.034.48.08.717.138zm-3.151 3.963l-3.539.284-1.274.946c1.345-.361 2.92-.62 4.813-1.23zm4.919-1.126c-.433.36-.761.464-1.194.86.303-.128.613-.24.929-.336.265-.198.451-.37.265-.524zm-1.504-2.21l.229-.516c-.185-.06-.317-.069-.484-.112a.503.503 0 00.008.36.52.52 0 00.247.268zm65.489 2.683l.699-.284c-.424.026-.601.137-.699.284zm-59.737-.689zM45.74 37.492c-.186-.06-.407-.12-.584-.19.175.11.376.176.584.19zm171.691 2.449l-1.124-.077c.371.064.747.09 1.124.077zm-25.18 7.17l-1.637.499a3.475 3.475 0 001.637-.499zM59.1 37.87h.054l.257-.112-.31.112zm82.721 3.817a3.296 3.296 0 00-.884-.481c.017.214.353.37.884.481zm50.732 5.33h-.098l-.204.138.302-.138zm35.954-.687c.239-.078.46-.13.717-.224a1.87 1.87 0 00-.717.223zm-1.583-6.199c.242-.04.477-.113.699-.215l-.699.215zm38.769 4.169l1.513-.318a3.825 3.825 0 00-1.513.318zm-34.779-2.742c.088-.092.165-.193.229-.301-.229.069-.299.198-.229.3zM36.274 30.811h.098l.045-.249-.143.25zm-3.715 3.112l-1.327.155c.448.03.898-.023 1.327-.155zm87.383 4.041c-.398-.318-1.336-.705-.885-1.066-.779.456-.734 1.556.885 1.066zm10.794-17.709c-.053-.301-.221-.361-.452-.318a.687.687 0 00.452.318zM30.169 33.709c-.248.516-6.034 1.53-1.194 1.9-.222 1.616-3.123.679-4.424 1.057.929.396-.487 1.032-.221 1.616a5.442 5.442 0 012.477-.455c.469.756-1.15 1.22-2.398.92 1.531.86-1.99 1.246.186 1.951 4.69-.481 8.016-.997 11.351-3.31-2.654.344-5.67.766-7.847.07l.955-1.385c2.442 1.281 3.99.395 6.415.567l-5.442-.86c-2.539-1.22-.822-1.452 1.204-1.667-.496-.06-.947-.155-1.062-.404zm3.921-12.216L34 21.45c-.082.036-.16.082-.23.137l.319-.094zm216.527 24.603a.574.574 0 00.08.19c.246-.078.132-.147-.08-.19zm-53.615-24.982c.135.174.289.332.461.473.106-.095 0-.284-.461-.473zm11.184 2.098c.065.055.133.107.203.154l-.203-.154zm-85.669 21.106c.443.023.888.003 1.327-.06a4.15 4.15 0 00-1.327.06zM179.91 28.13l.346-.155-.204-.069-.142.224zm-5.83-1.067c.156-.134.29-.29.398-.464-2.088.576-5.91-.077-6.37 1.41.708 0 4.371.86 3.734 1.72 1.46-.37 3.601.687 4.423.447-2.38-.86-.256-1.264 1.363-1.72 1.46.439-.283 1.195.973 1.479l3.397-.146-2.955-.215.885-1.427-.301.129c-5.016.627-.433-2.115-5.547-1.213zm.397-.464c.288-.069.561-.188.805-.353a.992.992 0 00-.447.082.955.955 0 00-.358.27zm-20.383-2.528a8.049 8.049 0 00-.885.224c.168-.026.558-.086.885-.224zm146.563 1.866l2.61.327.336-.164c-.089-.42-3-1.272-2.946-.163zM98.444 29.978c.323.04.648.054.973.043.069-.051.13-.109.186-.172-.194-.164-.84.034-1.159.129zm72.495.282c.344-.076.654-.256.885-.515a1.592 1.592 0 00-.885.516zm-72.646-2.904c-.408-.318-1.01-.808-1.089-1.23-.884 0-1.45.55-2.309.74a6.619 6.619 0 013.398.49zm123.552-2.133a.876.876 0 00-.043.215.208.208 0 00.053-.101.21.21 0 00-.01-.114z"/><path d="M509.409 27.76c0-.68 1.07-.594 1.495-.963-.283-1.255-2.017.92-4.114.051l3.415-1.616-1.982-1.117L516 20.546c-6.529-.697-9.369 4.11-14.722 2.579.823-.421 0-.73-.221-1.04-1.672.67-3.689.713-4.698 1.573h-2.654c0-.68 1-2.373 3.742-2.416-9.599.155-16.863 3.757-26.542 2.751-.415-.31 1.274-.438.54-.636-1.106.378-2.831.8-3.22 1.17.1-.2.256-.37.45-.488s.418-.182.647-.183c-4.981.79-7.671-1.221-10.865-.138-.194-.86 2.442-.61 2.026-.911-4.936-.576-7.44 2.072-12.386 2.158 1.61-1.213-1.123-1.187-2.477-1.857-4.052 1.134-12.705 1.564-18.854 2.501 1.557-2.991-6.865.06-7.423-2.45-1.371 0-3.494.49-3.627 1.436.752-.482 2.654.25 2.389.774-2 .215-5.061.335-5.309 1.538l-2.565-1.117a2.314 2.314 0 01-.735 1.463 2.44 2.44 0 01-1.539.643c-3.097-2.338.363 1.72-4.017.447a10.972 10.972 0 002.15-2.553c-2.105-.198-1.814.37-3.3.645-.495-.731 1.442-2.055 3.035-2.58l-2.681-.644c-2.583 1.53-7.078 3.697-11.298 3.301.672-.86 2.035-.903.885-2.098-1.77.37-4.185 2.072-6.583 1.281.328-.103.115-.258.443-.37-4.167 1.376-3.159-.3-6.963-.403.042-.155.102-.305.177-.447l-2.3.928c-4.831 2.253-5.441-1.35-8.37-2.184l.637-.214c-1.84-1.41-7.697.068-9.369-.508 2.079.86.699.86 2.238 2.399 1.814-.361 1.239-2.192 4.282-1.625-.371 1.47-4.193 2.046-4.972 3.207-1.699.103-2.884-2.201-3.061-3.035-4.229.275-6.627-.524-11.811.052-1.84 1.04-3.229 4.186-7.591 2.235l.141-.301c-.424.507-2.096-.361-2.875.3 1.513 1.522-1.849 1.041 0 2.46-2.539.154-2.982-1.943-3.247-3.199-1.769 2.141-5.025-1.057-8.847.198.681-.86 4.901-1.143 3.149-2.14l-4.954 2.501 2.212-.043c-3.752 1.668-4.84-.232-7.078-.86-.434-.627 1-.86 2.07-.86a13.187 13.187 0 00-4.521.714c-1.132.68-5.096 1.548-6.679 2.7l-.646-.12a.549.549 0 01.292-.284c-.279.04-.554.1-.823.18l-1.964-.326.398-.301-.77.24-2.079-.292-1.053.507.522.06c-.186 1.625-2.654 2.872-5.609 2.7.195.077 1.769.258 3.964.49l-.735.542-9.307-.86a8.294 8.294 0 013.45-.447c-3.096-1.72-7.856.946-9.342-1.264 4.733-1.951 7.007-.86 11.997-1.607 2.574 1.642-3.203 1.031-3.362 1.977l2.84.43c-.39-.998 5.511-.654 4.025-2.855a149.866 149.866 0 00-17.748-.937l5.088-11.339a.839.839 0 01.115-.37h.053l-.168.37c0 .137.115.198.274.206.23 1.943 5.149-.498 3.804 2.58 1.177-1.05 2.398-1.72 3.468-2.709a5.427 5.427 0 011.77-.541c-.522.86-1.478 1.65-1.672 2.295-.664.196-1.346.33-2.035.404 2.831.439 5.308 2.339 4.485 3.482 5.309-1.126 1.274-3.55 3.814-4.677.442 1.72 1.318 3.035 1.176 4.402 1.708-.559 4.052 1.358 5.494-.344l.115.963c1.699-3.61 5.167-.645 6.061-4.393l1.008 2.046c2.584-.31 2.177-4.144 3.389-5.03 1.035-.12 2.3-.524 3.388-.18-1.627 1.092-1.38 1.806-.495 2.416l-1.769 1.28.265-.317-.575-.413-.416 1.264-2.911 2.158a5.483 5.483 0 011.549-.525c1.203 1.625 1.84 1.427-.23 2.983 2.043-.86 1.247-2.192 4.317-2.286-1.194.86-1.477 2.725 1.469 2.888a28.205 28.205 0 005.742-2.072c1.459-.154 3.362-1.848 5.388-1.72.102.051.209.094.318.13l-.044 1.023c-.372.61-.699 1.109 1.867.533-.319.095-.115.258-.434.352 2.592.955 3.61-.722 5.83-.765 1.345.68-2.158 1.144-.884 1.41 2.769-.679 8.732.74 8.511-1.874 1.442-.146 1.999.103 2.424.438 0 .757-.557 1.29-1.327 1.72 3.238-1.401 7.078.163 9.52-2.261h.734c.504.36 1.831.327 2.698.86a4.9 4.9 0 01.23-1.342 1.41 1.41 0 00.292-.352 12.906 12.906 0 013.973-1.59l-.124.085a22.092 22.092 0 014.875-.137c.261.081.513.188.752.318l-.947 1.075c5.848.765 8.6-5.623 14.925-2.726 1.124.86-1.274 3.06 1.08 3.027 1.176-1.35.885-4.23 3.848-3.353l-.274 2.458 2.106-2.424c-.982-2.072-4.335-1.444-1.938-3.662 2.61 2.373 2.398-2.21 5.565.576-.761.232-1.769 2.089-2.353 3.06 6.715 3.095 9.59-2.14 16.385 1.152 3.495-1.857 7.918-2.123 10.351-3.851-.274 2.459-.318 4.642-1.964 6.525 2.92.404 4.468-5.107 6.397-1.436 1.513-3.318 8.201-1.891 9.059-6.585.089.954 3.15.129 0 2.665 4.052-1.427 5.132 4.299 6.963 4.299 1.035-.112-1.079-3.035 1.274-3.044.283.207.328.688.611.86l.937-1.075c.885 1.11-1.097 2.304-1.22 3.534 3.247 1.1 5.511-2.58 9.404-2.734l-.69.8 3.946.3-.23.267 3.22-1.496-.141 1.22c.752-.318.946-1.074 1.982-1.186l-.381 1.496c1.097-2.295 4.91-3.439 6.751-3.396l.327.688 4.424-2.906c2.247 1.72-3.079 3.49 1.539 2.51l-1.265 3.035c3.3-1.091 3.716.568 5.981-.404-.947-1.599-2.495-1.427-1.301-2.76 2.424 3.611 4.114-.773 6.627-2.114-1.248 0-2.088-.043-3.008 1.72-1.319-.095-.416-1.651-1.221-1.815l-1.929 1.668-.451-2.123-3.265 1.564c.292-2.458-2.928-.412-1.583-2.983-2.274.972-3.539-.86-5.619 1.582-1.459-1.539 2.451-1.72.885-2.029-9.015 1.72-18.234.997-27.524-.137l.947-1.084c-.947 1.084-2.168 1.943-2.875 2.76-1.496-2.029-7.556-4.763-9.83-1.1-.292-.215.195-.748.425-1.024-3.114.353-8.617-2.441-13.041-2.175-1.991 3.87-6.565-2.639-8.396 2.665l.947-1.074c1.451 1.522-2.256 3.645-2.911 4.935-1.133-3.508 0-2.666-1.389-5.907l1.734 1.264-.301-2.88c-5.821 7.222-10.342-3.654-13.987 1.608.221-.275.185-.748.415-1.015-2.273-1.719-3.999 1.909-5.733 2.837-.159-1.435 1.08-2.304 2.009-3.387-4.052-1.23-11.015 2.51-15.448.12-1.636 1.892.531 2.58-1.159 4.024a2.69 2.69 0 01-.318-.155 1.133 1.133 0 00-.292-.189c-.45-.3-.766-.755-.885-1.272.188-.08.388-.13.593-.146h-.602c.017-.278.114-.546.279-.772a1.52 1.52 0 01.659-.51c-3.831-3.722-12.935 1.97-18.8-1.47-3.185 2.08-1.257 3.052-6.087 4.376 1.159-1.358-1.035-4.728 1.84-4.831l.372-1.505c-4.769-.386-11.139-1.074-13.838 3.13-.079-3.147-.884-.62-2.654-2.356-.743.335.053.482.345.696-1.813 2.648-2.654-.171-3.91.224l.46-.542-3.468 1.892a3.181 3.181 0 01-.965-.85 3.082 3.082 0 01-.539-1.153v2.183c-1.85 0-.832-2.811-3.15-2.287l.451 1.651c-1.433-1.04-3.813 1.195-4.07-1.195-.053-.473.23-.275.752-.335-2.211-3.37-5.927.98-8.723-.62l.655 3.56c-2.769 1.075-1.664-.757-1.54-1.995-1.84 0-2.22-1.177-4.636-1.607-1.212.86-.646 1.298-1.053 2.312l-2.459-.86 1.177-1.375c-3.867 4.135-9.184-1.109-11.705 3.439-1.425-1.092 1.3-2.184.477-2.811-4.467-2.356-10.13 3.224-13.846.541-6.069-2.622-13.147-.266-19.915-2.071l.08.971-4.822-.86c-1.336 2.115-4.601 1.092-6.68 3.55.177-.756-.239-1.916.239-2.466-2.061.275-4.308 1.298-5.512 0l.699-.809c-4.547-.636-10.864-.773-13.271.998-1.557.206-1.504-1.505-1.902-2.665-2.654-.13-4.37.86-6.547 2.33a6.866 6.866 0 01-1.769-1.72l-1.027 2.321c-1.097-.335-.23-1.917-1.097-2.527-4.131 2.742-8.9.223-11.775.36l.38 1.187c-1.203.86-3.539-.748-2.07-1.908-5.662-1.419-8.458 3.627-16.155 2.94-1.044-4.239-6.954 1.195-8.06-3.525-3.265 1.186-5.309-.714-7.627 2.029-.07-.473-.353-.68.169-.757-1.283-1.72-5.583-.447-8.848.722l-.177-1.427c-1.185 3.087-6.821 2.175-7.962 5.253-.363-.679.619-1.298 1.088-1.857-1.699-2.914-2.982 1.401-5.176.73.168-.756-.469-1.633 0-2.191-7.281-3.345-17.854 2.244-27.347 0-2.654-.112.956 3.267-2.495 3.034-.999-1.564 1.69-3.163-.504-3.825-1.584 1.934-2.167 1.53-4.291 1.35.389-1.032 0-1.72 1.531-2.416-1.23-1.29-5.202 2.458-7.653-.112a2.46 2.46 0 01-.191 1.11 2.541 2.541 0 01-.667.919c-3.601 2.708-8.255-2.708-8.582-1.204 0 0-1.257.43-.168.757-1.319-.06-3.22-.507-2.893-2.02-.69.86-1.292 2.14-2.327 2.295l.557-1.797c-.602.387-1.291 1.522-1.876 1.72l.938 1.083c-1.521-1.479-4.423 2.115-4.423-1.298l.513-.078-2.76-1.513c-1.098 1.384-2.265 2.768-4.168 2.304-.743-3.533-4.839-.748-7.254-1.117L75.6.55c-1.885 1.72-6.724.972-5.848 1.582-1.832 0-4.318-.86-3.415-1.934-1.487.705-4.645.696-5.415 2.75L57.896 0c-1.77 4.402-6.016-1.547-6.193 3.112-1.672-.713-1.291-1.72-2.46-2.579-2.308 2.295-4.724 1.926-7.148 1.565l-.07-.482c-2.416-.37-5.247 2.003-8.636 2.261L32.673.361c-1.77.524-2.186 3.267-3.875 2.58-.398-.542 0-.732.424-.93-1.654.723-3.901-.154-5.167-1.022-2.53 2.579-4.503 1.659-6.732 4.444-2.026-3.103 2.955-1.427 1.22-4.298-3.653-1.635-7.35.155-11.341 1.72-.345-.663.089-1.222.248-1.978 0 0-8.015 8.597-6.467 11.967-.982 2.278-2.097 3.67 1.345 5.58 1.114-1.393 4.3-3.096 4.928-.508l.168-2.441c4.556-1.195.46 5.046 5.963 4.934l-1.168-.8c1.026-.163 1.849-1.719 3.017-.954.363.68-.38 1.032-.823 1.59l4.512-3.378c.14.579.133 1.182-.021 1.757a3.624 3.624 0 01-.864 1.545c4.176-.147-.884-4.488 4.23-3.568.973 1.049-.284 1.453-.947 2.312 2.389 2.072 3.963.13 6.387-1.22.045 1.719-.955 1.942-.353 2.656-1.47.61-2.584 1.59-4.424 1.72 1.416 1.143 7.149 1.89 7.326-.138a5.31 5.31 0 01-1.826.941 5.403 5.403 0 01-2.058.185c-.655-2.69 3.114-.688 4.016-3.172a6.026 6.026 0 00-2.45.258c-.195-1.058-.089-2.218 1.105-2.399-.469 1.41.142 1.505 1.027 1.522h.115a4.87 4.87 0 011.513.189 2.516 2.516 0 01-.15-.585l.46-.137-.16-.163-.283.085c-.033-.258 0-.52.096-.762a1.59 1.59 0 01.452-.63c.735-.353 1.372.524 2.407.37l-1.85-2.158c2.584-2.098 4.088 1.1 6.07 2.02a1.382 1.382 0 01-.348.505 1.433 1.433 0 01-.537.312c.646.275 1.292.627 1.964.937-2.486.533-5.21.601-6.644 1.83l.832.353a2.715 2.715 0 012.654-.043c-2.141.413 1.486 1.565-.788 2.235-3.114.697-5.83-1.186-7.555.645 2.946.25 6.9 1.324 8.113.516l-1.929-.103 4.424-2.175c.15.86 3.84-.464 3.742.86-1.504.214-2.866.18-4.043.3.274.585 3.999.379 5.565.585l-1.973-.524c3.539-1.05 8.069-.61 11.502-1.393-2.717 1.023 3.406.989 1.22 2.08-.884.705-2.291-.438-1.884-.111-.292 1.195 2.088.275 2.77 1.186.37-.782 3.883-1.143 1.84-2.098 1.123.56 3.627-.627 5.157.258-.433-1.427 2.902-.86 3.477-1.47.623.087 1.212.33 1.708.705-1.442.43-3.203.997-5.034 1.616-.726-.232-2.088-.275-1.69.052v.533c-3.654 1.238-7.326 2.519-9.192 3.07l.884-.706c-2.769 1.72-5.494-.163-8.334 1.118.124-.258.443-.353-.08-.422-3.468-.309-4.9 2.107-7.67.929l.363-.774c-.24.086-1.903.697-1.584 1.574 2.345-.25 2.796-.602 4.884-.327a7.685 7.685 0 01-4.123 1.23l-.177 1.366c-1.77 1.41-3.539-.74-5.308.662l2.043.963c-.11.062-.23.105-.354.129a3.422 3.422 0 001.973-.602 4.724 4.724 0 012.932.175 4.565 4.565 0 012.226 1.863c1.442.464-.557 1.719-.398 2.579 2.345-.25 2.239-1.771 4.583-2.012.61.19.398.464.115.602l1.575-.662c.08.421 4.087.8 1.69 1.72-.354-.044-1.009 0-1.513-.087 3.247 1.04 8.847 2.227 8.67 3.748 1.77.379 1.3-.378 4.132.13 1.336-1.067-.07-2.201 3.043-2.898l-2.433-.584a14.37 14.37 0 01-1.486.627l2.548-.086c-1.61.482-1.336 1.066-1.831 2.098-3.92 0-4.964-1.874-6.937-2.407 1.23-.8 3.327-.525 2.566-1.866 1.938 1.212 2.194-1.083 4.424 0l-.451.344c1.866-.988 2.096.275 3.636-.619-.115.258.08.421.274.585 3.327-.533-.99-.86 2.353-2.03 2.947.25.885 2.176 1.726 2.83-4.981 1.719.07 2.209-5.309 3.558 0 1.78 2.088 2.055 4.955 1.874-1.85-.782 1.238-2.579-1.221-3.86 4.29-.816 3.99-4.298 8.75-2.579l-.124.258 1.982-1.255 2.654.748c-1.708 1.848-3.76.86-5.096 1.96 3.264 1.926 4.424-1.77 8.254-1.564 3.15 2.2-3.928 1.203-3.928 2.983.77-.456 2.831.49 2.584 1.014-3.54-.722-2.186 1.083-6.14 0 1.946-.576-.284-.584.088-1.367-.575.62-4.3.86-6.919.508-.619 1.289 2.265 1.108 3.91 1.719 3.16-1.384 6.38 1.212 8.848-.396 3.398-.12.24 1.264.443 1.419 3.034.662 1.336-1.057 2.309-1.35 4.61-.92 5.087 1.608 8.36 1.72 2.752-1.72 9.379-1.015 14.023-.86-.566.61 0 1.1.319 1.72 2.796-2.4 1.769-1.428 5.308-2.915l-2.911-.911c2.345-.258 4.256-1.943 6.388-.576-2.822-2.27 3.805-1.59 5.539-2.339 2.388.86 4.813-.773 6.104.62l-.327.094 3.477.292-.442 2.132c2.379.86 5.308-.722 4.52-1.367 2.504.576 1.018.808 1.381 1.814-1.425.654-4.495 2.468-5.309.722.204.164.726.224.885 0-6.52-1.048-2.159 2.58-5.423 3.087 1.698.172 2.955 1.22 4.777.67a27.504 27.504 0 006.025-1.607c-2.389.945-3.601 0-5.459-.791 1.584.197 1.849-1.006 3.194-.301l-.442.36 1.769-.747c.248 1.264 4.734.567 2.097 2.029 2.354-.267.814-1.135 2.955-1.565l-4.423-.498.088-1.35c1.548-.911 1.911.086 3.601 0l-.124-1.522 2.99 1.315c-.362-.997 1.947-.593 2.593-.782 1.654.61.557 2.94 3.397 1.633l-.204-.163a8.509 8.509 0 014.884-.37c-.124.258-.761.456-1.079.56 3.229.799 8.431-1.454 9.891.773-.274 1.195-1.61.49-1.69 1.848-4.972-1.822-3.539 2.184-9.378 1.075-.248-3.052-4.972 1.72-6.06-1.28 2.3.412 5.37-1.41 4.972-1.72a29.564 29.564 0 01-6.574-.138c1.292 1.006.885 2.682-.097 3.714 3.442-.86 9.661 1.298 14.518 1.608l-.53-1.84c4.202-1.281-.522 1.72 2.751 1.831l1.451-1.333.204.164 2.415-1.625c-1.69.069-.885 1.393-2.787.619-1.654-.61.08-1.358.566-2.399 1.133.56 5.167.198 2.654 1.41l4.424-1.805c0 .68-1.009.98-1.46 1.333l3.203-.301-.124.258c2.583-.8 6.193-.791 8.157-2.064-4.37-1.332 2.097-1.53 1.77-2.579 1.575.18 2.043 3.387-1.31 4.643-.884-1.066-3.194.3-4.892.378 2.185.67 2.866-.206 4.574-.284-1.212.86 2.265 1.083 2.229 1.763a2.25 2.25 0 01-.472.824 2.35 2.35 0 01-1.724.776 2.392 2.392 0 01-.953-.182c-3.274-.112-.328-1.72-1.301-1.384-.885-1.72-4.565.284-6.547-.215-.212-.163.443-.361.761-.464-1.707.077-5.308.069-5.574 1.272l4.282-.86c.929.387-1.327 1.084 0 1.788a6.588 6.588 0 013.407-.154l-.239.516c2.583.988 6.635.644 9.617.163.681-2.657 2.247-4.247 3.539-7.101 4.615-.07 9.231.143 13.819.636a3.002 3.002 0 01.195-1.616c1.336.696 3.804.155 3.724 1.513 1.443-1.341 5.521-2.381 4.751-3.705l.54-.086c1.708 1.47 4.282 2.63 8.927 2.94.885 0 1.044-.86.832-2.167.895.417 1.854.69 2.84.809-.717.584-1.186 1.358-2.548 1.435l7.21.464-.557.61 2.84-.859c-1.602.344-4.079 0-3.468-1.375 3.22-.998 5.051.438 7.785-1.316 0 2.459.885 2.837 0 4.247a.518.518 0 01-.318-.129 9.515 9.515 0 01-4.857 3.155c5.989.8 4.423-.06 9.732.525.46 1.418-4.849 1.521-3.619 2.476l-4.946-.688c.841-.095.947-.421 1.345-.645-3.406 1.023-4.636-.275-7.202 1.358-1.619-.662 2.531-1.083.752-1.332 1.505-.258 2.982-1.857 3.708-2.958-3.893-.575-2.212 1.806-5.521 2.39l-2.477-1.246c-1.496.24.486.748.575 1.16-1.77.344-2.504-.558-3.884-.575.407.318 1.336.696 1.097 1.22-2.274-1.083-4.53-.378-6.636-2.398 1.212.963-1.406 2.441-2.38 2.75l4.353 1.995c5.53-.61 8.98.327 14.952-.636l-.354.782c9.405 2.416 7.804-3.782 15.846-3.851.23 1.934 3.724-.275 3.424 1.599-2.433-.12-1.938.61-1.239 1.505 1.407-.663 2.318-2.064 5.043-1.359-1 .989 1.389 1.797-1.274 2.184 3.689.412 5.706.223 7.582-1.479 6.007-1.668 1.77 2.106 7.777 1.11l-.885.73 3.716-.284-1.221-.954 4.424-1.17c2.654-1.082-1.106-1.211-.761-1.994l-.885 1.402c-1.769-.327-4.282.91-4.654-.087 2.902-.223 2.203-1.323 3.354-1.89l-2.761.584-.885-1.049c-2.751 0-4.866-.25-6.502.937 1.141.533 1.849-1.032 2.866-.232-1.336 1.72-4.742 1.934-8.051 2.527-.088-.42-1.141-.533-.69-.86.062-.163.646-.145.964-.077-.247-.782 1.593-1.29-1.521-1.72 1.115-1.246 3.441-3.309 3.353-3.739 1.917-.39 3.896-.39 5.813 0l-.116.258c1.575.18 4.911-1.117 5.185.146.956-.31 3.619-.705.885-1.41l4.476-.748c-.734 2.253 3.477 2.691-.946 4.548.15 0 1.769-.318 4.423-.74-.044.07-.07.147-.123.224a.754.754 0 00-.337.396c-.53-.06-.884.043-.946-.387-1.557 1.616.752 2.003 3.185 2.123l.575-1.272c2.105.705 3.371 1.84 6.193 1.273l6.529-4.763 1.92-.31c.885.731 3.742.164 2.654 1.642.292.585-.672.86-1.937.62-.195-.155.124-.259-.08-.422-.354.791-.495 1.72 1.044 2.58-1.575-.164-1.769-.319-2.858.248l1.575.164c-2.335.3-5.91 2.106-5.857 3.207.708-1.565 2.221 0 3.486.232-.964.31-3.017 1.186-1.442 1.35.557-.628 4.84-1.53 1.77-2.133 1.282-.412 3.008-1.177 4.467-.748-1.707.774-.575 1.299-1.044 2.347a3.766 3.766 0 001.136-1.111c.293-.445.485-.945.563-1.468 4.379 1.273 6.193 4.058 11.086 2.923.646-.206-2.982.516-2.522-.533 3.583-1.814 4.689 1.857 7.804 1.075l-.885-1.72a37.08 37.08 0 014.477-.765c.3.585 3.636 1.72 1.176 2.313 5.309.963 4.698-3.748 10.82-3.258a22.82 22.82 0 00-5.388-.284c2.372-.98.363-.774.611-1.977 1.433 1.1 6.025.077 2.911 1.53 1.893.06 5.697.163 6.573-.568l-1.672-.575c2.752 0 5.441-1.092 6.547-2.348-3.406.198-3.265 2.399-7.6 2.236-4.706-1.152 1.106-1.255-1.999-2.932l-3.327 1.298 1.575.164c-.487 1.719-5.176-.13-4.733 1.968-3.415-1.59-4.424-.593-8.157-2.08-.885.73.486.74 1.548.86-1.902-.06-1.982 1.986-4.477.765-1.256-.258-.38 1.47 1.849 1.427-1.902-.06-3.716.292-5.821.077l2.026 1.126h-2.221l1.876.748c-4.238.241-9.104 0-11.351-1.72 3.653-1.4 9.732-.859 11.873-3.137-.823-.636-2.929 1.608-4.008-.284l-1.106 1.247c-1.292.421-4.273.928-4.539-.327 3.539-.937 4.424-2.046 6.193-3.138 0-.266.337-.404.885-.464h.053a25.485 25.485 0 003.743-.327c1.247.267.389.989.265 1.255 4.273 1.54 7.184-2.579 11.696-1.521.053 1.1 3.539 1.324 2.46 1.9 2.654.275 4.06-1.092 5.777-1.866.389.989 4.008.258 2.698 1.359l2.389-1.72c1.663.585 5.087-.3 5.68.86 1.814-.37.487-1.72 3.008-1.204-.115.267.089.421-.442.361 1.141.533 3.901.542 5.087-.3-1.77-.319-.407-.319-2.522-.525.045-.68 2.389-1.668 4.796-.86-3.238 1.72 2.583 1.625 1.07 2.58 5.176.12 8.113-2.184 12.386-3.818 5.088-.326 11.413.293 15.368-1.229l-.522-.052 2.354-.997c1.38 0 .053 1.78 2.176 1.298-.69 1.574-3.707.327-5.866 1.479 3.76 1.462-3.433 1.582-.938 2.777 1.381-3.147 7.963-.585 11.183-2.321 3.159.31-1.424 1.358.142 1.521l.955-.954c1.248.267 1.673.576 1.646 1.255a18.3 18.3 0 009.989-1.513c-3.619.748 1.203-1.522-2.38-1.453 1.07-.584 3.406-.902 5.618-.971-2.124.481 2.902 2.183-1.849 1.72.69 1.564 2.335-.328 4.423-.13-1.07.585-3.45 1.59-3.229 1.72 3.132-2.167 10.219 1.092 11.422-.43 2.274-1.427 5.795-2.58 8.582-3.972 2.822 1.083 5.91.267 9.068.559l-.548.627c1.769.301 4.547-.404 7.184-.163l.61 1.152a49.139 49.139 0 017.963-.645c0-.679-2.531-.498-1.345-1.34-1.371 0-2.539.171-2.026.902-1.38 0-1.46-1.083-2.592-1.6l5.308-.859c.425.077.584.172.61.267l.363-1.264c1.38 0 1.77.292 1.566.86 2.973-.542 3.973-2.218 7.14-1.943-1.309 1.117-2.177 1.856-4.424 1.925l3.601-.086c-1.619 1.23-7.847 1.058-6.742 2.94 3.938-.86 9.679-2.132 13.094-3.748 1.876 1.401 4.557-.412 7.6.138.416.3 1.363.662.814 1.29l-.884.068c4.025.215 8.581-.86 12.094-2.08l1.99 1.384c6.114.395-1.212-2.287 5.034-2.837 1.549 1.496 7.698.516 7.963 1.77 1.168-.171 1.699-.128 1.823-1.082-1.062-.086-3.389.266-2.088-.86 2.114-.507 3.158.266 4.848.137-.106.267-1.301 1.118-.655.86 4.141-.74 11.856-.911 15.713-3.576-1.504.335-1.672 1.28-3.636.834zM342.036 13.042c.074.34.118.684.133 1.031l-1.266.413c.23-.43.487-.86.77-1.307l.363-.137zm-7.016 4.857h.168v.052l-.168-.052zm3.645-.043a12.89 12.89 0 002.221-3.336l1.265-.275c0 1.015-.522 1.72-1.433 3.164-.176.125-.336.27-.478.43a3.486 3.486 0 00-1.575.017zm8.316.25a.805.805 0 000-.121c1.639-.18 3.29-.234 4.937-.163.052.083.1.169.142.257-1.708.026-3.592-.025-5.079.026zm-84.801.455c-.045.183-.066.37-.062.559a13.487 13.487 0 01-.699-.215c.203-.2.473-.322.761-.344zm5.185 1.28c.235-.141.433-.335.578-.565.144-.23.231-.49.253-.758 1.097 1.066.611 1.487.053 1.951l-.389.06c-.867-.008-.672-.335-.495-.687zm-24.852-3.584a.886.886 0 00-.466.325.837.837 0 00-.162.535 5.26 5.26 0 01-1.823-.284c1.106-.903-.619-1.075-1.203-1.505 1.389-.051 2.955.035 3.654.929zm-5.963-1.642c-.637.748.247.74 1.539.705l-3.742 1.943a29.316 29.316 0 00-2.504-.18c1.106-1.488 2.38-2.941 4.707-2.468zm-10.299 3.387l-.53-.129c.053-.129.106-.266.15-.404l.38.533zm-2.3 1.831h-.053.053zm.619-2.235l-.407-.077.39-.12c.01.065.016.13.017.197zm-8.272-1.264c.796.146 2.009-.748 2.654.13.183.091.348.213.487.36a24.722 24.722 0 00-3.778.954v-.12c.034-.503.262-.976.637-1.324zm-4.848 2.63l-.779 1.995a1.491 1.491 0 00-.548-.816l-1.327 1.083h-.089l-.522-.163v.077c-.716-.232-.504-.86.195-.86-1.814.344-1.371 0-2.053.86-.735.033-1.472.007-2.203-.077a.972.972 0 000-.55 2.653 2.653 0 00-.239.498c-.645-.137-.76-.387-.725-.68a5.49 5.49 0 00.646-.592c.129.248.236.507.318.773 1.115-1.814 3.973-1.16 7.282-1.78a12.34 12.34 0 00-2.009.56 14.76 14.76 0 012.053-.327zm-.956 2.443l-.123.318-.257-.078c.147-.054.282-.136.398-.24h-.018zm-11.43-3.706a13.712 13.712 0 00-2.221 1.9c4.185-1.307.451 1.41 2.654 2.072a1.48 1.48 0 01-1.04.363 1.481 1.481 0 01-1.004-.449c-.309.396-2.424.645-2.149 1.384a3.173 3.173 0 00-1.487-1.668c.735-.722 2.212-1.797 3.451-2.76l.61-.48a3.818 3.818 0 011.186-.362zm-3.3.748l-.637.903c-.177-.439-.31-.843.663-.903h-.026zm.079-.12c-.106 0-.221-.06-.327-.103l.513-.155-.186.258zm-1.53.266c.309.473.212.912-1.177 1.255.47.13.949.224 1.433.284l-.814 1.135a14.035 14.035 0 00-1.92-.937l-.115-.954 2.593-.783zM163.675 15.2c6.662.791 4.529.594 10.147-2.845 1.717 1.9.602 3.439-.3 4.78-.832.069-1.646.12-2.407.146l1.548-.946c-5.848-2.871-5.193 2.27-8.617 3.095 1.425-.541.885-.86-.159-1.195.318-.903-.266-2.2-.212-3.035zm-67.098 2.219c-.283-.585.814-1.127 1.964-1.264h.124c-.071.911-.46 1.59-1.319 1.607l-.77-.343zm27.931 4.418c.317.072.63.161.937.267-.38.043-.769.077-1.176.103a.857.857 0 00.256-.37h-.017zm-16.757-1.77h-.531l.354-.319c.079.098.144.205.195.318h-.018zM84.58 14.614c.15.095.279.218.38.36a3.354 3.354 0 01-1.31-.248 2.16 2.16 0 01.93-.112zm-35.92 3.68c-.77.446-2.778.593-2.707 1.014a2.298 2.298 0 012.211 0 13.896 13.896 0 01-4.264.189c.282-.134.552-.292.805-.473l-.23.275c4.954-2.21-1.557-3.67 4.211-5.751.885.215.752 1.848.814 3.232a6.367 6.367 0 00-2.433.198c1.266.31-.354.782 1.593 1.315zm6.485.98c-1.955.756-2.778-.465-3.91-.663a5.37 5.37 0 00.964-.464c-2.088-1.883 2.804-4.565 5.308-5.425l-2.566 4.299a9.475 9.475 0 002.416-.688 3.182 3.182 0 00-.761.56l.53.068c-1.096.498-5.104 1.9-1.963 2.312h-.018zm1.77-1.42c-.284-.799.442-.773 1.406-.919l.07.258c.008-.1.008-.2 0-.3.237-.034.47-.083.7-.147a1.409 1.409 0 00-.377-.404 1.453 1.453 0 00-.508-.232l-.115-.86c-.212-3.62 3.238.49 5.043-1.72-1.15 2.58-1.77 3.534-2.088 4.566l-2.353.068.884-.704a9.759 9.759 0 01-2.627.395h-.036zm15.181.783c2-1.616 3.902-3.542 5.495-4.986a8.896 8.896 0 00-.275 3.697c-.371.705-.955 1.29-2.698 1.263-.828.062-1.658.07-2.486.026h-.036zm13.607-3.258c.885-2.175 2.168-.396 3.468-1.083a1.876 1.876 0 00-.59.64c-.144.255-.223.54-.232.83a8.11 8.11 0 01-2.61-.387h-.036zm24.277 15.346a.748.748 0 01.452-.361 58.818 58.818 0 00-6.786.257l.884-.704c-.495-1.032-2.831.043-5.157.103-.7.567-2.212 1.117-3.124.378l.372-.782c-.398-.697-2.707-.766-5.308-.86a24.57 24.57 0 001.07-.808 4.962 4.962 0 012.389-1.11 3.065 3.065 0 01-1.99-.343l4.618-2.717c-2.3-.421-2.655 2.132-5.495 1.642.195-1.47.089-2.295 2.318-3.284.44.4 1.003.647 1.602.705-.098.207-.098.421.327.645 2.017-1.934 2.54 1.72 4.68-.507 2.539-.104 1.77 1.031 2.531 1.676-2.531.095 1.167 1.65-2.018 1.952 2.575.997 1.903-1.72 4.079-1.015l.31 1.72c1.981.515 6.255 1.461 8.962.42-2.256-1.1 1.336-1.065.973-2.071-.407 1.462-3.539.387-3.468-.292a29.535 29.535 0 017.078-.267l-3.167-.86c1.212-.86 5.529-2.338 5.653-2.579.145.076.296.142.451.198l-.398.482c.193-.168.415-.302.655-.396 1.256.395 2.751.413 3.326 1.178l-2.503 1.195-.885-1.075-1.451 1.333c1.61.507 5.016 1.461 5.733 2.648-3.778-.198-9.591.601-16.677 3.499h-.036zm18.305-9.096c-.062-.23-.1-.467-.115-.705.885-.361 1.673-.903 2.141-.989a1.745 1.745 0 01-.185-1.35l2.928-1.031v.327c-.796.206-.557.584-.318.98-.045-.198.132-.301.398-.37l.186 1.47a43.32 43.32 0 01-5.035 1.668zm72.548 11.683l-.239-1.255c-5.582-.498-9.564 2.734-15.341 2.055.805-1.135 2.99-.473 2.654-1.049-3.477-.275-3.017 2.931-6.414 1.298 4.884-.387-3.043-.628 1.362-1.72-6.131 1.883-12.651-.79-16.685-.446 1.008.808-1.673 1.178-1.77 1.444-1.07-.112-.725-.971.159-.971-2.07-.714-2.477-1.763-2.123-2.769l4.132-.12c-1.372-.353-1.673-1.212-3.442-1.393h.204a2.56 2.56 0 00-1.558.258c-.725.43-.584.61-.592 1.204-1.363.808-3.07 1.805-5.247 3.017l.124-.258-4.565.275.557-.61-2.654 1.04c.071-1.358-.823-.645-.655-1.582-1.663-2.39-5.972.92-9.608-.197l.558-.62c-1.982 1.273-6.866-.137-10.007-.507l.115-.266c1.929-.516 2.309-1.307 1.434-1.943.663-.275 1.707-.447 2.326-.756 1.053.128 4.035-.336 4.274.928-2.212 0-2.009.163-1 .963 2.176-1.1 6.246-.335 6.051-2.278 3.07-.043.929.387 3.106 1.057.283.585-.487 1.04-1.256 1.496l8.918-.714c.407-1.452-5.725-1.375-2.655-3.198.761-.455.673-2.656 3.707-2.011 0 .197-.23.335-.53.43 1.38-.258 1.61.266 3.105.558.442 1.427-1.858 1.015-2.858 1.986.973-.292 2.053-.86 3.115-.722l-.248.524 3.194-.309c1.318-1.075-2.424-.155-2.593-.989l2.053-.86c2.345-.266 8.591-.636 10.696 1.393 2.708.723 1.531-.92 2.212-1.796 1.646-1.178 3.159.37 4.76-.13 0-1.1 1.858-1.014 1.929-2.372l2.654.31c1.477-2.02-3.15-.37-3.84-1.273-1.389-1.805 1.938-.593 1.035-1.66-2.008.181-2.167 1.118-3.14 1.41a1.82 1.82 0 01-1.469-.326c.174-.2.366-.384.575-.55 2.123.215 1.194-1.548 3.539-1.273l.08.422c.053-.997 2.052-.817 3.68-.86.734.258 1.531.507 2.353.782-.389.765-3.114 1.11-3.052 1.419l3.539-.413c-1.531.912 0 1.78-2.044 2.63 2.141-.429 2.389.86 4.424 0-2.327 2.056 2.875 1.566 3.123 2.838-2.256.481-6.246-1.298-6.388-1.72-.363.293-2.911.078-3.946-.42l-1.681 1.865c1.894.077 4.424-.722 3.743.86l2.583-.8c-2.654 2.467-2.53 2.373-4.945 3.439 4.954 2.029 8.847-2.15 12.908-.318l-.637.189c8.086-.473 9.988 2.063 11.714 4.952l-3.513.412zm9.458-9.19c-4.601-.8-4.167 3.086-8.573 2.45-.885-1.72 3.813-2.304 6.511-3.361-.884-.697-.194-.937.691-1.178 1.282.972 3.3-1.427 5.069-1.264a2.57 2.57 0 00.866-.633c.24-.268.418-.583.523-.923 1.289.383 2.635.552 3.981.499-.283.627-.628 1.22-.84 1.66.311-.586.669-1.147 1.07-1.677a18.71 18.71 0 002.566-.379c-2.521 1.9-4.335 2.244-7.078 3.99-1.035-.13-1.442-.44-1.521-.86-.885.722-1.151 1.917-2.778 2.415l-.487-.739zm29.983.215l1.788 1.453c-.885.043-2.495 1.23-2.425-.129 0 .68-1.353 1.77 1.106 1.22l-1.867 1.007c.103.16.243.295.407.395l-1.663.19c-.69-.457-1.955-.405-3.034-1.47-.08-.422 1.079-.568 1.769-.766a6.363 6.363 0 00-4.123-.043c2.654.284 1.221.954 1.77 2.115-1.611.507-4.238.215-5.203.524-2.229-.49-4.052-1.805-2.574-2.837-1.425.55-2.92 0-4.424 1.221 2.805-1.324.062 2.88 3.645 1.092 1.062 1.908-3.025 1.169-4.883.413.964-.31.15-.946.389-1.462-2.778.636-1.469 2.02.513 2.51l-3.229 1.015h.318l-3.273.43c-.416-1.496-.505-2.494.407-2.124l-1.77-1.023 2.654-.387c-1.052-1.177-2.901-.172-4.237-.172-1.54-.86 3.539-1.1 5.228-2.966 1.354-.816 4.141.043 4.327.688.433-1.72 4.945-.903 6.715-1.891 4.423-.06 2.928 2.648 6.874 1.848l-1.46-1.117c3.539-.439 4.99-.688 8.848-.12.477 1.426-1.761-.336-2.637.386h.044zm2.566 3.568c.345-.645-.159-1.35 2.061-.997a.513.513 0 00.089.626.546.546 0 00.195.122l-2.345.249zm16.544 5.227c-3.777-.19-7.741-.628-11.678-.86l.496.74c-1.257-.276-2.257.713-2.955-.19-.071-.37 6.193-4.556 8.166-5.691 2.152-.264 4.334-.2 6.467.19l-.743.24c-11.413-.052-6.627 2.373.203 5.57h.044zm11.396-8.597c-2.513-.55-2.256 3.172-4.583 1.006-.363.997.239 1.4 1.141 1.599-.255.149-.439.39-.513.67l-2.583-.12c-.726-.13-1.372-.292-1.177-.705.186-1.625 3.247-1.72 4.158-3.112.717-.464 4.309-.49 3.504.662h.053zm7.175-5.623c-2.371.972 2.097.224.584 1.152-3.15-.335-1.929 3.078-6.83 1.72.159-.361-.168-1.118.593-1.616 1.203.068 2.282.085 2.831-.568.04.179.069.36.088.542 1.92-1.72 5.07-2.115 8.847-4.6l-1.327 2.107c.353.137.738.175 1.112.11a2.052 2.052 0 001.003-.48.516.516 0 01-.113.257.542.542 0 01-.232.164c-1.168.146-2.159 1.135-3.176.335l.557-.619c-3.274.576-.991 1.642-3.937 1.496zm3.247 9.956l.522-1.178c.253.133.473.32.643.546.17.226.285.486.339.76l-1.504-.128zm4.822.412a2.19 2.19 0 00.23-.043c.465-.033.932.028 1.371.18l-1.601-.137z"/><path d="M190.792 42.434l1.407-.661c-2.655-.31-3.637.67-4.725 1.229.124-.258-.079-.421-.486-.74-2.345.276-3.539 1.772-2.38 2.734l.778-.455 1.619 1.29c.628-2.477 5.406-1.04 8.034-2.133-1.77 1.084-3.371 3.362-5.689 1.849l.248 1.263c-2.018.172-3.646-1.109-4.769.13l2.353-.276v.68c1.664-.078 3.787-1.135 5.309-.37 1.353-.86 2.654-2.167 6.193-1.857l-.115.266c2.45-2.33 6.803 1.445 8.661.43 1.071-2.338-3.963-.997-5.184-1.96 1.521-.92 3.149.361 1.84-1.014 3.539-1.11 2.123 2.011 5.061.43l-1.664-.602c1.319-1.075 3.539-.422 4.84-1.496.194-1.625-2.23 0-4.742-.533l1.132-1.247-5.025 1.341c-1.487 2.03-.106 2.038-3.247 3.44a5.416 5.416 0 01-2.062-3.354c-1.132 1.238-4.114 1.728-7.387 1.617zM43.99 36.511l-.17.078a.745.745 0 00.17-.078zm140.555-13.565a.056.056 0 00-.029.01.054.054 0 00-.02.025.054.054 0 00-.005.03.06.06 0 00.01.03.112.112 0 00.044-.095zm-65.248 2.166l.256.069a1.179 1.179 0 00-.256-.07zm220.359.275a.527.527 0 00.096-.224l-.096.224zM32.408 31.946c0-1.1 3.389-.103 2.318-1.341-.778.447-2.672.344-2.318 1.341zm-.558-1.788l2.06-.197-1.442-.473c-.106.223-.062.602-.619.67zm41.431 12.406c.16.86 1.372 0 2.026-.155a2.888 2.888 0 00-2.026.155zm394.74-1.59c-4.237.31-8.148.507-14.73 1.152l14.73-1.152zm-344.044-1.549l-1.69-1.72c-3.963.749-5.742 2.176-9.785 2.503 5.291 1.745 7.043-2.562 11.475-.783zm-.646 1.978c-2.654.353-1.257 1.488-3.681 1.324l1.168 1.651c-.637-1.582 3.044-1.814 2.513-2.975zm15.111 2.097l1.982.517-1.539-.869-.443.353zM118.8 23.857c.319-.095 2.495.576 1.602-.49l-1.602.49zm33.957 19.309l-1.938.593.195.155 1.946-.585-.203-.163zm-20.002-24.304a.564.564 0 00.169.284 2.425 2.425 0 00-.169-.284zm24.293 8.528a6.067 6.067 0 00-.805.172c.278.005.554-.054.805-.172zm-3.106.043a2.376 2.376 0 002.265.13c-.805-.01-1.655-.482-2.265-.13zm11.219-.181c.788-.593.416-.507-.292 0-.814 0-.769.422-.884.68l-.505.464c.257-.146.478-.301.673-.43 1.256 0 2.026 0 1.769-.593l-.761-.12z"/><path d="M198.409 46.32c-2.654-.31-2.274 1.316-3.901 1.72 3.052-.172 3.671.258 7.316-.07-2.84-.49-3.565-.687-3.415-1.65zm-3.902 1.685c-.336 0-.663 0-1.062.078.356.027.714 0 1.062-.078zm11.519.414a4.042 4.042 0 01-1.769-.344c-.16.928 2.3.395 1.769.344zM192.322 29.47c1.062.13 1.911 1.866 2.831.465-.283-.576-2.097-.241-2.831-.465zm21.843 15.07c-.522-.06-1.327-.696-.982-1.47-.761.456-1.796 2.116.982 1.47zm-16.181-14.15l2.344-.275-.406-.326-1.938.601zm28.26-4.393c.258-.099.505-.225.734-.378-.262.092-.509.22-.734.378zm18.976 22.009l-1.407.67 1.77.19c-.513-.25.371-1.48-.363-.86zm.736.902h-.346a.585.585 0 00.346 0zM217.944 26.65c.398.319 3.026.62 2.858-.223a6.492 6.492 0 00-2.858.224zm37.434 19.06l-.213-.163-2.327.292 2.54-.129zm10.678 2.656l.407.318 1.928-.61-.407-.318-1.928.61zm87.189-6.971l.584-.19c-.204.035-.4.098-.584.19z"/><path d="M382.804 44.042a4.772 4.772 0 013.61-.06c.336-.79-1.017-1.47-.885-2.407-3.99-.937-4.538 2.837-8.431 2.313.133-.938 1.327-1.78-1.212-1.617l.637-.215c-4.052 1.118-3.203-2.08-5.724.533l.044-1.358c-1.832 1.049-5.424 1.11-7.45 1.324l.115-.267c-5.662 1.634-3.185.387-9.555 1.118l2.92-1.625c-2.212-.627-2.654 1.1-4.273.946.097-.224-.142-.946.637-1.333l-7.078 2.313c-1.84 1.049.389.997.681 1.573-.672.86-4.034.413-4.22-.421.442-.37 2.256-.74 1.115-1.255l-2.655 2.192c-3.538-1.315 2.655-2.88 4.38-3.662-3.601-.241-4.645 1.195-8.467 1.23.91.167 1.757.571 2.451 1.168.141 1.53-3.424.86-5.972 1.04 1.628.645.699 1.213-.478 1.823a.888.888 0 00-.451.24l-.398.216h.309a.843.843 0 00.266.653c2.132-.464 3.786.791 5.158.8-1.38-2.468 4.68-.628 6.405-1.41l1.991-.267h.752c.15.267-.053.61-1.195 1.11.947-.5 4.123-.362 3.822-1.153l7.238-.12c.229.095.438.229.619.395.248-.154.292-.283.256-.412l31.523-.602c-1.557-.172-2.91-.714-4.521-.972 2.371-1.685-2.645-.266-1.964-1.83zm-47.244-.713c.531 0 .982.043 1.424 0a5.107 5.107 0 00-1.424 0z"/><path d="M391.493 46.785l-2.212.052a8.035 8.035 0 002.212-.052zm-61.649-.482l-3.928.146c1.354.697-1 .997-1.221 1.522l4.804-.078c-.026-.524.443-1.109.345-1.59zm1.045 2.562c.304-.443.73-.795 1.23-1.014l-2.654.043c.061.395.353.748 1.424.971zm1.335-28.422l-2.123.473.849-.06 1.274-.413zm11.182 2.631c-1.026-.782-2.937-.155-3.539.052 2.177-.052 1.221.258 3.539-.052zm64.357 18.08l1.052-.103a4.425 4.425 0 00-1.052.103z"/><path d="M67.5 10h364.902v21.399S18.306 39.402 22.127 27.333C25.947 15.264 67.5 10 67.5 10zm352.817 31.72c-3.371.07-8.299-.73-9.122.723.044-.25 0-.533-.504-.67l-2.053 1.581 2 .456c-2.062 1.582-8.848 1.35-10.069.412 3.831-.593 1.876-2.415 7.238-1.495-.248-.473-1.239-1.29-.045-1.574-6.255.654-11.89-.103-18.358 1.608 5.14 1.444-3.326 1.332-1.69 3.258l2.77-.696-.222.524 3.389-.223c-.717-.86-1.239-.937-1.106-1.883 4.539.292 1.451 1.092 4.795 2.227l5.061-.258-.407.292a1.033 1.033 0 00.761-.31l17.049-.86c3.096-.824-1.752-1.675.513-3.111zm31.955-1.04l-.043.173c.112-.095.147-.164.043-.172zm-2.768.706l.664-.86-3.017 1.9 4.76-.24.318-1.298c-.416.3-2.07.988-2.725.498zm-5.68-.8l-.194 2.992c2.45-.602 2.282-2.115.884-2.785 2.248-.748 1.23 1.616 2.752 0-.044-1.118-2.813-.387-3.442-.207zm-18.367 2.562l.681-.645-1.708-.138 1.027.783zm.681-.644l1.69.137a2.945 2.945 0 00-.531-1.238l-1.159 1.1zm8.617.67l-2.477-.19c.821.116 1.648.18 2.477.19zm-4.361-.335l1.885.146a47.153 47.153 0 01-1.947-.344l.062.198z"/><path d="M430.917 44.463l-.522-1.624-2.566-.198c.301 1.057.646 2.166 3.088 1.822zM368.436 16.24c-.44.082-.844.292-1.159.602a6.71 6.71 0 001.159-.602zm29.515 7.53l-2.876.49c.673.052.885.474 1.204.93.194-.353 2.088-.818 1.672-1.42zm-4.14.706l1.265-.215a3.299 3.299 0 00-1.265.215z"/><path d="M396.422 25.404a1.75 1.75 0 00-.143-.215c-.035.069-.026.146.143.215zm42.881 18.054c0 .67 1.257.24 1.894 0a4.363 4.363 0 00-1.894 0zm49.554-3.258a1.847 1.847 0 00-1.15-.508l1.15.507zm16.065-19.74a.575.575 0 00-.22.353.635.635 0 01.22-.352zm5.505-.936c-1.505.111-4.654.094-5.504.937.761-.585 3.177.223 4.017-.654l-.106.267 1.593-.55zm5.094-7.634l-2.698 1.977 3.114-.327-.416-1.65zm-33.565 4.995l4.423-2.897c.505 2.579 3.362 2.579 5.91 1.805l-2.866.052c.752-.319.345-1.978 1.097-2.296 4.317 1.487 5.574-2.037 9.511.946l-.248.258 3.256-1.556c.991.43.54 1.625.203 2.08 2.893-1.264 5.105-2.579 8.954-2.313-2.796-4.797-8.6 3.328-11.387-1.47l.239-.266c-3.795 1.608-8.007-1.573-11.829-.447-2.441 1.71-7.042 2.682-7.263 6.104zm21.311-1.608l-.256.112c.018.129.124.086.256-.112zM349.159 3.851l-.177.74c.239-.293.487-.533.177-.74zm46.916 10.601l-.221-.095c-.337 1.032-.169.774.221.095zM92.684 2.416l-.929-1.075c.257 1.006.558 1.238.93 1.075zM37.848 18.311a5.22 5.22 0 00-1.698-.438c.194.245.465.42.772.5.308.079.633.057.926-.062zM29.31 1.926a1.65 1.65 0 00.62-.404 2.386 2.386 0 01-.62.404zm3.512 18.406a2.075 2.075 0 00-1.079-.86c.073.232.214.436.406.59.192.153.426.247.673.27zm452.257-9.534a7.182 7.182 0 002.052-.284 2.727 2.727 0 00-2.052.284zM121.836 22.3c-.28.246-.513.537-.69.86l.69-.86zm180.53-19.532c.15-.163.301-.335.452-.524l-.452.524zm62.39 17.417a1.452 1.452 0 00-.69-.748c-.018.645.141 1.144.69.748z"/><path d="M16.862 31.695c13.127-1.952 24.94-8.457 33.269-18.32C25.819 7.43 5.785 8.969 16.862 31.696zm257.863-11.062c.39-.18.497-.318.497-.482-.177.15-.342.31-.497.482zm106.787-3.155l-.054-.482-1.406 1.625 1.46-1.143zm-15.014 1.771a5.686 5.686 0 012.194-1.47c-.557-.421-2.813.576-2.194 1.47z"/><path d="M41 30.365C30.09 29.695 13.264 22.613 20.475 14 4.573 19.072-17.06 37.542 41 30.365zm415-6.001c-2.297-.26-5.839-3.015-4.321-6.364-3.348 1.973-7.902 9.155 4.321 6.364z"/><path d="M423.364 8.962c6.778 4.106 14.139 16.94 5.031 23.956 12.97-.514 45.105-21.918-5.031-23.956z"/><path d="M460.092 11.794c-1.922 3.662-8.371 7.908-12.318 3.388.683 6.74 12.863 22.793 12.318-3.388z"/><path d="M462.82 30.167c-.023-4.136 3.675-10.914 9.283-8.778-3.77-5.628-22.063-14.079-9.283 8.778z"/></g><defs><clipPath id="clip0"><path fill="#fff" d="M0 0h537v50H0z"/></clipPath></defs></svg>